<svg xmlns="http://www.w3.org/2000/svg" xmlns:xlink="http://www.w3.org/1999/xlink" width="512" zoomAndPan="magnify" viewBox="0 0 384 383.999986" height="512" preserveAspectRatio="xMidYMid meet" version="1.0"><rect x="-38.4" width="460.8" fill="#ffffff" y="-38.399999" height="460.799983" fill-opacity="1"/><rect x="-38.4" width="460.8" fill="#ffffff" y="-38.399999" height="460.799983" fill-opacity="1"/><path fill="#ff9561" d="M 384.027344 192.015625 C 384.027344 195.15625 383.953125 198.296875 383.796875 201.4375 C 383.644531 204.574219 383.414062 207.707031 383.105469 210.835938 C 382.796875 213.960938 382.410156 217.082031 381.949219 220.1875 C 381.488281 223.296875 380.953125 226.394531 380.339844 229.476562 C 379.726562 232.558594 379.039062 235.621094 378.273438 238.671875 C 377.511719 241.71875 376.671875 244.746094 375.761719 247.753906 C 374.847656 250.761719 373.863281 253.742188 372.804688 256.703125 C 371.746094 259.660156 370.617188 262.59375 369.414062 265.496094 C 368.210938 268.398438 366.9375 271.269531 365.59375 274.113281 C 364.25 276.953125 362.835938 279.757812 361.355469 282.53125 C 359.875 285.300781 358.328125 288.035156 356.710938 290.730469 C 355.09375 293.425781 353.414062 296.078125 351.667969 298.691406 C 349.921875 301.304688 348.113281 303.875 346.242188 306.398438 C 344.371094 308.921875 342.4375 311.398438 340.445312 313.828125 C 338.449219 316.257812 336.398438 318.636719 334.289062 320.964844 C 332.175781 323.292969 330.011719 325.566406 327.789062 327.789062 C 325.566406 330.011719 323.292969 332.175781 320.964844 334.289062 C 318.636719 336.398438 316.257812 338.449219 313.828125 340.445312 C 311.398438 342.4375 308.921875 344.371094 306.398438 346.242188 C 303.875 348.113281 301.304688 349.921875 298.691406 351.667969 C 296.078125 353.414062 293.425781 355.09375 290.730469 356.710938 C 288.035156 358.328125 285.300781 359.875 282.53125 361.355469 C 279.757812 362.835938 276.953125 364.25 274.113281 365.59375 C 271.269531 366.9375 268.398438 368.210938 265.496094 369.414062 C 262.59375 370.617188 259.660156 371.746094 256.703125 372.804688 C 253.742188 373.863281 250.761719 374.847656 247.753906 375.761719 C 244.746094 376.671875 241.71875 377.511719 238.671875 378.273438 C 235.621094 379.039062 232.558594 379.726562 229.476562 380.339844 C 226.394531 380.953125 223.296875 381.488281 220.1875 381.949219 C 217.082031 382.410156 213.960938 382.796875 210.835938 383.105469 C 207.707031 383.414062 204.574219 383.644531 201.4375 383.796875 C 198.296875 383.953125 195.15625 384.027344 192.015625 384.027344 C 188.871094 384.027344 185.730469 383.953125 182.59375 383.796875 C 179.453125 383.644531 176.320312 383.414062 173.195312 383.105469 C 170.066406 382.796875 166.949219 382.410156 163.839844 381.949219 C 160.730469 381.488281 157.636719 380.953125 154.554688 380.339844 C 151.472656 379.726562 148.40625 379.039062 145.359375 378.273438 C 142.3125 377.511719 139.28125 376.671875 136.277344 375.761719 C 133.269531 374.847656 130.285156 373.863281 127.328125 372.804688 C 124.367188 371.746094 121.4375 370.617188 118.535156 369.414062 C 115.628906 368.210938 112.757812 366.9375 109.917969 365.59375 C 107.078125 364.25 104.269531 362.835938 101.5 361.355469 C 98.726562 359.875 95.996094 358.328125 93.300781 356.710938 C 90.605469 355.09375 87.949219 353.414062 85.335938 351.667969 C 82.722656 349.921875 80.15625 348.113281 77.632812 346.242188 C 75.109375 344.371094 72.632812 342.4375 70.203125 340.445312 C 67.773438 338.449219 65.394531 336.398438 63.066406 334.289062 C 60.738281 332.175781 58.460938 330.011719 56.238281 327.789062 C 54.019531 325.566406 51.851562 323.292969 49.742188 320.964844 C 47.628906 318.636719 45.578125 316.257812 43.585938 313.828125 C 41.589844 311.398438 39.660156 308.921875 37.785156 306.398438 C 35.914062 303.875 34.105469 301.304688 32.359375 298.691406 C 30.613281 296.078125 28.933594 293.425781 27.316406 290.730469 C 25.703125 288.035156 24.152344 285.300781 22.671875 282.53125 C 21.191406 279.757812 19.777344 276.953125 18.433594 274.113281 C 17.09375 271.269531 15.820312 268.398438 14.617188 265.496094 C 13.414062 262.59375 12.28125 259.660156 11.222656 256.703125 C 10.164062 253.742188 9.179688 250.761719 8.269531 247.753906 C 7.355469 244.746094 6.519531 241.71875 5.753906 238.671875 C 4.992188 235.621094 4.300781 232.558594 3.691406 229.476562 C 3.078125 226.394531 2.539062 223.296875 2.078125 220.1875 C 1.617188 217.082031 1.234375 213.960938 0.925781 210.835938 C 0.617188 207.707031 0.386719 204.574219 0.230469 201.4375 C 0.078125 198.296875 0 195.15625 0 192.015625 C 0 188.871094 0.078125 185.730469 0.230469 182.59375 C 0.386719 179.453125 0.617188 176.320312 0.925781 173.195312 C 1.234375 170.066406 1.617188 166.949219 2.078125 163.839844 C 2.539062 160.730469 3.078125 157.636719 3.691406 154.554688 C 4.300781 151.472656 4.992188 148.40625 5.753906 145.359375 C 6.519531 142.3125 7.355469 139.28125 8.269531 136.277344 C 9.179688 133.269531 10.164062 130.285156 11.222656 127.328125 C 12.28125 124.367188 13.414062 121.4375 14.617188 118.535156 C 15.820312 115.628906 17.09375 112.757812 18.433594 109.917969 C 19.777344 107.078125 21.191406 104.269531 22.671875 101.5 C 24.152344 98.726562 25.703125 95.996094 27.316406 93.300781 C 28.933594 90.605469 30.613281 87.949219 32.359375 85.335938 C 34.105469 82.722656 35.914062 80.15625 37.785156 77.632812 C 39.660156 75.109375 41.589844 72.632812 43.585938 70.203125 C 45.578125 67.773438 47.628906 65.394531 49.742188 63.066406 C 51.851562 60.738281 54.019531 58.460938 56.238281 56.238281 C 58.460938 54.019531 60.738281 51.851562 63.066406 49.742188 C 65.394531 47.628906 67.773438 45.578125 70.203125 43.585938 C 72.632812 41.589844 75.109375 39.660156 77.632812 37.785156 C 80.15625 35.914062 82.722656 34.105469 85.335938 32.359375 C 87.949219 30.613281 90.605469 28.933594 93.300781 27.316406 C 95.996094 25.703125 98.726562 24.152344 101.5 22.671875 C 104.269531 21.191406 107.078125 19.777344 109.917969 18.433594 C 112.757812 17.09375 115.628906 15.820312 118.535156 14.617188 C 121.4375 13.414062 124.367188 12.28125 127.328125 11.222656 C 130.285156 10.164062 133.269531 9.179688 136.277344 8.269531 C 139.28125 7.355469 142.3125 6.519531 145.359375 5.753906 C 148.40625 4.992188 151.472656 4.300781 154.554688 3.691406 C 157.636719 3.078125 160.730469 2.539062 163.839844 2.078125 C 166.949219 1.617188 170.066406 1.234375 173.195312 0.925781 C 176.320312 0.617188 179.453125 0.386719 182.59375 0.230469 C 185.730469 0.078125 188.871094 0 192.015625 0 C 195.15625 0 198.296875 0.078125 201.4375 0.230469 C 204.574219 0.386719 207.707031 0.617188 210.835938 0.925781 C 213.960938 1.234375 217.082031 1.617188 220.1875 2.078125 C 223.296875 2.539062 226.394531 3.078125 229.476562 3.691406 C 232.558594 4.300781 235.621094 4.992188 238.671875 5.753906 C 241.71875 6.519531 244.746094 7.355469 247.753906 8.269531 C 250.761719 9.179688 253.742188 10.164062 256.703125 11.222656 C 259.660156 12.28125 262.59375 13.414062 265.496094 14.617188 C 268.398438 15.820312 271.269531 17.09375 274.113281 18.433594 C 276.953125 19.777344 279.757812 21.191406 282.53125 22.671875 C 285.300781 24.152344 288.035156 25.703125 290.730469 27.316406 C 293.425781 28.933594 296.078125 30.613281 298.691406 32.359375 C 301.304688 34.105469 303.875 35.914062 306.398438 37.785156 C 308.921875 39.660156 311.398438 41.589844 313.828125 43.585938 C 316.257812 45.578125 318.636719 47.628906 320.964844 49.742188 C 323.292969 51.851562 325.566406 54.019531 327.789062 56.238281 C 330.011719 58.460938 332.175781 60.738281 334.289062 63.066406 C 336.398438 65.394531 338.449219 67.773438 340.445312 70.203125 C 342.4375 72.632812 344.371094 75.109375 346.242188 77.632812 C 348.113281 80.15625 349.921875 82.722656 351.667969 85.335938 C 353.414062 87.949219 355.09375 90.605469 356.710938 93.300781 C 358.328125 95.996094 359.875 98.726562 361.355469 101.5 C 362.835938 104.269531 364.25 107.078125 365.59375 109.917969 C 366.9375 112.757812 368.210938 115.628906 369.414062 118.535156 C 370.617188 121.4375 371.746094 124.367188 372.804688 127.328125 C 373.863281 130.285156 374.847656 133.269531 375.761719 136.277344 C 376.671875 139.28125 377.511719 142.3125 378.273438 145.359375 C 379.039062 148.40625 379.726562 151.472656 380.339844 154.554688 C 380.953125 157.636719 381.488281 160.730469 381.949219 163.839844 C 382.410156 166.949219 382.796875 170.066406 383.105469 173.195312 C 383.414062 176.320312 383.644531 179.453125 383.796875 182.59375 C 383.953125 185.730469 384.027344 188.871094 384.027344 192.015625 Z M 384.027344 192.015625 " fill-opacity="1" fill-rule="nonzero"/><path fill="#002c5c" d="M 241.136719 84.414062 C 231.394531 47.015625 120.285156 32.210938 105.496094 121.320312 C 90.707031 210.429688 38.394531 284.75 156.359375 302.789062 C 274.324219 320.824219 299.578125 277.175781 292.363281 219.816406 C 285.148438 162.457031 271.800781 81.046875 241.136719 84.414062 Z M 241.136719 84.414062 " fill-opacity="1" fill-rule="nonzero"/><path fill="#00669b" d="M 329.867188 325.796875 C 327.636719 328.09375 325.347656 330.335938 323.003906 332.519531 C 320.660156 334.703125 318.265625 336.828125 315.816406 338.894531 C 313.363281 340.957031 310.863281 342.957031 308.316406 344.898438 C 305.765625 346.835938 303.167969 348.710938 300.523438 350.519531 C 297.878906 352.332031 295.191406 354.074219 292.460938 355.746094 C 289.730469 357.421875 286.960938 359.027344 284.148438 360.5625 C 281.335938 362.101562 278.488281 363.566406 275.605469 364.960938 C 272.71875 366.351562 269.800781 367.675781 266.851562 368.921875 C 263.902344 370.167969 260.921875 371.34375 257.910156 372.441406 C 254.902344 373.539062 251.867188 374.5625 248.808594 375.511719 C 245.746094 376.457031 242.664062 377.328125 239.558594 378.121094 C 236.457031 378.914062 233.335938 379.628906 230.195312 380.265625 C 227.054688 380.902344 223.902344 381.460938 220.734375 381.9375 C 217.566406 382.417969 214.386719 382.816406 211.199219 383.136719 C 208.011719 383.457031 204.820312 383.695312 201.621094 383.855469 C 198.421875 384.015625 195.21875 384.097656 192.015625 384.097656 C 188.8125 384.097656 185.609375 384.015625 182.410156 383.855469 C 179.210938 383.695312 176.015625 383.457031 172.828125 383.136719 C 169.640625 382.816406 166.464844 382.417969 163.296875 381.9375 C 160.128906 381.460938 156.972656 380.902344 153.835938 380.265625 C 150.695312 379.628906 147.574219 378.914062 144.46875 378.121094 C 141.363281 377.328125 138.28125 376.457031 135.222656 375.511719 C 132.160156 374.5625 129.125 373.539062 126.117188 372.441406 C 123.109375 371.34375 120.128906 370.167969 117.175781 368.921875 C 114.226562 367.675781 111.308594 366.351562 108.425781 364.960938 C 105.539062 363.566406 102.691406 362.101562 99.878906 360.5625 C 97.070312 359.027344 94.296875 357.421875 91.566406 355.746094 C 88.835938 354.074219 86.148438 352.332031 83.503906 350.519531 C 80.863281 348.710938 78.265625 346.835938 75.714844 344.898438 C 73.164062 342.957031 70.664062 340.957031 68.214844 338.894531 C 65.765625 336.828125 63.367188 334.703125 61.023438 332.519531 C 58.679688 330.335938 56.394531 328.09375 54.160156 325.796875 C 55.582031 322.429688 57.125 319.121094 58.789062 315.871094 C 60.453125 312.621094 62.234375 309.433594 64.132812 306.3125 C 66.027344 303.191406 68.039062 300.144531 70.160156 297.167969 C 72.277344 294.195312 74.503906 291.304688 76.835938 288.492188 C 79.167969 285.679688 81.601562 282.957031 84.132812 280.324219 C 86.664062 277.691406 89.289062 275.15625 92.003906 272.714844 C 94.722656 270.273438 97.527344 267.9375 100.414062 265.699219 C 103.300781 263.464844 106.269531 261.335938 109.3125 259.320312 C 112.355469 257.300781 115.472656 255.394531 118.65625 253.605469 C 121.839844 251.816406 125.082031 250.144531 128.390625 248.589844 C 131.695312 247.039062 135.054688 245.609375 138.464844 244.300781 C 141.875 242.992188 145.328125 241.8125 148.828125 240.757812 C 152.324219 239.703125 155.855469 238.78125 159.417969 237.984375 C 162.984375 237.1875 166.574219 236.523438 170.1875 235.992188 C 173.800781 235.460938 177.429688 235.058594 181.070312 234.792969 C 184.714844 234.527344 188.363281 234.390625 192.015625 234.390625 C 195.667969 234.390625 199.316406 234.527344 202.957031 234.792969 C 206.601562 235.058594 210.230469 235.460938 213.84375 235.992188 C 217.457031 236.523438 221.042969 237.1875 224.609375 237.984375 C 228.175781 238.78125 231.707031 239.703125 235.203125 240.757812 C 238.699219 241.8125 242.152344 242.992188 245.566406 244.300781 C 248.976562 245.609375 252.332031 247.039062 255.640625 248.589844 C 258.945312 250.144531 262.191406 251.816406 265.375 253.605469 C 268.558594 255.394531 271.671875 257.300781 274.714844 259.320312 C 277.761719 261.335938 280.726562 263.464844 283.613281 265.699219 C 286.503906 267.9375 289.304688 270.273438 292.023438 272.714844 C 294.742188 275.15625 297.363281 277.691406 299.898438 280.324219 C 302.429688 282.957031 304.859375 285.679688 307.191406 288.492188 C 309.523438 291.304688 311.75 294.195312 313.871094 297.167969 C 315.992188 300.144531 318 303.191406 319.898438 306.3125 C 321.792969 309.433594 323.574219 312.621094 325.238281 315.871094 C 326.902344 319.121094 328.445312 322.429688 329.867188 325.796875 Z M 329.867188 325.796875 " fill-opacity="1" fill-rule="nonzero"/><path fill="#ff9561" d="M 191.9375 192.015625 C 192.824219 192.015625 193.707031 192.058594 194.589844 192.144531 C 195.46875 192.230469 196.34375 192.363281 197.214844 192.535156 C 198.082031 192.707031 198.941406 192.921875 199.789062 193.179688 C 200.636719 193.4375 201.46875 193.734375 202.285156 194.074219 C 203.105469 194.410156 203.902344 194.789062 204.683594 195.207031 C 205.464844 195.625 206.222656 196.078125 206.960938 196.570312 C 207.695312 197.0625 208.40625 197.589844 209.089844 198.152344 C 209.777344 198.714844 210.429688 199.308594 211.058594 199.933594 C 211.683594 200.558594 212.277344 201.214844 212.839844 201.898438 C 213.402344 202.582031 213.925781 203.292969 214.417969 204.03125 C 214.910156 204.765625 215.367188 205.527344 215.785156 206.304688 C 216.199219 207.085938 216.578125 207.886719 216.917969 208.703125 C 217.257812 209.523438 217.554688 210.355469 217.8125 211.203125 C 218.070312 212.050781 218.285156 212.910156 218.457031 213.777344 C 218.628906 214.644531 218.757812 215.519531 218.847656 216.402344 C 218.933594 217.28125 218.976562 218.164062 218.976562 219.050781 L 218.976562 242.898438 C 218.976562 243.785156 218.933594 244.667969 218.847656 245.550781 C 218.757812 246.429688 218.628906 247.304688 218.457031 248.171875 C 218.285156 249.042969 218.070312 249.898438 217.8125 250.746094 C 217.554688 251.59375 217.257812 252.425781 216.917969 253.246094 C 216.578125 254.0625 216.199219 254.863281 215.785156 255.644531 C 215.367188 256.425781 214.910156 257.183594 214.417969 257.917969 C 213.925781 258.65625 213.402344 259.367188 212.839844 260.050781 C 212.277344 260.734375 211.683594 261.390625 211.058594 262.015625 C 210.429688 262.644531 209.777344 263.238281 209.089844 263.796875 C 208.40625 264.359375 207.695312 264.886719 206.960938 265.378906 C 206.222656 265.871094 205.464844 266.324219 204.683594 266.742188 C 203.902344 267.160156 203.105469 267.539062 202.285156 267.878906 C 201.46875 268.214844 200.636719 268.515625 199.789062 268.769531 C 198.941406 269.027344 198.082031 269.242188 197.214844 269.417969 C 196.34375 269.589844 195.46875 269.71875 194.589844 269.804688 C 193.707031 269.890625 192.824219 269.9375 191.9375 269.9375 C 191.054688 269.9375 190.171875 269.890625 189.289062 269.804688 C 188.40625 269.71875 187.53125 269.589844 186.664062 269.417969 C 185.796875 269.242188 184.9375 269.027344 184.089844 268.769531 C 183.242188 268.515625 182.410156 268.214844 181.59375 267.878906 C 180.773438 267.539062 179.976562 267.160156 179.195312 266.742188 C 178.414062 266.324219 177.65625 265.871094 176.917969 265.378906 C 176.183594 264.886719 175.472656 264.359375 174.789062 263.796875 C 174.101562 263.238281 173.449219 262.644531 172.820312 262.015625 C 172.195312 261.390625 171.601562 260.734375 171.039062 260.050781 C 170.476562 259.367188 169.949219 258.65625 169.460938 257.917969 C 168.96875 257.183594 168.511719 256.425781 168.09375 255.644531 C 167.675781 254.863281 167.300781 254.0625 166.960938 253.246094 C 166.621094 252.425781 166.324219 251.59375 166.066406 250.746094 C 165.808594 249.898438 165.59375 249.042969 165.421875 248.171875 C 165.25 247.304688 165.121094 246.429688 165.03125 245.550781 C 164.945312 244.667969 164.902344 243.785156 164.902344 242.898438 L 164.902344 219.050781 C 164.902344 218.164062 164.945312 217.28125 165.03125 216.402344 C 165.121094 215.519531 165.25 214.644531 165.421875 213.777344 C 165.59375 212.910156 165.808594 212.050781 166.066406 211.203125 C 166.324219 210.355469 166.621094 209.523438 166.960938 208.703125 C 167.300781 207.886719 167.675781 207.085938 168.09375 206.304688 C 168.511719 205.527344 168.96875 204.765625 169.460938 204.03125 C 169.949219 203.292969 170.476562 202.582031 171.039062 201.898438 C 171.601562 201.214844 172.195312 200.558594 172.820312 199.933594 C 173.449219 199.308594 174.101562 198.714844 174.789062 198.152344 C 175.472656 197.589844 176.183594 197.0625 176.917969 196.570312 C 177.65625 196.078125 178.414062 195.625 179.195312 195.207031 C 179.976562 194.789062 180.773438 194.410156 181.59375 194.074219 C 182.410156 193.734375 183.242188 193.4375 184.089844 193.179688 C 184.9375 192.921875 185.796875 192.707031 186.664062 192.535156 C 187.53125 192.363281 188.40625 192.230469 189.289062 192.144531 C 190.171875 192.058594 191.054688 192.015625 191.9375 192.015625 Z M 191.9375 192.015625 " fill-opacity="1" fill-rule="nonzero"/><path fill="#ff9561" d="M 142.660156 174.992188 C 142.660156 175.550781 142.632812 176.105469 142.578125 176.664062 C 142.523438 177.21875 142.441406 177.769531 142.332031 178.316406 C 142.222656 178.867188 142.085938 179.40625 141.925781 179.941406 C 141.761719 180.476562 141.574219 181 141.363281 181.515625 C 141.148438 182.03125 140.910156 182.535156 140.644531 183.027344 C 140.382812 183.523438 140.097656 184 139.785156 184.464844 C 139.476562 184.929688 139.144531 185.375 138.789062 185.808594 C 138.433594 186.238281 138.058594 186.652344 137.664062 187.046875 C 137.269531 187.441406 136.859375 187.816406 136.425781 188.171875 C 135.992188 188.527344 135.546875 188.859375 135.082031 189.167969 C 134.617188 189.480469 134.140625 189.765625 133.648438 190.027344 C 133.152344 190.292969 132.648438 190.53125 132.132812 190.742188 C 131.617188 190.957031 131.09375 191.144531 130.558594 191.308594 C 130.023438 191.46875 129.484375 191.605469 128.9375 191.714844 C 128.386719 191.824219 127.835938 191.90625 127.28125 191.960938 C 126.726562 192.015625 126.167969 192.042969 125.609375 192.042969 C 125.050781 192.042969 124.492188 192.015625 123.9375 191.960938 C 123.382812 191.90625 122.832031 191.824219 122.28125 191.714844 C 121.734375 191.605469 121.195312 191.46875 120.660156 191.308594 C 120.125 191.144531 119.601562 190.957031 119.085938 190.742188 C 118.570312 190.53125 118.066406 190.292969 117.570312 190.027344 C 117.078125 189.765625 116.601562 189.480469 116.136719 189.167969 C 115.671875 188.859375 115.226562 188.527344 114.792969 188.171875 C 114.363281 187.816406 113.949219 187.441406 113.554688 187.046875 C 113.160156 186.652344 112.785156 186.238281 112.429688 185.808594 C 112.074219 185.375 111.742188 184.929688 111.433594 184.464844 C 111.121094 184 110.835938 183.523438 110.574219 183.027344 C 110.308594 182.535156 110.070312 182.03125 109.855469 181.515625 C 109.644531 181 109.457031 180.476562 109.292969 179.941406 C 109.132812 179.40625 108.996094 178.867188 108.886719 178.316406 C 108.777344 177.769531 108.695312 177.21875 108.640625 176.664062 C 108.585938 176.105469 108.558594 175.550781 108.558594 174.992188 C 108.558594 174.433594 108.585938 173.875 108.640625 173.320312 C 108.695312 172.765625 108.777344 172.214844 108.886719 171.664062 C 108.996094 171.117188 109.132812 170.578125 109.292969 170.042969 C 109.457031 169.507812 109.644531 168.984375 109.855469 168.46875 C 110.070312 167.953125 110.308594 167.445312 110.574219 166.953125 C 110.835938 166.460938 111.121094 165.984375 111.433594 165.519531 C 111.742188 165.054688 112.074219 164.605469 112.429688 164.175781 C 112.785156 163.742188 113.160156 163.332031 113.554688 162.9375 C 113.949219 162.539062 114.363281 162.167969 114.792969 161.8125 C 115.226562 161.457031 115.671875 161.125 116.136719 160.816406 C 116.601562 160.503906 117.078125 160.21875 117.570312 159.957031 C 118.066406 159.691406 118.570312 159.453125 119.085938 159.238281 C 119.601562 159.027344 120.125 158.839844 120.660156 158.675781 C 121.195312 158.515625 121.734375 158.378906 122.28125 158.269531 C 122.832031 158.160156 123.382812 158.078125 123.9375 158.023438 C 124.492188 157.96875 125.050781 157.941406 125.609375 157.941406 C 126.167969 157.941406 126.726562 157.96875 127.28125 158.023438 C 127.835938 158.078125 128.386719 158.160156 128.9375 158.269531 C 129.484375 158.378906 130.023438 158.515625 130.558594 158.675781 C 131.09375 158.839844 131.617188 159.027344 132.132812 159.238281 C 132.648438 159.453125 133.152344 159.691406 133.648438 159.957031 C 134.140625 160.21875 134.617188 160.503906 135.082031 160.816406 C 135.546875 161.125 135.992188 161.457031 136.425781 161.8125 C 136.859375 162.167969 137.269531 162.539062 137.664062 162.9375 C 138.058594 163.332031 138.433594 163.742188 138.789062 164.175781 C 139.144531 164.605469 139.476562 165.054688 139.785156 165.519531 C 140.097656 165.984375 140.382812 166.460938 140.644531 166.953125 C 140.910156 167.445312 141.148438 167.953125 141.363281 168.46875 C 141.574219 168.984375 141.761719 169.507812 141.925781 170.042969 C 142.085938 170.578125 142.222656 171.117188 142.332031 171.664062 C 142.441406 172.214844 142.523438 172.765625 142.578125 173.320312 C 142.632812 173.875 142.660156 174.433594 142.660156 174.992188 Z M 142.660156 174.992188 " fill-opacity="1" fill-rule="nonzero"/><path fill="#ff9561" d="M 273.730469 174.992188 C 273.730469 175.550781 273.703125 176.105469 273.648438 176.664062 C 273.59375 177.21875 273.511719 177.769531 273.402344 178.316406 C 273.296875 178.867188 273.160156 179.40625 272.996094 179.941406 C 272.835938 180.476562 272.648438 181 272.433594 181.515625 C 272.21875 182.03125 271.980469 182.535156 271.71875 183.027344 C 271.457031 183.523438 271.167969 184 270.859375 184.464844 C 270.546875 184.929688 270.214844 185.375 269.863281 185.808594 C 269.507812 186.238281 269.132812 186.652344 268.738281 187.046875 C 268.34375 187.441406 267.929688 187.816406 267.5 188.171875 C 267.066406 188.527344 266.617188 188.859375 266.152344 189.167969 C 265.691406 189.480469 265.210938 189.765625 264.71875 190.027344 C 264.226562 190.292969 263.722656 190.53125 263.207031 190.742188 C 262.691406 190.957031 262.164062 191.144531 261.632812 191.308594 C 261.097656 191.46875 260.554688 191.605469 260.007812 191.714844 C 259.460938 191.824219 258.910156 191.90625 258.351562 191.960938 C 257.796875 192.015625 257.238281 192.042969 256.683594 192.042969 C 256.125 192.042969 255.566406 192.015625 255.011719 191.960938 C 254.453125 191.90625 253.902344 191.824219 253.355469 191.714844 C 252.808594 191.605469 252.265625 191.46875 251.734375 191.308594 C 251.199219 191.144531 250.671875 190.957031 250.15625 190.742188 C 249.640625 190.53125 249.136719 190.292969 248.644531 190.027344 C 248.152344 189.765625 247.671875 189.480469 247.210938 189.167969 C 246.746094 188.859375 246.296875 188.527344 245.867188 188.171875 C 245.433594 187.816406 245.019531 187.441406 244.625 187.046875 C 244.230469 186.652344 243.855469 186.238281 243.503906 185.808594 C 243.148438 185.375 242.816406 184.929688 242.503906 184.464844 C 242.195312 184 241.910156 183.523438 241.644531 183.027344 C 241.382812 182.535156 241.144531 182.03125 240.929688 181.515625 C 240.714844 181 240.527344 180.476562 240.367188 179.941406 C 240.203125 179.40625 240.070312 178.867188 239.960938 178.316406 C 239.851562 177.769531 239.769531 177.21875 239.714844 176.664062 C 239.660156 176.105469 239.632812 175.550781 239.632812 174.992188 C 239.632812 174.433594 239.660156 173.875 239.714844 173.320312 C 239.769531 172.765625 239.851562 172.214844 239.960938 171.664062 C 240.070312 171.117188 240.203125 170.578125 240.367188 170.042969 C 240.527344 169.507812 240.714844 168.984375 240.929688 168.46875 C 241.144531 167.953125 241.382812 167.445312 241.644531 166.953125 C 241.910156 166.460938 242.195312 165.984375 242.503906 165.519531 C 242.816406 165.054688 243.148438 164.605469 243.503906 164.175781 C 243.855469 163.742188 244.230469 163.332031 244.625 162.9375 C 245.019531 162.539062 245.433594 162.167969 245.867188 161.8125 C 246.296875 161.457031 246.746094 161.125 247.210938 160.816406 C 247.671875 160.503906 248.152344 160.21875 248.644531 159.957031 C 249.136719 159.691406 249.640625 159.453125 250.15625 159.238281 C 250.671875 159.027344 251.199219 158.839844 251.734375 158.675781 C 252.265625 158.515625 252.808594 158.378906 253.355469 158.269531 C 253.902344 158.160156 254.453125 158.078125 255.011719 158.023438 C 255.566406 157.96875 256.125 157.941406 256.683594 157.941406 C 257.238281 157.941406 257.796875 157.96875 258.351562 158.023438 C 258.910156 158.078125 259.460938 158.160156 260.007812 158.269531 C 260.554688 158.378906 261.097656 158.515625 261.632812 158.675781 C 262.164062 158.839844 262.691406 159.027344 263.207031 159.238281 C 263.722656 159.453125 264.226562 159.691406 264.71875 159.957031 C 265.210938 160.21875 265.691406 160.503906 266.152344 160.816406 C 266.617188 161.125 267.066406 161.457031 267.5 161.8125 C 267.929688 162.167969 268.34375 162.539062 268.738281 162.9375 C 269.132812 163.332031 269.507812 163.742188 269.863281 164.175781 C 270.214844 164.605469 270.546875 165.054688 270.859375 165.519531 C 271.167969 165.984375 271.457031 166.460938 271.71875 166.953125 C 271.980469 167.445312 272.21875 167.953125 272.433594 168.46875 C 272.648438 168.984375 272.835938 169.507812 272.996094 170.042969 C 273.160156 170.578125 273.296875 171.117188 273.402344 171.664062 C 273.511719 172.214844 273.59375 172.765625 273.648438 173.320312 C 273.703125 173.875 273.730469 174.433594 273.730469 174.992188 Z M 273.730469 174.992188 " fill-opacity="1" fill-rule="nonzero"/><path fill="#ffc9ac" d="M 192.011719 84.414062 C 193.101562 84.414062 194.1875 84.441406 195.273438 84.496094 C 196.355469 84.546875 197.441406 84.628906 198.523438 84.734375 C 199.605469 84.839844 200.683594 84.972656 201.757812 85.132812 C 202.832031 85.292969 203.902344 85.480469 204.96875 85.691406 C 206.035156 85.902344 207.09375 86.140625 208.148438 86.40625 C 209.203125 86.667969 210.25 86.960938 211.289062 87.273438 C 212.328125 87.589844 213.359375 87.929688 214.382812 88.296875 C 215.40625 88.664062 216.421875 89.054688 217.425781 89.46875 C 218.429688 89.886719 219.421875 90.324219 220.40625 90.789062 C 221.386719 91.253906 222.359375 91.742188 223.316406 92.257812 C 224.273438 92.769531 225.21875 93.304688 226.152344 93.863281 C 227.085938 94.421875 228.003906 95.003906 228.90625 95.605469 C 229.808594 96.210938 230.699219 96.835938 231.570312 97.484375 C 232.445312 98.128906 233.300781 98.800781 234.140625 99.488281 C 234.980469 100.179688 235.800781 100.886719 236.609375 101.617188 C 237.414062 102.347656 238.199219 103.097656 238.96875 103.863281 C 239.738281 104.632812 240.484375 105.421875 241.214844 106.226562 C 241.945312 107.03125 242.65625 107.851562 243.34375 108.691406 C 244.035156 109.535156 244.703125 110.390625 245.351562 111.261719 C 245.996094 112.136719 246.621094 113.023438 247.226562 113.925781 C 247.832031 114.832031 248.410156 115.75 248.96875 116.679688 C 249.527344 117.613281 250.066406 118.558594 250.578125 119.515625 C 251.089844 120.476562 251.578125 121.445312 252.042969 122.429688 C 252.507812 123.410156 252.945312 124.402344 253.363281 125.40625 C 253.777344 126.414062 254.167969 127.425781 254.535156 128.449219 C 254.902344 129.472656 255.242188 130.503906 255.558594 131.542969 C 255.875 132.582031 256.164062 133.632812 256.425781 134.683594 C 256.691406 135.738281 256.929688 136.800781 257.140625 137.867188 C 257.355469 138.929688 257.539062 140 257.699219 141.078125 C 257.859375 142.152344 257.992188 143.230469 258.097656 144.3125 C 258.203125 145.394531 258.285156 146.476562 258.335938 147.5625 C 258.390625 148.648438 258.417969 149.734375 258.417969 150.820312 L 258.417969 167.984375 C 258.417969 169.070312 258.390625 170.160156 258.335938 171.242188 C 258.285156 172.328125 258.203125 173.414062 258.097656 174.496094 C 257.992188 175.574219 257.859375 176.652344 257.699219 177.730469 C 257.539062 178.804688 257.355469 179.875 257.140625 180.941406 C 256.929688 182.007812 256.691406 183.066406 256.425781 184.121094 C 256.164062 185.175781 255.875 186.222656 255.558594 187.261719 C 255.242188 188.300781 254.902344 189.332031 254.535156 190.355469 C 254.167969 191.378906 253.777344 192.394531 253.363281 193.398438 C 252.945312 194.402344 252.507812 195.394531 252.042969 196.378906 C 251.578125 197.359375 251.089844 198.328125 250.578125 199.289062 C 250.066406 200.246094 249.527344 201.191406 248.96875 202.125 C 248.410156 203.054688 247.832031 203.972656 247.226562 204.878906 C 246.621094 205.78125 245.996094 206.671875 245.351562 207.542969 C 244.703125 208.414062 244.035156 209.273438 243.34375 210.113281 C 242.65625 210.953125 241.945312 211.773438 241.214844 212.582031 C 240.484375 213.386719 239.738281 214.171875 238.96875 214.941406 C 238.199219 215.710938 237.414062 216.457031 236.609375 217.1875 C 235.800781 217.917969 234.980469 218.628906 234.140625 219.316406 C 233.300781 220.007812 232.445312 220.675781 231.570312 221.324219 C 230.699219 221.96875 229.808594 222.59375 228.90625 223.199219 C 228.003906 223.804688 227.085938 224.382812 226.152344 224.941406 C 225.21875 225.5 224.273438 226.039062 223.316406 226.550781 C 222.359375 227.0625 221.386719 227.550781 220.40625 228.015625 C 219.421875 228.480469 218.429688 228.917969 217.425781 229.335938 C 216.421875 229.75 215.40625 230.144531 214.382812 230.507812 C 213.359375 230.875 212.328125 231.214844 211.289062 231.53125 C 210.25 231.847656 209.203125 232.136719 208.148438 232.402344 C 207.09375 232.664062 206.035156 232.902344 204.96875 233.113281 C 203.902344 233.328125 202.832031 233.511719 201.757812 233.671875 C 200.683594 233.832031 199.605469 233.964844 198.523438 234.070312 C 197.441406 234.175781 196.355469 234.257812 195.273438 234.3125 C 194.1875 234.363281 193.101562 234.390625 192.011719 234.390625 C 190.925781 234.390625 189.839844 234.363281 188.753906 234.3125 C 187.667969 234.257812 186.585938 234.175781 185.503906 234.070312 C 184.421875 233.964844 183.34375 233.832031 182.269531 233.671875 C 181.195312 233.511719 180.125 233.328125 179.058594 233.113281 C 177.992188 232.902344 176.933594 232.664062 175.878906 232.402344 C 174.824219 232.136719 173.777344 231.847656 172.738281 231.53125 C 171.699219 231.214844 170.664062 230.875 169.644531 230.507812 C 168.621094 230.144531 167.605469 229.75 166.601562 229.335938 C 165.597656 228.917969 164.605469 228.480469 163.621094 228.015625 C 162.640625 227.550781 161.667969 227.0625 160.710938 226.550781 C 159.753906 226.039062 158.808594 225.5 157.875 224.941406 C 156.941406 224.382812 156.023438 223.804688 155.121094 223.199219 C 154.21875 222.59375 153.328125 221.96875 152.457031 221.324219 C 151.582031 220.675781 150.726562 220.007812 149.886719 219.316406 C 149.046875 218.628906 148.222656 217.917969 147.417969 217.1875 C 146.613281 216.457031 145.828125 215.710938 145.058594 214.941406 C 144.289062 214.171875 143.542969 213.386719 142.8125 212.582031 C 142.082031 211.773438 141.371094 210.953125 140.683594 210.113281 C 139.992188 209.273438 139.324219 208.414062 138.675781 207.542969 C 138.03125 206.671875 137.402344 205.78125 136.800781 204.878906 C 136.195312 203.972656 135.617188 203.054688 135.058594 202.125 C 134.5 201.191406 133.960938 200.246094 133.449219 199.289062 C 132.9375 198.332031 132.449219 197.359375 131.984375 196.378906 C 131.519531 195.394531 131.078125 194.402344 130.664062 193.398438 C 130.25 192.394531 129.855469 191.378906 129.492188 190.355469 C 129.125 189.332031 128.785156 188.300781 128.46875 187.261719 C 128.152344 186.222656 127.863281 185.175781 127.597656 184.121094 C 127.335938 183.066406 127.097656 182.007812 126.886719 180.941406 C 126.671875 179.875 126.488281 178.804688 126.328125 177.730469 C 126.167969 176.652344 126.035156 175.574219 125.929688 174.496094 C 125.824219 173.414062 125.742188 172.328125 125.6875 171.242188 C 125.636719 170.160156 125.609375 169.070312 125.609375 167.984375 L 125.609375 150.820312 C 125.609375 149.734375 125.636719 148.648438 125.6875 147.5625 C 125.742188 146.476562 125.824219 145.394531 125.929688 144.3125 C 126.035156 143.230469 126.167969 142.152344 126.328125 141.078125 C 126.488281 140 126.671875 138.929688 126.886719 137.867188 C 127.097656 136.800781 127.335938 135.738281 127.597656 134.683594 C 127.863281 133.632812 128.152344 132.582031 128.46875 131.542969 C 128.785156 130.503906 129.125 129.472656 129.492188 128.449219 C 129.855469 127.425781 130.25 126.414062 130.664062 125.40625 C 131.078125 124.402344 131.519531 123.410156 131.984375 122.429688 C 132.449219 121.445312 132.9375 120.476562 133.449219 119.515625 C 133.960938 118.558594 134.5 117.613281 135.058594 116.679688 C 135.617188 115.75 136.195312 114.832031 136.800781 113.925781 C 137.402344 113.023438 138.03125 112.136719 138.675781 111.261719 C 139.324219 110.390625 139.992188 109.535156 140.683594 108.691406 C 141.371094 107.851562 142.082031 107.03125 142.8125 106.226562 C 143.542969 105.421875 144.289062 104.632812 145.058594 103.863281 C 145.828125 103.097656 146.613281 102.347656 147.417969 101.617188 C 148.222656 100.886719 149.046875 100.179688 149.886719 99.488281 C 150.726562 98.800781 151.582031 98.128906 152.457031 97.484375 C 153.328125 96.835938 154.21875 96.210938 155.121094 95.605469 C 156.023438 95.003906 156.941406 94.421875 157.875 93.863281 C 158.808594 93.304688 159.753906 92.769531 160.710938 92.257812 C 161.667969 91.742188 162.640625 91.253906 163.621094 90.789062 C 164.605469 90.324219 165.597656 89.886719 166.601562 89.46875 C 167.605469 89.054688 168.621094 88.664062 169.644531 88.296875 C 170.664062 87.929688 171.699219 87.589844 172.738281 87.273438 C 173.777344 86.960938 174.824219 86.667969 175.878906 86.40625 C 176.933594 86.140625 177.992188 85.902344 179.058594 85.691406 C 180.125 85.480469 181.195312 85.292969 182.269531 85.132812 C 183.34375 84.972656 184.421875 84.839844 185.503906 84.734375 C 186.585938 84.628906 187.667969 84.546875 188.753906 84.496094 C 189.839844 84.441406 190.925781 84.414062 192.011719 84.414062 Z M 192.011719 84.414062 " fill-opacity="1" fill-rule="nonzero"/><path fill="#002c5c" d="M 125.609375 157.941406 C 214.796875 158.851562 239.632812 108.339844 239.632812 108.339844 C 239.632812 108.339844 243.847656 148.757812 258.417969 159.398438 C 266.039062 117.003906 243.660156 78.402344 185.582031 75.515625 C 127.503906 72.628906 111.816406 138.996094 125.609375 157.941406 Z M 125.609375 157.941406 " fill-opacity="1" fill-rule="nonzero"/></svg>