<svg xmlns="http://www.w3.org/2000/svg" xmlns:xlink="http://www.w3.org/1999/xlink" width="512" zoomAndPan="magnify" viewBox="0 0 384 383.999986" height="512" preserveAspectRatio="xMidYMid meet" version="1.0"><rect x="-38.4" width="460.8" fill="#ffffff" y="-38.399999" height="460.799983" fill-opacity="1"/><rect x="-38.4" width="460.8" fill="#ffffff" y="-38.399999" height="460.799983" fill-opacity="1"/><path fill="#f1582e" d="M 384 194.398438 C 384 197.542969 383.921875 200.683594 383.769531 203.824219 C 383.613281 206.964844 383.382812 210.097656 383.074219 213.226562 C 382.765625 216.351562 382.382812 219.472656 381.921875 222.582031 C 381.460938 225.6875 380.921875 228.785156 380.3125 231.867188 C 379.699219 234.949219 379.007812 238.015625 378.246094 241.066406 C 377.484375 244.113281 376.644531 247.140625 375.734375 250.148438 C 374.820312 253.15625 373.835938 256.140625 372.777344 259.101562 C 371.71875 262.058594 370.585938 264.992188 369.386719 267.894531 C 368.183594 270.800781 366.910156 273.671875 365.566406 276.511719 C 364.222656 279.355469 362.808594 282.160156 361.328125 284.933594 C 359.847656 287.703125 358.300781 290.4375 356.683594 293.136719 C 355.070312 295.832031 353.386719 298.484375 351.640625 301.097656 C 349.894531 303.710938 348.085938 306.28125 346.214844 308.804688 C 344.34375 311.332031 342.410156 313.808594 340.417969 316.238281 C 338.425781 318.667969 336.371094 321.046875 334.261719 323.375 C 332.152344 325.703125 329.988281 327.980469 327.765625 330.203125 C 325.542969 332.425781 323.265625 334.589844 320.9375 336.703125 C 318.609375 338.8125 316.234375 340.863281 313.804688 342.859375 C 311.375 344.851562 308.898438 346.785156 306.375 348.65625 C 303.851562 350.53125 301.28125 352.339844 298.667969 354.085938 C 296.058594 355.832031 293.402344 357.511719 290.707031 359.128906 C 288.011719 360.746094 285.28125 362.292969 282.507812 363.773438 C 279.738281 365.257812 276.929688 366.667969 274.089844 368.011719 C 271.25 369.355469 268.378906 370.628906 265.476562 371.832031 C 262.570312 373.035156 259.640625 374.167969 256.683594 375.226562 C 253.722656 376.285156 250.742188 377.269531 247.734375 378.183594 C 244.726562 379.09375 241.699219 379.933594 238.652344 380.695312 C 235.605469 381.460938 232.539062 382.148438 229.457031 382.761719 C 226.375 383.375 223.28125 383.914062 220.171875 384.375 C 217.0625 384.835938 213.945312 385.21875 210.820312 385.527344 C 207.691406 385.835938 204.558594 386.066406 201.421875 386.222656 C 198.28125 386.375 195.140625 386.453125 192 386.453125 C 188.859375 386.453125 185.71875 386.375 182.578125 386.222656 C 179.441406 386.066406 176.308594 385.835938 173.179688 385.527344 C 170.054688 385.21875 166.9375 384.835938 163.828125 384.375 C 160.71875 383.914062 157.625 383.375 154.542969 382.761719 C 151.460938 382.148438 148.394531 381.460938 145.347656 380.695312 C 142.300781 379.933594 139.273438 379.09375 136.265625 378.183594 C 133.257812 377.269531 130.277344 376.285156 127.316406 375.226562 C 124.359375 374.167969 121.429688 373.035156 118.523438 371.832031 C 115.621094 370.628906 112.75 369.355469 109.910156 368.011719 C 107.070312 366.667969 104.261719 365.257812 101.492188 363.773438 C 98.71875 362.292969 95.988281 360.746094 93.292969 359.128906 C 90.597656 357.511719 87.941406 355.832031 85.332031 354.085938 C 82.71875 352.339844 80.148438 350.53125 77.625 348.65625 C 75.101562 346.785156 72.625 344.851562 70.195312 342.859375 C 67.765625 340.863281 65.390625 338.8125 63.0625 336.703125 C 60.734375 334.589844 58.457031 332.425781 56.234375 330.203125 C 54.011719 327.980469 51.847656 325.703125 49.738281 323.375 C 47.628906 321.046875 45.574219 318.667969 43.582031 316.238281 C 41.589844 313.808594 39.65625 311.332031 37.785156 308.804688 C 35.914062 306.28125 34.105469 303.710938 32.359375 301.097656 C 30.613281 298.484375 28.929688 295.832031 27.316406 293.136719 C 25.699219 290.4375 24.152344 287.703125 22.671875 284.933594 C 21.191406 282.160156 19.777344 279.355469 18.433594 276.511719 C 17.089844 273.671875 15.816406 270.800781 14.613281 267.894531 C 13.414062 264.992188 12.28125 262.058594 11.222656 259.101562 C 10.164062 256.140625 9.179688 253.15625 8.265625 250.148438 C 7.355469 247.140625 6.515625 244.113281 5.753906 241.066406 C 4.992188 238.015625 4.300781 234.949219 3.6875 231.867188 C 3.078125 228.785156 2.539062 225.6875 2.078125 222.582031 C 1.617188 219.472656 1.234375 216.351562 0.925781 213.226562 C 0.617188 210.097656 0.386719 206.964844 0.230469 203.824219 C 0.078125 200.683594 0 197.542969 0 194.398438 C 0 191.257812 0.078125 188.117188 0.230469 184.976562 C 0.386719 181.835938 0.617188 178.703125 0.925781 175.574219 C 1.234375 172.449219 1.617188 169.328125 2.078125 166.21875 C 2.539062 163.109375 3.078125 160.015625 3.6875 156.933594 C 4.300781 153.851562 4.992188 150.785156 5.753906 147.734375 C 6.515625 144.6875 7.355469 141.65625 8.265625 138.648438 C 9.179688 135.644531 10.164062 132.660156 11.222656 129.699219 C 12.28125 126.742188 13.414062 123.808594 14.613281 120.90625 C 15.816406 118 17.089844 115.128906 18.433594 112.289062 C 19.777344 109.445312 21.191406 106.640625 22.671875 103.867188 C 24.152344 101.09375 25.699219 98.363281 27.316406 95.664062 C 28.929688 92.96875 30.613281 90.316406 32.359375 87.703125 C 34.105469 85.089844 35.914062 82.519531 37.785156 79.996094 C 39.65625 77.46875 41.589844 74.992188 43.582031 72.5625 C 45.574219 70.132812 47.628906 67.753906 49.738281 65.425781 C 51.847656 63.097656 54.011719 60.820312 56.234375 58.597656 C 58.457031 56.375 60.734375 54.210938 63.0625 52.097656 C 65.390625 49.988281 67.765625 47.9375 70.195312 45.941406 C 72.625 43.949219 75.101562 42.015625 77.625 40.140625 C 80.148438 38.269531 82.71875 36.460938 85.332031 34.714844 C 87.941406 32.96875 90.597656 31.289062 93.292969 29.671875 C 95.988281 28.054688 98.71875 26.507812 101.492188 25.023438 C 104.261719 23.542969 107.070312 22.128906 109.910156 20.785156 C 112.75 19.441406 115.621094 18.167969 118.523438 16.96875 C 121.429688 15.765625 124.359375 14.632812 127.316406 13.574219 C 130.277344 12.515625 133.257812 11.53125 136.265625 10.617188 C 139.273438 9.707031 142.300781 8.867188 145.347656 8.101562 C 148.394531 7.339844 151.460938 6.652344 154.542969 6.039062 C 157.625 5.425781 160.71875 4.886719 163.828125 4.425781 C 166.9375 3.964844 170.054688 3.582031 173.179688 3.273438 C 176.308594 2.964844 179.441406 2.734375 182.578125 2.578125 C 185.71875 2.425781 188.859375 2.347656 192 2.347656 C 195.140625 2.347656 198.28125 2.425781 201.421875 2.578125 C 204.558594 2.734375 207.691406 2.964844 210.820312 3.273438 C 213.945312 3.582031 217.0625 3.964844 220.171875 4.425781 C 223.28125 4.886719 226.375 5.425781 229.457031 6.039062 C 232.539062 6.652344 235.605469 7.339844 238.652344 8.101562 C 241.699219 8.867188 244.726562 9.707031 247.734375 10.617188 C 250.742188 11.53125 253.722656 12.515625 256.683594 13.574219 C 259.640625 14.632812 262.570312 15.765625 265.476562 16.96875 C 268.378906 18.167969 271.25 19.441406 274.089844 20.785156 C 276.929688 22.128906 279.738281 23.542969 282.507812 25.023438 C 285.28125 26.507812 288.011719 28.054688 290.707031 29.671875 C 293.402344 31.289062 296.058594 32.96875 298.667969 34.714844 C 301.28125 36.460938 303.851562 38.269531 306.375 40.140625 C 308.898438 42.015625 311.375 43.949219 313.804688 45.941406 C 316.234375 47.9375 318.609375 49.988281 320.9375 52.097656 C 323.265625 54.210938 325.542969 56.375 327.765625 58.597656 C 329.988281 60.820312 332.152344 63.097656 334.261719 65.425781 C 336.371094 67.753906 338.425781 70.132812 340.417969 72.5625 C 342.410156 74.992188 344.34375 77.46875 346.214844 79.996094 C 348.085938 82.519531 349.894531 85.089844 351.640625 87.703125 C 353.386719 90.316406 355.070312 92.96875 356.683594 95.664062 C 358.300781 98.363281 359.847656 101.09375 361.328125 103.867188 C 362.808594 106.640625 364.222656 109.445312 365.566406 112.289062 C 366.910156 115.128906 368.183594 118 369.386719 120.90625 C 370.585938 123.808594 371.71875 126.742188 372.777344 129.699219 C 373.835938 132.660156 374.820312 135.644531 375.734375 138.648438 C 376.644531 141.65625 377.484375 144.6875 378.246094 147.734375 C 379.007812 150.785156 379.699219 153.851562 380.3125 156.933594 C 380.921875 160.015625 381.460938 163.109375 381.921875 166.21875 C 382.382812 169.328125 382.765625 172.449219 383.074219 175.574219 C 383.382812 178.703125 383.613281 181.835938 383.769531 184.976562 C 383.921875 188.117188 384 191.257812 384 194.398438 Z M 384 194.398438 " fill-opacity="1" fill-rule="nonzero"/><path fill="#4c5aa5" d="M 321 336.640625 C 307.199219 349.242188 291.898438 359.746094 274.800781 367.546875 C 270.601562 369.648438 266.101562 371.449219 261.601562 373.25 C 240 381.652344 216.601562 386.453125 192 386.453125 C 167.398438 386.453125 144 381.953125 122.398438 373.25 C 117.898438 371.449219 113.398438 369.648438 109.199219 367.546875 C 92.398438 359.445312 76.800781 348.941406 63 336.640625 C 64.5 319.835938 66.300781 306.03125 66.300781 306.03125 C 66.300781 305.429688 66.300781 304.832031 66.601562 304.53125 C 69.300781 279.023438 87.898438 258.015625 112.800781 251.714844 C 120.601562 249.617188 129.300781 246.914062 131.699219 246.015625 C 167.699219 234.609375 162 237.613281 162 194.699219 L 222.300781 194.699219 L 222.300781 225.609375 C 222.300781 225.910156 222.300781 226.507812 222.300781 226.808594 C 222.300781 228.609375 223.199219 231.011719 224.398438 232.8125 C 226.199219 235.511719 229.199219 237.613281 229.5 237.613281 C 235.800781 240.613281 264.601562 249.914062 265.199219 249.914062 C 268.199219 251.117188 312.300781 258.316406 317.398438 304.53125 C 317.398438 305.128906 317.398438 305.730469 317.699219 306.03125 C 317.699219 306.03125 319.5 319.835938 321 336.640625 Z M 321 336.640625 " fill-opacity="1" fill-rule="nonzero"/><path fill="#f1b97c" d="M 261.898438 248.714844 C 249.601562 283.222656 229.800781 315.332031 202.199219 342.941406 L 192 353.144531 L 181.800781 342.941406 C 154.199219 315.332031 134.398438 282.925781 122.101562 248.714844 C 169.5 234.3125 161.699219 237.3125 161.699219 194.398438 L 222 194.398438 C 222 233.710938 219.300781 233.710938 236.699219 240.3125 C 245.101562 243.3125 253.5 246.3125 261.898438 248.714844 Z M 261.898438 248.714844 " fill-opacity="1" fill-rule="nonzero"/><path fill="#fcfcfc" d="M 265.199219 249.617188 C 264.898438 249.617188 257.699219 247.515625 257.398438 247.214844 C 251.398438 263.71875 243.898438 279.625 234.601562 294.328125 C 224.398438 310.53125 212.398438 325.835938 198.601562 339.640625 L 191.699219 346.542969 L 184.800781 339.640625 C 158.101562 312.933594 138.300781 281.425781 126 247.214844 C 123.898438 247.816406 120 249.015625 117.300781 249.914062 C 130.199219 285.625 150.300781 318.332031 178.199219 346.242188 L 192 359.445312 L 205.199219 346.242188 C 219.601562 331.835938 232.199219 315.933594 242.699219 298.828125 C 243.898438 296.726562 245.101562 294.628906 246.300781 292.527344 C 254.101562 279.023438 260.699219 264.917969 265.800781 249.914062 C 265.800781 249.914062 265.5 249.914062 265.199219 249.617188 Z M 265.199219 249.617188 " fill-opacity="1" fill-rule="nonzero"/><path fill="#42539b" d="M 275.101562 335.4375 L 275.101562 367.546875 C 270.898438 369.648438 266.398438 371.449219 261.898438 373.25 Z M 275.101562 335.4375 " fill-opacity="1" fill-rule="nonzero"/><path fill="#42539b" d="M 122.398438 373.25 C 117.898438 371.449219 113.398438 369.648438 109.199219 367.546875 L 109.199219 335.4375 Z M 122.398438 373.25 " fill-opacity="1" fill-rule="nonzero"/><path fill="#343843" d="M 265.199219 249.914062 C 257.398438 257.417969 247.800781 271.820312 246.300781 284.125 C 246 287.125 246 289.828125 246.601562 292.828125 C 247.199219 295.828125 248.699219 298.828125 250.800781 301.828125 C 250.800781 301.828125 247.5 300.929688 242.699219 299.128906 C 241.5 298.527344 240 297.929688 238.5 297.328125 C 237.300781 296.726562 235.800781 295.828125 234.601562 295.226562 C 220.5 286.824219 205.5 269.421875 229.199219 237.910156 C 224.699219 235.511719 222 231.011719 222 225.910156 L 222 194.398438 L 161.699219 194.398438 C 161.699219 239.414062 166.800781 234.3125 128.699219 246.613281 C 127.199219 239.710938 122.699219 224.707031 109.800781 193.199219 C 109.800781 193.199219 89.398438 140.984375 117.898438 71.367188 C 117.898438 71.367188 127.199219 27.855469 150 33.855469 C 150 33.855469 212.101562 0.546875 254.398438 49.160156 C 254.398438 49.160156 289.5 83.671875 276 127.183594 C 292.5 154.789062 294 206.703125 265.199219 249.914062 Z M 265.199219 249.914062 " fill-opacity="1" fill-rule="nonzero"/><path fill="#f1b97c" d="M 108.378906 138.300781 C 108.210938 137.566406 108.0625 136.824219 107.933594 136.082031 C 107.808594 135.335938 107.703125 134.59375 107.621094 133.851562 C 107.539062 133.109375 107.480469 132.367188 107.445312 131.632812 C 107.410156 130.898438 107.394531 130.171875 107.40625 129.449219 C 107.417969 128.730469 107.449219 128.019531 107.507812 127.324219 C 107.566406 126.625 107.644531 125.941406 107.746094 125.269531 C 107.847656 124.601562 107.972656 123.949219 108.121094 123.3125 C 108.269531 122.679688 108.4375 122.066406 108.628906 121.472656 C 108.820312 120.878906 109.03125 120.308594 109.261719 119.761719 C 109.492188 119.214844 109.746094 118.695312 110.015625 118.199219 C 110.289062 117.707031 110.578125 117.238281 110.882812 116.800781 C 111.191406 116.363281 111.515625 115.957031 111.859375 115.582031 C 112.199219 115.203125 112.554688 114.859375 112.925781 114.550781 C 113.300781 114.238281 113.683594 113.960938 114.082031 113.714844 C 114.480469 113.472656 114.890625 113.261719 115.3125 113.089844 C 115.734375 112.914062 116.164062 112.777344 116.605469 112.675781 C 117.046875 112.574219 117.492188 112.507812 117.949219 112.476562 C 118.402344 112.449219 118.863281 112.453125 119.328125 112.5 C 119.792969 112.542969 120.261719 112.621094 120.734375 112.738281 C 121.203125 112.855469 121.675781 113.007812 122.148438 113.195312 C 122.621094 113.382812 123.089844 113.605469 123.558594 113.863281 C 124.027344 114.121094 124.492188 114.410156 124.953125 114.734375 C 125.414062 115.058594 125.871094 115.417969 126.316406 115.804688 C 126.765625 116.195312 127.207031 116.613281 127.640625 117.0625 C 128.070312 117.511719 128.492188 117.988281 128.90625 118.492188 C 129.316406 119 129.714844 119.527344 130.101562 120.085938 C 130.488281 120.640625 130.863281 121.21875 131.21875 121.824219 C 131.578125 122.425781 131.921875 123.046875 132.246094 123.6875 C 132.574219 124.332031 132.882812 124.988281 133.171875 125.664062 C 133.464844 126.339844 133.738281 127.03125 133.992188 127.734375 C 134.246094 128.4375 134.476562 129.148438 134.691406 129.875 C 134.902344 130.597656 135.097656 131.328125 135.265625 132.066406 C 135.4375 132.800781 135.585938 133.542969 135.714844 134.285156 C 135.839844 135.03125 135.945312 135.773438 136.027344 136.515625 C 136.109375 137.257812 136.167969 138 136.203125 138.734375 C 136.238281 139.46875 136.25 140.195312 136.242188 140.917969 C 136.230469 141.636719 136.195312 142.347656 136.140625 143.042969 C 136.082031 143.742188 136.003906 144.425781 135.902344 145.097656 C 135.796875 145.765625 135.671875 146.417969 135.527344 147.050781 C 135.378906 147.6875 135.210938 148.300781 135.019531 148.894531 C 134.828125 149.488281 134.617188 150.058594 134.386719 150.605469 C 134.152344 151.152344 133.902344 151.671875 133.632812 152.167969 C 133.359375 152.660156 133.070312 153.128906 132.761719 153.566406 C 132.457031 154.003906 132.128906 154.410156 131.789062 154.785156 C 131.449219 155.164062 131.089844 155.507812 130.71875 155.816406 C 130.347656 156.128906 129.964844 156.40625 129.566406 156.652344 C 129.167969 156.894531 128.757812 157.105469 128.335938 157.277344 C 127.914062 157.453125 127.480469 157.589844 127.042969 157.691406 C 126.601562 157.792969 126.152344 157.859375 125.699219 157.890625 C 125.246094 157.917969 124.785156 157.910156 124.320312 157.867188 C 123.855469 157.824219 123.386719 157.746094 122.914062 157.628906 C 122.445312 157.511719 121.972656 157.359375 121.5 157.171875 C 121.027344 156.984375 120.558594 156.761719 120.089844 156.503906 C 119.621094 156.246094 119.15625 155.957031 118.695312 155.632812 C 118.234375 155.308594 117.777344 154.949219 117.328125 154.5625 C 116.878906 154.171875 116.441406 153.753906 116.007812 153.304688 C 115.574219 152.855469 115.152344 152.378906 114.742188 151.875 C 114.332031 151.367188 113.933594 150.835938 113.546875 150.28125 C 113.160156 149.726562 112.785156 149.144531 112.429688 148.542969 C 112.070312 147.941406 111.726562 147.320312 111.402344 146.679688 C 111.074219 146.035156 110.765625 145.378906 110.472656 144.703125 C 110.183594 144.027344 109.910156 143.335938 109.65625 142.632812 C 109.402344 141.929688 109.171875 141.214844 108.957031 140.492188 C 108.742188 139.769531 108.550781 139.039062 108.378906 138.300781 Z M 108.378906 138.300781 " fill-opacity="1" fill-rule="nonzero"/><path fill="#fcfcfc" d="M 122.699219 149.988281 C 122.699219 150.386719 122.625 150.769531 122.472656 151.136719 C 122.320312 151.503906 122.101562 151.828125 121.820312 152.109375 C 121.539062 152.390625 121.214844 152.609375 120.847656 152.761719 C 120.480469 152.914062 120.097656 152.988281 119.699219 152.988281 C 119.300781 152.988281 118.917969 152.914062 118.550781 152.761719 C 118.183594 152.609375 117.859375 152.390625 117.578125 152.109375 C 117.296875 151.828125 117.082031 151.503906 116.929688 151.136719 C 116.777344 150.769531 116.699219 150.386719 116.699219 149.988281 C 116.699219 149.589844 116.777344 149.207031 116.929688 148.839844 C 117.082031 148.472656 117.296875 148.148438 117.578125 147.867188 C 117.859375 147.585938 118.183594 147.367188 118.550781 147.214844 C 118.917969 147.0625 119.300781 146.988281 119.699219 146.988281 C 120.097656 146.988281 120.480469 147.0625 120.847656 147.214844 C 121.214844 147.367188 121.539062 147.585938 121.820312 147.867188 C 122.101562 148.148438 122.320312 148.472656 122.472656 148.839844 C 122.625 149.207031 122.699219 149.589844 122.699219 149.988281 Z M 122.699219 149.988281 " fill-opacity="1" fill-rule="nonzero"/><path fill="#f8cfa3" d="M 263.398438 110.976562 C 263.398438 152.089844 227.398438 220.808594 191.398438 220.808594 C 155.398438 220.808594 119.398438 152.089844 119.398438 110.976562 C 119.398438 69.867188 151.800781 39.257812 191.398438 39.257812 C 231 39.558594 263.398438 70.167969 263.398438 110.976562 Z M 263.398438 110.976562 " fill-opacity="1" fill-rule="nonzero"/><path fill="#343843" d="M 143.101562 66.265625 C 143.101562 66.265625 150.898438 98.074219 205.5 111.578125 C 217.5 114.578125 228.300781 120.582031 237 128.980469 C 243.898438 135.882812 250.5 145.1875 252.601562 156.890625 L 265.199219 163.492188 L 270.601562 87.871094 C 270.601562 87.871094 236.699219 39.257812 237.300781 37.757812 C 237.898438 36.257812 184.5 33.855469 183 33.257812 C 181.5 32.65625 142.800781 39.257812 142.800781 39.257812 L 127.800781 57.261719 L 119.101562 85.46875 L 117.898438 112.179688 C 118.5 112.476562 135 107.375 143.101562 66.265625 Z M 143.101562 66.265625 " fill-opacity="1" fill-rule="nonzero"/></svg>