<svg xmlns="http://www.w3.org/2000/svg" xmlns:xlink="http://www.w3.org/1999/xlink" width="512" zoomAndPan="magnify" viewBox="0 0 384 383.999986" height="512" preserveAspectRatio="xMidYMid meet" version="1.0"><defs><clipPath id="6d56d74491"><path d="M 151 185 L 233 185 L 233 279 L 151 279 Z M 151 185 " clip-rule="nonzero"/></clipPath><clipPath id="38c6de3000"><path d="M 0.015625 192 C 0.015625 185.710938 0.324219 179.441406 0.9375 173.183594 C 1.554688 166.925781 2.476562 160.710938 3.703125 154.546875 C 4.929688 148.378906 6.457031 142.285156 8.28125 136.269531 C 10.105469 130.253906 12.222656 124.339844 14.628906 118.53125 C 17.035156 112.722656 19.71875 107.042969 22.683594 101.5 C 25.648438 95.953125 28.875 90.566406 32.371094 85.339844 C 35.863281 80.109375 39.605469 75.066406 43.59375 70.207031 C 47.582031 65.34375 51.800781 60.691406 56.246094 56.246094 C 60.691406 51.800781 65.34375 47.582031 70.207031 43.59375 C 75.066406 39.605469 80.109375 35.863281 85.339844 32.371094 C 90.566406 28.875 95.953125 25.648438 101.5 22.683594 C 107.042969 19.71875 112.722656 17.035156 118.53125 14.628906 C 124.339844 12.222656 130.253906 10.105469 136.269531 8.28125 C 142.285156 6.457031 148.378906 4.929688 154.546875 3.703125 C 160.710938 2.476562 166.925781 1.554688 173.183594 0.9375 C 179.441406 0.324219 185.710938 0.015625 192 0.015625 C 198.289062 0.015625 204.558594 0.324219 210.816406 0.9375 C 217.074219 1.554688 223.289062 2.476562 229.453125 3.703125 C 235.621094 4.929688 241.714844 6.457031 247.730469 8.28125 C 253.746094 10.105469 259.660156 12.222656 265.46875 14.628906 C 271.277344 17.035156 276.957031 19.71875 282.5 22.683594 C 288.046875 25.648438 293.433594 28.875 298.660156 32.371094 C 303.890625 35.863281 308.933594 39.605469 313.792969 43.59375 C 318.65625 47.582031 323.308594 51.800781 327.753906 56.246094 C 332.199219 60.691406 336.417969 65.34375 340.40625 70.207031 C 344.394531 75.066406 348.136719 80.109375 351.628906 85.339844 C 355.125 90.566406 358.351562 95.953125 361.316406 101.5 C 364.28125 107.042969 366.964844 112.722656 369.371094 118.53125 C 371.777344 124.339844 373.894531 130.253906 375.71875 136.269531 C 377.542969 142.285156 379.070312 148.378906 380.296875 154.546875 C 381.523438 160.710938 382.445312 166.925781 383.0625 173.183594 C 383.675781 179.441406 383.984375 185.710938 383.984375 192 C 383.984375 198.289062 383.675781 204.558594 383.0625 210.816406 C 382.445312 217.074219 381.523438 223.289062 380.296875 229.453125 C 379.070312 235.621094 377.542969 241.714844 375.71875 247.730469 C 373.894531 253.746094 371.777344 259.660156 369.371094 265.46875 C 366.964844 271.277344 364.28125 276.957031 361.316406 282.5 C 358.351562 288.046875 355.125 293.433594 351.628906 298.660156 C 348.136719 303.890625 344.394531 308.933594 340.40625 313.792969 C 336.417969 318.65625 332.199219 323.308594 327.753906 327.753906 C 323.308594 332.199219 318.65625 336.417969 313.792969 340.40625 C 308.933594 344.394531 303.890625 348.136719 298.660156 351.628906 C 293.433594 355.125 288.046875 358.351562 282.5 361.316406 C 276.957031 364.28125 271.277344 366.964844 265.46875 369.371094 C 259.660156 371.777344 253.746094 373.894531 247.730469 375.71875 C 241.714844 377.542969 235.621094 379.070312 229.453125 380.296875 C 223.289062 381.523438 217.074219 382.445312 210.816406 383.0625 C 204.558594 383.675781 198.289062 383.984375 192 383.984375 C 185.710938 383.984375 179.441406 383.675781 173.183594 383.0625 C 166.925781 382.445312 160.710938 381.523438 154.546875 380.296875 C 148.378906 379.070312 142.285156 377.542969 136.269531 375.71875 C 130.253906 373.894531 124.339844 371.777344 118.53125 369.371094 C 112.722656 366.964844 107.042969 364.28125 101.5 361.316406 C 95.953125 358.351562 90.566406 355.125 85.339844 351.628906 C 80.109375 348.136719 75.066406 344.394531 70.207031 340.40625 C 65.34375 336.417969 60.691406 332.199219 56.246094 327.753906 C 51.800781 323.308594 47.582031 318.65625 43.59375 313.792969 C 39.605469 308.933594 35.863281 303.890625 32.371094 298.660156 C 28.875 293.433594 25.648438 288.046875 22.683594 282.5 C 19.71875 276.957031 17.035156 271.277344 14.628906 265.46875 C 12.222656 259.660156 10.105469 253.746094 8.28125 247.730469 C 6.457031 241.714844 4.929688 235.621094 3.703125 229.453125 C 2.476562 223.289062 1.554688 217.074219 0.9375 210.816406 C 0.324219 204.558594 0.015625 198.289062 0.015625 192 Z M 0.015625 192 " clip-rule="nonzero"/></clipPath><clipPath id="8471a8e68d"><path d="M 156 185 L 230 185 L 230 233 L 156 233 Z M 156 185 " clip-rule="nonzero"/></clipPath><clipPath id="e6f13a69ae"><path d="M 0.015625 192 C 0.015625 185.710938 0.324219 179.441406 0.9375 173.183594 C 1.554688 166.925781 2.476562 160.710938 3.703125 154.546875 C 4.929688 148.378906 6.457031 142.285156 8.28125 136.269531 C 10.105469 130.253906 12.222656 124.339844 14.628906 118.53125 C 17.035156 112.722656 19.71875 107.042969 22.683594 101.5 C 25.648438 95.953125 28.875 90.566406 32.371094 85.339844 C 35.863281 80.109375 39.605469 75.066406 43.59375 70.207031 C 47.582031 65.34375 51.800781 60.691406 56.246094 56.246094 C 60.691406 51.800781 65.34375 47.582031 70.207031 43.59375 C 75.066406 39.605469 80.109375 35.863281 85.339844 32.371094 C 90.566406 28.875 95.953125 25.648438 101.5 22.683594 C 107.042969 19.71875 112.722656 17.035156 118.53125 14.628906 C 124.339844 12.222656 130.253906 10.105469 136.269531 8.28125 C 142.285156 6.457031 148.378906 4.929688 154.546875 3.703125 C 160.710938 2.476562 166.925781 1.554688 173.183594 0.9375 C 179.441406 0.324219 185.710938 0.015625 192 0.015625 C 198.289062 0.015625 204.558594 0.324219 210.816406 0.9375 C 217.074219 1.554688 223.289062 2.476562 229.453125 3.703125 C 235.621094 4.929688 241.714844 6.457031 247.730469 8.28125 C 253.746094 10.105469 259.660156 12.222656 265.46875 14.628906 C 271.277344 17.035156 276.957031 19.71875 282.5 22.683594 C 288.046875 25.648438 293.433594 28.875 298.660156 32.371094 C 303.890625 35.863281 308.933594 39.605469 313.792969 43.59375 C 318.65625 47.582031 323.308594 51.800781 327.753906 56.246094 C 332.199219 60.691406 336.417969 65.34375 340.40625 70.207031 C 344.394531 75.066406 348.136719 80.109375 351.628906 85.339844 C 355.125 90.566406 358.351562 95.953125 361.316406 101.5 C 364.28125 107.042969 366.964844 112.722656 369.371094 118.53125 C 371.777344 124.339844 373.894531 130.253906 375.71875 136.269531 C 377.542969 142.285156 379.070312 148.378906 380.296875 154.546875 C 381.523438 160.710938 382.445312 166.925781 383.0625 173.183594 C 383.675781 179.441406 383.984375 185.710938 383.984375 192 C 383.984375 198.289062 383.675781 204.558594 383.0625 210.816406 C 382.445312 217.074219 381.523438 223.289062 380.296875 229.453125 C 379.070312 235.621094 377.542969 241.714844 375.71875 247.730469 C 373.894531 253.746094 371.777344 259.660156 369.371094 265.46875 C 366.964844 271.277344 364.28125 276.957031 361.316406 282.5 C 358.351562 288.046875 355.125 293.433594 351.628906 298.660156 C 348.136719 303.890625 344.394531 308.933594 340.40625 313.792969 C 336.417969 318.65625 332.199219 323.308594 327.753906 327.753906 C 323.308594 332.199219 318.65625 336.417969 313.792969 340.40625 C 308.933594 344.394531 303.890625 348.136719 298.660156 351.628906 C 293.433594 355.125 288.046875 358.351562 282.5 361.316406 C 276.957031 364.28125 271.277344 366.964844 265.46875 369.371094 C 259.660156 371.777344 253.746094 373.894531 247.730469 375.71875 C 241.714844 377.542969 235.621094 379.070312 229.453125 380.296875 C 223.289062 381.523438 217.074219 382.445312 210.816406 383.0625 C 204.558594 383.675781 198.289062 383.984375 192 383.984375 C 185.710938 383.984375 179.441406 383.675781 173.183594 383.0625 C 166.925781 382.445312 160.710938 381.523438 154.546875 380.296875 C 148.378906 379.070312 142.285156 377.542969 136.269531 375.71875 C 130.253906 373.894531 124.339844 371.777344 118.53125 369.371094 C 112.722656 366.964844 107.042969 364.28125 101.5 361.316406 C 95.953125 358.351562 90.566406 355.125 85.339844 351.628906 C 80.109375 348.136719 75.066406 344.394531 70.207031 340.40625 C 65.34375 336.417969 60.691406 332.199219 56.246094 327.753906 C 51.800781 323.308594 47.582031 318.65625 43.59375 313.792969 C 39.605469 308.933594 35.863281 303.890625 32.371094 298.660156 C 28.875 293.433594 25.648438 288.046875 22.683594 282.5 C 19.71875 276.957031 17.035156 271.277344 14.628906 265.46875 C 12.222656 259.660156 10.105469 253.746094 8.28125 247.730469 C 6.457031 241.714844 4.929688 235.621094 3.703125 229.453125 C 2.476562 223.289062 1.554688 217.074219 0.9375 210.816406 C 0.324219 204.558594 0.015625 198.289062 0.015625 192 Z M 0.015625 192 " clip-rule="nonzero"/></clipPath><clipPath id="3c155f962d"><path d="M 132 55 L 252 55 L 252 216 L 132 216 Z M 132 55 " clip-rule="nonzero"/></clipPath><clipPath id="1b1fe2ae14"><path d="M 0.015625 192 C 0.015625 185.710938 0.324219 179.441406 0.9375 173.183594 C 1.554688 166.925781 2.476562 160.710938 3.703125 154.546875 C 4.929688 148.378906 6.457031 142.285156 8.28125 136.269531 C 10.105469 130.253906 12.222656 124.339844 14.628906 118.53125 C 17.035156 112.722656 19.71875 107.042969 22.683594 101.5 C 25.648438 95.953125 28.875 90.566406 32.371094 85.339844 C 35.863281 80.109375 39.605469 75.066406 43.59375 70.207031 C 47.582031 65.34375 51.800781 60.691406 56.246094 56.246094 C 60.691406 51.800781 65.34375 47.582031 70.207031 43.59375 C 75.066406 39.605469 80.109375 35.863281 85.339844 32.371094 C 90.566406 28.875 95.953125 25.648438 101.5 22.683594 C 107.042969 19.71875 112.722656 17.035156 118.53125 14.628906 C 124.339844 12.222656 130.253906 10.105469 136.269531 8.28125 C 142.285156 6.457031 148.378906 4.929688 154.546875 3.703125 C 160.710938 2.476562 166.925781 1.554688 173.183594 0.9375 C 179.441406 0.324219 185.710938 0.015625 192 0.015625 C 198.289062 0.015625 204.558594 0.324219 210.816406 0.9375 C 217.074219 1.554688 223.289062 2.476562 229.453125 3.703125 C 235.621094 4.929688 241.714844 6.457031 247.730469 8.28125 C 253.746094 10.105469 259.660156 12.222656 265.46875 14.628906 C 271.277344 17.035156 276.957031 19.71875 282.5 22.683594 C 288.046875 25.648438 293.433594 28.875 298.660156 32.371094 C 303.890625 35.863281 308.933594 39.605469 313.792969 43.59375 C 318.65625 47.582031 323.308594 51.800781 327.753906 56.246094 C 332.199219 60.691406 336.417969 65.34375 340.40625 70.207031 C 344.394531 75.066406 348.136719 80.109375 351.628906 85.339844 C 355.125 90.566406 358.351562 95.953125 361.316406 101.5 C 364.28125 107.042969 366.964844 112.722656 369.371094 118.53125 C 371.777344 124.339844 373.894531 130.253906 375.71875 136.269531 C 377.542969 142.285156 379.070312 148.378906 380.296875 154.546875 C 381.523438 160.710938 382.445312 166.925781 383.0625 173.183594 C 383.675781 179.441406 383.984375 185.710938 383.984375 192 C 383.984375 198.289062 383.675781 204.558594 383.0625 210.816406 C 382.445312 217.074219 381.523438 223.289062 380.296875 229.453125 C 379.070312 235.621094 377.542969 241.714844 375.71875 247.730469 C 373.894531 253.746094 371.777344 259.660156 369.371094 265.46875 C 366.964844 271.277344 364.28125 276.957031 361.316406 282.5 C 358.351562 288.046875 355.125 293.433594 351.628906 298.660156 C 348.136719 303.890625 344.394531 308.933594 340.40625 313.792969 C 336.417969 318.65625 332.199219 323.308594 327.753906 327.753906 C 323.308594 332.199219 318.65625 336.417969 313.792969 340.40625 C 308.933594 344.394531 303.890625 348.136719 298.660156 351.628906 C 293.433594 355.125 288.046875 358.351562 282.5 361.316406 C 276.957031 364.28125 271.277344 366.964844 265.46875 369.371094 C 259.660156 371.777344 253.746094 373.894531 247.730469 375.71875 C 241.714844 377.542969 235.621094 379.070312 229.453125 380.296875 C 223.289062 381.523438 217.074219 382.445312 210.816406 383.0625 C 204.558594 383.675781 198.289062 383.984375 192 383.984375 C 185.710938 383.984375 179.441406 383.675781 173.183594 383.0625 C 166.925781 382.445312 160.710938 381.523438 154.546875 380.296875 C 148.378906 379.070312 142.285156 377.542969 136.269531 375.71875 C 130.253906 373.894531 124.339844 371.777344 118.53125 369.371094 C 112.722656 366.964844 107.042969 364.28125 101.5 361.316406 C 95.953125 358.351562 90.566406 355.125 85.339844 351.628906 C 80.109375 348.136719 75.066406 344.394531 70.207031 340.40625 C 65.34375 336.417969 60.691406 332.199219 56.246094 327.753906 C 51.800781 323.308594 47.582031 318.65625 43.59375 313.792969 C 39.605469 308.933594 35.863281 303.890625 32.371094 298.660156 C 28.875 293.433594 25.648438 288.046875 22.683594 282.5 C 19.71875 276.957031 17.035156 271.277344 14.628906 265.46875 C 12.222656 259.660156 10.105469 253.746094 8.28125 247.730469 C 6.457031 241.714844 4.929688 235.621094 3.703125 229.453125 C 2.476562 223.289062 1.554688 217.074219 0.9375 210.816406 C 0.324219 204.558594 0.015625 198.289062 0.015625 192 Z M 0.015625 192 " clip-rule="nonzero"/></clipPath><clipPath id="a02c84ee9d"><path d="M 132 30 L 252 30 L 252 126 L 132 126 Z M 132 30 " clip-rule="nonzero"/></clipPath><clipPath id="2a578f10cd"><path d="M 0.015625 192 C 0.015625 185.710938 0.324219 179.441406 0.9375 173.183594 C 1.554688 166.925781 2.476562 160.710938 3.703125 154.546875 C 4.929688 148.378906 6.457031 142.285156 8.28125 136.269531 C 10.105469 130.253906 12.222656 124.339844 14.628906 118.53125 C 17.035156 112.722656 19.71875 107.042969 22.683594 101.5 C 25.648438 95.953125 28.875 90.566406 32.371094 85.339844 C 35.863281 80.109375 39.605469 75.066406 43.59375 70.207031 C 47.582031 65.34375 51.800781 60.691406 56.246094 56.246094 C 60.691406 51.800781 65.34375 47.582031 70.207031 43.59375 C 75.066406 39.605469 80.109375 35.863281 85.339844 32.371094 C 90.566406 28.875 95.953125 25.648438 101.5 22.683594 C 107.042969 19.71875 112.722656 17.035156 118.53125 14.628906 C 124.339844 12.222656 130.253906 10.105469 136.269531 8.28125 C 142.285156 6.457031 148.378906 4.929688 154.546875 3.703125 C 160.710938 2.476562 166.925781 1.554688 173.183594 0.9375 C 179.441406 0.324219 185.710938 0.015625 192 0.015625 C 198.289062 0.015625 204.558594 0.324219 210.816406 0.9375 C 217.074219 1.554688 223.289062 2.476562 229.453125 3.703125 C 235.621094 4.929688 241.714844 6.457031 247.730469 8.28125 C 253.746094 10.105469 259.660156 12.222656 265.46875 14.628906 C 271.277344 17.035156 276.957031 19.71875 282.5 22.683594 C 288.046875 25.648438 293.433594 28.875 298.660156 32.371094 C 303.890625 35.863281 308.933594 39.605469 313.792969 43.59375 C 318.65625 47.582031 323.308594 51.800781 327.753906 56.246094 C 332.199219 60.691406 336.417969 65.34375 340.40625 70.207031 C 344.394531 75.066406 348.136719 80.109375 351.628906 85.339844 C 355.125 90.566406 358.351562 95.953125 361.316406 101.5 C 364.28125 107.042969 366.964844 112.722656 369.371094 118.53125 C 371.777344 124.339844 373.894531 130.253906 375.71875 136.269531 C 377.542969 142.285156 379.070312 148.378906 380.296875 154.546875 C 381.523438 160.710938 382.445312 166.925781 383.0625 173.183594 C 383.675781 179.441406 383.984375 185.710938 383.984375 192 C 383.984375 198.289062 383.675781 204.558594 383.0625 210.816406 C 382.445312 217.074219 381.523438 223.289062 380.296875 229.453125 C 379.070312 235.621094 377.542969 241.714844 375.71875 247.730469 C 373.894531 253.746094 371.777344 259.660156 369.371094 265.46875 C 366.964844 271.277344 364.28125 276.957031 361.316406 282.5 C 358.351562 288.046875 355.125 293.433594 351.628906 298.660156 C 348.136719 303.890625 344.394531 308.933594 340.40625 313.792969 C 336.417969 318.65625 332.199219 323.308594 327.753906 327.753906 C 323.308594 332.199219 318.65625 336.417969 313.792969 340.40625 C 308.933594 344.394531 303.890625 348.136719 298.660156 351.628906 C 293.433594 355.125 288.046875 358.351562 282.5 361.316406 C 276.957031 364.28125 271.277344 366.964844 265.46875 369.371094 C 259.660156 371.777344 253.746094 373.894531 247.730469 375.71875 C 241.714844 377.542969 235.621094 379.070312 229.453125 380.296875 C 223.289062 381.523438 217.074219 382.445312 210.816406 383.0625 C 204.558594 383.675781 198.289062 383.984375 192 383.984375 C 185.710938 383.984375 179.441406 383.675781 173.183594 383.0625 C 166.925781 382.445312 160.710938 381.523438 154.546875 380.296875 C 148.378906 379.070312 142.285156 377.542969 136.269531 375.71875 C 130.253906 373.894531 124.339844 371.777344 118.53125 369.371094 C 112.722656 366.964844 107.042969 364.28125 101.5 361.316406 C 95.953125 358.351562 90.566406 355.125 85.339844 351.628906 C 80.109375 348.136719 75.066406 344.394531 70.207031 340.40625 C 65.34375 336.417969 60.691406 332.199219 56.246094 327.753906 C 51.800781 323.308594 47.582031 318.65625 43.59375 313.792969 C 39.605469 308.933594 35.863281 303.890625 32.371094 298.660156 C 28.875 293.433594 25.648438 288.046875 22.683594 282.5 C 19.71875 276.957031 17.035156 271.277344 14.628906 265.46875 C 12.222656 259.660156 10.105469 253.746094 8.28125 247.730469 C 6.457031 241.714844 4.929688 235.621094 3.703125 229.453125 C 2.476562 223.289062 1.554688 217.074219 0.9375 210.816406 C 0.324219 204.558594 0.015625 198.289062 0.015625 192 Z M 0.015625 192 " clip-rule="nonzero"/></clipPath><clipPath id="0f6d8e79d7"><path d="M 243 118 L 269 118 L 269 155 L 243 155 Z M 243 118 " clip-rule="nonzero"/></clipPath><clipPath id="7e959a6f87"><path d="M 0.015625 192 C 0.015625 185.710938 0.324219 179.441406 0.9375 173.183594 C 1.554688 166.925781 2.476562 160.710938 3.703125 154.546875 C 4.929688 148.378906 6.457031 142.285156 8.28125 136.269531 C 10.105469 130.253906 12.222656 124.339844 14.628906 118.53125 C 17.035156 112.722656 19.71875 107.042969 22.683594 101.5 C 25.648438 95.953125 28.875 90.566406 32.371094 85.339844 C 35.863281 80.109375 39.605469 75.066406 43.59375 70.207031 C 47.582031 65.34375 51.800781 60.691406 56.246094 56.246094 C 60.691406 51.800781 65.34375 47.582031 70.207031 43.59375 C 75.066406 39.605469 80.109375 35.863281 85.339844 32.371094 C 90.566406 28.875 95.953125 25.648438 101.5 22.683594 C 107.042969 19.71875 112.722656 17.035156 118.53125 14.628906 C 124.339844 12.222656 130.253906 10.105469 136.269531 8.28125 C 142.285156 6.457031 148.378906 4.929688 154.546875 3.703125 C 160.710938 2.476562 166.925781 1.554688 173.183594 0.9375 C 179.441406 0.324219 185.710938 0.015625 192 0.015625 C 198.289062 0.015625 204.558594 0.324219 210.816406 0.9375 C 217.074219 1.554688 223.289062 2.476562 229.453125 3.703125 C 235.621094 4.929688 241.714844 6.457031 247.730469 8.28125 C 253.746094 10.105469 259.660156 12.222656 265.46875 14.628906 C 271.277344 17.035156 276.957031 19.71875 282.5 22.683594 C 288.046875 25.648438 293.433594 28.875 298.660156 32.371094 C 303.890625 35.863281 308.933594 39.605469 313.792969 43.59375 C 318.65625 47.582031 323.308594 51.800781 327.753906 56.246094 C 332.199219 60.691406 336.417969 65.34375 340.40625 70.207031 C 344.394531 75.066406 348.136719 80.109375 351.628906 85.339844 C 355.125 90.566406 358.351562 95.953125 361.316406 101.5 C 364.28125 107.042969 366.964844 112.722656 369.371094 118.53125 C 371.777344 124.339844 373.894531 130.253906 375.71875 136.269531 C 377.542969 142.285156 379.070312 148.378906 380.296875 154.546875 C 381.523438 160.710938 382.445312 166.925781 383.0625 173.183594 C 383.675781 179.441406 383.984375 185.710938 383.984375 192 C 383.984375 198.289062 383.675781 204.558594 383.0625 210.816406 C 382.445312 217.074219 381.523438 223.289062 380.296875 229.453125 C 379.070312 235.621094 377.542969 241.714844 375.71875 247.730469 C 373.894531 253.746094 371.777344 259.660156 369.371094 265.46875 C 366.964844 271.277344 364.28125 276.957031 361.316406 282.5 C 358.351562 288.046875 355.125 293.433594 351.628906 298.660156 C 348.136719 303.890625 344.394531 308.933594 340.40625 313.792969 C 336.417969 318.65625 332.199219 323.308594 327.753906 327.753906 C 323.308594 332.199219 318.65625 336.417969 313.792969 340.40625 C 308.933594 344.394531 303.890625 348.136719 298.660156 351.628906 C 293.433594 355.125 288.046875 358.351562 282.5 361.316406 C 276.957031 364.28125 271.277344 366.964844 265.46875 369.371094 C 259.660156 371.777344 253.746094 373.894531 247.730469 375.71875 C 241.714844 377.542969 235.621094 379.070312 229.453125 380.296875 C 223.289062 381.523438 217.074219 382.445312 210.816406 383.0625 C 204.558594 383.675781 198.289062 383.984375 192 383.984375 C 185.710938 383.984375 179.441406 383.675781 173.183594 383.0625 C 166.925781 382.445312 160.710938 381.523438 154.546875 380.296875 C 148.378906 379.070312 142.285156 377.542969 136.269531 375.71875 C 130.253906 373.894531 124.339844 371.777344 118.53125 369.371094 C 112.722656 366.964844 107.042969 364.28125 101.5 361.316406 C 95.953125 358.351562 90.566406 355.125 85.339844 351.628906 C 80.109375 348.136719 75.066406 344.394531 70.207031 340.40625 C 65.34375 336.417969 60.691406 332.199219 56.246094 327.753906 C 51.800781 323.308594 47.582031 318.65625 43.59375 313.792969 C 39.605469 308.933594 35.863281 303.890625 32.371094 298.660156 C 28.875 293.433594 25.648438 288.046875 22.683594 282.5 C 19.71875 276.957031 17.035156 271.277344 14.628906 265.46875 C 12.222656 259.660156 10.105469 253.746094 8.28125 247.730469 C 6.457031 241.714844 4.929688 235.621094 3.703125 229.453125 C 2.476562 223.289062 1.554688 217.074219 0.9375 210.816406 C 0.324219 204.558594 0.015625 198.289062 0.015625 192 Z M 0.015625 192 " clip-rule="nonzero"/></clipPath><clipPath id="716fbdcc21"><path d="M 115 118 L 142 118 L 142 155 L 115 155 Z M 115 118 " clip-rule="nonzero"/></clipPath><clipPath id="2c39492a55"><path d="M 0.015625 192 C 0.015625 185.710938 0.324219 179.441406 0.9375 173.183594 C 1.554688 166.925781 2.476562 160.710938 3.703125 154.546875 C 4.929688 148.378906 6.457031 142.285156 8.28125 136.269531 C 10.105469 130.253906 12.222656 124.339844 14.628906 118.53125 C 17.035156 112.722656 19.71875 107.042969 22.683594 101.5 C 25.648438 95.953125 28.875 90.566406 32.371094 85.339844 C 35.863281 80.109375 39.605469 75.066406 43.59375 70.207031 C 47.582031 65.34375 51.800781 60.691406 56.246094 56.246094 C 60.691406 51.800781 65.34375 47.582031 70.207031 43.59375 C 75.066406 39.605469 80.109375 35.863281 85.339844 32.371094 C 90.566406 28.875 95.953125 25.648438 101.5 22.683594 C 107.042969 19.71875 112.722656 17.035156 118.53125 14.628906 C 124.339844 12.222656 130.253906 10.105469 136.269531 8.28125 C 142.285156 6.457031 148.378906 4.929688 154.546875 3.703125 C 160.710938 2.476562 166.925781 1.554688 173.183594 0.9375 C 179.441406 0.324219 185.710938 0.015625 192 0.015625 C 198.289062 0.015625 204.558594 0.324219 210.816406 0.9375 C 217.074219 1.554688 223.289062 2.476562 229.453125 3.703125 C 235.621094 4.929688 241.714844 6.457031 247.730469 8.28125 C 253.746094 10.105469 259.660156 12.222656 265.46875 14.628906 C 271.277344 17.035156 276.957031 19.71875 282.5 22.683594 C 288.046875 25.648438 293.433594 28.875 298.660156 32.371094 C 303.890625 35.863281 308.933594 39.605469 313.792969 43.59375 C 318.65625 47.582031 323.308594 51.800781 327.753906 56.246094 C 332.199219 60.691406 336.417969 65.34375 340.40625 70.207031 C 344.394531 75.066406 348.136719 80.109375 351.628906 85.339844 C 355.125 90.566406 358.351562 95.953125 361.316406 101.5 C 364.28125 107.042969 366.964844 112.722656 369.371094 118.53125 C 371.777344 124.339844 373.894531 130.253906 375.71875 136.269531 C 377.542969 142.285156 379.070312 148.378906 380.296875 154.546875 C 381.523438 160.710938 382.445312 166.925781 383.0625 173.183594 C 383.675781 179.441406 383.984375 185.710938 383.984375 192 C 383.984375 198.289062 383.675781 204.558594 383.0625 210.816406 C 382.445312 217.074219 381.523438 223.289062 380.296875 229.453125 C 379.070312 235.621094 377.542969 241.714844 375.71875 247.730469 C 373.894531 253.746094 371.777344 259.660156 369.371094 265.46875 C 366.964844 271.277344 364.28125 276.957031 361.316406 282.5 C 358.351562 288.046875 355.125 293.433594 351.628906 298.660156 C 348.136719 303.890625 344.394531 308.933594 340.40625 313.792969 C 336.417969 318.65625 332.199219 323.308594 327.753906 327.753906 C 323.308594 332.199219 318.65625 336.417969 313.792969 340.40625 C 308.933594 344.394531 303.890625 348.136719 298.660156 351.628906 C 293.433594 355.125 288.046875 358.351562 282.5 361.316406 C 276.957031 364.28125 271.277344 366.964844 265.46875 369.371094 C 259.660156 371.777344 253.746094 373.894531 247.730469 375.71875 C 241.714844 377.542969 235.621094 379.070312 229.453125 380.296875 C 223.289062 381.523438 217.074219 382.445312 210.816406 383.0625 C 204.558594 383.675781 198.289062 383.984375 192 383.984375 C 185.710938 383.984375 179.441406 383.675781 173.183594 383.0625 C 166.925781 382.445312 160.710938 381.523438 154.546875 380.296875 C 148.378906 379.070312 142.285156 377.542969 136.269531 375.71875 C 130.253906 373.894531 124.339844 371.777344 118.53125 369.371094 C 112.722656 366.964844 107.042969 364.28125 101.5 361.316406 C 95.953125 358.351562 90.566406 355.125 85.339844 351.628906 C 80.109375 348.136719 75.066406 344.394531 70.207031 340.40625 C 65.34375 336.417969 60.691406 332.199219 56.246094 327.753906 C 51.800781 323.308594 47.582031 318.65625 43.59375 313.792969 C 39.605469 308.933594 35.863281 303.890625 32.371094 298.660156 C 28.875 293.433594 25.648438 288.046875 22.683594 282.5 C 19.71875 276.957031 17.035156 271.277344 14.628906 265.46875 C 12.222656 259.660156 10.105469 253.746094 8.28125 247.730469 C 6.457031 241.714844 4.929688 235.621094 3.703125 229.453125 C 2.476562 223.289062 1.554688 217.074219 0.9375 210.816406 C 0.324219 204.558594 0.015625 198.289062 0.015625 192 Z M 0.015625 192 " clip-rule="nonzero"/></clipPath><clipPath id="23b27cbf52"><path d="M 131 121 L 253 121 L 253 218 L 131 218 Z M 131 121 " clip-rule="nonzero"/></clipPath><clipPath id="7098885cb8"><path d="M 0.015625 192 C 0.015625 185.710938 0.324219 179.441406 0.9375 173.183594 C 1.554688 166.925781 2.476562 160.710938 3.703125 154.546875 C 4.929688 148.378906 6.457031 142.285156 8.28125 136.269531 C 10.105469 130.253906 12.222656 124.339844 14.628906 118.53125 C 17.035156 112.722656 19.71875 107.042969 22.683594 101.5 C 25.648438 95.953125 28.875 90.566406 32.371094 85.339844 C 35.863281 80.109375 39.605469 75.066406 43.59375 70.207031 C 47.582031 65.34375 51.800781 60.691406 56.246094 56.246094 C 60.691406 51.800781 65.34375 47.582031 70.207031 43.59375 C 75.066406 39.605469 80.109375 35.863281 85.339844 32.371094 C 90.566406 28.875 95.953125 25.648438 101.5 22.683594 C 107.042969 19.71875 112.722656 17.035156 118.53125 14.628906 C 124.339844 12.222656 130.253906 10.105469 136.269531 8.28125 C 142.285156 6.457031 148.378906 4.929688 154.546875 3.703125 C 160.710938 2.476562 166.925781 1.554688 173.183594 0.9375 C 179.441406 0.324219 185.710938 0.015625 192 0.015625 C 198.289062 0.015625 204.558594 0.324219 210.816406 0.9375 C 217.074219 1.554688 223.289062 2.476562 229.453125 3.703125 C 235.621094 4.929688 241.714844 6.457031 247.730469 8.28125 C 253.746094 10.105469 259.660156 12.222656 265.46875 14.628906 C 271.277344 17.035156 276.957031 19.71875 282.5 22.683594 C 288.046875 25.648438 293.433594 28.875 298.660156 32.371094 C 303.890625 35.863281 308.933594 39.605469 313.792969 43.59375 C 318.65625 47.582031 323.308594 51.800781 327.753906 56.246094 C 332.199219 60.691406 336.417969 65.34375 340.40625 70.207031 C 344.394531 75.066406 348.136719 80.109375 351.628906 85.339844 C 355.125 90.566406 358.351562 95.953125 361.316406 101.5 C 364.28125 107.042969 366.964844 112.722656 369.371094 118.53125 C 371.777344 124.339844 373.894531 130.253906 375.71875 136.269531 C 377.542969 142.285156 379.070312 148.378906 380.296875 154.546875 C 381.523438 160.710938 382.445312 166.925781 383.0625 173.183594 C 383.675781 179.441406 383.984375 185.710938 383.984375 192 C 383.984375 198.289062 383.675781 204.558594 383.0625 210.816406 C 382.445312 217.074219 381.523438 223.289062 380.296875 229.453125 C 379.070312 235.621094 377.542969 241.714844 375.71875 247.730469 C 373.894531 253.746094 371.777344 259.660156 369.371094 265.46875 C 366.964844 271.277344 364.28125 276.957031 361.316406 282.5 C 358.351562 288.046875 355.125 293.433594 351.628906 298.660156 C 348.136719 303.890625 344.394531 308.933594 340.40625 313.792969 C 336.417969 318.65625 332.199219 323.308594 327.753906 327.753906 C 323.308594 332.199219 318.65625 336.417969 313.792969 340.40625 C 308.933594 344.394531 303.890625 348.136719 298.660156 351.628906 C 293.433594 355.125 288.046875 358.351562 282.5 361.316406 C 276.957031 364.28125 271.277344 366.964844 265.46875 369.371094 C 259.660156 371.777344 253.746094 373.894531 247.730469 375.71875 C 241.714844 377.542969 235.621094 379.070312 229.453125 380.296875 C 223.289062 381.523438 217.074219 382.445312 210.816406 383.0625 C 204.558594 383.675781 198.289062 383.984375 192 383.984375 C 185.710938 383.984375 179.441406 383.675781 173.183594 383.0625 C 166.925781 382.445312 160.710938 381.523438 154.546875 380.296875 C 148.378906 379.070312 142.285156 377.542969 136.269531 375.71875 C 130.253906 373.894531 124.339844 371.777344 118.53125 369.371094 C 112.722656 366.964844 107.042969 364.28125 101.5 361.316406 C 95.953125 358.351562 90.566406 355.125 85.339844 351.628906 C 80.109375 348.136719 75.066406 344.394531 70.207031 340.40625 C 65.34375 336.417969 60.691406 332.199219 56.246094 327.753906 C 51.800781 323.308594 47.582031 318.65625 43.59375 313.792969 C 39.605469 308.933594 35.863281 303.890625 32.371094 298.660156 C 28.875 293.433594 25.648438 288.046875 22.683594 282.5 C 19.71875 276.957031 17.035156 271.277344 14.628906 265.46875 C 12.222656 259.660156 10.105469 253.746094 8.28125 247.730469 C 6.457031 241.714844 4.929688 235.621094 3.703125 229.453125 C 2.476562 223.289062 1.554688 217.074219 0.9375 210.816406 C 0.324219 204.558594 0.015625 198.289062 0.015625 192 Z M 0.015625 192 " clip-rule="nonzero"/></clipPath><clipPath id="6832f2a6e9"><path d="M 247 191 L 248 191 L 248 192 L 247 192 Z M 247 191 " clip-rule="nonzero"/></clipPath><clipPath id="7dce73b44e"><path d="M 0.015625 192 C 0.015625 185.710938 0.324219 179.441406 0.9375 173.183594 C 1.554688 166.925781 2.476562 160.710938 3.703125 154.546875 C 4.929688 148.378906 6.457031 142.285156 8.28125 136.269531 C 10.105469 130.253906 12.222656 124.339844 14.628906 118.53125 C 17.035156 112.722656 19.71875 107.042969 22.683594 101.5 C 25.648438 95.953125 28.875 90.566406 32.371094 85.339844 C 35.863281 80.109375 39.605469 75.066406 43.59375 70.207031 C 47.582031 65.34375 51.800781 60.691406 56.246094 56.246094 C 60.691406 51.800781 65.34375 47.582031 70.207031 43.59375 C 75.066406 39.605469 80.109375 35.863281 85.339844 32.371094 C 90.566406 28.875 95.953125 25.648438 101.5 22.683594 C 107.042969 19.71875 112.722656 17.035156 118.53125 14.628906 C 124.339844 12.222656 130.253906 10.105469 136.269531 8.28125 C 142.285156 6.457031 148.378906 4.929688 154.546875 3.703125 C 160.710938 2.476562 166.925781 1.554688 173.183594 0.9375 C 179.441406 0.324219 185.710938 0.015625 192 0.015625 C 198.289062 0.015625 204.558594 0.324219 210.816406 0.9375 C 217.074219 1.554688 223.289062 2.476562 229.453125 3.703125 C 235.621094 4.929688 241.714844 6.457031 247.730469 8.28125 C 253.746094 10.105469 259.660156 12.222656 265.46875 14.628906 C 271.277344 17.035156 276.957031 19.71875 282.5 22.683594 C 288.046875 25.648438 293.433594 28.875 298.660156 32.371094 C 303.890625 35.863281 308.933594 39.605469 313.792969 43.59375 C 318.65625 47.582031 323.308594 51.800781 327.753906 56.246094 C 332.199219 60.691406 336.417969 65.34375 340.40625 70.207031 C 344.394531 75.066406 348.136719 80.109375 351.628906 85.339844 C 355.125 90.566406 358.351562 95.953125 361.316406 101.5 C 364.28125 107.042969 366.964844 112.722656 369.371094 118.53125 C 371.777344 124.339844 373.894531 130.253906 375.71875 136.269531 C 377.542969 142.285156 379.070312 148.378906 380.296875 154.546875 C 381.523438 160.710938 382.445312 166.925781 383.0625 173.183594 C 383.675781 179.441406 383.984375 185.710938 383.984375 192 C 383.984375 198.289062 383.675781 204.558594 383.0625 210.816406 C 382.445312 217.074219 381.523438 223.289062 380.296875 229.453125 C 379.070312 235.621094 377.542969 241.714844 375.71875 247.730469 C 373.894531 253.746094 371.777344 259.660156 369.371094 265.46875 C 366.964844 271.277344 364.28125 276.957031 361.316406 282.5 C 358.351562 288.046875 355.125 293.433594 351.628906 298.660156 C 348.136719 303.890625 344.394531 308.933594 340.40625 313.792969 C 336.417969 318.65625 332.199219 323.308594 327.753906 327.753906 C 323.308594 332.199219 318.65625 336.417969 313.792969 340.40625 C 308.933594 344.394531 303.890625 348.136719 298.660156 351.628906 C 293.433594 355.125 288.046875 358.351562 282.5 361.316406 C 276.957031 364.28125 271.277344 366.964844 265.46875 369.371094 C 259.660156 371.777344 253.746094 373.894531 247.730469 375.71875 C 241.714844 377.542969 235.621094 379.070312 229.453125 380.296875 C 223.289062 381.523438 217.074219 382.445312 210.816406 383.0625 C 204.558594 383.675781 198.289062 383.984375 192 383.984375 C 185.710938 383.984375 179.441406 383.675781 173.183594 383.0625 C 166.925781 382.445312 160.710938 381.523438 154.546875 380.296875 C 148.378906 379.070312 142.285156 377.542969 136.269531 375.71875 C 130.253906 373.894531 124.339844 371.777344 118.53125 369.371094 C 112.722656 366.964844 107.042969 364.28125 101.5 361.316406 C 95.953125 358.351562 90.566406 355.125 85.339844 351.628906 C 80.109375 348.136719 75.066406 344.394531 70.207031 340.40625 C 65.34375 336.417969 60.691406 332.199219 56.246094 327.753906 C 51.800781 323.308594 47.582031 318.65625 43.59375 313.792969 C 39.605469 308.933594 35.863281 303.890625 32.371094 298.660156 C 28.875 293.433594 25.648438 288.046875 22.683594 282.5 C 19.71875 276.957031 17.035156 271.277344 14.628906 265.46875 C 12.222656 259.660156 10.105469 253.746094 8.28125 247.730469 C 6.457031 241.714844 4.929688 235.621094 3.703125 229.453125 C 2.476562 223.289062 1.554688 217.074219 0.9375 210.816406 C 0.324219 204.558594 0.015625 198.289062 0.015625 192 Z M 0.015625 192 " clip-rule="nonzero"/></clipPath><clipPath id="ee4c214a79"><path d="M 29 241 L 355 241 L 355 384 L 29 384 Z M 29 241 " clip-rule="nonzero"/></clipPath><clipPath id="6b5ffd44c1"><path d="M 0.015625 192 C 0.015625 185.710938 0.324219 179.441406 0.9375 173.183594 C 1.554688 166.925781 2.476562 160.710938 3.703125 154.546875 C 4.929688 148.378906 6.457031 142.285156 8.28125 136.269531 C 10.105469 130.253906 12.222656 124.339844 14.628906 118.53125 C 17.035156 112.722656 19.71875 107.042969 22.683594 101.5 C 25.648438 95.953125 28.875 90.566406 32.371094 85.339844 C 35.863281 80.109375 39.605469 75.066406 43.59375 70.207031 C 47.582031 65.34375 51.800781 60.691406 56.246094 56.246094 C 60.691406 51.800781 65.34375 47.582031 70.207031 43.59375 C 75.066406 39.605469 80.109375 35.863281 85.339844 32.371094 C 90.566406 28.875 95.953125 25.648438 101.5 22.683594 C 107.042969 19.71875 112.722656 17.035156 118.53125 14.628906 C 124.339844 12.222656 130.253906 10.105469 136.269531 8.28125 C 142.285156 6.457031 148.378906 4.929688 154.546875 3.703125 C 160.710938 2.476562 166.925781 1.554688 173.183594 0.9375 C 179.441406 0.324219 185.710938 0.015625 192 0.015625 C 198.289062 0.015625 204.558594 0.324219 210.816406 0.9375 C 217.074219 1.554688 223.289062 2.476562 229.453125 3.703125 C 235.621094 4.929688 241.714844 6.457031 247.730469 8.28125 C 253.746094 10.105469 259.660156 12.222656 265.46875 14.628906 C 271.277344 17.035156 276.957031 19.71875 282.5 22.683594 C 288.046875 25.648438 293.433594 28.875 298.660156 32.371094 C 303.890625 35.863281 308.933594 39.605469 313.792969 43.59375 C 318.65625 47.582031 323.308594 51.800781 327.753906 56.246094 C 332.199219 60.691406 336.417969 65.34375 340.40625 70.207031 C 344.394531 75.066406 348.136719 80.109375 351.628906 85.339844 C 355.125 90.566406 358.351562 95.953125 361.316406 101.5 C 364.28125 107.042969 366.964844 112.722656 369.371094 118.53125 C 371.777344 124.339844 373.894531 130.253906 375.71875 136.269531 C 377.542969 142.285156 379.070312 148.378906 380.296875 154.546875 C 381.523438 160.710938 382.445312 166.925781 383.0625 173.183594 C 383.675781 179.441406 383.984375 185.710938 383.984375 192 C 383.984375 198.289062 383.675781 204.558594 383.0625 210.816406 C 382.445312 217.074219 381.523438 223.289062 380.296875 229.453125 C 379.070312 235.621094 377.542969 241.714844 375.71875 247.730469 C 373.894531 253.746094 371.777344 259.660156 369.371094 265.46875 C 366.964844 271.277344 364.28125 276.957031 361.316406 282.5 C 358.351562 288.046875 355.125 293.433594 351.628906 298.660156 C 348.136719 303.890625 344.394531 308.933594 340.40625 313.792969 C 336.417969 318.65625 332.199219 323.308594 327.753906 327.753906 C 323.308594 332.199219 318.65625 336.417969 313.792969 340.40625 C 308.933594 344.394531 303.890625 348.136719 298.660156 351.628906 C 293.433594 355.125 288.046875 358.351562 282.5 361.316406 C 276.957031 364.28125 271.277344 366.964844 265.46875 369.371094 C 259.660156 371.777344 253.746094 373.894531 247.730469 375.71875 C 241.714844 377.542969 235.621094 379.070312 229.453125 380.296875 C 223.289062 381.523438 217.074219 382.445312 210.816406 383.0625 C 204.558594 383.675781 198.289062 383.984375 192 383.984375 C 185.710938 383.984375 179.441406 383.675781 173.183594 383.0625 C 166.925781 382.445312 160.710938 381.523438 154.546875 380.296875 C 148.378906 379.070312 142.285156 377.542969 136.269531 375.71875 C 130.253906 373.894531 124.339844 371.777344 118.53125 369.371094 C 112.722656 366.964844 107.042969 364.28125 101.5 361.316406 C 95.953125 358.351562 90.566406 355.125 85.339844 351.628906 C 80.109375 348.136719 75.066406 344.394531 70.207031 340.40625 C 65.34375 336.417969 60.691406 332.199219 56.246094 327.753906 C 51.800781 323.308594 47.582031 318.65625 43.59375 313.792969 C 39.605469 308.933594 35.863281 303.890625 32.371094 298.660156 C 28.875 293.433594 25.648438 288.046875 22.683594 282.5 C 19.71875 276.957031 17.035156 271.277344 14.628906 265.46875 C 12.222656 259.660156 10.105469 253.746094 8.28125 247.730469 C 6.457031 241.714844 4.929688 235.621094 3.703125 229.453125 C 2.476562 223.289062 1.554688 217.074219 0.9375 210.816406 C 0.324219 204.558594 0.015625 198.289062 0.015625 192 Z M 0.015625 192 " clip-rule="nonzero"/></clipPath><clipPath id="8311f5836a"><path d="M 135 241 L 249 241 L 249 313 L 135 313 Z M 135 241 " clip-rule="nonzero"/></clipPath><clipPath id="40f44c84a6"><path d="M 0.015625 192 C 0.015625 185.710938 0.324219 179.441406 0.9375 173.183594 C 1.554688 166.925781 2.476562 160.710938 3.703125 154.546875 C 4.929688 148.378906 6.457031 142.285156 8.28125 136.269531 C 10.105469 130.253906 12.222656 124.339844 14.628906 118.53125 C 17.035156 112.722656 19.71875 107.042969 22.683594 101.5 C 25.648438 95.953125 28.875 90.566406 32.371094 85.339844 C 35.863281 80.109375 39.605469 75.066406 43.59375 70.207031 C 47.582031 65.34375 51.800781 60.691406 56.246094 56.246094 C 60.691406 51.800781 65.34375 47.582031 70.207031 43.59375 C 75.066406 39.605469 80.109375 35.863281 85.339844 32.371094 C 90.566406 28.875 95.953125 25.648438 101.5 22.683594 C 107.042969 19.71875 112.722656 17.035156 118.53125 14.628906 C 124.339844 12.222656 130.253906 10.105469 136.269531 8.28125 C 142.285156 6.457031 148.378906 4.929688 154.546875 3.703125 C 160.710938 2.476562 166.925781 1.554688 173.183594 0.9375 C 179.441406 0.324219 185.710938 0.015625 192 0.015625 C 198.289062 0.015625 204.558594 0.324219 210.816406 0.9375 C 217.074219 1.554688 223.289062 2.476562 229.453125 3.703125 C 235.621094 4.929688 241.714844 6.457031 247.730469 8.28125 C 253.746094 10.105469 259.660156 12.222656 265.46875 14.628906 C 271.277344 17.035156 276.957031 19.71875 282.5 22.683594 C 288.046875 25.648438 293.433594 28.875 298.660156 32.371094 C 303.890625 35.863281 308.933594 39.605469 313.792969 43.59375 C 318.65625 47.582031 323.308594 51.800781 327.753906 56.246094 C 332.199219 60.691406 336.417969 65.34375 340.40625 70.207031 C 344.394531 75.066406 348.136719 80.109375 351.628906 85.339844 C 355.125 90.566406 358.351562 95.953125 361.316406 101.5 C 364.28125 107.042969 366.964844 112.722656 369.371094 118.53125 C 371.777344 124.339844 373.894531 130.253906 375.71875 136.269531 C 377.542969 142.285156 379.070312 148.378906 380.296875 154.546875 C 381.523438 160.710938 382.445312 166.925781 383.0625 173.183594 C 383.675781 179.441406 383.984375 185.710938 383.984375 192 C 383.984375 198.289062 383.675781 204.558594 383.0625 210.816406 C 382.445312 217.074219 381.523438 223.289062 380.296875 229.453125 C 379.070312 235.621094 377.542969 241.714844 375.71875 247.730469 C 373.894531 253.746094 371.777344 259.660156 369.371094 265.46875 C 366.964844 271.277344 364.28125 276.957031 361.316406 282.5 C 358.351562 288.046875 355.125 293.433594 351.628906 298.660156 C 348.136719 303.890625 344.394531 308.933594 340.40625 313.792969 C 336.417969 318.65625 332.199219 323.308594 327.753906 327.753906 C 323.308594 332.199219 318.65625 336.417969 313.792969 340.40625 C 308.933594 344.394531 303.890625 348.136719 298.660156 351.628906 C 293.433594 355.125 288.046875 358.351562 282.5 361.316406 C 276.957031 364.28125 271.277344 366.964844 265.46875 369.371094 C 259.660156 371.777344 253.746094 373.894531 247.730469 375.71875 C 241.714844 377.542969 235.621094 379.070312 229.453125 380.296875 C 223.289062 381.523438 217.074219 382.445312 210.816406 383.0625 C 204.558594 383.675781 198.289062 383.984375 192 383.984375 C 185.710938 383.984375 179.441406 383.675781 173.183594 383.0625 C 166.925781 382.445312 160.710938 381.523438 154.546875 380.296875 C 148.378906 379.070312 142.285156 377.542969 136.269531 375.71875 C 130.253906 373.894531 124.339844 371.777344 118.53125 369.371094 C 112.722656 366.964844 107.042969 364.28125 101.5 361.316406 C 95.953125 358.351562 90.566406 355.125 85.339844 351.628906 C 80.109375 348.136719 75.066406 344.394531 70.207031 340.40625 C 65.34375 336.417969 60.691406 332.199219 56.246094 327.753906 C 51.800781 323.308594 47.582031 318.65625 43.59375 313.792969 C 39.605469 308.933594 35.863281 303.890625 32.371094 298.660156 C 28.875 293.433594 25.648438 288.046875 22.683594 282.5 C 19.71875 276.957031 17.035156 271.277344 14.628906 265.46875 C 12.222656 259.660156 10.105469 253.746094 8.28125 247.730469 C 6.457031 241.714844 4.929688 235.621094 3.703125 229.453125 C 2.476562 223.289062 1.554688 217.074219 0.9375 210.816406 C 0.324219 204.558594 0.015625 198.289062 0.015625 192 Z M 0.015625 192 " clip-rule="nonzero"/></clipPath></defs><rect x="-38.4" width="460.8" fill="#ffffff" y="-38.399999" height="460.799983" fill-opacity="1"/><rect x="-38.4" width="460.8" fill="#ffffff" y="-38.399999" height="460.799983" fill-opacity="1"/><path fill="#f9bd87" d="M 383.984375 192 C 383.984375 195.140625 383.910156 198.28125 383.753906 201.421875 C 383.601562 204.558594 383.367188 207.691406 383.0625 210.816406 C 382.753906 213.945312 382.367188 217.0625 381.90625 220.171875 C 381.445312 223.277344 380.910156 226.371094 380.296875 229.453125 C 379.683594 232.535156 378.996094 235.601562 378.230469 238.648438 C 377.46875 241.695312 376.628906 244.722656 375.71875 247.730469 C 374.804688 250.738281 373.820312 253.71875 372.761719 256.679688 C 371.703125 259.636719 370.574219 262.566406 369.371094 265.46875 C 368.167969 268.371094 366.894531 271.242188 365.550781 274.085938 C 364.210938 276.925781 362.796875 279.730469 361.316406 282.5 C 359.835938 285.273438 358.285156 288.003906 356.671875 290.699219 C 355.054688 293.394531 353.375 296.046875 351.628906 298.660156 C 349.882812 301.273438 348.074219 303.84375 346.203125 306.367188 C 344.332031 308.890625 342.398438 311.367188 340.40625 313.792969 C 338.414062 316.222656 336.363281 318.601562 334.25 320.929688 C 332.140625 323.257812 329.976562 325.53125 327.753906 327.753906 C 325.53125 329.976562 323.257812 332.140625 320.929688 334.25 C 318.601562 336.363281 316.222656 338.414062 313.792969 340.40625 C 311.367188 342.398438 308.890625 344.332031 306.367188 346.203125 C 303.84375 348.074219 301.273438 349.882812 298.660156 351.628906 C 296.046875 353.375 293.394531 355.054688 290.699219 356.671875 C 288.003906 358.285156 285.273438 359.835938 282.5 361.316406 C 279.730469 362.796875 276.925781 364.210938 274.085938 365.550781 C 271.242188 366.894531 268.371094 368.167969 265.46875 369.371094 C 262.566406 370.574219 259.636719 371.703125 256.679688 372.761719 C 253.71875 373.820312 250.738281 374.804688 247.730469 375.71875 C 244.722656 376.628906 241.695312 377.46875 238.648438 378.230469 C 235.601562 378.996094 232.535156 379.683594 229.453125 380.296875 C 226.371094 380.910156 223.277344 381.445312 220.171875 381.90625 C 217.0625 382.367188 213.945312 382.753906 210.816406 383.0625 C 207.691406 383.367188 204.558594 383.601562 201.421875 383.753906 C 198.28125 383.910156 195.140625 383.984375 192 383.984375 C 188.859375 383.984375 185.71875 383.910156 182.578125 383.753906 C 179.441406 383.601562 176.308594 383.367188 173.183594 383.0625 C 170.054688 382.753906 166.9375 382.367188 163.828125 381.90625 C 160.722656 381.445312 157.628906 380.910156 154.546875 380.296875 C 151.464844 379.683594 148.398438 378.996094 145.351562 378.230469 C 142.304688 377.46875 139.277344 376.628906 136.269531 375.71875 C 133.261719 374.804688 130.28125 373.820312 127.320312 372.761719 C 124.363281 371.703125 121.433594 370.574219 118.53125 369.371094 C 115.628906 368.167969 112.757812 366.894531 109.914062 365.550781 C 107.074219 364.210938 104.269531 362.796875 101.5 361.316406 C 98.726562 359.835938 95.996094 358.285156 93.300781 356.671875 C 90.605469 355.054688 87.949219 353.375 85.339844 351.628906 C 82.726562 349.882812 80.15625 348.074219 77.632812 346.203125 C 75.109375 344.332031 72.632812 342.398438 70.207031 340.40625 C 67.777344 338.414062 65.398438 336.363281 63.070312 334.25 C 60.742188 332.140625 58.46875 329.976562 56.246094 327.753906 C 54.023438 325.53125 51.859375 323.257812 49.75 320.929688 C 47.636719 318.601562 45.585938 316.222656 43.59375 313.792969 C 41.601562 311.367188 39.667969 308.890625 37.796875 306.367188 C 35.925781 303.84375 34.117188 301.273438 32.371094 298.660156 C 30.625 296.046875 28.945312 293.394531 27.328125 290.699219 C 25.714844 288.003906 24.164062 285.273438 22.683594 282.5 C 21.203125 279.730469 19.789062 276.925781 18.445312 274.085938 C 17.105469 271.242188 15.832031 268.371094 14.628906 265.46875 C 13.425781 262.566406 12.296875 259.636719 11.238281 256.679688 C 10.179688 253.71875 9.195312 250.738281 8.28125 247.730469 C 7.371094 244.722656 6.53125 241.695312 5.769531 238.648438 C 5.003906 235.601562 4.316406 232.535156 3.703125 229.453125 C 3.089844 226.371094 2.554688 223.277344 2.09375 220.171875 C 1.632812 217.0625 1.246094 213.945312 0.9375 210.816406 C 0.632812 207.691406 0.398438 204.558594 0.246094 201.421875 C 0.0898438 198.28125 0.015625 195.140625 0.015625 192 C 0.015625 188.859375 0.0898438 185.71875 0.246094 182.578125 C 0.398438 179.441406 0.632812 176.308594 0.9375 173.183594 C 1.246094 170.054688 1.632812 166.9375 2.09375 163.828125 C 2.554688 160.722656 3.089844 157.628906 3.703125 154.546875 C 4.316406 151.464844 5.003906 148.398438 5.769531 145.351562 C 6.53125 142.304688 7.371094 139.277344 8.28125 136.269531 C 9.195312 133.261719 10.179688 130.28125 11.238281 127.320312 C 12.296875 124.363281 13.425781 121.433594 14.628906 118.53125 C 15.832031 115.628906 17.105469 112.757812 18.445312 109.914062 C 19.789062 107.074219 21.203125 104.269531 22.683594 101.5 C 24.164062 98.726562 25.714844 95.996094 27.328125 93.300781 C 28.945312 90.605469 30.625 87.949219 32.371094 85.339844 C 34.117188 82.726562 35.925781 80.15625 37.796875 77.632812 C 39.667969 75.109375 41.601562 72.632812 43.59375 70.207031 C 45.585938 67.777344 47.636719 65.398438 49.75 63.070312 C 51.859375 60.742188 54.023438 58.46875 56.246094 56.246094 C 58.46875 54.023438 60.742188 51.859375 63.070312 49.75 C 65.398438 47.636719 67.777344 45.585938 70.207031 43.59375 C 72.632812 41.601562 75.109375 39.667969 77.632812 37.796875 C 80.15625 35.925781 82.726562 34.117188 85.339844 32.371094 C 87.949219 30.625 90.605469 28.945312 93.300781 27.328125 C 95.996094 25.714844 98.726562 24.164062 101.5 22.683594 C 104.269531 21.203125 107.074219 19.789062 109.914062 18.445312 C 112.757812 17.105469 115.628906 15.832031 118.53125 14.628906 C 121.433594 13.425781 124.363281 12.296875 127.320312 11.238281 C 130.28125 10.179688 133.261719 9.195312 136.269531 8.28125 C 139.277344 7.371094 142.304688 6.53125 145.351562 5.769531 C 148.398438 5.003906 151.464844 4.316406 154.546875 3.703125 C 157.628906 3.089844 160.722656 2.554688 163.828125 2.09375 C 166.9375 1.632812 170.054688 1.246094 173.183594 0.9375 C 176.308594 0.632812 179.441406 0.398438 182.578125 0.246094 C 185.71875 0.0898438 188.859375 0.015625 192 0.015625 C 195.140625 0.015625 198.28125 0.0898438 201.421875 0.246094 C 204.558594 0.398438 207.691406 0.632812 210.816406 0.9375 C 213.945312 1.246094 217.0625 1.632812 220.171875 2.09375 C 223.277344 2.554688 226.371094 3.089844 229.453125 3.703125 C 232.535156 4.316406 235.601562 5.003906 238.648438 5.769531 C 241.695312 6.53125 244.722656 7.371094 247.730469 8.28125 C 250.738281 9.195312 253.71875 10.179688 256.679688 11.238281 C 259.636719 12.296875 262.566406 13.425781 265.46875 14.628906 C 268.371094 15.832031 271.242188 17.105469 274.085938 18.445312 C 276.925781 19.789062 279.730469 21.203125 282.5 22.683594 C 285.273438 24.164062 288.003906 25.714844 290.699219 27.328125 C 293.394531 28.945312 296.046875 30.625 298.660156 32.371094 C 301.273438 34.117188 303.84375 35.925781 306.367188 37.796875 C 308.890625 39.667969 311.367188 41.601562 313.792969 43.59375 C 316.222656 45.585938 318.601562 47.636719 320.929688 49.75 C 323.257812 51.859375 325.53125 54.023438 327.753906 56.246094 C 329.976562 58.46875 332.140625 60.742188 334.25 63.070312 C 336.363281 65.398438 338.414062 67.777344 340.40625 70.207031 C 342.398438 72.632812 344.332031 75.109375 346.203125 77.632812 C 348.074219 80.15625 349.882812 82.726562 351.628906 85.339844 C 353.375 87.949219 355.054688 90.605469 356.671875 93.300781 C 358.285156 95.996094 359.835938 98.726562 361.316406 101.5 C 362.796875 104.269531 364.210938 107.074219 365.550781 109.914062 C 366.894531 112.757812 368.167969 115.628906 369.371094 118.53125 C 370.574219 121.433594 371.703125 124.363281 372.761719 127.320312 C 373.820312 130.28125 374.804688 133.261719 375.71875 136.269531 C 376.628906 139.277344 377.46875 142.304688 378.230469 145.351562 C 378.996094 148.398438 379.683594 151.464844 380.296875 154.546875 C 380.910156 157.628906 381.445312 160.722656 381.90625 163.828125 C 382.367188 166.9375 382.753906 170.054688 383.0625 173.183594 C 383.367188 176.308594 383.601562 179.441406 383.753906 182.578125 C 383.910156 185.71875 383.984375 188.859375 383.984375 192 Z M 383.984375 192 " fill-opacity="1" fill-rule="nonzero"/><g clip-path="url(#6d56d74491)"><g clip-path="url(#38c6de3000)"><path fill="#fbc6a2" d="M 232.484375 263.671875 C 228.828125 266.8125 214.257812 278.628906 192.210938 278.664062 C 170.058594 278.695312 155.402344 266.796875 151.765625 263.671875 C 153.390625 244.464844 155.015625 225.238281 156.644531 206.027344 C 157.207031 199.28125 157.785156 192.53125 158.351562 185.785156 L 225.898438 185.785156 L 229.808594 232.078125 Z M 232.484375 263.671875 " fill-opacity="1" fill-rule="nonzero"/></g></g><g clip-path="url(#8471a8e68d)"><g clip-path="url(#e6f13a69ae)"><path fill="#c2686b" d="M 229.808594 232.078125 C 197.140625 230.566406 173.4375 219.296875 156.644531 206.027344 C 157.207031 199.28125 157.785156 192.53125 158.351562 185.785156 L 225.898438 185.785156 Z M 229.808594 232.078125 " fill-opacity="1" fill-rule="nonzero"/></g></g><g clip-path="url(#3c155f962d)"><g clip-path="url(#1b1fe2ae14)"><path fill="#fbc6a2" d="M 220.8125 204.136719 L 220.101562 204.746094 C 203.164062 219.273438 178.074219 218.953125 161.507812 204.007812 C 143.046875 187.355469 132.511719 163.660156 132.511719 138.800781 L 132.511719 114.84375 C 132.511719 81.996094 159.140625 55.367188 191.992188 55.367188 C 224.839844 55.367188 251.46875 81.996094 251.46875 114.84375 L 251.46875 137.46875 C 251.46875 163.101562 240.273438 187.453125 220.8125 204.140625 Z M 220.8125 204.136719 " fill-opacity="1" fill-rule="nonzero"/></g></g><g clip-path="url(#a02c84ee9d)"><g clip-path="url(#2a578f10cd)"><path fill="#231f20" d="M 192.125 30.804688 C 159.203125 30.804688 132.511719 57.496094 132.511719 90.417969 L 132.511719 123.320312 C 132.511719 125.203125 135.097656 125.765625 135.859375 124.042969 C 136.988281 121.5 138.097656 118.8125 139.167969 115.992188 C 140.847656 111.558594 142.21875 107.320312 143.347656 103.347656 C 144.667969 99.015625 146.199219 94.464844 147.984375 89.75 C 149.144531 86.6875 150.339844 83.746094 151.550781 80.925781 C 153.875 75.519531 159.289062 72.035156 165.167969 72.304688 C 168.921875 72.480469 173.113281 72.980469 177.601562 74.027344 L 177.777344 74.070312 C 187.214844 76.285156 197.035156 76.285156 206.472656 74.070312 L 206.644531 74.027344 C 211.132812 72.980469 215.324219 72.480469 219.082031 72.304688 C 224.960938 72.035156 230.371094 75.519531 232.695312 80.925781 C 233.910156 83.746094 235.105469 86.6875 236.261719 89.75 C 238.046875 94.464844 239.582031 99.015625 240.898438 103.347656 C 242.027344 107.320312 243.402344 111.558594 245.078125 115.992188 C 246.148438 118.8125 247.257812 121.5 248.386719 124.046875 C 249.148438 125.769531 251.734375 125.203125 251.734375 123.320312 L 251.734375 91.3125 C 251.734375 57.5 225.042969 30.804688 192.121094 30.804688 Z M 192.125 30.804688 " fill-opacity="1" fill-rule="nonzero"/></g></g><g clip-path="url(#0f6d8e79d7)"><g clip-path="url(#7e959a6f87)"><path fill="#fbc6a2" d="M 248.269531 154.226562 L 243.078125 152.796875 L 248.917969 126.9375 C 250.253906 121.03125 255.671875 117.4375 261.019531 118.910156 C 265.738281 120.210938 268.910156 125.070312 268.558594 130.425781 C 268.421875 132.496094 268.171875 134.707031 267.769531 137.027344 C 267.410156 139.070312 266.96875 140.996094 266.46875 142.808594 C 264.101562 151.355469 256.125 156.386719 248.269531 154.226562 Z M 248.269531 154.226562 " fill-opacity="1" fill-rule="nonzero"/></g></g><g clip-path="url(#716fbdcc21)"><g clip-path="url(#2c39492a55)"><path fill="#fbc6a2" d="M 135.980469 154.226562 L 141.175781 152.796875 L 135.332031 126.9375 C 134 121.03125 128.582031 117.4375 123.234375 118.910156 C 118.511719 120.210938 115.34375 125.070312 115.695312 130.425781 C 115.828125 132.496094 116.078125 134.707031 116.484375 137.027344 C 116.839844 139.070312 117.28125 140.996094 117.785156 142.808594 C 120.148438 151.355469 128.128906 156.386719 135.984375 154.226562 Z M 135.980469 154.226562 " fill-opacity="1" fill-rule="nonzero"/></g></g><g clip-path="url(#23b27cbf52)"><g clip-path="url(#7098885cb8)"><path fill="#231f20" d="M 251.777344 121.605469 C 251.507812 119.910156 248.621094 124.398438 248.226562 122.824219 C 248.226562 122.824219 244.035156 172.644531 236.78125 175.71875 C 235.269531 176.355469 233.488281 176.871094 231.605469 177.292969 C 223.835938 179.011719 215.820312 176.777344 209.578125 171.859375 C 208.925781 171.339844 208.226562 170.835938 207.464844 170.34375 C 201.367188 166.460938 195.234375 166.152344 192.148438 166.261719 C 189.050781 166.152344 182.929688 166.460938 176.820312 170.34375 C 176.070312 170.835938 175.355469 171.339844 174.707031 171.859375 C 168.460938 176.773438 160.457031 179.011719 152.691406 177.292969 C 150.796875 176.871094 149.015625 176.355469 147.503906 175.71875 C 140.25 172.644531 136.070312 122.824219 136.070312 122.824219 C 135.675781 124.394531 132.789062 119.910156 132.515625 121.605469 C 131.175781 129.941406 132.296875 145.039062 134.300781 156.691406 C 141.921875 201.191406 170.5625 216.726562 191.066406 217.636719 C 191.398438 217.648438 191.71875 217.664062 192.039062 217.671875 L 192.257812 217.671875 C 192.578125 217.664062 192.910156 217.648438 193.230469 217.636719 C 213.734375 216.726562 241.886719 202.726562 249.507812 158.226562 C 251.5 146.574219 253.109375 129.941406 251.78125 121.605469 Z M 219.261719 182.628906 C 219.261719 190.71875 215.085938 197.824219 208.777344 201.933594 C 207.203125 202.953125 205.085938 202.050781 204.660156 200.222656 L 203.15625 193.730469 L 182.449219 193.730469 L 180.347656 201.25 C 179.875 202.941406 177.953125 203.757812 176.402344 202.929688 C 169.148438 199.054688 164.203125 191.429688 164.203125 182.628906 C 169.121094 180.167969 179.132812 172.136719 192.382812 172.277344 C 204.914062 172.410156 214.394531 180.195312 219.261719 182.628906 Z M 219.261719 182.628906 " fill-opacity="1" fill-rule="nonzero"/></g></g><g clip-path="url(#6832f2a6e9)"><g clip-path="url(#7dce73b44e)"><path fill="#fbc6a2" d="M 247.816406 191.894531 C 248.054688 191.894531 248.054688 191.523438 247.816406 191.523438 C 247.582031 191.523438 247.582031 191.894531 247.816406 191.894531 Z M 247.816406 191.894531 " fill-opacity="1" fill-rule="nonzero"/></g></g><g clip-path="url(#ee4c214a79)"><g clip-path="url(#6b5ffd44c1)"><path fill="#243d6b" d="M 354.003906 294.453125 L 354.003906 397.410156 L 29.996094 397.410156 L 29.996094 294.453125 C 44.34375 284.976562 61.613281 274.96875 81.808594 265.789062 C 101.058594 257.035156 119.253906 250.71875 135.601562 246.105469 C 139.042969 245.136719 142.414062 244.238281 145.679688 243.414062 C 148.164062 242.789062 150.597656 242.199219 152.980469 241.644531 C 157.417969 245.222656 169.800781 254.234375 188.015625 255.402344 C 211.074219 256.875 227.15625 244.71875 231.015625 241.644531 C 233.730469 242.269531 236.519531 242.945312 239.386719 243.6875 C 242.324219 244.4375 245.324219 245.246094 248.398438 246.105469 C 264.746094 250.714844 282.949219 257.035156 302.1875 265.789062 C 322.386719 274.96875 339.65625 284.976562 354.003906 294.453125 Z M 354.003906 294.453125 " fill-opacity="1" fill-rule="nonzero"/></g></g><g clip-path="url(#8311f5836a)"><g clip-path="url(#40f44c84a6)"><path fill="#ffffff" d="M 248.398438 246.105469 L 195.113281 311.238281 C 193.503906 313.207031 190.496094 313.207031 188.886719 311.238281 L 135.601562 246.105469 C 139.042969 245.136719 142.414062 244.238281 145.679688 243.414062 C 148.164062 242.789062 150.597656 242.199219 152.980469 241.644531 C 157.417969 245.222656 169.800781 254.234375 188.015625 255.402344 C 211.074219 256.875 227.15625 244.71875 231.015625 241.644531 C 233.730469 242.269531 236.519531 242.945312 239.386719 243.683594 C 242.324219 244.4375 245.324219 245.246094 248.398438 246.105469 Z M 248.398438 246.105469 " fill-opacity="1" fill-rule="nonzero"/></g></g></svg>