<svg xmlns="http://www.w3.org/2000/svg" xmlns:xlink="http://www.w3.org/1999/xlink" width="512" zoomAndPan="magnify" viewBox="0 0 384 383.999986" height="512" preserveAspectRatio="xMidYMid meet" version="1.0"><defs><clipPath id="f3175e80a6"><path d="M 151 186 L 233 186 L 233 280 L 151 280 Z M 151 186 " clip-rule="nonzero"/></clipPath><clipPath id="522093d4e9"><path d="M 0.015625 192 C 0.015625 185.710938 0.324219 179.441406 0.9375 173.183594 C 1.554688 166.925781 2.476562 160.710938 3.703125 154.546875 C 4.929688 148.378906 6.457031 142.285156 8.28125 136.269531 C 10.105469 130.253906 12.222656 124.339844 14.628906 118.53125 C 17.035156 112.722656 19.71875 107.042969 22.683594 101.5 C 25.648438 95.953125 28.875 90.566406 32.371094 85.339844 C 35.863281 80.109375 39.605469 75.066406 43.59375 70.207031 C 47.582031 65.34375 51.800781 60.691406 56.246094 56.246094 C 60.691406 51.800781 65.34375 47.582031 70.207031 43.59375 C 75.066406 39.605469 80.109375 35.863281 85.339844 32.371094 C 90.566406 28.875 95.953125 25.648438 101.5 22.683594 C 107.042969 19.71875 112.722656 17.035156 118.53125 14.628906 C 124.339844 12.222656 130.253906 10.105469 136.269531 8.28125 C 142.285156 6.457031 148.378906 4.929688 154.546875 3.703125 C 160.710938 2.476562 166.925781 1.554688 173.183594 0.9375 C 179.441406 0.324219 185.710938 0.015625 192 0.015625 C 198.289062 0.015625 204.558594 0.324219 210.816406 0.9375 C 217.074219 1.554688 223.289062 2.476562 229.453125 3.703125 C 235.621094 4.929688 241.714844 6.457031 247.730469 8.28125 C 253.746094 10.105469 259.660156 12.222656 265.46875 14.628906 C 271.277344 17.035156 276.957031 19.71875 282.5 22.683594 C 288.046875 25.648438 293.433594 28.875 298.660156 32.371094 C 303.890625 35.863281 308.933594 39.605469 313.792969 43.59375 C 318.65625 47.582031 323.308594 51.800781 327.753906 56.246094 C 332.199219 60.691406 336.417969 65.34375 340.40625 70.207031 C 344.394531 75.066406 348.136719 80.109375 351.628906 85.339844 C 355.125 90.566406 358.351562 95.953125 361.316406 101.5 C 364.28125 107.042969 366.964844 112.722656 369.371094 118.53125 C 371.777344 124.339844 373.894531 130.253906 375.71875 136.269531 C 377.542969 142.285156 379.070312 148.378906 380.296875 154.546875 C 381.523438 160.710938 382.445312 166.925781 383.0625 173.183594 C 383.675781 179.441406 383.984375 185.710938 383.984375 192 C 383.984375 198.289062 383.675781 204.558594 383.0625 210.816406 C 382.445312 217.074219 381.523438 223.289062 380.296875 229.453125 C 379.070312 235.621094 377.542969 241.714844 375.71875 247.730469 C 373.894531 253.746094 371.777344 259.660156 369.371094 265.46875 C 366.964844 271.277344 364.28125 276.957031 361.316406 282.5 C 358.351562 288.046875 355.125 293.433594 351.628906 298.660156 C 348.136719 303.890625 344.394531 308.933594 340.40625 313.792969 C 336.417969 318.65625 332.199219 323.308594 327.753906 327.753906 C 323.308594 332.199219 318.65625 336.417969 313.792969 340.40625 C 308.933594 344.394531 303.890625 348.136719 298.660156 351.628906 C 293.433594 355.125 288.046875 358.351562 282.5 361.316406 C 276.957031 364.28125 271.277344 366.964844 265.46875 369.371094 C 259.660156 371.777344 253.746094 373.894531 247.730469 375.71875 C 241.714844 377.542969 235.621094 379.070312 229.453125 380.296875 C 223.289062 381.523438 217.074219 382.445312 210.816406 383.0625 C 204.558594 383.675781 198.289062 383.984375 192 383.984375 C 185.710938 383.984375 179.441406 383.675781 173.183594 383.0625 C 166.925781 382.445312 160.710938 381.523438 154.546875 380.296875 C 148.378906 379.070312 142.285156 377.542969 136.269531 375.71875 C 130.253906 373.894531 124.339844 371.777344 118.53125 369.371094 C 112.722656 366.964844 107.042969 364.28125 101.5 361.316406 C 95.953125 358.351562 90.566406 355.125 85.339844 351.628906 C 80.109375 348.136719 75.066406 344.394531 70.207031 340.40625 C 65.34375 336.417969 60.691406 332.199219 56.246094 327.753906 C 51.800781 323.308594 47.582031 318.65625 43.59375 313.792969 C 39.605469 308.933594 35.863281 303.890625 32.371094 298.660156 C 28.875 293.433594 25.648438 288.046875 22.683594 282.5 C 19.71875 276.957031 17.035156 271.277344 14.628906 265.46875 C 12.222656 259.660156 10.105469 253.746094 8.28125 247.730469 C 6.457031 241.714844 4.929688 235.621094 3.703125 229.453125 C 2.476562 223.289062 1.554688 217.074219 0.9375 210.816406 C 0.324219 204.558594 0.015625 198.289062 0.015625 192 Z M 0.015625 192 " clip-rule="nonzero"/></clipPath><clipPath id="59a313fb74"><path d="M 156 186 L 230 186 L 230 233 L 156 233 Z M 156 186 " clip-rule="nonzero"/></clipPath><clipPath id="5a1457af05"><path d="M 0.015625 192 C 0.015625 185.710938 0.324219 179.441406 0.9375 173.183594 C 1.554688 166.925781 2.476562 160.710938 3.703125 154.546875 C 4.929688 148.378906 6.457031 142.285156 8.28125 136.269531 C 10.105469 130.253906 12.222656 124.339844 14.628906 118.53125 C 17.035156 112.722656 19.71875 107.042969 22.683594 101.5 C 25.648438 95.953125 28.875 90.566406 32.371094 85.339844 C 35.863281 80.109375 39.605469 75.066406 43.59375 70.207031 C 47.582031 65.34375 51.800781 60.691406 56.246094 56.246094 C 60.691406 51.800781 65.34375 47.582031 70.207031 43.59375 C 75.066406 39.605469 80.109375 35.863281 85.339844 32.371094 C 90.566406 28.875 95.953125 25.648438 101.5 22.683594 C 107.042969 19.71875 112.722656 17.035156 118.53125 14.628906 C 124.339844 12.222656 130.253906 10.105469 136.269531 8.28125 C 142.285156 6.457031 148.378906 4.929688 154.546875 3.703125 C 160.710938 2.476562 166.925781 1.554688 173.183594 0.9375 C 179.441406 0.324219 185.710938 0.015625 192 0.015625 C 198.289062 0.015625 204.558594 0.324219 210.816406 0.9375 C 217.074219 1.554688 223.289062 2.476562 229.453125 3.703125 C 235.621094 4.929688 241.714844 6.457031 247.730469 8.28125 C 253.746094 10.105469 259.660156 12.222656 265.46875 14.628906 C 271.277344 17.035156 276.957031 19.71875 282.5 22.683594 C 288.046875 25.648438 293.433594 28.875 298.660156 32.371094 C 303.890625 35.863281 308.933594 39.605469 313.792969 43.59375 C 318.65625 47.582031 323.308594 51.800781 327.753906 56.246094 C 332.199219 60.691406 336.417969 65.34375 340.40625 70.207031 C 344.394531 75.066406 348.136719 80.109375 351.628906 85.339844 C 355.125 90.566406 358.351562 95.953125 361.316406 101.5 C 364.28125 107.042969 366.964844 112.722656 369.371094 118.53125 C 371.777344 124.339844 373.894531 130.253906 375.71875 136.269531 C 377.542969 142.285156 379.070312 148.378906 380.296875 154.546875 C 381.523438 160.710938 382.445312 166.925781 383.0625 173.183594 C 383.675781 179.441406 383.984375 185.710938 383.984375 192 C 383.984375 198.289062 383.675781 204.558594 383.0625 210.816406 C 382.445312 217.074219 381.523438 223.289062 380.296875 229.453125 C 379.070312 235.621094 377.542969 241.714844 375.71875 247.730469 C 373.894531 253.746094 371.777344 259.660156 369.371094 265.46875 C 366.964844 271.277344 364.28125 276.957031 361.316406 282.5 C 358.351562 288.046875 355.125 293.433594 351.628906 298.660156 C 348.136719 303.890625 344.394531 308.933594 340.40625 313.792969 C 336.417969 318.65625 332.199219 323.308594 327.753906 327.753906 C 323.308594 332.199219 318.65625 336.417969 313.792969 340.40625 C 308.933594 344.394531 303.890625 348.136719 298.660156 351.628906 C 293.433594 355.125 288.046875 358.351562 282.5 361.316406 C 276.957031 364.28125 271.277344 366.964844 265.46875 369.371094 C 259.660156 371.777344 253.746094 373.894531 247.730469 375.71875 C 241.714844 377.542969 235.621094 379.070312 229.453125 380.296875 C 223.289062 381.523438 217.074219 382.445312 210.816406 383.0625 C 204.558594 383.675781 198.289062 383.984375 192 383.984375 C 185.710938 383.984375 179.441406 383.675781 173.183594 383.0625 C 166.925781 382.445312 160.710938 381.523438 154.546875 380.296875 C 148.378906 379.070312 142.285156 377.542969 136.269531 375.71875 C 130.253906 373.894531 124.339844 371.777344 118.53125 369.371094 C 112.722656 366.964844 107.042969 364.28125 101.5 361.316406 C 95.953125 358.351562 90.566406 355.125 85.339844 351.628906 C 80.109375 348.136719 75.066406 344.394531 70.207031 340.40625 C 65.34375 336.417969 60.691406 332.199219 56.246094 327.753906 C 51.800781 323.308594 47.582031 318.65625 43.59375 313.792969 C 39.605469 308.933594 35.863281 303.890625 32.371094 298.660156 C 28.875 293.433594 25.648438 288.046875 22.683594 282.5 C 19.71875 276.957031 17.035156 271.277344 14.628906 265.46875 C 12.222656 259.660156 10.105469 253.746094 8.28125 247.730469 C 6.457031 241.714844 4.929688 235.621094 3.703125 229.453125 C 2.476562 223.289062 1.554688 217.074219 0.9375 210.816406 C 0.324219 204.558594 0.015625 198.289062 0.015625 192 Z M 0.015625 192 " clip-rule="nonzero"/></clipPath><clipPath id="6236bb7b24"><path d="M 132 56 L 252 56 L 252 217 L 132 217 Z M 132 56 " clip-rule="nonzero"/></clipPath><clipPath id="a3518c6080"><path d="M 0.015625 192 C 0.015625 185.710938 0.324219 179.441406 0.9375 173.183594 C 1.554688 166.925781 2.476562 160.710938 3.703125 154.546875 C 4.929688 148.378906 6.457031 142.285156 8.28125 136.269531 C 10.105469 130.253906 12.222656 124.339844 14.628906 118.53125 C 17.035156 112.722656 19.71875 107.042969 22.683594 101.5 C 25.648438 95.953125 28.875 90.566406 32.371094 85.339844 C 35.863281 80.109375 39.605469 75.066406 43.59375 70.207031 C 47.582031 65.34375 51.800781 60.691406 56.246094 56.246094 C 60.691406 51.800781 65.34375 47.582031 70.207031 43.59375 C 75.066406 39.605469 80.109375 35.863281 85.339844 32.371094 C 90.566406 28.875 95.953125 25.648438 101.5 22.683594 C 107.042969 19.71875 112.722656 17.035156 118.53125 14.628906 C 124.339844 12.222656 130.253906 10.105469 136.269531 8.28125 C 142.285156 6.457031 148.378906 4.929688 154.546875 3.703125 C 160.710938 2.476562 166.925781 1.554688 173.183594 0.9375 C 179.441406 0.324219 185.710938 0.015625 192 0.015625 C 198.289062 0.015625 204.558594 0.324219 210.816406 0.9375 C 217.074219 1.554688 223.289062 2.476562 229.453125 3.703125 C 235.621094 4.929688 241.714844 6.457031 247.730469 8.28125 C 253.746094 10.105469 259.660156 12.222656 265.46875 14.628906 C 271.277344 17.035156 276.957031 19.71875 282.5 22.683594 C 288.046875 25.648438 293.433594 28.875 298.660156 32.371094 C 303.890625 35.863281 308.933594 39.605469 313.792969 43.59375 C 318.65625 47.582031 323.308594 51.800781 327.753906 56.246094 C 332.199219 60.691406 336.417969 65.34375 340.40625 70.207031 C 344.394531 75.066406 348.136719 80.109375 351.628906 85.339844 C 355.125 90.566406 358.351562 95.953125 361.316406 101.5 C 364.28125 107.042969 366.964844 112.722656 369.371094 118.53125 C 371.777344 124.339844 373.894531 130.253906 375.71875 136.269531 C 377.542969 142.285156 379.070312 148.378906 380.296875 154.546875 C 381.523438 160.710938 382.445312 166.925781 383.0625 173.183594 C 383.675781 179.441406 383.984375 185.710938 383.984375 192 C 383.984375 198.289062 383.675781 204.558594 383.0625 210.816406 C 382.445312 217.074219 381.523438 223.289062 380.296875 229.453125 C 379.070312 235.621094 377.542969 241.714844 375.71875 247.730469 C 373.894531 253.746094 371.777344 259.660156 369.371094 265.46875 C 366.964844 271.277344 364.28125 276.957031 361.316406 282.5 C 358.351562 288.046875 355.125 293.433594 351.628906 298.660156 C 348.136719 303.890625 344.394531 308.933594 340.40625 313.792969 C 336.417969 318.65625 332.199219 323.308594 327.753906 327.753906 C 323.308594 332.199219 318.65625 336.417969 313.792969 340.40625 C 308.933594 344.394531 303.890625 348.136719 298.660156 351.628906 C 293.433594 355.125 288.046875 358.351562 282.5 361.316406 C 276.957031 364.28125 271.277344 366.964844 265.46875 369.371094 C 259.660156 371.777344 253.746094 373.894531 247.730469 375.71875 C 241.714844 377.542969 235.621094 379.070312 229.453125 380.296875 C 223.289062 381.523438 217.074219 382.445312 210.816406 383.0625 C 204.558594 383.675781 198.289062 383.984375 192 383.984375 C 185.710938 383.984375 179.441406 383.675781 173.183594 383.0625 C 166.925781 382.445312 160.710938 381.523438 154.546875 380.296875 C 148.378906 379.070312 142.285156 377.542969 136.269531 375.71875 C 130.253906 373.894531 124.339844 371.777344 118.53125 369.371094 C 112.722656 366.964844 107.042969 364.28125 101.5 361.316406 C 95.953125 358.351562 90.566406 355.125 85.339844 351.628906 C 80.109375 348.136719 75.066406 344.394531 70.207031 340.40625 C 65.34375 336.417969 60.691406 332.199219 56.246094 327.753906 C 51.800781 323.308594 47.582031 318.65625 43.59375 313.792969 C 39.605469 308.933594 35.863281 303.890625 32.371094 298.660156 C 28.875 293.433594 25.648438 288.046875 22.683594 282.5 C 19.71875 276.957031 17.035156 271.277344 14.628906 265.46875 C 12.222656 259.660156 10.105469 253.746094 8.28125 247.730469 C 6.457031 241.714844 4.929688 235.621094 3.703125 229.453125 C 2.476562 223.289062 1.554688 217.074219 0.9375 210.816406 C 0.324219 204.558594 0.015625 198.289062 0.015625 192 Z M 0.015625 192 " clip-rule="nonzero"/></clipPath><clipPath id="8ab4743118"><path d="M 127 33 L 264 33 L 264 139 L 127 139 Z M 127 33 " clip-rule="nonzero"/></clipPath><clipPath id="3f4feea13e"><path d="M 0.015625 192 C 0.015625 185.710938 0.324219 179.441406 0.9375 173.183594 C 1.554688 166.925781 2.476562 160.710938 3.703125 154.546875 C 4.929688 148.378906 6.457031 142.285156 8.28125 136.269531 C 10.105469 130.253906 12.222656 124.339844 14.628906 118.53125 C 17.035156 112.722656 19.71875 107.042969 22.683594 101.5 C 25.648438 95.953125 28.875 90.566406 32.371094 85.339844 C 35.863281 80.109375 39.605469 75.066406 43.59375 70.207031 C 47.582031 65.34375 51.800781 60.691406 56.246094 56.246094 C 60.691406 51.800781 65.34375 47.582031 70.207031 43.59375 C 75.066406 39.605469 80.109375 35.863281 85.339844 32.371094 C 90.566406 28.875 95.953125 25.648438 101.5 22.683594 C 107.042969 19.71875 112.722656 17.035156 118.53125 14.628906 C 124.339844 12.222656 130.253906 10.105469 136.269531 8.28125 C 142.285156 6.457031 148.378906 4.929688 154.546875 3.703125 C 160.710938 2.476562 166.925781 1.554688 173.183594 0.9375 C 179.441406 0.324219 185.710938 0.015625 192 0.015625 C 198.289062 0.015625 204.558594 0.324219 210.816406 0.9375 C 217.074219 1.554688 223.289062 2.476562 229.453125 3.703125 C 235.621094 4.929688 241.714844 6.457031 247.730469 8.28125 C 253.746094 10.105469 259.660156 12.222656 265.46875 14.628906 C 271.277344 17.035156 276.957031 19.71875 282.5 22.683594 C 288.046875 25.648438 293.433594 28.875 298.660156 32.371094 C 303.890625 35.863281 308.933594 39.605469 313.792969 43.59375 C 318.65625 47.582031 323.308594 51.800781 327.753906 56.246094 C 332.199219 60.691406 336.417969 65.34375 340.40625 70.207031 C 344.394531 75.066406 348.136719 80.109375 351.628906 85.339844 C 355.125 90.566406 358.351562 95.953125 361.316406 101.5 C 364.28125 107.042969 366.964844 112.722656 369.371094 118.53125 C 371.777344 124.339844 373.894531 130.253906 375.71875 136.269531 C 377.542969 142.285156 379.070312 148.378906 380.296875 154.546875 C 381.523438 160.710938 382.445312 166.925781 383.0625 173.183594 C 383.675781 179.441406 383.984375 185.710938 383.984375 192 C 383.984375 198.289062 383.675781 204.558594 383.0625 210.816406 C 382.445312 217.074219 381.523438 223.289062 380.296875 229.453125 C 379.070312 235.621094 377.542969 241.714844 375.71875 247.730469 C 373.894531 253.746094 371.777344 259.660156 369.371094 265.46875 C 366.964844 271.277344 364.28125 276.957031 361.316406 282.5 C 358.351562 288.046875 355.125 293.433594 351.628906 298.660156 C 348.136719 303.890625 344.394531 308.933594 340.40625 313.792969 C 336.417969 318.65625 332.199219 323.308594 327.753906 327.753906 C 323.308594 332.199219 318.65625 336.417969 313.792969 340.40625 C 308.933594 344.394531 303.890625 348.136719 298.660156 351.628906 C 293.433594 355.125 288.046875 358.351562 282.5 361.316406 C 276.957031 364.28125 271.277344 366.964844 265.46875 369.371094 C 259.660156 371.777344 253.746094 373.894531 247.730469 375.71875 C 241.714844 377.542969 235.621094 379.070312 229.453125 380.296875 C 223.289062 381.523438 217.074219 382.445312 210.816406 383.0625 C 204.558594 383.675781 198.289062 383.984375 192 383.984375 C 185.710938 383.984375 179.441406 383.675781 173.183594 383.0625 C 166.925781 382.445312 160.710938 381.523438 154.546875 380.296875 C 148.378906 379.070312 142.285156 377.542969 136.269531 375.71875 C 130.253906 373.894531 124.339844 371.777344 118.53125 369.371094 C 112.722656 366.964844 107.042969 364.28125 101.5 361.316406 C 95.953125 358.351562 90.566406 355.125 85.339844 351.628906 C 80.109375 348.136719 75.066406 344.394531 70.207031 340.40625 C 65.34375 336.417969 60.691406 332.199219 56.246094 327.753906 C 51.800781 323.308594 47.582031 318.65625 43.59375 313.792969 C 39.605469 308.933594 35.863281 303.890625 32.371094 298.660156 C 28.875 293.433594 25.648438 288.046875 22.683594 282.5 C 19.71875 276.957031 17.035156 271.277344 14.628906 265.46875 C 12.222656 259.660156 10.105469 253.746094 8.28125 247.730469 C 6.457031 241.714844 4.929688 235.621094 3.703125 229.453125 C 2.476562 223.289062 1.554688 217.074219 0.9375 210.816406 C 0.324219 204.558594 0.015625 198.289062 0.015625 192 Z M 0.015625 192 " clip-rule="nonzero"/></clipPath><clipPath id="3ed5145622"><path d="M 113 16 L 272 16 L 272 140 L 113 140 Z M 113 16 " clip-rule="nonzero"/></clipPath><clipPath id="acd8dd4330"><path d="M 0.015625 192 C 0.015625 185.710938 0.324219 179.441406 0.9375 173.183594 C 1.554688 166.925781 2.476562 160.710938 3.703125 154.546875 C 4.929688 148.378906 6.457031 142.285156 8.28125 136.269531 C 10.105469 130.253906 12.222656 124.339844 14.628906 118.53125 C 17.035156 112.722656 19.71875 107.042969 22.683594 101.5 C 25.648438 95.953125 28.875 90.566406 32.371094 85.339844 C 35.863281 80.109375 39.605469 75.066406 43.59375 70.207031 C 47.582031 65.34375 51.800781 60.691406 56.246094 56.246094 C 60.691406 51.800781 65.34375 47.582031 70.207031 43.59375 C 75.066406 39.605469 80.109375 35.863281 85.339844 32.371094 C 90.566406 28.875 95.953125 25.648438 101.5 22.683594 C 107.042969 19.71875 112.722656 17.035156 118.53125 14.628906 C 124.339844 12.222656 130.253906 10.105469 136.269531 8.28125 C 142.285156 6.457031 148.378906 4.929688 154.546875 3.703125 C 160.710938 2.476562 166.925781 1.554688 173.183594 0.9375 C 179.441406 0.324219 185.710938 0.015625 192 0.015625 C 198.289062 0.015625 204.558594 0.324219 210.816406 0.9375 C 217.074219 1.554688 223.289062 2.476562 229.453125 3.703125 C 235.621094 4.929688 241.714844 6.457031 247.730469 8.28125 C 253.746094 10.105469 259.660156 12.222656 265.46875 14.628906 C 271.277344 17.035156 276.957031 19.71875 282.5 22.683594 C 288.046875 25.648438 293.433594 28.875 298.660156 32.371094 C 303.890625 35.863281 308.933594 39.605469 313.792969 43.59375 C 318.65625 47.582031 323.308594 51.800781 327.753906 56.246094 C 332.199219 60.691406 336.417969 65.34375 340.40625 70.207031 C 344.394531 75.066406 348.136719 80.109375 351.628906 85.339844 C 355.125 90.566406 358.351562 95.953125 361.316406 101.5 C 364.28125 107.042969 366.964844 112.722656 369.371094 118.53125 C 371.777344 124.339844 373.894531 130.253906 375.71875 136.269531 C 377.542969 142.285156 379.070312 148.378906 380.296875 154.546875 C 381.523438 160.710938 382.445312 166.925781 383.0625 173.183594 C 383.675781 179.441406 383.984375 185.710938 383.984375 192 C 383.984375 198.289062 383.675781 204.558594 383.0625 210.816406 C 382.445312 217.074219 381.523438 223.289062 380.296875 229.453125 C 379.070312 235.621094 377.542969 241.714844 375.71875 247.730469 C 373.894531 253.746094 371.777344 259.660156 369.371094 265.46875 C 366.964844 271.277344 364.28125 276.957031 361.316406 282.5 C 358.351562 288.046875 355.125 293.433594 351.628906 298.660156 C 348.136719 303.890625 344.394531 308.933594 340.40625 313.792969 C 336.417969 318.65625 332.199219 323.308594 327.753906 327.753906 C 323.308594 332.199219 318.65625 336.417969 313.792969 340.40625 C 308.933594 344.394531 303.890625 348.136719 298.660156 351.628906 C 293.433594 355.125 288.046875 358.351562 282.5 361.316406 C 276.957031 364.28125 271.277344 366.964844 265.46875 369.371094 C 259.660156 371.777344 253.746094 373.894531 247.730469 375.71875 C 241.714844 377.542969 235.621094 379.070312 229.453125 380.296875 C 223.289062 381.523438 217.074219 382.445312 210.816406 383.0625 C 204.558594 383.675781 198.289062 383.984375 192 383.984375 C 185.710938 383.984375 179.441406 383.675781 173.183594 383.0625 C 166.925781 382.445312 160.710938 381.523438 154.546875 380.296875 C 148.378906 379.070312 142.285156 377.542969 136.269531 375.71875 C 130.253906 373.894531 124.339844 371.777344 118.53125 369.371094 C 112.722656 366.964844 107.042969 364.28125 101.5 361.316406 C 95.953125 358.351562 90.566406 355.125 85.339844 351.628906 C 80.109375 348.136719 75.066406 344.394531 70.207031 340.40625 C 65.34375 336.417969 60.691406 332.199219 56.246094 327.753906 C 51.800781 323.308594 47.582031 318.65625 43.59375 313.792969 C 39.605469 308.933594 35.863281 303.890625 32.371094 298.660156 C 28.875 293.433594 25.648438 288.046875 22.683594 282.5 C 19.71875 276.957031 17.035156 271.277344 14.628906 265.46875 C 12.222656 259.660156 10.105469 253.746094 8.28125 247.730469 C 6.457031 241.714844 4.929688 235.621094 3.703125 229.453125 C 2.476562 223.289062 1.554688 217.074219 0.9375 210.816406 C 0.324219 204.558594 0.015625 198.289062 0.015625 192 Z M 0.015625 192 " clip-rule="nonzero"/></clipPath><clipPath id="27ebb0110c"><path d="M 115 119 L 142 119 L 142 156 L 115 156 Z M 115 119 " clip-rule="nonzero"/></clipPath><clipPath id="cf8ca4cecb"><path d="M 0.015625 192 C 0.015625 185.710938 0.324219 179.441406 0.9375 173.183594 C 1.554688 166.925781 2.476562 160.710938 3.703125 154.546875 C 4.929688 148.378906 6.457031 142.285156 8.28125 136.269531 C 10.105469 130.253906 12.222656 124.339844 14.628906 118.53125 C 17.035156 112.722656 19.71875 107.042969 22.683594 101.5 C 25.648438 95.953125 28.875 90.566406 32.371094 85.339844 C 35.863281 80.109375 39.605469 75.066406 43.59375 70.207031 C 47.582031 65.34375 51.800781 60.691406 56.246094 56.246094 C 60.691406 51.800781 65.34375 47.582031 70.207031 43.59375 C 75.066406 39.605469 80.109375 35.863281 85.339844 32.371094 C 90.566406 28.875 95.953125 25.648438 101.5 22.683594 C 107.042969 19.71875 112.722656 17.035156 118.53125 14.628906 C 124.339844 12.222656 130.253906 10.105469 136.269531 8.28125 C 142.285156 6.457031 148.378906 4.929688 154.546875 3.703125 C 160.710938 2.476562 166.925781 1.554688 173.183594 0.9375 C 179.441406 0.324219 185.710938 0.015625 192 0.015625 C 198.289062 0.015625 204.558594 0.324219 210.816406 0.9375 C 217.074219 1.554688 223.289062 2.476562 229.453125 3.703125 C 235.621094 4.929688 241.714844 6.457031 247.730469 8.28125 C 253.746094 10.105469 259.660156 12.222656 265.46875 14.628906 C 271.277344 17.035156 276.957031 19.71875 282.5 22.683594 C 288.046875 25.648438 293.433594 28.875 298.660156 32.371094 C 303.890625 35.863281 308.933594 39.605469 313.792969 43.59375 C 318.65625 47.582031 323.308594 51.800781 327.753906 56.246094 C 332.199219 60.691406 336.417969 65.34375 340.40625 70.207031 C 344.394531 75.066406 348.136719 80.109375 351.628906 85.339844 C 355.125 90.566406 358.351562 95.953125 361.316406 101.5 C 364.28125 107.042969 366.964844 112.722656 369.371094 118.53125 C 371.777344 124.339844 373.894531 130.253906 375.71875 136.269531 C 377.542969 142.285156 379.070312 148.378906 380.296875 154.546875 C 381.523438 160.710938 382.445312 166.925781 383.0625 173.183594 C 383.675781 179.441406 383.984375 185.710938 383.984375 192 C 383.984375 198.289062 383.675781 204.558594 383.0625 210.816406 C 382.445312 217.074219 381.523438 223.289062 380.296875 229.453125 C 379.070312 235.621094 377.542969 241.714844 375.71875 247.730469 C 373.894531 253.746094 371.777344 259.660156 369.371094 265.46875 C 366.964844 271.277344 364.28125 276.957031 361.316406 282.5 C 358.351562 288.046875 355.125 293.433594 351.628906 298.660156 C 348.136719 303.890625 344.394531 308.933594 340.40625 313.792969 C 336.417969 318.65625 332.199219 323.308594 327.753906 327.753906 C 323.308594 332.199219 318.65625 336.417969 313.792969 340.40625 C 308.933594 344.394531 303.890625 348.136719 298.660156 351.628906 C 293.433594 355.125 288.046875 358.351562 282.5 361.316406 C 276.957031 364.28125 271.277344 366.964844 265.46875 369.371094 C 259.660156 371.777344 253.746094 373.894531 247.730469 375.71875 C 241.714844 377.542969 235.621094 379.070312 229.453125 380.296875 C 223.289062 381.523438 217.074219 382.445312 210.816406 383.0625 C 204.558594 383.675781 198.289062 383.984375 192 383.984375 C 185.710938 383.984375 179.441406 383.675781 173.183594 383.0625 C 166.925781 382.445312 160.710938 381.523438 154.546875 380.296875 C 148.378906 379.070312 142.285156 377.542969 136.269531 375.71875 C 130.253906 373.894531 124.339844 371.777344 118.53125 369.371094 C 112.722656 366.964844 107.042969 364.28125 101.5 361.316406 C 95.953125 358.351562 90.566406 355.125 85.339844 351.628906 C 80.109375 348.136719 75.066406 344.394531 70.207031 340.40625 C 65.34375 336.417969 60.691406 332.199219 56.246094 327.753906 C 51.800781 323.308594 47.582031 318.65625 43.59375 313.792969 C 39.605469 308.933594 35.863281 303.890625 32.371094 298.660156 C 28.875 293.433594 25.648438 288.046875 22.683594 282.5 C 19.71875 276.957031 17.035156 271.277344 14.628906 265.46875 C 12.222656 259.660156 10.105469 253.746094 8.28125 247.730469 C 6.457031 241.714844 4.929688 235.621094 3.703125 229.453125 C 2.476562 223.289062 1.554688 217.074219 0.9375 210.816406 C 0.324219 204.558594 0.015625 198.289062 0.015625 192 Z M 0.015625 192 " clip-rule="nonzero"/></clipPath><clipPath id="c1d81012fc"><path d="M 243 119 L 269 119 L 269 156 L 243 156 Z M 243 119 " clip-rule="nonzero"/></clipPath><clipPath id="6f99f2db61"><path d="M 0.015625 192 C 0.015625 185.710938 0.324219 179.441406 0.9375 173.183594 C 1.554688 166.925781 2.476562 160.710938 3.703125 154.546875 C 4.929688 148.378906 6.457031 142.285156 8.28125 136.269531 C 10.105469 130.253906 12.222656 124.339844 14.628906 118.53125 C 17.035156 112.722656 19.71875 107.042969 22.683594 101.5 C 25.648438 95.953125 28.875 90.566406 32.371094 85.339844 C 35.863281 80.109375 39.605469 75.066406 43.59375 70.207031 C 47.582031 65.34375 51.800781 60.691406 56.246094 56.246094 C 60.691406 51.800781 65.34375 47.582031 70.207031 43.59375 C 75.066406 39.605469 80.109375 35.863281 85.339844 32.371094 C 90.566406 28.875 95.953125 25.648438 101.5 22.683594 C 107.042969 19.71875 112.722656 17.035156 118.53125 14.628906 C 124.339844 12.222656 130.253906 10.105469 136.269531 8.28125 C 142.285156 6.457031 148.378906 4.929688 154.546875 3.703125 C 160.710938 2.476562 166.925781 1.554688 173.183594 0.9375 C 179.441406 0.324219 185.710938 0.015625 192 0.015625 C 198.289062 0.015625 204.558594 0.324219 210.816406 0.9375 C 217.074219 1.554688 223.289062 2.476562 229.453125 3.703125 C 235.621094 4.929688 241.714844 6.457031 247.730469 8.28125 C 253.746094 10.105469 259.660156 12.222656 265.46875 14.628906 C 271.277344 17.035156 276.957031 19.71875 282.5 22.683594 C 288.046875 25.648438 293.433594 28.875 298.660156 32.371094 C 303.890625 35.863281 308.933594 39.605469 313.792969 43.59375 C 318.65625 47.582031 323.308594 51.800781 327.753906 56.246094 C 332.199219 60.691406 336.417969 65.34375 340.40625 70.207031 C 344.394531 75.066406 348.136719 80.109375 351.628906 85.339844 C 355.125 90.566406 358.351562 95.953125 361.316406 101.5 C 364.28125 107.042969 366.964844 112.722656 369.371094 118.53125 C 371.777344 124.339844 373.894531 130.253906 375.71875 136.269531 C 377.542969 142.285156 379.070312 148.378906 380.296875 154.546875 C 381.523438 160.710938 382.445312 166.925781 383.0625 173.183594 C 383.675781 179.441406 383.984375 185.710938 383.984375 192 C 383.984375 198.289062 383.675781 204.558594 383.0625 210.816406 C 382.445312 217.074219 381.523438 223.289062 380.296875 229.453125 C 379.070312 235.621094 377.542969 241.714844 375.71875 247.730469 C 373.894531 253.746094 371.777344 259.660156 369.371094 265.46875 C 366.964844 271.277344 364.28125 276.957031 361.316406 282.5 C 358.351562 288.046875 355.125 293.433594 351.628906 298.660156 C 348.136719 303.890625 344.394531 308.933594 340.40625 313.792969 C 336.417969 318.65625 332.199219 323.308594 327.753906 327.753906 C 323.308594 332.199219 318.65625 336.417969 313.792969 340.40625 C 308.933594 344.394531 303.890625 348.136719 298.660156 351.628906 C 293.433594 355.125 288.046875 358.351562 282.5 361.316406 C 276.957031 364.28125 271.277344 366.964844 265.46875 369.371094 C 259.660156 371.777344 253.746094 373.894531 247.730469 375.71875 C 241.714844 377.542969 235.621094 379.070312 229.453125 380.296875 C 223.289062 381.523438 217.074219 382.445312 210.816406 383.0625 C 204.558594 383.675781 198.289062 383.984375 192 383.984375 C 185.710938 383.984375 179.441406 383.675781 173.183594 383.0625 C 166.925781 382.445312 160.710938 381.523438 154.546875 380.296875 C 148.378906 379.070312 142.285156 377.542969 136.269531 375.71875 C 130.253906 373.894531 124.339844 371.777344 118.53125 369.371094 C 112.722656 366.964844 107.042969 364.28125 101.5 361.316406 C 95.953125 358.351562 90.566406 355.125 85.339844 351.628906 C 80.109375 348.136719 75.066406 344.394531 70.207031 340.40625 C 65.34375 336.417969 60.691406 332.199219 56.246094 327.753906 C 51.800781 323.308594 47.582031 318.65625 43.59375 313.792969 C 39.605469 308.933594 35.863281 303.890625 32.371094 298.660156 C 28.875 293.433594 25.648438 288.046875 22.683594 282.5 C 19.71875 276.957031 17.035156 271.277344 14.628906 265.46875 C 12.222656 259.660156 10.105469 253.746094 8.28125 247.730469 C 6.457031 241.714844 4.929688 235.621094 3.703125 229.453125 C 2.476562 223.289062 1.554688 217.074219 0.9375 210.816406 C 0.324219 204.558594 0.015625 198.289062 0.015625 192 Z M 0.015625 192 " clip-rule="nonzero"/></clipPath><clipPath id="b3e6e86ef5"><path d="M 29 242 L 355 242 L 355 384 L 29 384 Z M 29 242 " clip-rule="nonzero"/></clipPath><clipPath id="b30560562a"><path d="M 0.015625 192 C 0.015625 185.710938 0.324219 179.441406 0.9375 173.183594 C 1.554688 166.925781 2.476562 160.710938 3.703125 154.546875 C 4.929688 148.378906 6.457031 142.285156 8.28125 136.269531 C 10.105469 130.253906 12.222656 124.339844 14.628906 118.53125 C 17.035156 112.722656 19.71875 107.042969 22.683594 101.5 C 25.648438 95.953125 28.875 90.566406 32.371094 85.339844 C 35.863281 80.109375 39.605469 75.066406 43.59375 70.207031 C 47.582031 65.34375 51.800781 60.691406 56.246094 56.246094 C 60.691406 51.800781 65.34375 47.582031 70.207031 43.59375 C 75.066406 39.605469 80.109375 35.863281 85.339844 32.371094 C 90.566406 28.875 95.953125 25.648438 101.5 22.683594 C 107.042969 19.71875 112.722656 17.035156 118.53125 14.628906 C 124.339844 12.222656 130.253906 10.105469 136.269531 8.28125 C 142.285156 6.457031 148.378906 4.929688 154.546875 3.703125 C 160.710938 2.476562 166.925781 1.554688 173.183594 0.9375 C 179.441406 0.324219 185.710938 0.015625 192 0.015625 C 198.289062 0.015625 204.558594 0.324219 210.816406 0.9375 C 217.074219 1.554688 223.289062 2.476562 229.453125 3.703125 C 235.621094 4.929688 241.714844 6.457031 247.730469 8.28125 C 253.746094 10.105469 259.660156 12.222656 265.46875 14.628906 C 271.277344 17.035156 276.957031 19.71875 282.5 22.683594 C 288.046875 25.648438 293.433594 28.875 298.660156 32.371094 C 303.890625 35.863281 308.933594 39.605469 313.792969 43.59375 C 318.65625 47.582031 323.308594 51.800781 327.753906 56.246094 C 332.199219 60.691406 336.417969 65.34375 340.40625 70.207031 C 344.394531 75.066406 348.136719 80.109375 351.628906 85.339844 C 355.125 90.566406 358.351562 95.953125 361.316406 101.5 C 364.28125 107.042969 366.964844 112.722656 369.371094 118.53125 C 371.777344 124.339844 373.894531 130.253906 375.71875 136.269531 C 377.542969 142.285156 379.070312 148.378906 380.296875 154.546875 C 381.523438 160.710938 382.445312 166.925781 383.0625 173.183594 C 383.675781 179.441406 383.984375 185.710938 383.984375 192 C 383.984375 198.289062 383.675781 204.558594 383.0625 210.816406 C 382.445312 217.074219 381.523438 223.289062 380.296875 229.453125 C 379.070312 235.621094 377.542969 241.714844 375.71875 247.730469 C 373.894531 253.746094 371.777344 259.660156 369.371094 265.46875 C 366.964844 271.277344 364.28125 276.957031 361.316406 282.5 C 358.351562 288.046875 355.125 293.433594 351.628906 298.660156 C 348.136719 303.890625 344.394531 308.933594 340.40625 313.792969 C 336.417969 318.65625 332.199219 323.308594 327.753906 327.753906 C 323.308594 332.199219 318.65625 336.417969 313.792969 340.40625 C 308.933594 344.394531 303.890625 348.136719 298.660156 351.628906 C 293.433594 355.125 288.046875 358.351562 282.5 361.316406 C 276.957031 364.28125 271.277344 366.964844 265.46875 369.371094 C 259.660156 371.777344 253.746094 373.894531 247.730469 375.71875 C 241.714844 377.542969 235.621094 379.070312 229.453125 380.296875 C 223.289062 381.523438 217.074219 382.445312 210.816406 383.0625 C 204.558594 383.675781 198.289062 383.984375 192 383.984375 C 185.710938 383.984375 179.441406 383.675781 173.183594 383.0625 C 166.925781 382.445312 160.710938 381.523438 154.546875 380.296875 C 148.378906 379.070312 142.285156 377.542969 136.269531 375.71875 C 130.253906 373.894531 124.339844 371.777344 118.53125 369.371094 C 112.722656 366.964844 107.042969 364.28125 101.5 361.316406 C 95.953125 358.351562 90.566406 355.125 85.339844 351.628906 C 80.109375 348.136719 75.066406 344.394531 70.207031 340.40625 C 65.34375 336.417969 60.691406 332.199219 56.246094 327.753906 C 51.800781 323.308594 47.582031 318.65625 43.59375 313.792969 C 39.605469 308.933594 35.863281 303.890625 32.371094 298.660156 C 28.875 293.433594 25.648438 288.046875 22.683594 282.5 C 19.71875 276.957031 17.035156 271.277344 14.628906 265.46875 C 12.222656 259.660156 10.105469 253.746094 8.28125 247.730469 C 6.457031 241.714844 4.929688 235.621094 3.703125 229.453125 C 2.476562 223.289062 1.554688 217.074219 0.9375 210.816406 C 0.324219 204.558594 0.015625 198.289062 0.015625 192 Z M 0.015625 192 " clip-rule="nonzero"/></clipPath><clipPath id="493418d8b7"><path d="M 141 242 L 242 242 L 242 263 L 141 263 Z M 141 242 " clip-rule="nonzero"/></clipPath><clipPath id="4d5ad2b380"><path d="M 0.015625 192 C 0.015625 185.710938 0.324219 179.441406 0.9375 173.183594 C 1.554688 166.925781 2.476562 160.710938 3.703125 154.546875 C 4.929688 148.378906 6.457031 142.285156 8.28125 136.269531 C 10.105469 130.253906 12.222656 124.339844 14.628906 118.53125 C 17.035156 112.722656 19.71875 107.042969 22.683594 101.5 C 25.648438 95.953125 28.875 90.566406 32.371094 85.339844 C 35.863281 80.109375 39.605469 75.066406 43.59375 70.207031 C 47.582031 65.34375 51.800781 60.691406 56.246094 56.246094 C 60.691406 51.800781 65.34375 47.582031 70.207031 43.59375 C 75.066406 39.605469 80.109375 35.863281 85.339844 32.371094 C 90.566406 28.875 95.953125 25.648438 101.5 22.683594 C 107.042969 19.71875 112.722656 17.035156 118.53125 14.628906 C 124.339844 12.222656 130.253906 10.105469 136.269531 8.28125 C 142.285156 6.457031 148.378906 4.929688 154.546875 3.703125 C 160.710938 2.476562 166.925781 1.554688 173.183594 0.9375 C 179.441406 0.324219 185.710938 0.015625 192 0.015625 C 198.289062 0.015625 204.558594 0.324219 210.816406 0.9375 C 217.074219 1.554688 223.289062 2.476562 229.453125 3.703125 C 235.621094 4.929688 241.714844 6.457031 247.730469 8.28125 C 253.746094 10.105469 259.660156 12.222656 265.46875 14.628906 C 271.277344 17.035156 276.957031 19.71875 282.5 22.683594 C 288.046875 25.648438 293.433594 28.875 298.660156 32.371094 C 303.890625 35.863281 308.933594 39.605469 313.792969 43.59375 C 318.65625 47.582031 323.308594 51.800781 327.753906 56.246094 C 332.199219 60.691406 336.417969 65.34375 340.40625 70.207031 C 344.394531 75.066406 348.136719 80.109375 351.628906 85.339844 C 355.125 90.566406 358.351562 95.953125 361.316406 101.5 C 364.28125 107.042969 366.964844 112.722656 369.371094 118.53125 C 371.777344 124.339844 373.894531 130.253906 375.71875 136.269531 C 377.542969 142.285156 379.070312 148.378906 380.296875 154.546875 C 381.523438 160.710938 382.445312 166.925781 383.0625 173.183594 C 383.675781 179.441406 383.984375 185.710938 383.984375 192 C 383.984375 198.289062 383.675781 204.558594 383.0625 210.816406 C 382.445312 217.074219 381.523438 223.289062 380.296875 229.453125 C 379.070312 235.621094 377.542969 241.714844 375.71875 247.730469 C 373.894531 253.746094 371.777344 259.660156 369.371094 265.46875 C 366.964844 271.277344 364.28125 276.957031 361.316406 282.5 C 358.351562 288.046875 355.125 293.433594 351.628906 298.660156 C 348.136719 303.890625 344.394531 308.933594 340.40625 313.792969 C 336.417969 318.65625 332.199219 323.308594 327.753906 327.753906 C 323.308594 332.199219 318.65625 336.417969 313.792969 340.40625 C 308.933594 344.394531 303.890625 348.136719 298.660156 351.628906 C 293.433594 355.125 288.046875 358.351562 282.5 361.316406 C 276.957031 364.28125 271.277344 366.964844 265.46875 369.371094 C 259.660156 371.777344 253.746094 373.894531 247.730469 375.71875 C 241.714844 377.542969 235.621094 379.070312 229.453125 380.296875 C 223.289062 381.523438 217.074219 382.445312 210.816406 383.0625 C 204.558594 383.675781 198.289062 383.984375 192 383.984375 C 185.710938 383.984375 179.441406 383.675781 173.183594 383.0625 C 166.925781 382.445312 160.710938 381.523438 154.546875 380.296875 C 148.378906 379.070312 142.285156 377.542969 136.269531 375.71875 C 130.253906 373.894531 124.339844 371.777344 118.53125 369.371094 C 112.722656 366.964844 107.042969 364.28125 101.5 361.316406 C 95.953125 358.351562 90.566406 355.125 85.339844 351.628906 C 80.109375 348.136719 75.066406 344.394531 70.207031 340.40625 C 65.34375 336.417969 60.691406 332.199219 56.246094 327.753906 C 51.800781 323.308594 47.582031 318.65625 43.59375 313.792969 C 39.605469 308.933594 35.863281 303.890625 32.371094 298.660156 C 28.875 293.433594 25.648438 288.046875 22.683594 282.5 C 19.71875 276.957031 17.035156 271.277344 14.628906 265.46875 C 12.222656 259.660156 10.105469 253.746094 8.28125 247.730469 C 6.457031 241.714844 4.929688 235.621094 3.703125 229.453125 C 2.476562 223.289062 1.554688 217.074219 0.9375 210.816406 C 0.324219 204.558594 0.015625 198.289062 0.015625 192 Z M 0.015625 192 " clip-rule="nonzero"/></clipPath></defs><rect x="-38.4" width="460.8" fill="#ffffff" y="-38.399999" height="460.799983" fill-opacity="1"/><rect x="-38.4" width="460.8" fill="#ffffff" y="-38.399999" height="460.799983" fill-opacity="1"/><path fill="#f4f789" d="M 383.984375 192 C 383.984375 195.140625 383.910156 198.28125 383.753906 201.421875 C 383.601562 204.558594 383.367188 207.691406 383.0625 210.816406 C 382.753906 213.945312 382.367188 217.0625 381.90625 220.171875 C 381.445312 223.277344 380.910156 226.371094 380.296875 229.453125 C 379.683594 232.535156 378.996094 235.601562 378.230469 238.648438 C 377.46875 241.695312 376.628906 244.722656 375.71875 247.730469 C 374.804688 250.738281 373.820312 253.71875 372.761719 256.679688 C 371.703125 259.636719 370.574219 262.566406 369.371094 265.46875 C 368.167969 268.371094 366.894531 271.242188 365.550781 274.085938 C 364.210938 276.925781 362.796875 279.730469 361.316406 282.5 C 359.835938 285.273438 358.285156 288.003906 356.671875 290.699219 C 355.054688 293.394531 353.375 296.046875 351.628906 298.660156 C 349.882812 301.273438 348.074219 303.84375 346.203125 306.367188 C 344.332031 308.890625 342.398438 311.367188 340.40625 313.792969 C 338.414062 316.222656 336.363281 318.601562 334.25 320.929688 C 332.140625 323.257812 329.976562 325.53125 327.753906 327.753906 C 325.53125 329.976562 323.257812 332.140625 320.929688 334.25 C 318.601562 336.363281 316.222656 338.414062 313.792969 340.40625 C 311.367188 342.398438 308.890625 344.332031 306.367188 346.203125 C 303.84375 348.074219 301.273438 349.882812 298.660156 351.628906 C 296.046875 353.375 293.394531 355.054688 290.699219 356.671875 C 288.003906 358.285156 285.273438 359.835938 282.5 361.316406 C 279.730469 362.796875 276.925781 364.210938 274.085938 365.550781 C 271.242188 366.894531 268.371094 368.167969 265.46875 369.371094 C 262.566406 370.574219 259.636719 371.703125 256.679688 372.761719 C 253.71875 373.820312 250.738281 374.804688 247.730469 375.71875 C 244.722656 376.628906 241.695312 377.46875 238.648438 378.230469 C 235.601562 378.996094 232.535156 379.683594 229.453125 380.296875 C 226.371094 380.910156 223.277344 381.445312 220.171875 381.90625 C 217.0625 382.367188 213.945312 382.753906 210.816406 383.0625 C 207.691406 383.367188 204.558594 383.601562 201.421875 383.753906 C 198.28125 383.910156 195.140625 383.984375 192 383.984375 C 188.859375 383.984375 185.71875 383.910156 182.578125 383.753906 C 179.441406 383.601562 176.308594 383.367188 173.183594 383.0625 C 170.054688 382.753906 166.9375 382.367188 163.828125 381.90625 C 160.722656 381.445312 157.628906 380.910156 154.546875 380.296875 C 151.464844 379.683594 148.398438 378.996094 145.351562 378.230469 C 142.304688 377.46875 139.277344 376.628906 136.269531 375.71875 C 133.261719 374.804688 130.28125 373.820312 127.320312 372.761719 C 124.363281 371.703125 121.433594 370.574219 118.53125 369.371094 C 115.628906 368.167969 112.757812 366.894531 109.914062 365.550781 C 107.074219 364.210938 104.269531 362.796875 101.5 361.316406 C 98.726562 359.835938 95.996094 358.285156 93.300781 356.671875 C 90.605469 355.054688 87.949219 353.375 85.339844 351.628906 C 82.726562 349.882812 80.15625 348.074219 77.632812 346.203125 C 75.109375 344.332031 72.632812 342.398438 70.207031 340.40625 C 67.777344 338.414062 65.398438 336.363281 63.070312 334.25 C 60.742188 332.140625 58.46875 329.976562 56.246094 327.753906 C 54.023438 325.53125 51.859375 323.257812 49.75 320.929688 C 47.636719 318.601562 45.585938 316.222656 43.59375 313.792969 C 41.601562 311.367188 39.667969 308.890625 37.796875 306.367188 C 35.925781 303.84375 34.117188 301.273438 32.371094 298.660156 C 30.625 296.046875 28.945312 293.394531 27.328125 290.699219 C 25.714844 288.003906 24.164062 285.273438 22.683594 282.5 C 21.203125 279.730469 19.789062 276.925781 18.445312 274.085938 C 17.105469 271.242188 15.832031 268.371094 14.628906 265.46875 C 13.425781 262.566406 12.296875 259.636719 11.238281 256.679688 C 10.179688 253.71875 9.195312 250.738281 8.28125 247.730469 C 7.371094 244.722656 6.53125 241.695312 5.769531 238.648438 C 5.003906 235.601562 4.316406 232.535156 3.703125 229.453125 C 3.089844 226.371094 2.554688 223.277344 2.09375 220.171875 C 1.632812 217.0625 1.246094 213.945312 0.9375 210.816406 C 0.632812 207.691406 0.398438 204.558594 0.246094 201.421875 C 0.0898438 198.28125 0.015625 195.140625 0.015625 192 C 0.015625 188.859375 0.0898438 185.71875 0.246094 182.578125 C 0.398438 179.441406 0.632812 176.308594 0.9375 173.183594 C 1.246094 170.054688 1.632812 166.9375 2.09375 163.828125 C 2.554688 160.722656 3.089844 157.628906 3.703125 154.546875 C 4.316406 151.464844 5.003906 148.398438 5.769531 145.351562 C 6.53125 142.304688 7.371094 139.277344 8.28125 136.269531 C 9.195312 133.261719 10.179688 130.28125 11.238281 127.320312 C 12.296875 124.363281 13.425781 121.433594 14.628906 118.53125 C 15.832031 115.628906 17.105469 112.757812 18.445312 109.914062 C 19.789062 107.074219 21.203125 104.269531 22.683594 101.5 C 24.164062 98.726562 25.714844 95.996094 27.328125 93.300781 C 28.945312 90.605469 30.625 87.949219 32.371094 85.339844 C 34.117188 82.726562 35.925781 80.15625 37.796875 77.632812 C 39.667969 75.109375 41.601562 72.632812 43.59375 70.207031 C 45.585938 67.777344 47.636719 65.398438 49.75 63.070312 C 51.859375 60.742188 54.023438 58.46875 56.246094 56.246094 C 58.46875 54.023438 60.742188 51.859375 63.070312 49.75 C 65.398438 47.636719 67.777344 45.585938 70.207031 43.59375 C 72.632812 41.601562 75.109375 39.667969 77.632812 37.796875 C 80.15625 35.925781 82.726562 34.117188 85.339844 32.371094 C 87.949219 30.625 90.605469 28.945312 93.300781 27.328125 C 95.996094 25.714844 98.726562 24.164062 101.5 22.683594 C 104.269531 21.203125 107.074219 19.789062 109.914062 18.445312 C 112.757812 17.105469 115.628906 15.832031 118.53125 14.628906 C 121.433594 13.425781 124.363281 12.296875 127.320312 11.238281 C 130.28125 10.179688 133.261719 9.195312 136.269531 8.28125 C 139.277344 7.371094 142.304688 6.53125 145.351562 5.769531 C 148.398438 5.003906 151.464844 4.316406 154.546875 3.703125 C 157.628906 3.089844 160.722656 2.554688 163.828125 2.09375 C 166.9375 1.632812 170.054688 1.246094 173.183594 0.9375 C 176.308594 0.632812 179.441406 0.398438 182.578125 0.246094 C 185.71875 0.0898438 188.859375 0.015625 192 0.015625 C 195.140625 0.015625 198.28125 0.0898438 201.421875 0.246094 C 204.558594 0.398438 207.691406 0.632812 210.816406 0.9375 C 213.945312 1.246094 217.0625 1.632812 220.171875 2.09375 C 223.277344 2.554688 226.371094 3.089844 229.453125 3.703125 C 232.535156 4.316406 235.601562 5.003906 238.648438 5.769531 C 241.695312 6.53125 244.722656 7.371094 247.730469 8.28125 C 250.738281 9.195312 253.71875 10.179688 256.679688 11.238281 C 259.636719 12.296875 262.566406 13.425781 265.46875 14.628906 C 268.371094 15.832031 271.242188 17.105469 274.085938 18.445312 C 276.925781 19.789062 279.730469 21.203125 282.5 22.683594 C 285.273438 24.164062 288.003906 25.714844 290.699219 27.328125 C 293.394531 28.945312 296.046875 30.625 298.660156 32.371094 C 301.273438 34.117188 303.84375 35.925781 306.367188 37.796875 C 308.890625 39.667969 311.367188 41.601562 313.792969 43.59375 C 316.222656 45.585938 318.601562 47.636719 320.929688 49.75 C 323.257812 51.859375 325.53125 54.023438 327.753906 56.246094 C 329.976562 58.46875 332.140625 60.742188 334.25 63.070312 C 336.363281 65.398438 338.414062 67.777344 340.40625 70.207031 C 342.398438 72.632812 344.332031 75.109375 346.203125 77.632812 C 348.074219 80.15625 349.882812 82.726562 351.628906 85.339844 C 353.375 87.949219 355.054688 90.605469 356.671875 93.300781 C 358.285156 95.996094 359.835938 98.726562 361.316406 101.5 C 362.796875 104.269531 364.210938 107.074219 365.550781 109.914062 C 366.894531 112.757812 368.167969 115.628906 369.371094 118.53125 C 370.574219 121.433594 371.703125 124.363281 372.761719 127.320312 C 373.820312 130.28125 374.804688 133.261719 375.71875 136.269531 C 376.628906 139.277344 377.46875 142.304688 378.230469 145.351562 C 378.996094 148.398438 379.683594 151.464844 380.296875 154.546875 C 380.910156 157.628906 381.445312 160.722656 381.90625 163.828125 C 382.367188 166.9375 382.753906 170.054688 383.0625 173.183594 C 383.367188 176.308594 383.601562 179.441406 383.753906 182.578125 C 383.910156 185.71875 383.984375 188.859375 383.984375 192 Z M 383.984375 192 " fill-opacity="1" fill-rule="nonzero"/><g clip-path="url(#f3175e80a6)"><g clip-path="url(#522093d4e9)"><path fill="#fbc6a2" d="M 232.484375 264.484375 C 228.828125 267.632812 214.257812 279.445312 192.21875 279.476562 C 170.0625 279.519531 155.40625 267.617188 151.765625 264.484375 C 152.054688 261.003906 152.363281 257.523438 152.652344 254.039062 C 152.960938 250.339844 153.28125 246.640625 153.601562 242.941406 L 153.601562 242.808594 C 154.621094 230.820312 155.625 218.832031 156.644531 206.839844 C 156.820312 204.773438 156.996094 202.691406 157.167969 200.621094 C 157.5625 195.945312 157.957031 191.285156 158.347656 186.605469 L 225.898438 186.605469 L 226.960938 199.136719 L 226.960938 199.148438 L 229.800781 232.902344 L 230.605469 242.285156 L 230.632812 242.75 L 231.550781 253.558594 Z M 232.484375 264.484375 " fill-opacity="1" fill-rule="nonzero"/></g></g><g clip-path="url(#59a313fb74)"><g clip-path="url(#5a1457af05)"><path fill="#c2686b" d="M 229.808594 232.898438 C 197.140625 231.382812 173.4375 220.113281 156.644531 206.847656 C 157.207031 200.097656 157.785156 193.351562 158.351562 186.605469 L 225.898438 186.605469 Z M 229.808594 232.898438 " fill-opacity="1" fill-rule="nonzero"/></g></g><g clip-path="url(#6236bb7b24)"><g clip-path="url(#a3518c6080)"><path fill="#fbc6a2" d="M 220.8125 204.957031 L 220.101562 205.566406 C 203.164062 220.089844 178.074219 219.773438 161.507812 204.828125 C 143.046875 188.175781 132.511719 164.480469 132.511719 139.621094 L 132.511719 115.664062 C 132.511719 82.8125 159.140625 56.183594 191.992188 56.183594 C 224.839844 56.183594 251.46875 82.8125 251.46875 115.664062 L 251.46875 138.285156 C 251.46875 163.917969 240.273438 188.273438 220.8125 204.957031 Z M 220.8125 204.957031 " fill-opacity="1" fill-rule="nonzero"/></g></g><g clip-path="url(#8ab4743118)"><g clip-path="url(#3f4feea13e)"><path fill="#231f20" d="M 251.734375 138.078125 C 249.46875 133.585938 247.195312 128.539062 245.078125 122.957031 C 243.402344 118.519531 242.027344 114.285156 240.898438 110.3125 C 239.582031 105.980469 238.046875 101.429688 236.261719 96.714844 C 235.082031 93.59375 233.863281 90.597656 232.628906 87.730469 C 230.300781 82.335938 224.898438 78.996094 219.03125 79.273438 C 215.289062 79.449219 211.113281 79.949219 206.644531 80.992188 L 206.472656 81.035156 C 197.035156 83.25 187.214844 83.25 177.777344 81.035156 L 177.601562 80.992188 C 173.136719 79.949219 168.960938 79.449219 165.21875 79.273438 C 159.347656 78.996094 153.945312 82.335938 151.621094 87.730469 C 150.382812 90.597656 149.167969 93.59375 147.984375 96.714844 C 146.199219 101.429688 144.667969 105.980469 143.347656 110.3125 C 142.21875 114.285156 140.847656 118.519531 139.167969 122.957031 C 137.054688 128.539062 134.777344 133.585938 132.511719 138.078125 C 128.917969 123.027344 125.992188 102.792969 127.957031 79.179688 C 128.070312 77.796875 128.203125 76.433594 128.34375 75.085938 C 130.246094 57.09375 142.609375 41.773438 159.882812 36.402344 C 160.019531 36.363281 160.152344 36.320312 160.285156 36.277344 C 188.230469 27.773438 212.210938 39.636719 217.9375 42.671875 C 222.550781 42.582031 231.652344 43.074219 241.050781 48.449219 C 258.03125 58.167969 262.234375 75.996094 262.929688 79.179688 C 263.488281 86.695312 263.492188 96.640625 261.453125 108.066406 C 259.199219 120.710938 255.214844 130.871094 251.734375 138.078125 Z M 251.734375 138.078125 " fill-opacity="1" fill-rule="nonzero"/></g></g><g clip-path="url(#3ed5145622)"><g clip-path="url(#acd8dd4330)"><path fill="#231f20" d="M 271.25 102.816406 C 271.25 98.765625 269.34375 95.167969 266.382812 92.851562 C 267.714844 90.847656 268.492188 88.445312 268.492188 85.863281 C 268.492188 82.582031 267.234375 79.601562 265.1875 77.355469 C 267.234375 75.105469 268.492188 72.125 268.492188 68.84375 C 268.492188 63.480469 265.152344 58.910156 260.445312 57.0625 C 260.464844 56.773438 260.488281 56.480469 260.488281 56.183594 C 260.488281 49.292969 254.980469 43.699219 248.128906 43.539062 C 248.523438 42.3125 248.742188 41.011719 248.742188 39.65625 C 248.742188 32.664062 243.070312 26.996094 236.078125 26.996094 C 232.792969 26.996094 229.808594 28.257812 227.558594 30.3125 C 225.308594 28.257812 222.324219 26.996094 219.039062 26.996094 C 216.53125 26.996094 214.207031 27.734375 212.238281 28.988281 C 209.757812 24.519531 204.996094 21.496094 199.519531 21.496094 C 196.785156 21.496094 194.234375 22.261719 192.046875 23.578125 C 189.476562 19.457031 184.917969 16.703125 179.703125 16.703125 C 174.535156 16.703125 170.011719 19.402344 167.429688 23.460938 C 165.285156 22.21875 162.804688 21.496094 160.148438 21.496094 C 153.554688 21.496094 147.996094 25.878906 146.210938 31.886719 C 144.859375 31.472656 143.425781 31.25 141.941406 31.25 C 133.90625 31.25 127.394531 37.761719 127.394531 45.796875 C 127.394531 48.058594 127.925781 50.195312 128.847656 52.105469 C 124.046875 54.480469 120.734375 59.417969 120.734375 65.136719 C 120.734375 67.359375 121.25 69.460938 122.140625 71.34375 C 117.253906 73.691406 113.871094 78.667969 113.871094 84.449219 C 113.871094 89.285156 116.242188 93.558594 119.871094 96.203125 C 117.324219 98.109375 115.664062 101.144531 115.664062 104.570312 C 115.664062 109.664062 119.304688 113.898438 124.125 114.832031 C 123.359375 116.074219 122.914062 117.527344 122.914062 119.09375 C 122.914062 122.246094 124.707031 124.972656 127.324219 126.332031 C 126.054688 127.277344 125.222656 128.777344 125.222656 130.480469 C 125.222656 133.347656 127.546875 135.671875 130.414062 135.671875 C 130.632812 135.671875 130.84375 135.632812 131.058594 135.609375 C 131.195312 137.835938 133.027344 139.605469 135.289062 139.605469 C 137.640625 139.605469 139.546875 137.699219 139.546875 135.347656 C 139.546875 134.714844 139.398438 134.121094 139.152344 133.582031 C 141.078125 132.671875 142.417969 130.730469 142.417969 128.460938 C 142.417969 127.25 142.027344 126.132812 141.382812 125.210938 C 143.195312 123.785156 144.363281 121.578125 144.363281 119.09375 C 144.363281 117.246094 143.71875 115.554688 142.644531 114.21875 C 144.820312 113.058594 146.300781 110.769531 146.300781 108.132812 C 146.300781 107.746094 146.261719 107.367188 146.199219 106.996094 C 151.097656 106.128906 154.816406 101.859375 154.816406 96.714844 C 154.816406 94.328125 154.007812 92.136719 152.664062 90.375 C 156.734375 89.167969 159.757812 85.550781 160.09375 81.171875 C 161.597656 82.003906 163.320312 82.484375 165.15625 82.484375 C 166.664062 82.484375 168.089844 82.15625 169.382812 81.585938 C 171.125 82.882812 173.277344 83.660156 175.613281 83.660156 C 176.390625 83.660156 177.144531 83.566406 177.875 83.40625 C 179.320312 84.886719 181.332031 85.8125 183.566406 85.8125 C 185.816406 85.8125 187.847656 84.871094 189.292969 83.367188 C 190.46875 84.054688 191.828125 84.449219 193.285156 84.449219 C 194.210938 84.449219 195.097656 84.285156 195.921875 83.992188 C 197.296875 85.128906 199.0625 85.808594 200.984375 85.808594 C 203.21875 85.808594 205.230469 84.886719 206.675781 83.40625 C 207.40625 83.566406 208.160156 83.65625 208.9375 83.65625 C 211.273438 83.65625 213.425781 82.878906 215.167969 81.582031 C 216.460938 82.15625 217.886719 82.480469 219.394531 82.480469 C 221.230469 82.480469 222.953125 82.003906 224.453125 81.171875 C 224.777344 85.335938 227.53125 88.804688 231.304688 90.175781 C 230.3125 91.773438 229.730469 93.652344 229.730469 95.671875 C 229.730469 100.902344 233.574219 105.21875 238.589844 105.992188 C 238.367188 106.664062 238.246094 107.382812 238.246094 108.128906 C 238.246094 110.765625 239.730469 113.054688 241.902344 114.214844 C 240.832031 115.550781 240.183594 117.242188 240.183594 119.089844 C 240.183594 121.574219 241.351562 123.78125 243.164062 125.207031 C 242.519531 126.128906 242.132812 127.246094 242.132812 128.460938 C 242.132812 130.964844 243.765625 133.066406 246.019531 133.816406 C 245.84375 134.285156 245.738281 134.78125 245.738281 135.308594 C 245.738281 137.679688 247.660156 139.601562 250.03125 139.601562 C 252.230469 139.601562 254.023438 137.941406 254.273438 135.808594 C 254.988281 136.066406 255.761719 136.214844 256.566406 136.214844 C 260.28125 136.214844 263.292969 133.207031 263.292969 129.492188 C 263.292969 128.007812 262.808594 126.644531 261.996094 125.535156 C 264.023438 123.792969 265.3125 121.222656 265.3125 118.339844 C 265.3125 116.8125 264.945312 115.378906 264.304688 114.101562 C 268.425781 112.011719 271.253906 107.746094 271.253906 102.8125 Z M 271.25 102.816406 " fill-opacity="1" fill-rule="nonzero"/></g></g><g clip-path="url(#27ebb0110c)"><g clip-path="url(#cf8ca4cecb)"><path fill="#fbc6a2" d="M 135.980469 155.042969 L 141.175781 153.613281 L 135.332031 127.753906 C 134 121.851562 128.582031 118.257812 123.234375 119.730469 C 118.511719 121.03125 115.34375 125.886719 115.695312 131.246094 C 115.828125 133.316406 116.078125 135.527344 116.484375 137.84375 C 116.839844 139.886719 117.28125 141.816406 117.785156 143.625 C 120.148438 152.171875 128.128906 157.207031 135.984375 155.042969 Z M 135.980469 155.042969 " fill-opacity="1" fill-rule="nonzero"/></g></g><g clip-path="url(#c1d81012fc)"><g clip-path="url(#6f99f2db61)"><path fill="#fbc6a2" d="M 248.269531 155.042969 L 243.078125 153.613281 L 248.917969 127.753906 C 250.253906 121.851562 255.671875 118.257812 261.019531 119.730469 C 265.738281 121.03125 268.910156 125.886719 268.558594 131.246094 C 268.421875 133.316406 268.171875 135.527344 267.769531 137.84375 C 267.410156 139.886719 266.96875 141.816406 266.46875 143.625 C 264.101562 152.171875 256.125 157.207031 248.269531 155.042969 Z M 248.269531 155.042969 " fill-opacity="1" fill-rule="nonzero"/></g></g><g clip-path="url(#b3e6e86ef5)"><g clip-path="url(#b30560562a)"><path fill="#af5733" d="M 354.003906 295.269531 L 354.003906 422.734375 L 29.996094 422.734375 L 29.996094 295.269531 C 44.34375 285.800781 61.605469 275.792969 81.8125 266.601562 C 102.714844 257.101562 122.382812 250.460938 139.804688 245.769531 C 140.429688 245.59375 141.042969 245.433594 141.65625 245.273438 C 145.558594 244.238281 149.347656 243.308594 152.988281 242.460938 C 153.175781 242.609375 153.382812 242.78125 153.601562 242.941406 C 158.480469 246.804688 170.570312 255.09375 188.007812 256.214844 C 210.398438 257.65625 226.21875 246.25 230.632812 242.753906 C 230.777344 242.652344 230.894531 242.550781 231.011719 242.460938 C 234.539062 243.277344 238.195312 244.167969 241.953125 245.171875 C 242.5625 245.332031 243.191406 245.492188 243.816406 245.667969 C 261.328125 250.359375 281.136719 257.03125 302.1875 266.601562 C 322.394531 275.792969 339.65625 285.800781 354.003906 295.269531 Z M 354.003906 295.269531 " fill-opacity="1" fill-rule="nonzero"/></g></g><g clip-path="url(#493418d8b7)"><g clip-path="url(#4d5ad2b380)"><path fill="#ffffff" d="M 241.953125 245.171875 C 238.9375 247.34375 235.453125 249.585938 231.550781 251.699219 C 219.707031 258.152344 203.988281 263.46875 185.429688 261.980469 C 172.609375 260.976562 161.582031 256.957031 152.652344 252.179688 C 148.53125 249.964844 144.859375 247.589844 141.65625 245.273438 C 145.558594 244.238281 149.347656 243.308594 152.988281 242.460938 C 153.175781 242.609375 153.382812 242.78125 153.601562 242.941406 C 158.480469 246.804688 170.570312 255.09375 188.007812 256.214844 C 210.398438 257.65625 226.21875 246.25 230.632812 242.753906 C 230.777344 242.652344 230.894531 242.550781 231.011719 242.460938 C 234.535156 243.277344 238.195312 244.167969 241.953125 245.171875 Z M 241.953125 245.171875 " fill-opacity="1" fill-rule="nonzero"/></g></g></svg>