<svg xmlns="http://www.w3.org/2000/svg" xmlns:xlink="http://www.w3.org/1999/xlink" width="512" zoomAndPan="magnify" viewBox="0 0 384 383.999986" height="512" preserveAspectRatio="xMidYMid meet" version="1.0"><defs><clipPath id="171aa97c1b"><path d="M 115 117 L 142 117 L 142 154 L 115 154 Z M 115 117 " clip-rule="nonzero"/></clipPath><clipPath id="a0f71b1e64"><path d="M 0.015625 192 C 0.015625 185.710938 0.324219 179.441406 0.9375 173.183594 C 1.554688 166.925781 2.476562 160.710938 3.703125 154.546875 C 4.929688 148.378906 6.457031 142.285156 8.28125 136.269531 C 10.105469 130.253906 12.222656 124.339844 14.628906 118.53125 C 17.035156 112.722656 19.71875 107.042969 22.683594 101.5 C 25.648438 95.953125 28.875 90.566406 32.371094 85.339844 C 35.863281 80.109375 39.605469 75.066406 43.59375 70.207031 C 47.582031 65.34375 51.800781 60.691406 56.246094 56.246094 C 60.691406 51.800781 65.34375 47.582031 70.207031 43.59375 C 75.066406 39.605469 80.109375 35.863281 85.339844 32.371094 C 90.566406 28.875 95.953125 25.648438 101.5 22.683594 C 107.042969 19.71875 112.722656 17.035156 118.53125 14.628906 C 124.339844 12.222656 130.253906 10.105469 136.269531 8.28125 C 142.285156 6.457031 148.378906 4.929688 154.546875 3.703125 C 160.710938 2.476562 166.925781 1.554688 173.183594 0.9375 C 179.441406 0.324219 185.710938 0.015625 192 0.015625 C 198.289062 0.015625 204.558594 0.324219 210.816406 0.9375 C 217.074219 1.554688 223.289062 2.476562 229.453125 3.703125 C 235.621094 4.929688 241.714844 6.457031 247.730469 8.28125 C 253.746094 10.105469 259.660156 12.222656 265.46875 14.628906 C 271.277344 17.035156 276.957031 19.71875 282.5 22.683594 C 288.046875 25.648438 293.433594 28.875 298.660156 32.371094 C 303.890625 35.863281 308.933594 39.605469 313.792969 43.59375 C 318.65625 47.582031 323.308594 51.800781 327.753906 56.246094 C 332.199219 60.691406 336.417969 65.34375 340.40625 70.207031 C 344.394531 75.066406 348.136719 80.109375 351.628906 85.339844 C 355.125 90.566406 358.351562 95.953125 361.316406 101.5 C 364.28125 107.042969 366.964844 112.722656 369.371094 118.53125 C 371.777344 124.339844 373.894531 130.253906 375.71875 136.269531 C 377.542969 142.285156 379.070312 148.378906 380.296875 154.546875 C 381.523438 160.710938 382.445312 166.925781 383.0625 173.183594 C 383.675781 179.441406 383.984375 185.710938 383.984375 192 C 383.984375 198.289062 383.675781 204.558594 383.0625 210.816406 C 382.445312 217.074219 381.523438 223.289062 380.296875 229.453125 C 379.070312 235.621094 377.542969 241.714844 375.71875 247.730469 C 373.894531 253.746094 371.777344 259.660156 369.371094 265.46875 C 366.964844 271.277344 364.28125 276.957031 361.316406 282.5 C 358.351562 288.046875 355.125 293.433594 351.628906 298.660156 C 348.136719 303.890625 344.394531 308.933594 340.40625 313.792969 C 336.417969 318.65625 332.199219 323.308594 327.753906 327.753906 C 323.308594 332.199219 318.65625 336.417969 313.792969 340.40625 C 308.933594 344.394531 303.890625 348.136719 298.660156 351.628906 C 293.433594 355.125 288.046875 358.351562 282.5 361.316406 C 276.957031 364.28125 271.277344 366.964844 265.46875 369.371094 C 259.660156 371.777344 253.746094 373.894531 247.730469 375.71875 C 241.714844 377.542969 235.621094 379.070312 229.453125 380.296875 C 223.289062 381.523438 217.074219 382.445312 210.816406 383.0625 C 204.558594 383.675781 198.289062 383.984375 192 383.984375 C 185.710938 383.984375 179.441406 383.675781 173.183594 383.0625 C 166.925781 382.445312 160.710938 381.523438 154.546875 380.296875 C 148.378906 379.070312 142.285156 377.542969 136.269531 375.71875 C 130.253906 373.894531 124.339844 371.777344 118.53125 369.371094 C 112.722656 366.964844 107.042969 364.28125 101.5 361.316406 C 95.953125 358.351562 90.566406 355.125 85.339844 351.628906 C 80.109375 348.136719 75.066406 344.394531 70.207031 340.40625 C 65.34375 336.417969 60.691406 332.199219 56.246094 327.753906 C 51.800781 323.308594 47.582031 318.65625 43.59375 313.792969 C 39.605469 308.933594 35.863281 303.890625 32.371094 298.660156 C 28.875 293.433594 25.648438 288.046875 22.683594 282.5 C 19.71875 276.957031 17.035156 271.277344 14.628906 265.46875 C 12.222656 259.660156 10.105469 253.746094 8.28125 247.730469 C 6.457031 241.714844 4.929688 235.621094 3.703125 229.453125 C 2.476562 223.289062 1.554688 217.074219 0.9375 210.816406 C 0.324219 204.558594 0.015625 198.289062 0.015625 192 Z M 0.015625 192 " clip-rule="nonzero"/></clipPath><clipPath id="d76066858c"><path d="M 243 117 L 269 117 L 269 154 L 243 154 Z M 243 117 " clip-rule="nonzero"/></clipPath><clipPath id="e74695acc0"><path d="M 0.015625 192 C 0.015625 185.710938 0.324219 179.441406 0.9375 173.183594 C 1.554688 166.925781 2.476562 160.710938 3.703125 154.546875 C 4.929688 148.378906 6.457031 142.285156 8.28125 136.269531 C 10.105469 130.253906 12.222656 124.339844 14.628906 118.53125 C 17.035156 112.722656 19.71875 107.042969 22.683594 101.5 C 25.648438 95.953125 28.875 90.566406 32.371094 85.339844 C 35.863281 80.109375 39.605469 75.066406 43.59375 70.207031 C 47.582031 65.34375 51.800781 60.691406 56.246094 56.246094 C 60.691406 51.800781 65.34375 47.582031 70.207031 43.59375 C 75.066406 39.605469 80.109375 35.863281 85.339844 32.371094 C 90.566406 28.875 95.953125 25.648438 101.5 22.683594 C 107.042969 19.71875 112.722656 17.035156 118.53125 14.628906 C 124.339844 12.222656 130.253906 10.105469 136.269531 8.28125 C 142.285156 6.457031 148.378906 4.929688 154.546875 3.703125 C 160.710938 2.476562 166.925781 1.554688 173.183594 0.9375 C 179.441406 0.324219 185.710938 0.015625 192 0.015625 C 198.289062 0.015625 204.558594 0.324219 210.816406 0.9375 C 217.074219 1.554688 223.289062 2.476562 229.453125 3.703125 C 235.621094 4.929688 241.714844 6.457031 247.730469 8.28125 C 253.746094 10.105469 259.660156 12.222656 265.46875 14.628906 C 271.277344 17.035156 276.957031 19.71875 282.5 22.683594 C 288.046875 25.648438 293.433594 28.875 298.660156 32.371094 C 303.890625 35.863281 308.933594 39.605469 313.792969 43.59375 C 318.65625 47.582031 323.308594 51.800781 327.753906 56.246094 C 332.199219 60.691406 336.417969 65.34375 340.40625 70.207031 C 344.394531 75.066406 348.136719 80.109375 351.628906 85.339844 C 355.125 90.566406 358.351562 95.953125 361.316406 101.5 C 364.28125 107.042969 366.964844 112.722656 369.371094 118.53125 C 371.777344 124.339844 373.894531 130.253906 375.71875 136.269531 C 377.542969 142.285156 379.070312 148.378906 380.296875 154.546875 C 381.523438 160.710938 382.445312 166.925781 383.0625 173.183594 C 383.675781 179.441406 383.984375 185.710938 383.984375 192 C 383.984375 198.289062 383.675781 204.558594 383.0625 210.816406 C 382.445312 217.074219 381.523438 223.289062 380.296875 229.453125 C 379.070312 235.621094 377.542969 241.714844 375.71875 247.730469 C 373.894531 253.746094 371.777344 259.660156 369.371094 265.46875 C 366.964844 271.277344 364.28125 276.957031 361.316406 282.5 C 358.351562 288.046875 355.125 293.433594 351.628906 298.660156 C 348.136719 303.890625 344.394531 308.933594 340.40625 313.792969 C 336.417969 318.65625 332.199219 323.308594 327.753906 327.753906 C 323.308594 332.199219 318.65625 336.417969 313.792969 340.40625 C 308.933594 344.394531 303.890625 348.136719 298.660156 351.628906 C 293.433594 355.125 288.046875 358.351562 282.5 361.316406 C 276.957031 364.28125 271.277344 366.964844 265.46875 369.371094 C 259.660156 371.777344 253.746094 373.894531 247.730469 375.71875 C 241.714844 377.542969 235.621094 379.070312 229.453125 380.296875 C 223.289062 381.523438 217.074219 382.445312 210.816406 383.0625 C 204.558594 383.675781 198.289062 383.984375 192 383.984375 C 185.710938 383.984375 179.441406 383.675781 173.183594 383.0625 C 166.925781 382.445312 160.710938 381.523438 154.546875 380.296875 C 148.378906 379.070312 142.285156 377.542969 136.269531 375.71875 C 130.253906 373.894531 124.339844 371.777344 118.53125 369.371094 C 112.722656 366.964844 107.042969 364.28125 101.5 361.316406 C 95.953125 358.351562 90.566406 355.125 85.339844 351.628906 C 80.109375 348.136719 75.066406 344.394531 70.207031 340.40625 C 65.34375 336.417969 60.691406 332.199219 56.246094 327.753906 C 51.800781 323.308594 47.582031 318.65625 43.59375 313.792969 C 39.605469 308.933594 35.863281 303.890625 32.371094 298.660156 C 28.875 293.433594 25.648438 288.046875 22.683594 282.5 C 19.71875 276.957031 17.035156 271.277344 14.628906 265.46875 C 12.222656 259.660156 10.105469 253.746094 8.28125 247.730469 C 6.457031 241.714844 4.929688 235.621094 3.703125 229.453125 C 2.476562 223.289062 1.554688 217.074219 0.9375 210.816406 C 0.324219 204.558594 0.015625 198.289062 0.015625 192 Z M 0.015625 192 " clip-rule="nonzero"/></clipPath><clipPath id="4733af3a56"><path d="M 151 184 L 233 184 L 233 278 L 151 278 Z M 151 184 " clip-rule="nonzero"/></clipPath><clipPath id="b86b9b36c5"><path d="M 0.015625 192 C 0.015625 185.710938 0.324219 179.441406 0.9375 173.183594 C 1.554688 166.925781 2.476562 160.710938 3.703125 154.546875 C 4.929688 148.378906 6.457031 142.285156 8.28125 136.269531 C 10.105469 130.253906 12.222656 124.339844 14.628906 118.53125 C 17.035156 112.722656 19.71875 107.042969 22.683594 101.5 C 25.648438 95.953125 28.875 90.566406 32.371094 85.339844 C 35.863281 80.109375 39.605469 75.066406 43.59375 70.207031 C 47.582031 65.34375 51.800781 60.691406 56.246094 56.246094 C 60.691406 51.800781 65.34375 47.582031 70.207031 43.59375 C 75.066406 39.605469 80.109375 35.863281 85.339844 32.371094 C 90.566406 28.875 95.953125 25.648438 101.5 22.683594 C 107.042969 19.71875 112.722656 17.035156 118.53125 14.628906 C 124.339844 12.222656 130.253906 10.105469 136.269531 8.28125 C 142.285156 6.457031 148.378906 4.929688 154.546875 3.703125 C 160.710938 2.476562 166.925781 1.554688 173.183594 0.9375 C 179.441406 0.324219 185.710938 0.015625 192 0.015625 C 198.289062 0.015625 204.558594 0.324219 210.816406 0.9375 C 217.074219 1.554688 223.289062 2.476562 229.453125 3.703125 C 235.621094 4.929688 241.714844 6.457031 247.730469 8.28125 C 253.746094 10.105469 259.660156 12.222656 265.46875 14.628906 C 271.277344 17.035156 276.957031 19.71875 282.5 22.683594 C 288.046875 25.648438 293.433594 28.875 298.660156 32.371094 C 303.890625 35.863281 308.933594 39.605469 313.792969 43.59375 C 318.65625 47.582031 323.308594 51.800781 327.753906 56.246094 C 332.199219 60.691406 336.417969 65.34375 340.40625 70.207031 C 344.394531 75.066406 348.136719 80.109375 351.628906 85.339844 C 355.125 90.566406 358.351562 95.953125 361.316406 101.5 C 364.28125 107.042969 366.964844 112.722656 369.371094 118.53125 C 371.777344 124.339844 373.894531 130.253906 375.71875 136.269531 C 377.542969 142.285156 379.070312 148.378906 380.296875 154.546875 C 381.523438 160.710938 382.445312 166.925781 383.0625 173.183594 C 383.675781 179.441406 383.984375 185.710938 383.984375 192 C 383.984375 198.289062 383.675781 204.558594 383.0625 210.816406 C 382.445312 217.074219 381.523438 223.289062 380.296875 229.453125 C 379.070312 235.621094 377.542969 241.714844 375.71875 247.730469 C 373.894531 253.746094 371.777344 259.660156 369.371094 265.46875 C 366.964844 271.277344 364.28125 276.957031 361.316406 282.5 C 358.351562 288.046875 355.125 293.433594 351.628906 298.660156 C 348.136719 303.890625 344.394531 308.933594 340.40625 313.792969 C 336.417969 318.65625 332.199219 323.308594 327.753906 327.753906 C 323.308594 332.199219 318.65625 336.417969 313.792969 340.40625 C 308.933594 344.394531 303.890625 348.136719 298.660156 351.628906 C 293.433594 355.125 288.046875 358.351562 282.5 361.316406 C 276.957031 364.28125 271.277344 366.964844 265.46875 369.371094 C 259.660156 371.777344 253.746094 373.894531 247.730469 375.71875 C 241.714844 377.542969 235.621094 379.070312 229.453125 380.296875 C 223.289062 381.523438 217.074219 382.445312 210.816406 383.0625 C 204.558594 383.675781 198.289062 383.984375 192 383.984375 C 185.710938 383.984375 179.441406 383.675781 173.183594 383.0625 C 166.925781 382.445312 160.710938 381.523438 154.546875 380.296875 C 148.378906 379.070312 142.285156 377.542969 136.269531 375.71875 C 130.253906 373.894531 124.339844 371.777344 118.53125 369.371094 C 112.722656 366.964844 107.042969 364.28125 101.5 361.316406 C 95.953125 358.351562 90.566406 355.125 85.339844 351.628906 C 80.109375 348.136719 75.066406 344.394531 70.207031 340.40625 C 65.34375 336.417969 60.691406 332.199219 56.246094 327.753906 C 51.800781 323.308594 47.582031 318.65625 43.59375 313.792969 C 39.605469 308.933594 35.863281 303.890625 32.371094 298.660156 C 28.875 293.433594 25.648438 288.046875 22.683594 282.5 C 19.71875 276.957031 17.035156 271.277344 14.628906 265.46875 C 12.222656 259.660156 10.105469 253.746094 8.28125 247.730469 C 6.457031 241.714844 4.929688 235.621094 3.703125 229.453125 C 2.476562 223.289062 1.554688 217.074219 0.9375 210.816406 C 0.324219 204.558594 0.015625 198.289062 0.015625 192 Z M 0.015625 192 " clip-rule="nonzero"/></clipPath><clipPath id="68956fd139"><path d="M 156 184 L 230 184 L 230 232 L 156 232 Z M 156 184 " clip-rule="nonzero"/></clipPath><clipPath id="d51b4cbb1e"><path d="M 0.015625 192 C 0.015625 185.710938 0.324219 179.441406 0.9375 173.183594 C 1.554688 166.925781 2.476562 160.710938 3.703125 154.546875 C 4.929688 148.378906 6.457031 142.285156 8.28125 136.269531 C 10.105469 130.253906 12.222656 124.339844 14.628906 118.53125 C 17.035156 112.722656 19.71875 107.042969 22.683594 101.5 C 25.648438 95.953125 28.875 90.566406 32.371094 85.339844 C 35.863281 80.109375 39.605469 75.066406 43.59375 70.207031 C 47.582031 65.34375 51.800781 60.691406 56.246094 56.246094 C 60.691406 51.800781 65.34375 47.582031 70.207031 43.59375 C 75.066406 39.605469 80.109375 35.863281 85.339844 32.371094 C 90.566406 28.875 95.953125 25.648438 101.5 22.683594 C 107.042969 19.71875 112.722656 17.035156 118.53125 14.628906 C 124.339844 12.222656 130.253906 10.105469 136.269531 8.28125 C 142.285156 6.457031 148.378906 4.929688 154.546875 3.703125 C 160.710938 2.476562 166.925781 1.554688 173.183594 0.9375 C 179.441406 0.324219 185.710938 0.015625 192 0.015625 C 198.289062 0.015625 204.558594 0.324219 210.816406 0.9375 C 217.074219 1.554688 223.289062 2.476562 229.453125 3.703125 C 235.621094 4.929688 241.714844 6.457031 247.730469 8.28125 C 253.746094 10.105469 259.660156 12.222656 265.46875 14.628906 C 271.277344 17.035156 276.957031 19.71875 282.5 22.683594 C 288.046875 25.648438 293.433594 28.875 298.660156 32.371094 C 303.890625 35.863281 308.933594 39.605469 313.792969 43.59375 C 318.65625 47.582031 323.308594 51.800781 327.753906 56.246094 C 332.199219 60.691406 336.417969 65.34375 340.40625 70.207031 C 344.394531 75.066406 348.136719 80.109375 351.628906 85.339844 C 355.125 90.566406 358.351562 95.953125 361.316406 101.5 C 364.28125 107.042969 366.964844 112.722656 369.371094 118.53125 C 371.777344 124.339844 373.894531 130.253906 375.71875 136.269531 C 377.542969 142.285156 379.070312 148.378906 380.296875 154.546875 C 381.523438 160.710938 382.445312 166.925781 383.0625 173.183594 C 383.675781 179.441406 383.984375 185.710938 383.984375 192 C 383.984375 198.289062 383.675781 204.558594 383.0625 210.816406 C 382.445312 217.074219 381.523438 223.289062 380.296875 229.453125 C 379.070312 235.621094 377.542969 241.714844 375.71875 247.730469 C 373.894531 253.746094 371.777344 259.660156 369.371094 265.46875 C 366.964844 271.277344 364.28125 276.957031 361.316406 282.5 C 358.351562 288.046875 355.125 293.433594 351.628906 298.660156 C 348.136719 303.890625 344.394531 308.933594 340.40625 313.792969 C 336.417969 318.65625 332.199219 323.308594 327.753906 327.753906 C 323.308594 332.199219 318.65625 336.417969 313.792969 340.40625 C 308.933594 344.394531 303.890625 348.136719 298.660156 351.628906 C 293.433594 355.125 288.046875 358.351562 282.5 361.316406 C 276.957031 364.28125 271.277344 366.964844 265.46875 369.371094 C 259.660156 371.777344 253.746094 373.894531 247.730469 375.71875 C 241.714844 377.542969 235.621094 379.070312 229.453125 380.296875 C 223.289062 381.523438 217.074219 382.445312 210.816406 383.0625 C 204.558594 383.675781 198.289062 383.984375 192 383.984375 C 185.710938 383.984375 179.441406 383.675781 173.183594 383.0625 C 166.925781 382.445312 160.710938 381.523438 154.546875 380.296875 C 148.378906 379.070312 142.285156 377.542969 136.269531 375.71875 C 130.253906 373.894531 124.339844 371.777344 118.53125 369.371094 C 112.722656 366.964844 107.042969 364.28125 101.5 361.316406 C 95.953125 358.351562 90.566406 355.125 85.339844 351.628906 C 80.109375 348.136719 75.066406 344.394531 70.207031 340.40625 C 65.34375 336.417969 60.691406 332.199219 56.246094 327.753906 C 51.800781 323.308594 47.582031 318.65625 43.59375 313.792969 C 39.605469 308.933594 35.863281 303.890625 32.371094 298.660156 C 28.875 293.433594 25.648438 288.046875 22.683594 282.5 C 19.71875 276.957031 17.035156 271.277344 14.628906 265.46875 C 12.222656 259.660156 10.105469 253.746094 8.28125 247.730469 C 6.457031 241.714844 4.929688 235.621094 3.703125 229.453125 C 2.476562 223.289062 1.554688 217.074219 0.9375 210.816406 C 0.324219 204.558594 0.015625 198.289062 0.015625 192 Z M 0.015625 192 " clip-rule="nonzero"/></clipPath><clipPath id="72b7e97ca7"><path d="M 132 54 L 252 54 L 252 215 L 132 215 Z M 132 54 " clip-rule="nonzero"/></clipPath><clipPath id="729103a576"><path d="M 0.015625 192 C 0.015625 185.710938 0.324219 179.441406 0.9375 173.183594 C 1.554688 166.925781 2.476562 160.710938 3.703125 154.546875 C 4.929688 148.378906 6.457031 142.285156 8.28125 136.269531 C 10.105469 130.253906 12.222656 124.339844 14.628906 118.53125 C 17.035156 112.722656 19.71875 107.042969 22.683594 101.5 C 25.648438 95.953125 28.875 90.566406 32.371094 85.339844 C 35.863281 80.109375 39.605469 75.066406 43.59375 70.207031 C 47.582031 65.34375 51.800781 60.691406 56.246094 56.246094 C 60.691406 51.800781 65.34375 47.582031 70.207031 43.59375 C 75.066406 39.605469 80.109375 35.863281 85.339844 32.371094 C 90.566406 28.875 95.953125 25.648438 101.5 22.683594 C 107.042969 19.71875 112.722656 17.035156 118.53125 14.628906 C 124.339844 12.222656 130.253906 10.105469 136.269531 8.28125 C 142.285156 6.457031 148.378906 4.929688 154.546875 3.703125 C 160.710938 2.476562 166.925781 1.554688 173.183594 0.9375 C 179.441406 0.324219 185.710938 0.015625 192 0.015625 C 198.289062 0.015625 204.558594 0.324219 210.816406 0.9375 C 217.074219 1.554688 223.289062 2.476562 229.453125 3.703125 C 235.621094 4.929688 241.714844 6.457031 247.730469 8.28125 C 253.746094 10.105469 259.660156 12.222656 265.46875 14.628906 C 271.277344 17.035156 276.957031 19.71875 282.5 22.683594 C 288.046875 25.648438 293.433594 28.875 298.660156 32.371094 C 303.890625 35.863281 308.933594 39.605469 313.792969 43.59375 C 318.65625 47.582031 323.308594 51.800781 327.753906 56.246094 C 332.199219 60.691406 336.417969 65.34375 340.40625 70.207031 C 344.394531 75.066406 348.136719 80.109375 351.628906 85.339844 C 355.125 90.566406 358.351562 95.953125 361.316406 101.5 C 364.28125 107.042969 366.964844 112.722656 369.371094 118.53125 C 371.777344 124.339844 373.894531 130.253906 375.71875 136.269531 C 377.542969 142.285156 379.070312 148.378906 380.296875 154.546875 C 381.523438 160.710938 382.445312 166.925781 383.0625 173.183594 C 383.675781 179.441406 383.984375 185.710938 383.984375 192 C 383.984375 198.289062 383.675781 204.558594 383.0625 210.816406 C 382.445312 217.074219 381.523438 223.289062 380.296875 229.453125 C 379.070312 235.621094 377.542969 241.714844 375.71875 247.730469 C 373.894531 253.746094 371.777344 259.660156 369.371094 265.46875 C 366.964844 271.277344 364.28125 276.957031 361.316406 282.5 C 358.351562 288.046875 355.125 293.433594 351.628906 298.660156 C 348.136719 303.890625 344.394531 308.933594 340.40625 313.792969 C 336.417969 318.65625 332.199219 323.308594 327.753906 327.753906 C 323.308594 332.199219 318.65625 336.417969 313.792969 340.40625 C 308.933594 344.394531 303.890625 348.136719 298.660156 351.628906 C 293.433594 355.125 288.046875 358.351562 282.5 361.316406 C 276.957031 364.28125 271.277344 366.964844 265.46875 369.371094 C 259.660156 371.777344 253.746094 373.894531 247.730469 375.71875 C 241.714844 377.542969 235.621094 379.070312 229.453125 380.296875 C 223.289062 381.523438 217.074219 382.445312 210.816406 383.0625 C 204.558594 383.675781 198.289062 383.984375 192 383.984375 C 185.710938 383.984375 179.441406 383.675781 173.183594 383.0625 C 166.925781 382.445312 160.710938 381.523438 154.546875 380.296875 C 148.378906 379.070312 142.285156 377.542969 136.269531 375.71875 C 130.253906 373.894531 124.339844 371.777344 118.53125 369.371094 C 112.722656 366.964844 107.042969 364.28125 101.5 361.316406 C 95.953125 358.351562 90.566406 355.125 85.339844 351.628906 C 80.109375 348.136719 75.066406 344.394531 70.207031 340.40625 C 65.34375 336.417969 60.691406 332.199219 56.246094 327.753906 C 51.800781 323.308594 47.582031 318.65625 43.59375 313.792969 C 39.605469 308.933594 35.863281 303.890625 32.371094 298.660156 C 28.875 293.433594 25.648438 288.046875 22.683594 282.5 C 19.71875 276.957031 17.035156 271.277344 14.628906 265.46875 C 12.222656 259.660156 10.105469 253.746094 8.28125 247.730469 C 6.457031 241.714844 4.929688 235.621094 3.703125 229.453125 C 2.476562 223.289062 1.554688 217.074219 0.9375 210.816406 C 0.324219 204.558594 0.015625 198.289062 0.015625 192 Z M 0.015625 192 " clip-rule="nonzero"/></clipPath><clipPath id="30efa1b2c4"><path d="M 247 190 L 248 190 L 248 192 L 247 192 Z M 247 190 " clip-rule="nonzero"/></clipPath><clipPath id="a0f202acbc"><path d="M 0.015625 192 C 0.015625 185.710938 0.324219 179.441406 0.9375 173.183594 C 1.554688 166.925781 2.476562 160.710938 3.703125 154.546875 C 4.929688 148.378906 6.457031 142.285156 8.28125 136.269531 C 10.105469 130.253906 12.222656 124.339844 14.628906 118.53125 C 17.035156 112.722656 19.71875 107.042969 22.683594 101.5 C 25.648438 95.953125 28.875 90.566406 32.371094 85.339844 C 35.863281 80.109375 39.605469 75.066406 43.59375 70.207031 C 47.582031 65.34375 51.800781 60.691406 56.246094 56.246094 C 60.691406 51.800781 65.34375 47.582031 70.207031 43.59375 C 75.066406 39.605469 80.109375 35.863281 85.339844 32.371094 C 90.566406 28.875 95.953125 25.648438 101.5 22.683594 C 107.042969 19.71875 112.722656 17.035156 118.53125 14.628906 C 124.339844 12.222656 130.253906 10.105469 136.269531 8.28125 C 142.285156 6.457031 148.378906 4.929688 154.546875 3.703125 C 160.710938 2.476562 166.925781 1.554688 173.183594 0.9375 C 179.441406 0.324219 185.710938 0.015625 192 0.015625 C 198.289062 0.015625 204.558594 0.324219 210.816406 0.9375 C 217.074219 1.554688 223.289062 2.476562 229.453125 3.703125 C 235.621094 4.929688 241.714844 6.457031 247.730469 8.28125 C 253.746094 10.105469 259.660156 12.222656 265.46875 14.628906 C 271.277344 17.035156 276.957031 19.71875 282.5 22.683594 C 288.046875 25.648438 293.433594 28.875 298.660156 32.371094 C 303.890625 35.863281 308.933594 39.605469 313.792969 43.59375 C 318.65625 47.582031 323.308594 51.800781 327.753906 56.246094 C 332.199219 60.691406 336.417969 65.34375 340.40625 70.207031 C 344.394531 75.066406 348.136719 80.109375 351.628906 85.339844 C 355.125 90.566406 358.351562 95.953125 361.316406 101.5 C 364.28125 107.042969 366.964844 112.722656 369.371094 118.53125 C 371.777344 124.339844 373.894531 130.253906 375.71875 136.269531 C 377.542969 142.285156 379.070312 148.378906 380.296875 154.546875 C 381.523438 160.710938 382.445312 166.925781 383.0625 173.183594 C 383.675781 179.441406 383.984375 185.710938 383.984375 192 C 383.984375 198.289062 383.675781 204.558594 383.0625 210.816406 C 382.445312 217.074219 381.523438 223.289062 380.296875 229.453125 C 379.070312 235.621094 377.542969 241.714844 375.71875 247.730469 C 373.894531 253.746094 371.777344 259.660156 369.371094 265.46875 C 366.964844 271.277344 364.28125 276.957031 361.316406 282.5 C 358.351562 288.046875 355.125 293.433594 351.628906 298.660156 C 348.136719 303.890625 344.394531 308.933594 340.40625 313.792969 C 336.417969 318.65625 332.199219 323.308594 327.753906 327.753906 C 323.308594 332.199219 318.65625 336.417969 313.792969 340.40625 C 308.933594 344.394531 303.890625 348.136719 298.660156 351.628906 C 293.433594 355.125 288.046875 358.351562 282.5 361.316406 C 276.957031 364.28125 271.277344 366.964844 265.46875 369.371094 C 259.660156 371.777344 253.746094 373.894531 247.730469 375.71875 C 241.714844 377.542969 235.621094 379.070312 229.453125 380.296875 C 223.289062 381.523438 217.074219 382.445312 210.816406 383.0625 C 204.558594 383.675781 198.289062 383.984375 192 383.984375 C 185.710938 383.984375 179.441406 383.675781 173.183594 383.0625 C 166.925781 382.445312 160.710938 381.523438 154.546875 380.296875 C 148.378906 379.070312 142.285156 377.542969 136.269531 375.71875 C 130.253906 373.894531 124.339844 371.777344 118.53125 369.371094 C 112.722656 366.964844 107.042969 364.28125 101.5 361.316406 C 95.953125 358.351562 90.566406 355.125 85.339844 351.628906 C 80.109375 348.136719 75.066406 344.394531 70.207031 340.40625 C 65.34375 336.417969 60.691406 332.199219 56.246094 327.753906 C 51.800781 323.308594 47.582031 318.65625 43.59375 313.792969 C 39.605469 308.933594 35.863281 303.890625 32.371094 298.660156 C 28.875 293.433594 25.648438 288.046875 22.683594 282.5 C 19.71875 276.957031 17.035156 271.277344 14.628906 265.46875 C 12.222656 259.660156 10.105469 253.746094 8.28125 247.730469 C 6.457031 241.714844 4.929688 235.621094 3.703125 229.453125 C 2.476562 223.289062 1.554688 217.074219 0.9375 210.816406 C 0.324219 204.558594 0.015625 198.289062 0.015625 192 Z M 0.015625 192 " clip-rule="nonzero"/></clipPath><clipPath id="a3e4fa3ce5"><path d="M 120 24 L 264 24 L 264 125 L 120 125 Z M 120 24 " clip-rule="nonzero"/></clipPath><clipPath id="3a705c47fe"><path d="M 0.015625 192 C 0.015625 185.710938 0.324219 179.441406 0.9375 173.183594 C 1.554688 166.925781 2.476562 160.710938 3.703125 154.546875 C 4.929688 148.378906 6.457031 142.285156 8.28125 136.269531 C 10.105469 130.253906 12.222656 124.339844 14.628906 118.53125 C 17.035156 112.722656 19.71875 107.042969 22.683594 101.5 C 25.648438 95.953125 28.875 90.566406 32.371094 85.339844 C 35.863281 80.109375 39.605469 75.066406 43.59375 70.207031 C 47.582031 65.34375 51.800781 60.691406 56.246094 56.246094 C 60.691406 51.800781 65.34375 47.582031 70.207031 43.59375 C 75.066406 39.605469 80.109375 35.863281 85.339844 32.371094 C 90.566406 28.875 95.953125 25.648438 101.5 22.683594 C 107.042969 19.71875 112.722656 17.035156 118.53125 14.628906 C 124.339844 12.222656 130.253906 10.105469 136.269531 8.28125 C 142.285156 6.457031 148.378906 4.929688 154.546875 3.703125 C 160.710938 2.476562 166.925781 1.554688 173.183594 0.9375 C 179.441406 0.324219 185.710938 0.015625 192 0.015625 C 198.289062 0.015625 204.558594 0.324219 210.816406 0.9375 C 217.074219 1.554688 223.289062 2.476562 229.453125 3.703125 C 235.621094 4.929688 241.714844 6.457031 247.730469 8.28125 C 253.746094 10.105469 259.660156 12.222656 265.46875 14.628906 C 271.277344 17.035156 276.957031 19.71875 282.5 22.683594 C 288.046875 25.648438 293.433594 28.875 298.660156 32.371094 C 303.890625 35.863281 308.933594 39.605469 313.792969 43.59375 C 318.65625 47.582031 323.308594 51.800781 327.753906 56.246094 C 332.199219 60.691406 336.417969 65.34375 340.40625 70.207031 C 344.394531 75.066406 348.136719 80.109375 351.628906 85.339844 C 355.125 90.566406 358.351562 95.953125 361.316406 101.5 C 364.28125 107.042969 366.964844 112.722656 369.371094 118.53125 C 371.777344 124.339844 373.894531 130.253906 375.71875 136.269531 C 377.542969 142.285156 379.070312 148.378906 380.296875 154.546875 C 381.523438 160.710938 382.445312 166.925781 383.0625 173.183594 C 383.675781 179.441406 383.984375 185.710938 383.984375 192 C 383.984375 198.289062 383.675781 204.558594 383.0625 210.816406 C 382.445312 217.074219 381.523438 223.289062 380.296875 229.453125 C 379.070312 235.621094 377.542969 241.714844 375.71875 247.730469 C 373.894531 253.746094 371.777344 259.660156 369.371094 265.46875 C 366.964844 271.277344 364.28125 276.957031 361.316406 282.5 C 358.351562 288.046875 355.125 293.433594 351.628906 298.660156 C 348.136719 303.890625 344.394531 308.933594 340.40625 313.792969 C 336.417969 318.65625 332.199219 323.308594 327.753906 327.753906 C 323.308594 332.199219 318.65625 336.417969 313.792969 340.40625 C 308.933594 344.394531 303.890625 348.136719 298.660156 351.628906 C 293.433594 355.125 288.046875 358.351562 282.5 361.316406 C 276.957031 364.28125 271.277344 366.964844 265.46875 369.371094 C 259.660156 371.777344 253.746094 373.894531 247.730469 375.71875 C 241.714844 377.542969 235.621094 379.070312 229.453125 380.296875 C 223.289062 381.523438 217.074219 382.445312 210.816406 383.0625 C 204.558594 383.675781 198.289062 383.984375 192 383.984375 C 185.710938 383.984375 179.441406 383.675781 173.183594 383.0625 C 166.925781 382.445312 160.710938 381.523438 154.546875 380.296875 C 148.378906 379.070312 142.285156 377.542969 136.269531 375.71875 C 130.253906 373.894531 124.339844 371.777344 118.53125 369.371094 C 112.722656 366.964844 107.042969 364.28125 101.5 361.316406 C 95.953125 358.351562 90.566406 355.125 85.339844 351.628906 C 80.109375 348.136719 75.066406 344.394531 70.207031 340.40625 C 65.34375 336.417969 60.691406 332.199219 56.246094 327.753906 C 51.800781 323.308594 47.582031 318.65625 43.59375 313.792969 C 39.605469 308.933594 35.863281 303.890625 32.371094 298.660156 C 28.875 293.433594 25.648438 288.046875 22.683594 282.5 C 19.71875 276.957031 17.035156 271.277344 14.628906 265.46875 C 12.222656 259.660156 10.105469 253.746094 8.28125 247.730469 C 6.457031 241.714844 4.929688 235.621094 3.703125 229.453125 C 2.476562 223.289062 1.554688 217.074219 0.9375 210.816406 C 0.324219 204.558594 0.015625 198.289062 0.015625 192 Z M 0.015625 192 " clip-rule="nonzero"/></clipPath><clipPath id="a7653df051"><path d="M 29 242 L 355 242 L 355 384 L 29 384 Z M 29 242 " clip-rule="nonzero"/></clipPath><clipPath id="05b1bb540d"><path d="M 0.015625 192 C 0.015625 185.710938 0.324219 179.441406 0.9375 173.183594 C 1.554688 166.925781 2.476562 160.710938 3.703125 154.546875 C 4.929688 148.378906 6.457031 142.285156 8.28125 136.269531 C 10.105469 130.253906 12.222656 124.339844 14.628906 118.53125 C 17.035156 112.722656 19.71875 107.042969 22.683594 101.5 C 25.648438 95.953125 28.875 90.566406 32.371094 85.339844 C 35.863281 80.109375 39.605469 75.066406 43.59375 70.207031 C 47.582031 65.34375 51.800781 60.691406 56.246094 56.246094 C 60.691406 51.800781 65.34375 47.582031 70.207031 43.59375 C 75.066406 39.605469 80.109375 35.863281 85.339844 32.371094 C 90.566406 28.875 95.953125 25.648438 101.5 22.683594 C 107.042969 19.71875 112.722656 17.035156 118.53125 14.628906 C 124.339844 12.222656 130.253906 10.105469 136.269531 8.28125 C 142.285156 6.457031 148.378906 4.929688 154.546875 3.703125 C 160.710938 2.476562 166.925781 1.554688 173.183594 0.9375 C 179.441406 0.324219 185.710938 0.015625 192 0.015625 C 198.289062 0.015625 204.558594 0.324219 210.816406 0.9375 C 217.074219 1.554688 223.289062 2.476562 229.453125 3.703125 C 235.621094 4.929688 241.714844 6.457031 247.730469 8.28125 C 253.746094 10.105469 259.660156 12.222656 265.46875 14.628906 C 271.277344 17.035156 276.957031 19.71875 282.5 22.683594 C 288.046875 25.648438 293.433594 28.875 298.660156 32.371094 C 303.890625 35.863281 308.933594 39.605469 313.792969 43.59375 C 318.65625 47.582031 323.308594 51.800781 327.753906 56.246094 C 332.199219 60.691406 336.417969 65.34375 340.40625 70.207031 C 344.394531 75.066406 348.136719 80.109375 351.628906 85.339844 C 355.125 90.566406 358.351562 95.953125 361.316406 101.5 C 364.28125 107.042969 366.964844 112.722656 369.371094 118.53125 C 371.777344 124.339844 373.894531 130.253906 375.71875 136.269531 C 377.542969 142.285156 379.070312 148.378906 380.296875 154.546875 C 381.523438 160.710938 382.445312 166.925781 383.0625 173.183594 C 383.675781 179.441406 383.984375 185.710938 383.984375 192 C 383.984375 198.289062 383.675781 204.558594 383.0625 210.816406 C 382.445312 217.074219 381.523438 223.289062 380.296875 229.453125 C 379.070312 235.621094 377.542969 241.714844 375.71875 247.730469 C 373.894531 253.746094 371.777344 259.660156 369.371094 265.46875 C 366.964844 271.277344 364.28125 276.957031 361.316406 282.5 C 358.351562 288.046875 355.125 293.433594 351.628906 298.660156 C 348.136719 303.890625 344.394531 308.933594 340.40625 313.792969 C 336.417969 318.65625 332.199219 323.308594 327.753906 327.753906 C 323.308594 332.199219 318.65625 336.417969 313.792969 340.40625 C 308.933594 344.394531 303.890625 348.136719 298.660156 351.628906 C 293.433594 355.125 288.046875 358.351562 282.5 361.316406 C 276.957031 364.28125 271.277344 366.964844 265.46875 369.371094 C 259.660156 371.777344 253.746094 373.894531 247.730469 375.71875 C 241.714844 377.542969 235.621094 379.070312 229.453125 380.296875 C 223.289062 381.523438 217.074219 382.445312 210.816406 383.0625 C 204.558594 383.675781 198.289062 383.984375 192 383.984375 C 185.710938 383.984375 179.441406 383.675781 173.183594 383.0625 C 166.925781 382.445312 160.710938 381.523438 154.546875 380.296875 C 148.378906 379.070312 142.285156 377.542969 136.269531 375.71875 C 130.253906 373.894531 124.339844 371.777344 118.53125 369.371094 C 112.722656 366.964844 107.042969 364.28125 101.5 361.316406 C 95.953125 358.351562 90.566406 355.125 85.339844 351.628906 C 80.109375 348.136719 75.066406 344.394531 70.207031 340.40625 C 65.34375 336.417969 60.691406 332.199219 56.246094 327.753906 C 51.800781 323.308594 47.582031 318.65625 43.59375 313.792969 C 39.605469 308.933594 35.863281 303.890625 32.371094 298.660156 C 28.875 293.433594 25.648438 288.046875 22.683594 282.5 C 19.71875 276.957031 17.035156 271.277344 14.628906 265.46875 C 12.222656 259.660156 10.105469 253.746094 8.28125 247.730469 C 6.457031 241.714844 4.929688 235.621094 3.703125 229.453125 C 2.476562 223.289062 1.554688 217.074219 0.9375 210.816406 C 0.324219 204.558594 0.015625 198.289062 0.015625 192 Z M 0.015625 192 " clip-rule="nonzero"/></clipPath><clipPath id="810e3d838a"><path d="M 192 240 L 255 240 L 255 322 L 192 322 Z M 192 240 " clip-rule="nonzero"/></clipPath><clipPath id="4afdf7b152"><path d="M 0.015625 192 C 0.015625 185.710938 0.324219 179.441406 0.9375 173.183594 C 1.554688 166.925781 2.476562 160.710938 3.703125 154.546875 C 4.929688 148.378906 6.457031 142.285156 8.28125 136.269531 C 10.105469 130.253906 12.222656 124.339844 14.628906 118.53125 C 17.035156 112.722656 19.71875 107.042969 22.683594 101.5 C 25.648438 95.953125 28.875 90.566406 32.371094 85.339844 C 35.863281 80.109375 39.605469 75.066406 43.59375 70.207031 C 47.582031 65.34375 51.800781 60.691406 56.246094 56.246094 C 60.691406 51.800781 65.34375 47.582031 70.207031 43.59375 C 75.066406 39.605469 80.109375 35.863281 85.339844 32.371094 C 90.566406 28.875 95.953125 25.648438 101.5 22.683594 C 107.042969 19.71875 112.722656 17.035156 118.53125 14.628906 C 124.339844 12.222656 130.253906 10.105469 136.269531 8.28125 C 142.285156 6.457031 148.378906 4.929688 154.546875 3.703125 C 160.710938 2.476562 166.925781 1.554688 173.183594 0.9375 C 179.441406 0.324219 185.710938 0.015625 192 0.015625 C 198.289062 0.015625 204.558594 0.324219 210.816406 0.9375 C 217.074219 1.554688 223.289062 2.476562 229.453125 3.703125 C 235.621094 4.929688 241.714844 6.457031 247.730469 8.28125 C 253.746094 10.105469 259.660156 12.222656 265.46875 14.628906 C 271.277344 17.035156 276.957031 19.71875 282.5 22.683594 C 288.046875 25.648438 293.433594 28.875 298.660156 32.371094 C 303.890625 35.863281 308.933594 39.605469 313.792969 43.59375 C 318.65625 47.582031 323.308594 51.800781 327.753906 56.246094 C 332.199219 60.691406 336.417969 65.34375 340.40625 70.207031 C 344.394531 75.066406 348.136719 80.109375 351.628906 85.339844 C 355.125 90.566406 358.351562 95.953125 361.316406 101.5 C 364.28125 107.042969 366.964844 112.722656 369.371094 118.53125 C 371.777344 124.339844 373.894531 130.253906 375.71875 136.269531 C 377.542969 142.285156 379.070312 148.378906 380.296875 154.546875 C 381.523438 160.710938 382.445312 166.925781 383.0625 173.183594 C 383.675781 179.441406 383.984375 185.710938 383.984375 192 C 383.984375 198.289062 383.675781 204.558594 383.0625 210.816406 C 382.445312 217.074219 381.523438 223.289062 380.296875 229.453125 C 379.070312 235.621094 377.542969 241.714844 375.71875 247.730469 C 373.894531 253.746094 371.777344 259.660156 369.371094 265.46875 C 366.964844 271.277344 364.28125 276.957031 361.316406 282.5 C 358.351562 288.046875 355.125 293.433594 351.628906 298.660156 C 348.136719 303.890625 344.394531 308.933594 340.40625 313.792969 C 336.417969 318.65625 332.199219 323.308594 327.753906 327.753906 C 323.308594 332.199219 318.65625 336.417969 313.792969 340.40625 C 308.933594 344.394531 303.890625 348.136719 298.660156 351.628906 C 293.433594 355.125 288.046875 358.351562 282.5 361.316406 C 276.957031 364.28125 271.277344 366.964844 265.46875 369.371094 C 259.660156 371.777344 253.746094 373.894531 247.730469 375.71875 C 241.714844 377.542969 235.621094 379.070312 229.453125 380.296875 C 223.289062 381.523438 217.074219 382.445312 210.816406 383.0625 C 204.558594 383.675781 198.289062 383.984375 192 383.984375 C 185.710938 383.984375 179.441406 383.675781 173.183594 383.0625 C 166.925781 382.445312 160.710938 381.523438 154.546875 380.296875 C 148.378906 379.070312 142.285156 377.542969 136.269531 375.71875 C 130.253906 373.894531 124.339844 371.777344 118.53125 369.371094 C 112.722656 366.964844 107.042969 364.28125 101.5 361.316406 C 95.953125 358.351562 90.566406 355.125 85.339844 351.628906 C 80.109375 348.136719 75.066406 344.394531 70.207031 340.40625 C 65.34375 336.417969 60.691406 332.199219 56.246094 327.753906 C 51.800781 323.308594 47.582031 318.65625 43.59375 313.792969 C 39.605469 308.933594 35.863281 303.890625 32.371094 298.660156 C 28.875 293.433594 25.648438 288.046875 22.683594 282.5 C 19.71875 276.957031 17.035156 271.277344 14.628906 265.46875 C 12.222656 259.660156 10.105469 253.746094 8.28125 247.730469 C 6.457031 241.714844 4.929688 235.621094 3.703125 229.453125 C 2.476562 223.289062 1.554688 217.074219 0.9375 210.816406 C 0.324219 204.558594 0.015625 198.289062 0.015625 192 Z M 0.015625 192 " clip-rule="nonzero"/></clipPath><clipPath id="5c9dd38001"><path d="M 130 240 L 193 240 L 193 322 L 130 322 Z M 130 240 " clip-rule="nonzero"/></clipPath><clipPath id="d7626c0b08"><path d="M 0.015625 192 C 0.015625 185.710938 0.324219 179.441406 0.9375 173.183594 C 1.554688 166.925781 2.476562 160.710938 3.703125 154.546875 C 4.929688 148.378906 6.457031 142.285156 8.28125 136.269531 C 10.105469 130.253906 12.222656 124.339844 14.628906 118.53125 C 17.035156 112.722656 19.71875 107.042969 22.683594 101.5 C 25.648438 95.953125 28.875 90.566406 32.371094 85.339844 C 35.863281 80.109375 39.605469 75.066406 43.59375 70.207031 C 47.582031 65.34375 51.800781 60.691406 56.246094 56.246094 C 60.691406 51.800781 65.34375 47.582031 70.207031 43.59375 C 75.066406 39.605469 80.109375 35.863281 85.339844 32.371094 C 90.566406 28.875 95.953125 25.648438 101.5 22.683594 C 107.042969 19.71875 112.722656 17.035156 118.53125 14.628906 C 124.339844 12.222656 130.253906 10.105469 136.269531 8.28125 C 142.285156 6.457031 148.378906 4.929688 154.546875 3.703125 C 160.710938 2.476562 166.925781 1.554688 173.183594 0.9375 C 179.441406 0.324219 185.710938 0.015625 192 0.015625 C 198.289062 0.015625 204.558594 0.324219 210.816406 0.9375 C 217.074219 1.554688 223.289062 2.476562 229.453125 3.703125 C 235.621094 4.929688 241.714844 6.457031 247.730469 8.28125 C 253.746094 10.105469 259.660156 12.222656 265.46875 14.628906 C 271.277344 17.035156 276.957031 19.71875 282.5 22.683594 C 288.046875 25.648438 293.433594 28.875 298.660156 32.371094 C 303.890625 35.863281 308.933594 39.605469 313.792969 43.59375 C 318.65625 47.582031 323.308594 51.800781 327.753906 56.246094 C 332.199219 60.691406 336.417969 65.34375 340.40625 70.207031 C 344.394531 75.066406 348.136719 80.109375 351.628906 85.339844 C 355.125 90.566406 358.351562 95.953125 361.316406 101.5 C 364.28125 107.042969 366.964844 112.722656 369.371094 118.53125 C 371.777344 124.339844 373.894531 130.253906 375.71875 136.269531 C 377.542969 142.285156 379.070312 148.378906 380.296875 154.546875 C 381.523438 160.710938 382.445312 166.925781 383.0625 173.183594 C 383.675781 179.441406 383.984375 185.710938 383.984375 192 C 383.984375 198.289062 383.675781 204.558594 383.0625 210.816406 C 382.445312 217.074219 381.523438 223.289062 380.296875 229.453125 C 379.070312 235.621094 377.542969 241.714844 375.71875 247.730469 C 373.894531 253.746094 371.777344 259.660156 369.371094 265.46875 C 366.964844 271.277344 364.28125 276.957031 361.316406 282.5 C 358.351562 288.046875 355.125 293.433594 351.628906 298.660156 C 348.136719 303.890625 344.394531 308.933594 340.40625 313.792969 C 336.417969 318.65625 332.199219 323.308594 327.753906 327.753906 C 323.308594 332.199219 318.65625 336.417969 313.792969 340.40625 C 308.933594 344.394531 303.890625 348.136719 298.660156 351.628906 C 293.433594 355.125 288.046875 358.351562 282.5 361.316406 C 276.957031 364.28125 271.277344 366.964844 265.46875 369.371094 C 259.660156 371.777344 253.746094 373.894531 247.730469 375.71875 C 241.714844 377.542969 235.621094 379.070312 229.453125 380.296875 C 223.289062 381.523438 217.074219 382.445312 210.816406 383.0625 C 204.558594 383.675781 198.289062 383.984375 192 383.984375 C 185.710938 383.984375 179.441406 383.675781 173.183594 383.0625 C 166.925781 382.445312 160.710938 381.523438 154.546875 380.296875 C 148.378906 379.070312 142.285156 377.542969 136.269531 375.71875 C 130.253906 373.894531 124.339844 371.777344 118.53125 369.371094 C 112.722656 366.964844 107.042969 364.28125 101.5 361.316406 C 95.953125 358.351562 90.566406 355.125 85.339844 351.628906 C 80.109375 348.136719 75.066406 344.394531 70.207031 340.40625 C 65.34375 336.417969 60.691406 332.199219 56.246094 327.753906 C 51.800781 323.308594 47.582031 318.65625 43.59375 313.792969 C 39.605469 308.933594 35.863281 303.890625 32.371094 298.660156 C 28.875 293.433594 25.648438 288.046875 22.683594 282.5 C 19.71875 276.957031 17.035156 271.277344 14.628906 265.46875 C 12.222656 259.660156 10.105469 253.746094 8.28125 247.730469 C 6.457031 241.714844 4.929688 235.621094 3.703125 229.453125 C 2.476562 223.289062 1.554688 217.074219 0.9375 210.816406 C 0.324219 204.558594 0.015625 198.289062 0.015625 192 Z M 0.015625 192 " clip-rule="nonzero"/></clipPath><clipPath id="5243f1f1be"><path d="M 197 240 L 254 240 L 254 318 L 197 318 Z M 197 240 " clip-rule="nonzero"/></clipPath><clipPath id="e635487571"><path d="M 0.015625 192 C 0.015625 185.710938 0.324219 179.441406 0.9375 173.183594 C 1.554688 166.925781 2.476562 160.710938 3.703125 154.546875 C 4.929688 148.378906 6.457031 142.285156 8.28125 136.269531 C 10.105469 130.253906 12.222656 124.339844 14.628906 118.53125 C 17.035156 112.722656 19.71875 107.042969 22.683594 101.5 C 25.648438 95.953125 28.875 90.566406 32.371094 85.339844 C 35.863281 80.109375 39.605469 75.066406 43.59375 70.207031 C 47.582031 65.34375 51.800781 60.691406 56.246094 56.246094 C 60.691406 51.800781 65.34375 47.582031 70.207031 43.59375 C 75.066406 39.605469 80.109375 35.863281 85.339844 32.371094 C 90.566406 28.875 95.953125 25.648438 101.5 22.683594 C 107.042969 19.71875 112.722656 17.035156 118.53125 14.628906 C 124.339844 12.222656 130.253906 10.105469 136.269531 8.28125 C 142.285156 6.457031 148.378906 4.929688 154.546875 3.703125 C 160.710938 2.476562 166.925781 1.554688 173.183594 0.9375 C 179.441406 0.324219 185.710938 0.015625 192 0.015625 C 198.289062 0.015625 204.558594 0.324219 210.816406 0.9375 C 217.074219 1.554688 223.289062 2.476562 229.453125 3.703125 C 235.621094 4.929688 241.714844 6.457031 247.730469 8.28125 C 253.746094 10.105469 259.660156 12.222656 265.46875 14.628906 C 271.277344 17.035156 276.957031 19.71875 282.5 22.683594 C 288.046875 25.648438 293.433594 28.875 298.660156 32.371094 C 303.890625 35.863281 308.933594 39.605469 313.792969 43.59375 C 318.65625 47.582031 323.308594 51.800781 327.753906 56.246094 C 332.199219 60.691406 336.417969 65.34375 340.40625 70.207031 C 344.394531 75.066406 348.136719 80.109375 351.628906 85.339844 C 355.125 90.566406 358.351562 95.953125 361.316406 101.5 C 364.28125 107.042969 366.964844 112.722656 369.371094 118.53125 C 371.777344 124.339844 373.894531 130.253906 375.71875 136.269531 C 377.542969 142.285156 379.070312 148.378906 380.296875 154.546875 C 381.523438 160.710938 382.445312 166.925781 383.0625 173.183594 C 383.675781 179.441406 383.984375 185.710938 383.984375 192 C 383.984375 198.289062 383.675781 204.558594 383.0625 210.816406 C 382.445312 217.074219 381.523438 223.289062 380.296875 229.453125 C 379.070312 235.621094 377.542969 241.714844 375.71875 247.730469 C 373.894531 253.746094 371.777344 259.660156 369.371094 265.46875 C 366.964844 271.277344 364.28125 276.957031 361.316406 282.5 C 358.351562 288.046875 355.125 293.433594 351.628906 298.660156 C 348.136719 303.890625 344.394531 308.933594 340.40625 313.792969 C 336.417969 318.65625 332.199219 323.308594 327.753906 327.753906 C 323.308594 332.199219 318.65625 336.417969 313.792969 340.40625 C 308.933594 344.394531 303.890625 348.136719 298.660156 351.628906 C 293.433594 355.125 288.046875 358.351562 282.5 361.316406 C 276.957031 364.28125 271.277344 366.964844 265.46875 369.371094 C 259.660156 371.777344 253.746094 373.894531 247.730469 375.71875 C 241.714844 377.542969 235.621094 379.070312 229.453125 380.296875 C 223.289062 381.523438 217.074219 382.445312 210.816406 383.0625 C 204.558594 383.675781 198.289062 383.984375 192 383.984375 C 185.710938 383.984375 179.441406 383.675781 173.183594 383.0625 C 166.925781 382.445312 160.710938 381.523438 154.546875 380.296875 C 148.378906 379.070312 142.285156 377.542969 136.269531 375.71875 C 130.253906 373.894531 124.339844 371.777344 118.53125 369.371094 C 112.722656 366.964844 107.042969 364.28125 101.5 361.316406 C 95.953125 358.351562 90.566406 355.125 85.339844 351.628906 C 80.109375 348.136719 75.066406 344.394531 70.207031 340.40625 C 65.34375 336.417969 60.691406 332.199219 56.246094 327.753906 C 51.800781 323.308594 47.582031 318.65625 43.59375 313.792969 C 39.605469 308.933594 35.863281 303.890625 32.371094 298.660156 C 28.875 293.433594 25.648438 288.046875 22.683594 282.5 C 19.71875 276.957031 17.035156 271.277344 14.628906 265.46875 C 12.222656 259.660156 10.105469 253.746094 8.28125 247.730469 C 6.457031 241.714844 4.929688 235.621094 3.703125 229.453125 C 2.476562 223.289062 1.554688 217.074219 0.9375 210.816406 C 0.324219 204.558594 0.015625 198.289062 0.015625 192 Z M 0.015625 192 " clip-rule="nonzero"/></clipPath><clipPath id="36be2fc8f5"><path d="M 130 240 L 187 240 L 187 318 L 130 318 Z M 130 240 " clip-rule="nonzero"/></clipPath><clipPath id="4f0c3557ad"><path d="M 0.015625 192 C 0.015625 185.710938 0.324219 179.441406 0.9375 173.183594 C 1.554688 166.925781 2.476562 160.710938 3.703125 154.546875 C 4.929688 148.378906 6.457031 142.285156 8.28125 136.269531 C 10.105469 130.253906 12.222656 124.339844 14.628906 118.53125 C 17.035156 112.722656 19.71875 107.042969 22.683594 101.5 C 25.648438 95.953125 28.875 90.566406 32.371094 85.339844 C 35.863281 80.109375 39.605469 75.066406 43.59375 70.207031 C 47.582031 65.34375 51.800781 60.691406 56.246094 56.246094 C 60.691406 51.800781 65.34375 47.582031 70.207031 43.59375 C 75.066406 39.605469 80.109375 35.863281 85.339844 32.371094 C 90.566406 28.875 95.953125 25.648438 101.5 22.683594 C 107.042969 19.71875 112.722656 17.035156 118.53125 14.628906 C 124.339844 12.222656 130.253906 10.105469 136.269531 8.28125 C 142.285156 6.457031 148.378906 4.929688 154.546875 3.703125 C 160.710938 2.476562 166.925781 1.554688 173.183594 0.9375 C 179.441406 0.324219 185.710938 0.015625 192 0.015625 C 198.289062 0.015625 204.558594 0.324219 210.816406 0.9375 C 217.074219 1.554688 223.289062 2.476562 229.453125 3.703125 C 235.621094 4.929688 241.714844 6.457031 247.730469 8.28125 C 253.746094 10.105469 259.660156 12.222656 265.46875 14.628906 C 271.277344 17.035156 276.957031 19.71875 282.5 22.683594 C 288.046875 25.648438 293.433594 28.875 298.660156 32.371094 C 303.890625 35.863281 308.933594 39.605469 313.792969 43.59375 C 318.65625 47.582031 323.308594 51.800781 327.753906 56.246094 C 332.199219 60.691406 336.417969 65.34375 340.40625 70.207031 C 344.394531 75.066406 348.136719 80.109375 351.628906 85.339844 C 355.125 90.566406 358.351562 95.953125 361.316406 101.5 C 364.28125 107.042969 366.964844 112.722656 369.371094 118.53125 C 371.777344 124.339844 373.894531 130.253906 375.71875 136.269531 C 377.542969 142.285156 379.070312 148.378906 380.296875 154.546875 C 381.523438 160.710938 382.445312 166.925781 383.0625 173.183594 C 383.675781 179.441406 383.984375 185.710938 383.984375 192 C 383.984375 198.289062 383.675781 204.558594 383.0625 210.816406 C 382.445312 217.074219 381.523438 223.289062 380.296875 229.453125 C 379.070312 235.621094 377.542969 241.714844 375.71875 247.730469 C 373.894531 253.746094 371.777344 259.660156 369.371094 265.46875 C 366.964844 271.277344 364.28125 276.957031 361.316406 282.5 C 358.351562 288.046875 355.125 293.433594 351.628906 298.660156 C 348.136719 303.890625 344.394531 308.933594 340.40625 313.792969 C 336.417969 318.65625 332.199219 323.308594 327.753906 327.753906 C 323.308594 332.199219 318.65625 336.417969 313.792969 340.40625 C 308.933594 344.394531 303.890625 348.136719 298.660156 351.628906 C 293.433594 355.125 288.046875 358.351562 282.5 361.316406 C 276.957031 364.28125 271.277344 366.964844 265.46875 369.371094 C 259.660156 371.777344 253.746094 373.894531 247.730469 375.71875 C 241.714844 377.542969 235.621094 379.070312 229.453125 380.296875 C 223.289062 381.523438 217.074219 382.445312 210.816406 383.0625 C 204.558594 383.675781 198.289062 383.984375 192 383.984375 C 185.710938 383.984375 179.441406 383.675781 173.183594 383.0625 C 166.925781 382.445312 160.710938 381.523438 154.546875 380.296875 C 148.378906 379.070312 142.285156 377.542969 136.269531 375.71875 C 130.253906 373.894531 124.339844 371.777344 118.53125 369.371094 C 112.722656 366.964844 107.042969 364.28125 101.5 361.316406 C 95.953125 358.351562 90.566406 355.125 85.339844 351.628906 C 80.109375 348.136719 75.066406 344.394531 70.207031 340.40625 C 65.34375 336.417969 60.691406 332.199219 56.246094 327.753906 C 51.800781 323.308594 47.582031 318.65625 43.59375 313.792969 C 39.605469 308.933594 35.863281 303.890625 32.371094 298.660156 C 28.875 293.433594 25.648438 288.046875 22.683594 282.5 C 19.71875 276.957031 17.035156 271.277344 14.628906 265.46875 C 12.222656 259.660156 10.105469 253.746094 8.28125 247.730469 C 6.457031 241.714844 4.929688 235.621094 3.703125 229.453125 C 2.476562 223.289062 1.554688 217.074219 0.9375 210.816406 C 0.324219 204.558594 0.015625 198.289062 0.015625 192 Z M 0.015625 192 " clip-rule="nonzero"/></clipPath><clipPath id="f5e10fa673"><path d="M 189 304 L 195 304 L 195 384 L 189 384 Z M 189 304 " clip-rule="nonzero"/></clipPath><clipPath id="694dc93f29"><path d="M 0.015625 192 C 0.015625 185.710938 0.324219 179.441406 0.9375 173.183594 C 1.554688 166.925781 2.476562 160.710938 3.703125 154.546875 C 4.929688 148.378906 6.457031 142.285156 8.28125 136.269531 C 10.105469 130.253906 12.222656 124.339844 14.628906 118.53125 C 17.035156 112.722656 19.71875 107.042969 22.683594 101.5 C 25.648438 95.953125 28.875 90.566406 32.371094 85.339844 C 35.863281 80.109375 39.605469 75.066406 43.59375 70.207031 C 47.582031 65.34375 51.800781 60.691406 56.246094 56.246094 C 60.691406 51.800781 65.34375 47.582031 70.207031 43.59375 C 75.066406 39.605469 80.109375 35.863281 85.339844 32.371094 C 90.566406 28.875 95.953125 25.648438 101.5 22.683594 C 107.042969 19.71875 112.722656 17.035156 118.53125 14.628906 C 124.339844 12.222656 130.253906 10.105469 136.269531 8.28125 C 142.285156 6.457031 148.378906 4.929688 154.546875 3.703125 C 160.710938 2.476562 166.925781 1.554688 173.183594 0.9375 C 179.441406 0.324219 185.710938 0.015625 192 0.015625 C 198.289062 0.015625 204.558594 0.324219 210.816406 0.9375 C 217.074219 1.554688 223.289062 2.476562 229.453125 3.703125 C 235.621094 4.929688 241.714844 6.457031 247.730469 8.28125 C 253.746094 10.105469 259.660156 12.222656 265.46875 14.628906 C 271.277344 17.035156 276.957031 19.71875 282.5 22.683594 C 288.046875 25.648438 293.433594 28.875 298.660156 32.371094 C 303.890625 35.863281 308.933594 39.605469 313.792969 43.59375 C 318.65625 47.582031 323.308594 51.800781 327.753906 56.246094 C 332.199219 60.691406 336.417969 65.34375 340.40625 70.207031 C 344.394531 75.066406 348.136719 80.109375 351.628906 85.339844 C 355.125 90.566406 358.351562 95.953125 361.316406 101.5 C 364.28125 107.042969 366.964844 112.722656 369.371094 118.53125 C 371.777344 124.339844 373.894531 130.253906 375.71875 136.269531 C 377.542969 142.285156 379.070312 148.378906 380.296875 154.546875 C 381.523438 160.710938 382.445312 166.925781 383.0625 173.183594 C 383.675781 179.441406 383.984375 185.710938 383.984375 192 C 383.984375 198.289062 383.675781 204.558594 383.0625 210.816406 C 382.445312 217.074219 381.523438 223.289062 380.296875 229.453125 C 379.070312 235.621094 377.542969 241.714844 375.71875 247.730469 C 373.894531 253.746094 371.777344 259.660156 369.371094 265.46875 C 366.964844 271.277344 364.28125 276.957031 361.316406 282.5 C 358.351562 288.046875 355.125 293.433594 351.628906 298.660156 C 348.136719 303.890625 344.394531 308.933594 340.40625 313.792969 C 336.417969 318.65625 332.199219 323.308594 327.753906 327.753906 C 323.308594 332.199219 318.65625 336.417969 313.792969 340.40625 C 308.933594 344.394531 303.890625 348.136719 298.660156 351.628906 C 293.433594 355.125 288.046875 358.351562 282.5 361.316406 C 276.957031 364.28125 271.277344 366.964844 265.46875 369.371094 C 259.660156 371.777344 253.746094 373.894531 247.730469 375.71875 C 241.714844 377.542969 235.621094 379.070312 229.453125 380.296875 C 223.289062 381.523438 217.074219 382.445312 210.816406 383.0625 C 204.558594 383.675781 198.289062 383.984375 192 383.984375 C 185.710938 383.984375 179.441406 383.675781 173.183594 383.0625 C 166.925781 382.445312 160.710938 381.523438 154.546875 380.296875 C 148.378906 379.070312 142.285156 377.542969 136.269531 375.71875 C 130.253906 373.894531 124.339844 371.777344 118.53125 369.371094 C 112.722656 366.964844 107.042969 364.28125 101.5 361.316406 C 95.953125 358.351562 90.566406 355.125 85.339844 351.628906 C 80.109375 348.136719 75.066406 344.394531 70.207031 340.40625 C 65.34375 336.417969 60.691406 332.199219 56.246094 327.753906 C 51.800781 323.308594 47.582031 318.65625 43.59375 313.792969 C 39.605469 308.933594 35.863281 303.890625 32.371094 298.660156 C 28.875 293.433594 25.648438 288.046875 22.683594 282.5 C 19.71875 276.957031 17.035156 271.277344 14.628906 265.46875 C 12.222656 259.660156 10.105469 253.746094 8.28125 247.730469 C 6.457031 241.714844 4.929688 235.621094 3.703125 229.453125 C 2.476562 223.289062 1.554688 217.074219 0.9375 210.816406 C 0.324219 204.558594 0.015625 198.289062 0.015625 192 Z M 0.015625 192 " clip-rule="nonzero"/></clipPath></defs><rect x="-38.4" width="460.8" fill="#ffffff" y="-38.399999" height="460.799983" fill-opacity="1"/><rect x="-38.4" width="460.8" fill="#ffffff" y="-38.399999" height="460.799983" fill-opacity="1"/><path fill="#71bce9" d="M 383.984375 192 C 383.984375 195.140625 383.910156 198.28125 383.753906 201.421875 C 383.601562 204.558594 383.367188 207.691406 383.0625 210.816406 C 382.753906 213.945312 382.367188 217.0625 381.90625 220.171875 C 381.445312 223.277344 380.910156 226.371094 380.296875 229.453125 C 379.683594 232.535156 378.996094 235.601562 378.230469 238.648438 C 377.46875 241.695312 376.628906 244.722656 375.71875 247.730469 C 374.804688 250.738281 373.820312 253.71875 372.761719 256.679688 C 371.703125 259.636719 370.574219 262.566406 369.371094 265.46875 C 368.167969 268.371094 366.894531 271.242188 365.550781 274.085938 C 364.210938 276.925781 362.796875 279.730469 361.316406 282.5 C 359.835938 285.273438 358.285156 288.003906 356.671875 290.699219 C 355.054688 293.394531 353.375 296.046875 351.628906 298.660156 C 349.882812 301.273438 348.074219 303.84375 346.203125 306.367188 C 344.332031 308.890625 342.398438 311.367188 340.40625 313.792969 C 338.414062 316.222656 336.363281 318.601562 334.25 320.929688 C 332.140625 323.257812 329.976562 325.53125 327.753906 327.753906 C 325.53125 329.976562 323.257812 332.140625 320.929688 334.25 C 318.601562 336.363281 316.222656 338.414062 313.792969 340.40625 C 311.367188 342.398438 308.890625 344.332031 306.367188 346.203125 C 303.84375 348.074219 301.273438 349.882812 298.660156 351.628906 C 296.046875 353.375 293.394531 355.054688 290.699219 356.671875 C 288.003906 358.285156 285.273438 359.835938 282.5 361.316406 C 279.730469 362.796875 276.925781 364.210938 274.085938 365.550781 C 271.242188 366.894531 268.371094 368.167969 265.46875 369.371094 C 262.566406 370.574219 259.636719 371.703125 256.679688 372.761719 C 253.71875 373.820312 250.738281 374.804688 247.730469 375.71875 C 244.722656 376.628906 241.695312 377.46875 238.648438 378.230469 C 235.601562 378.996094 232.535156 379.683594 229.453125 380.296875 C 226.371094 380.910156 223.277344 381.445312 220.171875 381.90625 C 217.0625 382.367188 213.945312 382.753906 210.816406 383.0625 C 207.691406 383.367188 204.558594 383.601562 201.421875 383.753906 C 198.28125 383.910156 195.140625 383.984375 192 383.984375 C 188.859375 383.984375 185.71875 383.910156 182.578125 383.753906 C 179.441406 383.601562 176.308594 383.367188 173.183594 383.0625 C 170.054688 382.753906 166.9375 382.367188 163.828125 381.90625 C 160.722656 381.445312 157.628906 380.910156 154.546875 380.296875 C 151.464844 379.683594 148.398438 378.996094 145.351562 378.230469 C 142.304688 377.46875 139.277344 376.628906 136.269531 375.71875 C 133.261719 374.804688 130.28125 373.820312 127.320312 372.761719 C 124.363281 371.703125 121.433594 370.574219 118.53125 369.371094 C 115.628906 368.167969 112.757812 366.894531 109.914062 365.550781 C 107.074219 364.210938 104.269531 362.796875 101.5 361.316406 C 98.726562 359.835938 95.996094 358.285156 93.300781 356.671875 C 90.605469 355.054688 87.949219 353.375 85.339844 351.628906 C 82.726562 349.882812 80.15625 348.074219 77.632812 346.203125 C 75.109375 344.332031 72.632812 342.398438 70.207031 340.40625 C 67.777344 338.414062 65.398438 336.363281 63.070312 334.25 C 60.742188 332.140625 58.46875 329.976562 56.246094 327.753906 C 54.023438 325.53125 51.859375 323.257812 49.75 320.929688 C 47.636719 318.601562 45.585938 316.222656 43.59375 313.792969 C 41.601562 311.367188 39.667969 308.890625 37.796875 306.367188 C 35.925781 303.84375 34.117188 301.273438 32.371094 298.660156 C 30.625 296.046875 28.945312 293.394531 27.328125 290.699219 C 25.714844 288.003906 24.164062 285.273438 22.683594 282.5 C 21.203125 279.730469 19.789062 276.925781 18.445312 274.085938 C 17.105469 271.242188 15.832031 268.371094 14.628906 265.46875 C 13.425781 262.566406 12.296875 259.636719 11.238281 256.679688 C 10.179688 253.71875 9.195312 250.738281 8.28125 247.730469 C 7.371094 244.722656 6.53125 241.695312 5.769531 238.648438 C 5.003906 235.601562 4.316406 232.535156 3.703125 229.453125 C 3.089844 226.371094 2.554688 223.277344 2.09375 220.171875 C 1.632812 217.0625 1.246094 213.945312 0.9375 210.816406 C 0.632812 207.691406 0.398438 204.558594 0.246094 201.421875 C 0.0898438 198.28125 0.015625 195.140625 0.015625 192 C 0.015625 188.859375 0.0898438 185.71875 0.246094 182.578125 C 0.398438 179.441406 0.632812 176.308594 0.9375 173.183594 C 1.246094 170.054688 1.632812 166.9375 2.09375 163.828125 C 2.554688 160.722656 3.089844 157.628906 3.703125 154.546875 C 4.316406 151.464844 5.003906 148.398438 5.769531 145.351562 C 6.53125 142.304688 7.371094 139.277344 8.28125 136.269531 C 9.195312 133.261719 10.179688 130.28125 11.238281 127.320312 C 12.296875 124.363281 13.425781 121.433594 14.628906 118.53125 C 15.832031 115.628906 17.105469 112.757812 18.445312 109.914062 C 19.789062 107.074219 21.203125 104.269531 22.683594 101.5 C 24.164062 98.726562 25.714844 95.996094 27.328125 93.300781 C 28.945312 90.605469 30.625 87.949219 32.371094 85.339844 C 34.117188 82.726562 35.925781 80.15625 37.796875 77.632812 C 39.667969 75.109375 41.601562 72.632812 43.59375 70.207031 C 45.585938 67.777344 47.636719 65.398438 49.75 63.070312 C 51.859375 60.742188 54.023438 58.46875 56.246094 56.246094 C 58.46875 54.023438 60.742188 51.859375 63.070312 49.75 C 65.398438 47.636719 67.777344 45.585938 70.207031 43.59375 C 72.632812 41.601562 75.109375 39.667969 77.632812 37.796875 C 80.15625 35.925781 82.726562 34.117188 85.339844 32.371094 C 87.949219 30.625 90.605469 28.945312 93.300781 27.328125 C 95.996094 25.714844 98.726562 24.164062 101.5 22.683594 C 104.269531 21.203125 107.074219 19.789062 109.914062 18.445312 C 112.757812 17.105469 115.628906 15.832031 118.53125 14.628906 C 121.433594 13.425781 124.363281 12.296875 127.320312 11.238281 C 130.28125 10.179688 133.261719 9.195312 136.269531 8.28125 C 139.277344 7.371094 142.304688 6.53125 145.351562 5.769531 C 148.398438 5.003906 151.464844 4.316406 154.546875 3.703125 C 157.628906 3.089844 160.722656 2.554688 163.828125 2.09375 C 166.9375 1.632812 170.054688 1.246094 173.183594 0.9375 C 176.308594 0.632812 179.441406 0.398438 182.578125 0.246094 C 185.71875 0.0898438 188.859375 0.015625 192 0.015625 C 195.140625 0.015625 198.28125 0.0898438 201.421875 0.246094 C 204.558594 0.398438 207.691406 0.632812 210.816406 0.9375 C 213.945312 1.246094 217.0625 1.632812 220.171875 2.09375 C 223.277344 2.554688 226.371094 3.089844 229.453125 3.703125 C 232.535156 4.316406 235.601562 5.003906 238.648438 5.769531 C 241.695312 6.53125 244.722656 7.371094 247.730469 8.28125 C 250.738281 9.195312 253.71875 10.179688 256.679688 11.238281 C 259.636719 12.296875 262.566406 13.425781 265.46875 14.628906 C 268.371094 15.832031 271.242188 17.105469 274.085938 18.445312 C 276.925781 19.789062 279.730469 21.203125 282.5 22.683594 C 285.273438 24.164062 288.003906 25.714844 290.699219 27.328125 C 293.394531 28.945312 296.046875 30.625 298.660156 32.371094 C 301.273438 34.117188 303.84375 35.925781 306.367188 37.796875 C 308.890625 39.667969 311.367188 41.601562 313.792969 43.59375 C 316.222656 45.585938 318.601562 47.636719 320.929688 49.75 C 323.257812 51.859375 325.53125 54.023438 327.753906 56.246094 C 329.976562 58.46875 332.140625 60.742188 334.25 63.070312 C 336.363281 65.398438 338.414062 67.777344 340.40625 70.207031 C 342.398438 72.632812 344.332031 75.109375 346.203125 77.632812 C 348.074219 80.15625 349.882812 82.726562 351.628906 85.339844 C 353.375 87.949219 355.054688 90.605469 356.671875 93.300781 C 358.285156 95.996094 359.835938 98.726562 361.316406 101.5 C 362.796875 104.269531 364.210938 107.074219 365.550781 109.914062 C 366.894531 112.757812 368.167969 115.628906 369.371094 118.53125 C 370.574219 121.433594 371.703125 124.363281 372.761719 127.320312 C 373.820312 130.28125 374.804688 133.261719 375.71875 136.269531 C 376.628906 139.277344 377.46875 142.304688 378.230469 145.351562 C 378.996094 148.398438 379.683594 151.464844 380.296875 154.546875 C 380.910156 157.628906 381.445312 160.722656 381.90625 163.828125 C 382.367188 166.9375 382.753906 170.054688 383.0625 173.183594 C 383.367188 176.308594 383.601562 179.441406 383.753906 182.578125 C 383.910156 185.71875 383.984375 188.859375 383.984375 192 Z M 383.984375 192 " fill-opacity="1" fill-rule="nonzero"/><g clip-path="url(#171aa97c1b)"><g clip-path="url(#a0f71b1e64)"><path fill="#fbc6a2" d="M 135.980469 153.40625 L 141.175781 151.980469 L 135.332031 126.121094 C 134 120.214844 128.582031 116.621094 123.234375 118.09375 C 118.511719 119.394531 115.34375 124.253906 115.695312 129.609375 C 115.828125 131.679688 116.078125 133.890625 116.484375 136.210938 C 116.839844 138.25 117.28125 140.179688 117.785156 141.988281 C 120.148438 150.539062 128.128906 155.570312 135.984375 153.40625 Z M 135.980469 153.40625 " fill-opacity="1" fill-rule="nonzero"/></g></g><g clip-path="url(#d76066858c)"><g clip-path="url(#e74695acc0)"><path fill="#fbc6a2" d="M 248.269531 153.40625 L 243.078125 151.980469 L 248.917969 126.121094 C 250.253906 120.214844 255.671875 116.621094 261.019531 118.09375 C 265.738281 119.394531 268.910156 124.253906 268.558594 129.609375 C 268.421875 131.679688 268.171875 133.890625 267.769531 136.210938 C 267.410156 138.25 266.96875 140.179688 266.46875 141.988281 C 264.101562 150.539062 256.125 155.570312 248.269531 153.40625 Z M 248.269531 153.40625 " fill-opacity="1" fill-rule="nonzero"/></g></g><g clip-path="url(#4733af3a56)"><g clip-path="url(#b86b9b36c5)"><path fill="#fbc6a2" d="M 232.484375 262.855469 C 228.828125 265.996094 214.257812 277.8125 192.210938 277.847656 C 170.058594 277.878906 155.402344 265.980469 151.765625 262.855469 C 153.390625 243.644531 155.015625 224.421875 156.644531 205.210938 C 157.207031 198.464844 157.785156 191.714844 158.351562 184.96875 L 225.898438 184.96875 L 229.808594 231.261719 Z M 232.484375 262.855469 " fill-opacity="1" fill-rule="nonzero"/></g></g><g clip-path="url(#68956fd139)"><g clip-path="url(#d51b4cbb1e)"><path fill="#c2686b" d="M 229.808594 231.265625 C 197.140625 229.75 173.4375 218.480469 156.644531 205.210938 C 157.207031 198.464844 157.785156 191.71875 158.351562 184.972656 L 225.898438 184.972656 Z M 229.808594 231.265625 " fill-opacity="1" fill-rule="nonzero"/></g></g><g clip-path="url(#72b7e97ca7)"><g clip-path="url(#729103a576)"><path fill="#fbc6a2" d="M 220.8125 203.320312 L 220.101562 203.933594 C 203.164062 218.457031 178.074219 218.136719 161.507812 203.195312 C 143.046875 186.542969 132.511719 162.847656 132.511719 137.984375 L 132.511719 114.027344 C 132.511719 81.179688 159.140625 54.550781 191.992188 54.550781 C 224.839844 54.550781 251.46875 81.179688 251.46875 114.027344 L 251.46875 136.652344 C 251.46875 162.285156 240.273438 186.636719 220.8125 203.324219 Z M 220.8125 203.320312 " fill-opacity="1" fill-rule="nonzero"/></g></g><g clip-path="url(#30efa1b2c4)"><g clip-path="url(#a0f202acbc)"><path fill="#fbc6a2" d="M 247.816406 191.078125 C 248.054688 191.078125 248.054688 190.710938 247.816406 190.710938 C 247.582031 190.710938 247.582031 191.078125 247.816406 191.078125 Z M 247.816406 191.078125 " fill-opacity="1" fill-rule="nonzero"/></g></g><g clip-path="url(#a3e4fa3ce5)"><g clip-path="url(#3a705c47fe)"><path fill="#000000" d="M 257.625 117.082031 C 255.523438 120.03125 254.578125 121.015625 251.609375 123.09375 C 250.792969 119.757812 249.980469 116.425781 249.167969 113.089844 C 248.460938 110.835938 246.355469 105.234375 240.734375 100.960938 C 237.316406 98.363281 233.90625 97.253906 231.75 96.742188 C 218.554688 94.816406 205.484375 89.078125 196.511719 79.214844 C 197.761719 88.988281 205.75 97.527344 215.417969 99.425781 C 204.890625 100.164062 194.125 95.765625 187.128906 87.867188 C 182.507812 82.648438 178.484375 75.449219 171.542969 74.847656 C 167.585938 74.507812 163.859375 76.542969 160.410156 78.511719 C 153.996094 82.171875 147.074219 86.441406 144.792969 93.464844 C 143.683594 96.878906 143.835938 100.554688 143.339844 104.109375 C 142.066406 113.257812 138.203125 117.800781 137.421875 118.917969 C 135.621094 121.503906 133.773438 123.34375 132.511719 124.480469 C 129.929688 121.535156 126.234375 116.640625 123.558594 109.761719 C 123.042969 108.4375 121.011719 103.046875 120.351562 95.683594 C 118.972656 80.265625 124.003906 59.542969 138.125 46.941406 C 141.785156 43.671875 145.984375 41.058594 150.308594 38.738281 C 155.039062 36.199219 160.023438 33.96875 165.328125 33.148438 C 170.636719 32.332031 176.335938 33.042969 180.804688 36.011719 C 184.203125 33.816406 208.878906 18.367188 231.753906 27.652344 C 257.613281 38.144531 273.382812 77.078125 257.628906 117.078125 Z M 257.625 117.082031 " fill-opacity="1" fill-rule="nonzero"/></g></g><g clip-path="url(#a7653df051)"><g clip-path="url(#05b1bb540d)"><path fill="#fbc6a2" d="M 152.988281 242.476562 C 132.589844 247.199219 108.179688 254.628906 81.804688 266.625 C 61.609375 275.808594 44.339844 285.8125 29.996094 295.292969 L 29.996094 422.757812 L 354.003906 422.757812 L 354.003906 295.292969 C 339.65625 285.816406 322.386719 275.808594 302.191406 266.625 C 275.816406 254.628906 251.40625 247.199219 231.011719 242.476562 C 227.160156 245.558594 211.082031 257.710938 188.011719 256.234375 C 169.792969 255.066406 157.417969 246.054688 152.984375 242.476562 Z M 152.988281 242.476562 " fill-opacity="1" fill-rule="nonzero"/><path fill="#f4f4f4" d="M 152.988281 242.476562 C 132.589844 247.199219 108.179688 254.628906 81.804688 266.625 C 61.609375 275.808594 44.339844 285.8125 29.996094 295.292969 L 29.996094 422.757812 L 354.003906 422.757812 L 354.003906 295.292969 C 339.65625 285.816406 322.386719 275.808594 302.191406 266.625 C 275.816406 254.628906 251.40625 247.199219 231.011719 242.476562 C 230.300781 249.824219 228.289062 260.875 222.214844 272.835938 C 212.878906 291.226562 199.148438 301.511719 192.144531 306.046875 C 185.636719 302.203125 171.894531 292.871094 162.363281 275.230469 C 155.207031 261.988281 153.449219 249.664062 152.984375 242.476562 Z M 152.988281 242.476562 " fill-opacity="1" fill-rule="nonzero"/></g></g><g clip-path="url(#810e3d838a)"><g clip-path="url(#4afdf7b152)"><path fill="#e2e0e0" d="M 254.21875 256.914062 C 252.179688 278.296875 250.152344 299.683594 248.113281 321.054688 L 212.628906 295.675781 L 194.023438 305.101562 L 192.144531 306.050781 C 192.566406 305.539062 192.992188 305.03125 193.425781 304.503906 C 194.769531 302.875 196.136719 301.15625 197.507812 299.378906 C 202.472656 292.953125 207.617188 285.625 212.628906 277.378906 C 220.710938 264.035156 226.523438 251.449219 230.734375 240.597656 C 234.914062 240.960938 242.230469 242.230469 249.222656 247.328125 C 249.789062 247.734375 250.3125 248.144531 250.808594 248.566406 C 252.457031 249.90625 253.546875 251.757812 254 253.765625 C 254.246094 254.785156 254.320312 255.847656 254.21875 256.914062 Z M 254.21875 256.914062 " fill-opacity="1" fill-rule="nonzero"/></g></g><g clip-path="url(#5c9dd38001)"><g clip-path="url(#d7626c0b08)"><path fill="#e2e0e0" d="M 192.144531 306.050781 L 189.976562 304.957031 L 171.664062 295.675781 L 136.175781 321.054688 C 134.136719 299.683594 132.113281 278.296875 130.074219 256.914062 C 130 256.214844 130.015625 255.527344 130.101562 254.84375 C 130.363281 252.410156 131.542969 250.140625 133.480469 248.566406 C 133.976562 248.144531 134.503906 247.734375 135.070312 247.328125 C 142.0625 242.230469 149.375 240.960938 153.554688 240.597656 C 157.765625 251.449219 163.578125 264.035156 171.664062 277.378906 C 176.734375 285.742188 181.949219 293.140625 186.972656 299.625 C 188.285156 301.316406 189.582031 302.945312 190.863281 304.503906 C 191.300781 305.03125 191.722656 305.539062 192.144531 306.050781 Z M 192.144531 306.050781 " fill-opacity="1" fill-rule="nonzero"/></g></g><g clip-path="url(#5243f1f1be)"><g clip-path="url(#e635487571)"><path fill="#ffffff" d="M 254 253.769531 C 251.988281 274.90625 249.980469 296.058594 247.96875 317.179688 L 212.480469 291.789062 L 197.507812 299.378906 C 202.472656 292.953125 207.617188 285.625 212.628906 277.382812 C 220.710938 264.039062 226.523438 251.453125 230.734375 240.597656 C 234.914062 240.960938 242.230469 242.230469 249.222656 247.328125 C 249.789062 247.738281 250.3125 248.144531 250.808594 248.566406 C 252.457031 249.90625 253.546875 251.757812 254 253.769531 Z M 254 253.769531 " fill-opacity="1" fill-rule="nonzero"/></g></g><g clip-path="url(#36be2fc8f5)"><g clip-path="url(#4f0c3557ad)"><path fill="#ffffff" d="M 186.972656 299.625 L 171.519531 291.789062 L 136.03125 317.179688 C 134.050781 296.40625 132.082031 275.632812 130.101562 254.847656 C 130.363281 252.414062 131.542969 250.140625 133.480469 248.566406 C 133.976562 248.144531 134.503906 247.738281 135.070312 247.328125 C 142.0625 242.230469 149.375 240.960938 153.554688 240.597656 C 157.765625 251.453125 163.578125 264.039062 171.664062 277.382812 C 176.734375 285.742188 181.949219 293.144531 186.972656 299.625 Z M 186.972656 299.625 " fill-opacity="1" fill-rule="nonzero"/></g></g><g clip-path="url(#f5e10fa673)"><g clip-path="url(#694dc93f29)"><path fill="#e2e0e0" d="M 194.023438 304.503906 L 194.023438 400.925781 L 189.976562 400.925781 L 189.976562 304.503906 L 190.863281 304.503906 C 191.300781 305.03125 191.722656 305.539062 192.144531 306.050781 C 192.566406 305.539062 192.992188 305.03125 193.425781 304.503906 Z M 194.023438 304.503906 " fill-opacity="1" fill-rule="nonzero"/></g></g></svg>