<svg xmlns="http://www.w3.org/2000/svg" xmlns:xlink="http://www.w3.org/1999/xlink" width="512" zoomAndPan="magnify" viewBox="0 0 384 383.999986" height="512" preserveAspectRatio="xMidYMid meet" version="1.0"><defs><clipPath id="65d0566d29"><path d="M 151 187 L 233 187 L 233 281 L 151 281 Z M 151 187 " clip-rule="nonzero"/></clipPath><clipPath id="2c3f2a445c"><path d="M 0.015625 192 C 0.015625 185.710938 0.324219 179.441406 0.9375 173.183594 C 1.554688 166.925781 2.476562 160.710938 3.703125 154.546875 C 4.929688 148.378906 6.457031 142.285156 8.28125 136.269531 C 10.105469 130.253906 12.222656 124.339844 14.628906 118.53125 C 17.035156 112.722656 19.71875 107.042969 22.683594 101.5 C 25.648438 95.953125 28.875 90.566406 32.371094 85.339844 C 35.863281 80.109375 39.605469 75.066406 43.59375 70.207031 C 47.582031 65.34375 51.800781 60.691406 56.246094 56.246094 C 60.691406 51.800781 65.34375 47.582031 70.207031 43.59375 C 75.066406 39.605469 80.109375 35.863281 85.339844 32.371094 C 90.566406 28.875 95.953125 25.648438 101.5 22.683594 C 107.042969 19.71875 112.722656 17.035156 118.53125 14.628906 C 124.339844 12.222656 130.253906 10.105469 136.269531 8.28125 C 142.285156 6.457031 148.378906 4.929688 154.546875 3.703125 C 160.710938 2.476562 166.925781 1.554688 173.183594 0.9375 C 179.441406 0.324219 185.710938 0.015625 192 0.015625 C 198.289062 0.015625 204.558594 0.324219 210.816406 0.9375 C 217.074219 1.554688 223.289062 2.476562 229.453125 3.703125 C 235.621094 4.929688 241.714844 6.457031 247.730469 8.28125 C 253.746094 10.105469 259.660156 12.222656 265.46875 14.628906 C 271.277344 17.035156 276.957031 19.71875 282.5 22.683594 C 288.046875 25.648438 293.433594 28.875 298.660156 32.371094 C 303.890625 35.863281 308.933594 39.605469 313.792969 43.59375 C 318.65625 47.582031 323.308594 51.800781 327.753906 56.246094 C 332.199219 60.691406 336.417969 65.34375 340.40625 70.207031 C 344.394531 75.066406 348.136719 80.109375 351.628906 85.339844 C 355.125 90.566406 358.351562 95.953125 361.316406 101.5 C 364.28125 107.042969 366.964844 112.722656 369.371094 118.53125 C 371.777344 124.339844 373.894531 130.253906 375.71875 136.269531 C 377.542969 142.285156 379.070312 148.378906 380.296875 154.546875 C 381.523438 160.710938 382.445312 166.925781 383.0625 173.183594 C 383.675781 179.441406 383.984375 185.710938 383.984375 192 C 383.984375 198.289062 383.675781 204.558594 383.0625 210.816406 C 382.445312 217.074219 381.523438 223.289062 380.296875 229.453125 C 379.070312 235.621094 377.542969 241.714844 375.71875 247.730469 C 373.894531 253.746094 371.777344 259.660156 369.371094 265.46875 C 366.964844 271.277344 364.28125 276.957031 361.316406 282.5 C 358.351562 288.046875 355.125 293.433594 351.628906 298.660156 C 348.136719 303.890625 344.394531 308.933594 340.40625 313.792969 C 336.417969 318.65625 332.199219 323.308594 327.753906 327.753906 C 323.308594 332.199219 318.65625 336.417969 313.792969 340.40625 C 308.933594 344.394531 303.890625 348.136719 298.660156 351.628906 C 293.433594 355.125 288.046875 358.351562 282.5 361.316406 C 276.957031 364.28125 271.277344 366.964844 265.46875 369.371094 C 259.660156 371.777344 253.746094 373.894531 247.730469 375.71875 C 241.714844 377.542969 235.621094 379.070312 229.453125 380.296875 C 223.289062 381.523438 217.074219 382.445312 210.816406 383.0625 C 204.558594 383.675781 198.289062 383.984375 192 383.984375 C 185.710938 383.984375 179.441406 383.675781 173.183594 383.0625 C 166.925781 382.445312 160.710938 381.523438 154.546875 380.296875 C 148.378906 379.070312 142.285156 377.542969 136.269531 375.71875 C 130.253906 373.894531 124.339844 371.777344 118.53125 369.371094 C 112.722656 366.964844 107.042969 364.28125 101.5 361.316406 C 95.953125 358.351562 90.566406 355.125 85.339844 351.628906 C 80.109375 348.136719 75.066406 344.394531 70.207031 340.40625 C 65.34375 336.417969 60.691406 332.199219 56.246094 327.753906 C 51.800781 323.308594 47.582031 318.65625 43.59375 313.792969 C 39.605469 308.933594 35.863281 303.890625 32.371094 298.660156 C 28.875 293.433594 25.648438 288.046875 22.683594 282.5 C 19.71875 276.957031 17.035156 271.277344 14.628906 265.46875 C 12.222656 259.660156 10.105469 253.746094 8.28125 247.730469 C 6.457031 241.714844 4.929688 235.621094 3.703125 229.453125 C 2.476562 223.289062 1.554688 217.074219 0.9375 210.816406 C 0.324219 204.558594 0.015625 198.289062 0.015625 192 Z M 0.015625 192 " clip-rule="nonzero"/></clipPath><clipPath id="4d3d60a355"><path d="M 156 187 L 230 187 L 230 235 L 156 235 Z M 156 187 " clip-rule="nonzero"/></clipPath><clipPath id="174be2efa4"><path d="M 0.015625 192 C 0.015625 185.710938 0.324219 179.441406 0.9375 173.183594 C 1.554688 166.925781 2.476562 160.710938 3.703125 154.546875 C 4.929688 148.378906 6.457031 142.285156 8.28125 136.269531 C 10.105469 130.253906 12.222656 124.339844 14.628906 118.53125 C 17.035156 112.722656 19.71875 107.042969 22.683594 101.5 C 25.648438 95.953125 28.875 90.566406 32.371094 85.339844 C 35.863281 80.109375 39.605469 75.066406 43.59375 70.207031 C 47.582031 65.34375 51.800781 60.691406 56.246094 56.246094 C 60.691406 51.800781 65.34375 47.582031 70.207031 43.59375 C 75.066406 39.605469 80.109375 35.863281 85.339844 32.371094 C 90.566406 28.875 95.953125 25.648438 101.5 22.683594 C 107.042969 19.71875 112.722656 17.035156 118.53125 14.628906 C 124.339844 12.222656 130.253906 10.105469 136.269531 8.28125 C 142.285156 6.457031 148.378906 4.929688 154.546875 3.703125 C 160.710938 2.476562 166.925781 1.554688 173.183594 0.9375 C 179.441406 0.324219 185.710938 0.015625 192 0.015625 C 198.289062 0.015625 204.558594 0.324219 210.816406 0.9375 C 217.074219 1.554688 223.289062 2.476562 229.453125 3.703125 C 235.621094 4.929688 241.714844 6.457031 247.730469 8.28125 C 253.746094 10.105469 259.660156 12.222656 265.46875 14.628906 C 271.277344 17.035156 276.957031 19.71875 282.5 22.683594 C 288.046875 25.648438 293.433594 28.875 298.660156 32.371094 C 303.890625 35.863281 308.933594 39.605469 313.792969 43.59375 C 318.65625 47.582031 323.308594 51.800781 327.753906 56.246094 C 332.199219 60.691406 336.417969 65.34375 340.40625 70.207031 C 344.394531 75.066406 348.136719 80.109375 351.628906 85.339844 C 355.125 90.566406 358.351562 95.953125 361.316406 101.5 C 364.28125 107.042969 366.964844 112.722656 369.371094 118.53125 C 371.777344 124.339844 373.894531 130.253906 375.71875 136.269531 C 377.542969 142.285156 379.070312 148.378906 380.296875 154.546875 C 381.523438 160.710938 382.445312 166.925781 383.0625 173.183594 C 383.675781 179.441406 383.984375 185.710938 383.984375 192 C 383.984375 198.289062 383.675781 204.558594 383.0625 210.816406 C 382.445312 217.074219 381.523438 223.289062 380.296875 229.453125 C 379.070312 235.621094 377.542969 241.714844 375.71875 247.730469 C 373.894531 253.746094 371.777344 259.660156 369.371094 265.46875 C 366.964844 271.277344 364.28125 276.957031 361.316406 282.5 C 358.351562 288.046875 355.125 293.433594 351.628906 298.660156 C 348.136719 303.890625 344.394531 308.933594 340.40625 313.792969 C 336.417969 318.65625 332.199219 323.308594 327.753906 327.753906 C 323.308594 332.199219 318.65625 336.417969 313.792969 340.40625 C 308.933594 344.394531 303.890625 348.136719 298.660156 351.628906 C 293.433594 355.125 288.046875 358.351562 282.5 361.316406 C 276.957031 364.28125 271.277344 366.964844 265.46875 369.371094 C 259.660156 371.777344 253.746094 373.894531 247.730469 375.71875 C 241.714844 377.542969 235.621094 379.070312 229.453125 380.296875 C 223.289062 381.523438 217.074219 382.445312 210.816406 383.0625 C 204.558594 383.675781 198.289062 383.984375 192 383.984375 C 185.710938 383.984375 179.441406 383.675781 173.183594 383.0625 C 166.925781 382.445312 160.710938 381.523438 154.546875 380.296875 C 148.378906 379.070312 142.285156 377.542969 136.269531 375.71875 C 130.253906 373.894531 124.339844 371.777344 118.53125 369.371094 C 112.722656 366.964844 107.042969 364.28125 101.5 361.316406 C 95.953125 358.351562 90.566406 355.125 85.339844 351.628906 C 80.109375 348.136719 75.066406 344.394531 70.207031 340.40625 C 65.34375 336.417969 60.691406 332.199219 56.246094 327.753906 C 51.800781 323.308594 47.582031 318.65625 43.59375 313.792969 C 39.605469 308.933594 35.863281 303.890625 32.371094 298.660156 C 28.875 293.433594 25.648438 288.046875 22.683594 282.5 C 19.71875 276.957031 17.035156 271.277344 14.628906 265.46875 C 12.222656 259.660156 10.105469 253.746094 8.28125 247.730469 C 6.457031 241.714844 4.929688 235.621094 3.703125 229.453125 C 2.476562 223.289062 1.554688 217.074219 0.9375 210.816406 C 0.324219 204.558594 0.015625 198.289062 0.015625 192 Z M 0.015625 192 " clip-rule="nonzero"/></clipPath><clipPath id="1fe5e4411b"><path d="M 132 57 L 252 57 L 252 218 L 132 218 Z M 132 57 " clip-rule="nonzero"/></clipPath><clipPath id="8934974e61"><path d="M 0.015625 192 C 0.015625 185.710938 0.324219 179.441406 0.9375 173.183594 C 1.554688 166.925781 2.476562 160.710938 3.703125 154.546875 C 4.929688 148.378906 6.457031 142.285156 8.28125 136.269531 C 10.105469 130.253906 12.222656 124.339844 14.628906 118.53125 C 17.035156 112.722656 19.71875 107.042969 22.683594 101.5 C 25.648438 95.953125 28.875 90.566406 32.371094 85.339844 C 35.863281 80.109375 39.605469 75.066406 43.59375 70.207031 C 47.582031 65.34375 51.800781 60.691406 56.246094 56.246094 C 60.691406 51.800781 65.34375 47.582031 70.207031 43.59375 C 75.066406 39.605469 80.109375 35.863281 85.339844 32.371094 C 90.566406 28.875 95.953125 25.648438 101.5 22.683594 C 107.042969 19.71875 112.722656 17.035156 118.53125 14.628906 C 124.339844 12.222656 130.253906 10.105469 136.269531 8.28125 C 142.285156 6.457031 148.378906 4.929688 154.546875 3.703125 C 160.710938 2.476562 166.925781 1.554688 173.183594 0.9375 C 179.441406 0.324219 185.710938 0.015625 192 0.015625 C 198.289062 0.015625 204.558594 0.324219 210.816406 0.9375 C 217.074219 1.554688 223.289062 2.476562 229.453125 3.703125 C 235.621094 4.929688 241.714844 6.457031 247.730469 8.28125 C 253.746094 10.105469 259.660156 12.222656 265.46875 14.628906 C 271.277344 17.035156 276.957031 19.71875 282.5 22.683594 C 288.046875 25.648438 293.433594 28.875 298.660156 32.371094 C 303.890625 35.863281 308.933594 39.605469 313.792969 43.59375 C 318.65625 47.582031 323.308594 51.800781 327.753906 56.246094 C 332.199219 60.691406 336.417969 65.34375 340.40625 70.207031 C 344.394531 75.066406 348.136719 80.109375 351.628906 85.339844 C 355.125 90.566406 358.351562 95.953125 361.316406 101.5 C 364.28125 107.042969 366.964844 112.722656 369.371094 118.53125 C 371.777344 124.339844 373.894531 130.253906 375.71875 136.269531 C 377.542969 142.285156 379.070312 148.378906 380.296875 154.546875 C 381.523438 160.710938 382.445312 166.925781 383.0625 173.183594 C 383.675781 179.441406 383.984375 185.710938 383.984375 192 C 383.984375 198.289062 383.675781 204.558594 383.0625 210.816406 C 382.445312 217.074219 381.523438 223.289062 380.296875 229.453125 C 379.070312 235.621094 377.542969 241.714844 375.71875 247.730469 C 373.894531 253.746094 371.777344 259.660156 369.371094 265.46875 C 366.964844 271.277344 364.28125 276.957031 361.316406 282.5 C 358.351562 288.046875 355.125 293.433594 351.628906 298.660156 C 348.136719 303.890625 344.394531 308.933594 340.40625 313.792969 C 336.417969 318.65625 332.199219 323.308594 327.753906 327.753906 C 323.308594 332.199219 318.65625 336.417969 313.792969 340.40625 C 308.933594 344.394531 303.890625 348.136719 298.660156 351.628906 C 293.433594 355.125 288.046875 358.351562 282.5 361.316406 C 276.957031 364.28125 271.277344 366.964844 265.46875 369.371094 C 259.660156 371.777344 253.746094 373.894531 247.730469 375.71875 C 241.714844 377.542969 235.621094 379.070312 229.453125 380.296875 C 223.289062 381.523438 217.074219 382.445312 210.816406 383.0625 C 204.558594 383.675781 198.289062 383.984375 192 383.984375 C 185.710938 383.984375 179.441406 383.675781 173.183594 383.0625 C 166.925781 382.445312 160.710938 381.523438 154.546875 380.296875 C 148.378906 379.070312 142.285156 377.542969 136.269531 375.71875 C 130.253906 373.894531 124.339844 371.777344 118.53125 369.371094 C 112.722656 366.964844 107.042969 364.28125 101.5 361.316406 C 95.953125 358.351562 90.566406 355.125 85.339844 351.628906 C 80.109375 348.136719 75.066406 344.394531 70.207031 340.40625 C 65.34375 336.417969 60.691406 332.199219 56.246094 327.753906 C 51.800781 323.308594 47.582031 318.65625 43.59375 313.792969 C 39.605469 308.933594 35.863281 303.890625 32.371094 298.660156 C 28.875 293.433594 25.648438 288.046875 22.683594 282.5 C 19.71875 276.957031 17.035156 271.277344 14.628906 265.46875 C 12.222656 259.660156 10.105469 253.746094 8.28125 247.730469 C 6.457031 241.714844 4.929688 235.621094 3.703125 229.453125 C 2.476562 223.289062 1.554688 217.074219 0.9375 210.816406 C 0.324219 204.558594 0.015625 198.289062 0.015625 192 Z M 0.015625 192 " clip-rule="nonzero"/></clipPath><clipPath id="9e2a69eec4"><path d="M 247 193 L 248 193 L 248 194 L 247 194 Z M 247 193 " clip-rule="nonzero"/></clipPath><clipPath id="3a511e8424"><path d="M 0.015625 192 C 0.015625 185.710938 0.324219 179.441406 0.9375 173.183594 C 1.554688 166.925781 2.476562 160.710938 3.703125 154.546875 C 4.929688 148.378906 6.457031 142.285156 8.28125 136.269531 C 10.105469 130.253906 12.222656 124.339844 14.628906 118.53125 C 17.035156 112.722656 19.71875 107.042969 22.683594 101.5 C 25.648438 95.953125 28.875 90.566406 32.371094 85.339844 C 35.863281 80.109375 39.605469 75.066406 43.59375 70.207031 C 47.582031 65.34375 51.800781 60.691406 56.246094 56.246094 C 60.691406 51.800781 65.34375 47.582031 70.207031 43.59375 C 75.066406 39.605469 80.109375 35.863281 85.339844 32.371094 C 90.566406 28.875 95.953125 25.648438 101.5 22.683594 C 107.042969 19.71875 112.722656 17.035156 118.53125 14.628906 C 124.339844 12.222656 130.253906 10.105469 136.269531 8.28125 C 142.285156 6.457031 148.378906 4.929688 154.546875 3.703125 C 160.710938 2.476562 166.925781 1.554688 173.183594 0.9375 C 179.441406 0.324219 185.710938 0.015625 192 0.015625 C 198.289062 0.015625 204.558594 0.324219 210.816406 0.9375 C 217.074219 1.554688 223.289062 2.476562 229.453125 3.703125 C 235.621094 4.929688 241.714844 6.457031 247.730469 8.28125 C 253.746094 10.105469 259.660156 12.222656 265.46875 14.628906 C 271.277344 17.035156 276.957031 19.71875 282.5 22.683594 C 288.046875 25.648438 293.433594 28.875 298.660156 32.371094 C 303.890625 35.863281 308.933594 39.605469 313.792969 43.59375 C 318.65625 47.582031 323.308594 51.800781 327.753906 56.246094 C 332.199219 60.691406 336.417969 65.34375 340.40625 70.207031 C 344.394531 75.066406 348.136719 80.109375 351.628906 85.339844 C 355.125 90.566406 358.351562 95.953125 361.316406 101.5 C 364.28125 107.042969 366.964844 112.722656 369.371094 118.53125 C 371.777344 124.339844 373.894531 130.253906 375.71875 136.269531 C 377.542969 142.285156 379.070312 148.378906 380.296875 154.546875 C 381.523438 160.710938 382.445312 166.925781 383.0625 173.183594 C 383.675781 179.441406 383.984375 185.710938 383.984375 192 C 383.984375 198.289062 383.675781 204.558594 383.0625 210.816406 C 382.445312 217.074219 381.523438 223.289062 380.296875 229.453125 C 379.070312 235.621094 377.542969 241.714844 375.71875 247.730469 C 373.894531 253.746094 371.777344 259.660156 369.371094 265.46875 C 366.964844 271.277344 364.28125 276.957031 361.316406 282.5 C 358.351562 288.046875 355.125 293.433594 351.628906 298.660156 C 348.136719 303.890625 344.394531 308.933594 340.40625 313.792969 C 336.417969 318.65625 332.199219 323.308594 327.753906 327.753906 C 323.308594 332.199219 318.65625 336.417969 313.792969 340.40625 C 308.933594 344.394531 303.890625 348.136719 298.660156 351.628906 C 293.433594 355.125 288.046875 358.351562 282.5 361.316406 C 276.957031 364.28125 271.277344 366.964844 265.46875 369.371094 C 259.660156 371.777344 253.746094 373.894531 247.730469 375.71875 C 241.714844 377.542969 235.621094 379.070312 229.453125 380.296875 C 223.289062 381.523438 217.074219 382.445312 210.816406 383.0625 C 204.558594 383.675781 198.289062 383.984375 192 383.984375 C 185.710938 383.984375 179.441406 383.675781 173.183594 383.0625 C 166.925781 382.445312 160.710938 381.523438 154.546875 380.296875 C 148.378906 379.070312 142.285156 377.542969 136.269531 375.71875 C 130.253906 373.894531 124.339844 371.777344 118.53125 369.371094 C 112.722656 366.964844 107.042969 364.28125 101.5 361.316406 C 95.953125 358.351562 90.566406 355.125 85.339844 351.628906 C 80.109375 348.136719 75.066406 344.394531 70.207031 340.40625 C 65.34375 336.417969 60.691406 332.199219 56.246094 327.753906 C 51.800781 323.308594 47.582031 318.65625 43.59375 313.792969 C 39.605469 308.933594 35.863281 303.890625 32.371094 298.660156 C 28.875 293.433594 25.648438 288.046875 22.683594 282.5 C 19.71875 276.957031 17.035156 271.277344 14.628906 265.46875 C 12.222656 259.660156 10.105469 253.746094 8.28125 247.730469 C 6.457031 241.714844 4.929688 235.621094 3.703125 229.453125 C 2.476562 223.289062 1.554688 217.074219 0.9375 210.816406 C 0.324219 204.558594 0.015625 198.289062 0.015625 192 Z M 0.015625 192 " clip-rule="nonzero"/></clipPath><clipPath id="67775b29b9"><path d="M 89 68 L 90 68 L 90 69 L 89 69 Z M 89 68 " clip-rule="nonzero"/></clipPath><clipPath id="6dc6fa7e31"><path d="M 0.015625 192 C 0.015625 185.710938 0.324219 179.441406 0.9375 173.183594 C 1.554688 166.925781 2.476562 160.710938 3.703125 154.546875 C 4.929688 148.378906 6.457031 142.285156 8.28125 136.269531 C 10.105469 130.253906 12.222656 124.339844 14.628906 118.53125 C 17.035156 112.722656 19.71875 107.042969 22.683594 101.5 C 25.648438 95.953125 28.875 90.566406 32.371094 85.339844 C 35.863281 80.109375 39.605469 75.066406 43.59375 70.207031 C 47.582031 65.34375 51.800781 60.691406 56.246094 56.246094 C 60.691406 51.800781 65.34375 47.582031 70.207031 43.59375 C 75.066406 39.605469 80.109375 35.863281 85.339844 32.371094 C 90.566406 28.875 95.953125 25.648438 101.5 22.683594 C 107.042969 19.71875 112.722656 17.035156 118.53125 14.628906 C 124.339844 12.222656 130.253906 10.105469 136.269531 8.28125 C 142.285156 6.457031 148.378906 4.929688 154.546875 3.703125 C 160.710938 2.476562 166.925781 1.554688 173.183594 0.9375 C 179.441406 0.324219 185.710938 0.015625 192 0.015625 C 198.289062 0.015625 204.558594 0.324219 210.816406 0.9375 C 217.074219 1.554688 223.289062 2.476562 229.453125 3.703125 C 235.621094 4.929688 241.714844 6.457031 247.730469 8.28125 C 253.746094 10.105469 259.660156 12.222656 265.46875 14.628906 C 271.277344 17.035156 276.957031 19.71875 282.5 22.683594 C 288.046875 25.648438 293.433594 28.875 298.660156 32.371094 C 303.890625 35.863281 308.933594 39.605469 313.792969 43.59375 C 318.65625 47.582031 323.308594 51.800781 327.753906 56.246094 C 332.199219 60.691406 336.417969 65.34375 340.40625 70.207031 C 344.394531 75.066406 348.136719 80.109375 351.628906 85.339844 C 355.125 90.566406 358.351562 95.953125 361.316406 101.5 C 364.28125 107.042969 366.964844 112.722656 369.371094 118.53125 C 371.777344 124.339844 373.894531 130.253906 375.71875 136.269531 C 377.542969 142.285156 379.070312 148.378906 380.296875 154.546875 C 381.523438 160.710938 382.445312 166.925781 383.0625 173.183594 C 383.675781 179.441406 383.984375 185.710938 383.984375 192 C 383.984375 198.289062 383.675781 204.558594 383.0625 210.816406 C 382.445312 217.074219 381.523438 223.289062 380.296875 229.453125 C 379.070312 235.621094 377.542969 241.714844 375.71875 247.730469 C 373.894531 253.746094 371.777344 259.660156 369.371094 265.46875 C 366.964844 271.277344 364.28125 276.957031 361.316406 282.5 C 358.351562 288.046875 355.125 293.433594 351.628906 298.660156 C 348.136719 303.890625 344.394531 308.933594 340.40625 313.792969 C 336.417969 318.65625 332.199219 323.308594 327.753906 327.753906 C 323.308594 332.199219 318.65625 336.417969 313.792969 340.40625 C 308.933594 344.394531 303.890625 348.136719 298.660156 351.628906 C 293.433594 355.125 288.046875 358.351562 282.5 361.316406 C 276.957031 364.28125 271.277344 366.964844 265.46875 369.371094 C 259.660156 371.777344 253.746094 373.894531 247.730469 375.71875 C 241.714844 377.542969 235.621094 379.070312 229.453125 380.296875 C 223.289062 381.523438 217.074219 382.445312 210.816406 383.0625 C 204.558594 383.675781 198.289062 383.984375 192 383.984375 C 185.710938 383.984375 179.441406 383.675781 173.183594 383.0625 C 166.925781 382.445312 160.710938 381.523438 154.546875 380.296875 C 148.378906 379.070312 142.285156 377.542969 136.269531 375.71875 C 130.253906 373.894531 124.339844 371.777344 118.53125 369.371094 C 112.722656 366.964844 107.042969 364.28125 101.5 361.316406 C 95.953125 358.351562 90.566406 355.125 85.339844 351.628906 C 80.109375 348.136719 75.066406 344.394531 70.207031 340.40625 C 65.34375 336.417969 60.691406 332.199219 56.246094 327.753906 C 51.800781 323.308594 47.582031 318.65625 43.59375 313.792969 C 39.605469 308.933594 35.863281 303.890625 32.371094 298.660156 C 28.875 293.433594 25.648438 288.046875 22.683594 282.5 C 19.71875 276.957031 17.035156 271.277344 14.628906 265.46875 C 12.222656 259.660156 10.105469 253.746094 8.28125 247.730469 C 6.457031 241.714844 4.929688 235.621094 3.703125 229.453125 C 2.476562 223.289062 1.554688 217.074219 0.9375 210.816406 C 0.324219 204.558594 0.015625 198.289062 0.015625 192 Z M 0.015625 192 " clip-rule="nonzero"/></clipPath><clipPath id="dd80560294"><path d="M 123 32 L 273 32 L 273 133 L 123 133 Z M 123 32 " clip-rule="nonzero"/></clipPath><clipPath id="8286188946"><path d="M 0.015625 192 C 0.015625 185.710938 0.324219 179.441406 0.9375 173.183594 C 1.554688 166.925781 2.476562 160.710938 3.703125 154.546875 C 4.929688 148.378906 6.457031 142.285156 8.28125 136.269531 C 10.105469 130.253906 12.222656 124.339844 14.628906 118.53125 C 17.035156 112.722656 19.71875 107.042969 22.683594 101.5 C 25.648438 95.953125 28.875 90.566406 32.371094 85.339844 C 35.863281 80.109375 39.605469 75.066406 43.59375 70.207031 C 47.582031 65.34375 51.800781 60.691406 56.246094 56.246094 C 60.691406 51.800781 65.34375 47.582031 70.207031 43.59375 C 75.066406 39.605469 80.109375 35.863281 85.339844 32.371094 C 90.566406 28.875 95.953125 25.648438 101.5 22.683594 C 107.042969 19.71875 112.722656 17.035156 118.53125 14.628906 C 124.339844 12.222656 130.253906 10.105469 136.269531 8.28125 C 142.285156 6.457031 148.378906 4.929688 154.546875 3.703125 C 160.710938 2.476562 166.925781 1.554688 173.183594 0.9375 C 179.441406 0.324219 185.710938 0.015625 192 0.015625 C 198.289062 0.015625 204.558594 0.324219 210.816406 0.9375 C 217.074219 1.554688 223.289062 2.476562 229.453125 3.703125 C 235.621094 4.929688 241.714844 6.457031 247.730469 8.28125 C 253.746094 10.105469 259.660156 12.222656 265.46875 14.628906 C 271.277344 17.035156 276.957031 19.71875 282.5 22.683594 C 288.046875 25.648438 293.433594 28.875 298.660156 32.371094 C 303.890625 35.863281 308.933594 39.605469 313.792969 43.59375 C 318.65625 47.582031 323.308594 51.800781 327.753906 56.246094 C 332.199219 60.691406 336.417969 65.34375 340.40625 70.207031 C 344.394531 75.066406 348.136719 80.109375 351.628906 85.339844 C 355.125 90.566406 358.351562 95.953125 361.316406 101.5 C 364.28125 107.042969 366.964844 112.722656 369.371094 118.53125 C 371.777344 124.339844 373.894531 130.253906 375.71875 136.269531 C 377.542969 142.285156 379.070312 148.378906 380.296875 154.546875 C 381.523438 160.710938 382.445312 166.925781 383.0625 173.183594 C 383.675781 179.441406 383.984375 185.710938 383.984375 192 C 383.984375 198.289062 383.675781 204.558594 383.0625 210.816406 C 382.445312 217.074219 381.523438 223.289062 380.296875 229.453125 C 379.070312 235.621094 377.542969 241.714844 375.71875 247.730469 C 373.894531 253.746094 371.777344 259.660156 369.371094 265.46875 C 366.964844 271.277344 364.28125 276.957031 361.316406 282.5 C 358.351562 288.046875 355.125 293.433594 351.628906 298.660156 C 348.136719 303.890625 344.394531 308.933594 340.40625 313.792969 C 336.417969 318.65625 332.199219 323.308594 327.753906 327.753906 C 323.308594 332.199219 318.65625 336.417969 313.792969 340.40625 C 308.933594 344.394531 303.890625 348.136719 298.660156 351.628906 C 293.433594 355.125 288.046875 358.351562 282.5 361.316406 C 276.957031 364.28125 271.277344 366.964844 265.46875 369.371094 C 259.660156 371.777344 253.746094 373.894531 247.730469 375.71875 C 241.714844 377.542969 235.621094 379.070312 229.453125 380.296875 C 223.289062 381.523438 217.074219 382.445312 210.816406 383.0625 C 204.558594 383.675781 198.289062 383.984375 192 383.984375 C 185.710938 383.984375 179.441406 383.675781 173.183594 383.0625 C 166.925781 382.445312 160.710938 381.523438 154.546875 380.296875 C 148.378906 379.070312 142.285156 377.542969 136.269531 375.71875 C 130.253906 373.894531 124.339844 371.777344 118.53125 369.371094 C 112.722656 366.964844 107.042969 364.28125 101.5 361.316406 C 95.953125 358.351562 90.566406 355.125 85.339844 351.628906 C 80.109375 348.136719 75.066406 344.394531 70.207031 340.40625 C 65.34375 336.417969 60.691406 332.199219 56.246094 327.753906 C 51.800781 323.308594 47.582031 318.65625 43.59375 313.792969 C 39.605469 308.933594 35.863281 303.890625 32.371094 298.660156 C 28.875 293.433594 25.648438 288.046875 22.683594 282.5 C 19.71875 276.957031 17.035156 271.277344 14.628906 265.46875 C 12.222656 259.660156 10.105469 253.746094 8.28125 247.730469 C 6.457031 241.714844 4.929688 235.621094 3.703125 229.453125 C 2.476562 223.289062 1.554688 217.074219 0.9375 210.816406 C 0.324219 204.558594 0.015625 198.289062 0.015625 192 Z M 0.015625 192 " clip-rule="nonzero"/></clipPath><clipPath id="48c2b8e561"><path d="M 115 120 L 142 120 L 142 157 L 115 157 Z M 115 120 " clip-rule="nonzero"/></clipPath><clipPath id="e34183d5cd"><path d="M 0.015625 192 C 0.015625 185.710938 0.324219 179.441406 0.9375 173.183594 C 1.554688 166.925781 2.476562 160.710938 3.703125 154.546875 C 4.929688 148.378906 6.457031 142.285156 8.28125 136.269531 C 10.105469 130.253906 12.222656 124.339844 14.628906 118.53125 C 17.035156 112.722656 19.71875 107.042969 22.683594 101.5 C 25.648438 95.953125 28.875 90.566406 32.371094 85.339844 C 35.863281 80.109375 39.605469 75.066406 43.59375 70.207031 C 47.582031 65.34375 51.800781 60.691406 56.246094 56.246094 C 60.691406 51.800781 65.34375 47.582031 70.207031 43.59375 C 75.066406 39.605469 80.109375 35.863281 85.339844 32.371094 C 90.566406 28.875 95.953125 25.648438 101.5 22.683594 C 107.042969 19.71875 112.722656 17.035156 118.53125 14.628906 C 124.339844 12.222656 130.253906 10.105469 136.269531 8.28125 C 142.285156 6.457031 148.378906 4.929688 154.546875 3.703125 C 160.710938 2.476562 166.925781 1.554688 173.183594 0.9375 C 179.441406 0.324219 185.710938 0.015625 192 0.015625 C 198.289062 0.015625 204.558594 0.324219 210.816406 0.9375 C 217.074219 1.554688 223.289062 2.476562 229.453125 3.703125 C 235.621094 4.929688 241.714844 6.457031 247.730469 8.28125 C 253.746094 10.105469 259.660156 12.222656 265.46875 14.628906 C 271.277344 17.035156 276.957031 19.71875 282.5 22.683594 C 288.046875 25.648438 293.433594 28.875 298.660156 32.371094 C 303.890625 35.863281 308.933594 39.605469 313.792969 43.59375 C 318.65625 47.582031 323.308594 51.800781 327.753906 56.246094 C 332.199219 60.691406 336.417969 65.34375 340.40625 70.207031 C 344.394531 75.066406 348.136719 80.109375 351.628906 85.339844 C 355.125 90.566406 358.351562 95.953125 361.316406 101.5 C 364.28125 107.042969 366.964844 112.722656 369.371094 118.53125 C 371.777344 124.339844 373.894531 130.253906 375.71875 136.269531 C 377.542969 142.285156 379.070312 148.378906 380.296875 154.546875 C 381.523438 160.710938 382.445312 166.925781 383.0625 173.183594 C 383.675781 179.441406 383.984375 185.710938 383.984375 192 C 383.984375 198.289062 383.675781 204.558594 383.0625 210.816406 C 382.445312 217.074219 381.523438 223.289062 380.296875 229.453125 C 379.070312 235.621094 377.542969 241.714844 375.71875 247.730469 C 373.894531 253.746094 371.777344 259.660156 369.371094 265.46875 C 366.964844 271.277344 364.28125 276.957031 361.316406 282.5 C 358.351562 288.046875 355.125 293.433594 351.628906 298.660156 C 348.136719 303.890625 344.394531 308.933594 340.40625 313.792969 C 336.417969 318.65625 332.199219 323.308594 327.753906 327.753906 C 323.308594 332.199219 318.65625 336.417969 313.792969 340.40625 C 308.933594 344.394531 303.890625 348.136719 298.660156 351.628906 C 293.433594 355.125 288.046875 358.351562 282.5 361.316406 C 276.957031 364.28125 271.277344 366.964844 265.46875 369.371094 C 259.660156 371.777344 253.746094 373.894531 247.730469 375.71875 C 241.714844 377.542969 235.621094 379.070312 229.453125 380.296875 C 223.289062 381.523438 217.074219 382.445312 210.816406 383.0625 C 204.558594 383.675781 198.289062 383.984375 192 383.984375 C 185.710938 383.984375 179.441406 383.675781 173.183594 383.0625 C 166.925781 382.445312 160.710938 381.523438 154.546875 380.296875 C 148.378906 379.070312 142.285156 377.542969 136.269531 375.71875 C 130.253906 373.894531 124.339844 371.777344 118.53125 369.371094 C 112.722656 366.964844 107.042969 364.28125 101.5 361.316406 C 95.953125 358.351562 90.566406 355.125 85.339844 351.628906 C 80.109375 348.136719 75.066406 344.394531 70.207031 340.40625 C 65.34375 336.417969 60.691406 332.199219 56.246094 327.753906 C 51.800781 323.308594 47.582031 318.65625 43.59375 313.792969 C 39.605469 308.933594 35.863281 303.890625 32.371094 298.660156 C 28.875 293.433594 25.648438 288.046875 22.683594 282.5 C 19.71875 276.957031 17.035156 271.277344 14.628906 265.46875 C 12.222656 259.660156 10.105469 253.746094 8.28125 247.730469 C 6.457031 241.714844 4.929688 235.621094 3.703125 229.453125 C 2.476562 223.289062 1.554688 217.074219 0.9375 210.816406 C 0.324219 204.558594 0.015625 198.289062 0.015625 192 Z M 0.015625 192 " clip-rule="nonzero"/></clipPath><clipPath id="4d56bbc35e"><path d="M 243 120 L 269 120 L 269 157 L 243 157 Z M 243 120 " clip-rule="nonzero"/></clipPath><clipPath id="1bb7719114"><path d="M 0.015625 192 C 0.015625 185.710938 0.324219 179.441406 0.9375 173.183594 C 1.554688 166.925781 2.476562 160.710938 3.703125 154.546875 C 4.929688 148.378906 6.457031 142.285156 8.28125 136.269531 C 10.105469 130.253906 12.222656 124.339844 14.628906 118.53125 C 17.035156 112.722656 19.71875 107.042969 22.683594 101.5 C 25.648438 95.953125 28.875 90.566406 32.371094 85.339844 C 35.863281 80.109375 39.605469 75.066406 43.59375 70.207031 C 47.582031 65.34375 51.800781 60.691406 56.246094 56.246094 C 60.691406 51.800781 65.34375 47.582031 70.207031 43.59375 C 75.066406 39.605469 80.109375 35.863281 85.339844 32.371094 C 90.566406 28.875 95.953125 25.648438 101.5 22.683594 C 107.042969 19.71875 112.722656 17.035156 118.53125 14.628906 C 124.339844 12.222656 130.253906 10.105469 136.269531 8.28125 C 142.285156 6.457031 148.378906 4.929688 154.546875 3.703125 C 160.710938 2.476562 166.925781 1.554688 173.183594 0.9375 C 179.441406 0.324219 185.710938 0.015625 192 0.015625 C 198.289062 0.015625 204.558594 0.324219 210.816406 0.9375 C 217.074219 1.554688 223.289062 2.476562 229.453125 3.703125 C 235.621094 4.929688 241.714844 6.457031 247.730469 8.28125 C 253.746094 10.105469 259.660156 12.222656 265.46875 14.628906 C 271.277344 17.035156 276.957031 19.71875 282.5 22.683594 C 288.046875 25.648438 293.433594 28.875 298.660156 32.371094 C 303.890625 35.863281 308.933594 39.605469 313.792969 43.59375 C 318.65625 47.582031 323.308594 51.800781 327.753906 56.246094 C 332.199219 60.691406 336.417969 65.34375 340.40625 70.207031 C 344.394531 75.066406 348.136719 80.109375 351.628906 85.339844 C 355.125 90.566406 358.351562 95.953125 361.316406 101.5 C 364.28125 107.042969 366.964844 112.722656 369.371094 118.53125 C 371.777344 124.339844 373.894531 130.253906 375.71875 136.269531 C 377.542969 142.285156 379.070312 148.378906 380.296875 154.546875 C 381.523438 160.710938 382.445312 166.925781 383.0625 173.183594 C 383.675781 179.441406 383.984375 185.710938 383.984375 192 C 383.984375 198.289062 383.675781 204.558594 383.0625 210.816406 C 382.445312 217.074219 381.523438 223.289062 380.296875 229.453125 C 379.070312 235.621094 377.542969 241.714844 375.71875 247.730469 C 373.894531 253.746094 371.777344 259.660156 369.371094 265.46875 C 366.964844 271.277344 364.28125 276.957031 361.316406 282.5 C 358.351562 288.046875 355.125 293.433594 351.628906 298.660156 C 348.136719 303.890625 344.394531 308.933594 340.40625 313.792969 C 336.417969 318.65625 332.199219 323.308594 327.753906 327.753906 C 323.308594 332.199219 318.65625 336.417969 313.792969 340.40625 C 308.933594 344.394531 303.890625 348.136719 298.660156 351.628906 C 293.433594 355.125 288.046875 358.351562 282.5 361.316406 C 276.957031 364.28125 271.277344 366.964844 265.46875 369.371094 C 259.660156 371.777344 253.746094 373.894531 247.730469 375.71875 C 241.714844 377.542969 235.621094 379.070312 229.453125 380.296875 C 223.289062 381.523438 217.074219 382.445312 210.816406 383.0625 C 204.558594 383.675781 198.289062 383.984375 192 383.984375 C 185.710938 383.984375 179.441406 383.675781 173.183594 383.0625 C 166.925781 382.445312 160.710938 381.523438 154.546875 380.296875 C 148.378906 379.070312 142.285156 377.542969 136.269531 375.71875 C 130.253906 373.894531 124.339844 371.777344 118.53125 369.371094 C 112.722656 366.964844 107.042969 364.28125 101.5 361.316406 C 95.953125 358.351562 90.566406 355.125 85.339844 351.628906 C 80.109375 348.136719 75.066406 344.394531 70.207031 340.40625 C 65.34375 336.417969 60.691406 332.199219 56.246094 327.753906 C 51.800781 323.308594 47.582031 318.65625 43.59375 313.792969 C 39.605469 308.933594 35.863281 303.890625 32.371094 298.660156 C 28.875 293.433594 25.648438 288.046875 22.683594 282.5 C 19.71875 276.957031 17.035156 271.277344 14.628906 265.46875 C 12.222656 259.660156 10.105469 253.746094 8.28125 247.730469 C 6.457031 241.714844 4.929688 235.621094 3.703125 229.453125 C 2.476562 223.289062 1.554688 217.074219 0.9375 210.816406 C 0.324219 204.558594 0.015625 198.289062 0.015625 192 Z M 0.015625 192 " clip-rule="nonzero"/></clipPath><clipPath id="df3727b27f"><path d="M 29 242 L 354 242 L 354 384 L 29 384 Z M 29 242 " clip-rule="nonzero"/></clipPath><clipPath id="88dcf554bd"><path d="M 0.015625 192 C 0.015625 185.710938 0.324219 179.441406 0.9375 173.183594 C 1.554688 166.925781 2.476562 160.710938 3.703125 154.546875 C 4.929688 148.378906 6.457031 142.285156 8.28125 136.269531 C 10.105469 130.253906 12.222656 124.339844 14.628906 118.53125 C 17.035156 112.722656 19.71875 107.042969 22.683594 101.5 C 25.648438 95.953125 28.875 90.566406 32.371094 85.339844 C 35.863281 80.109375 39.605469 75.066406 43.59375 70.207031 C 47.582031 65.34375 51.800781 60.691406 56.246094 56.246094 C 60.691406 51.800781 65.34375 47.582031 70.207031 43.59375 C 75.066406 39.605469 80.109375 35.863281 85.339844 32.371094 C 90.566406 28.875 95.953125 25.648438 101.5 22.683594 C 107.042969 19.71875 112.722656 17.035156 118.53125 14.628906 C 124.339844 12.222656 130.253906 10.105469 136.269531 8.28125 C 142.285156 6.457031 148.378906 4.929688 154.546875 3.703125 C 160.710938 2.476562 166.925781 1.554688 173.183594 0.9375 C 179.441406 0.324219 185.710938 0.015625 192 0.015625 C 198.289062 0.015625 204.558594 0.324219 210.816406 0.9375 C 217.074219 1.554688 223.289062 2.476562 229.453125 3.703125 C 235.621094 4.929688 241.714844 6.457031 247.730469 8.28125 C 253.746094 10.105469 259.660156 12.222656 265.46875 14.628906 C 271.277344 17.035156 276.957031 19.71875 282.5 22.683594 C 288.046875 25.648438 293.433594 28.875 298.660156 32.371094 C 303.890625 35.863281 308.933594 39.605469 313.792969 43.59375 C 318.65625 47.582031 323.308594 51.800781 327.753906 56.246094 C 332.199219 60.691406 336.417969 65.34375 340.40625 70.207031 C 344.394531 75.066406 348.136719 80.109375 351.628906 85.339844 C 355.125 90.566406 358.351562 95.953125 361.316406 101.5 C 364.28125 107.042969 366.964844 112.722656 369.371094 118.53125 C 371.777344 124.339844 373.894531 130.253906 375.71875 136.269531 C 377.542969 142.285156 379.070312 148.378906 380.296875 154.546875 C 381.523438 160.710938 382.445312 166.925781 383.0625 173.183594 C 383.675781 179.441406 383.984375 185.710938 383.984375 192 C 383.984375 198.289062 383.675781 204.558594 383.0625 210.816406 C 382.445312 217.074219 381.523438 223.289062 380.296875 229.453125 C 379.070312 235.621094 377.542969 241.714844 375.71875 247.730469 C 373.894531 253.746094 371.777344 259.660156 369.371094 265.46875 C 366.964844 271.277344 364.28125 276.957031 361.316406 282.5 C 358.351562 288.046875 355.125 293.433594 351.628906 298.660156 C 348.136719 303.890625 344.394531 308.933594 340.40625 313.792969 C 336.417969 318.65625 332.199219 323.308594 327.753906 327.753906 C 323.308594 332.199219 318.65625 336.417969 313.792969 340.40625 C 308.933594 344.394531 303.890625 348.136719 298.660156 351.628906 C 293.433594 355.125 288.046875 358.351562 282.5 361.316406 C 276.957031 364.28125 271.277344 366.964844 265.46875 369.371094 C 259.660156 371.777344 253.746094 373.894531 247.730469 375.71875 C 241.714844 377.542969 235.621094 379.070312 229.453125 380.296875 C 223.289062 381.523438 217.074219 382.445312 210.816406 383.0625 C 204.558594 383.675781 198.289062 383.984375 192 383.984375 C 185.710938 383.984375 179.441406 383.675781 173.183594 383.0625 C 166.925781 382.445312 160.710938 381.523438 154.546875 380.296875 C 148.378906 379.070312 142.285156 377.542969 136.269531 375.71875 C 130.253906 373.894531 124.339844 371.777344 118.53125 369.371094 C 112.722656 366.964844 107.042969 364.28125 101.5 361.316406 C 95.953125 358.351562 90.566406 355.125 85.339844 351.628906 C 80.109375 348.136719 75.066406 344.394531 70.207031 340.40625 C 65.34375 336.417969 60.691406 332.199219 56.246094 327.753906 C 51.800781 323.308594 47.582031 318.65625 43.59375 313.792969 C 39.605469 308.933594 35.863281 303.890625 32.371094 298.660156 C 28.875 293.433594 25.648438 288.046875 22.683594 282.5 C 19.71875 276.957031 17.035156 271.277344 14.628906 265.46875 C 12.222656 259.660156 10.105469 253.746094 8.28125 247.730469 C 6.457031 241.714844 4.929688 235.621094 3.703125 229.453125 C 2.476562 223.289062 1.554688 217.074219 0.9375 210.816406 C 0.324219 204.558594 0.015625 198.289062 0.015625 192 Z M 0.015625 192 " clip-rule="nonzero"/></clipPath><clipPath id="2318f8c4c6"><path d="M 192 240 L 255 240 L 255 322 L 192 322 Z M 192 240 " clip-rule="nonzero"/></clipPath><clipPath id="0f79a862ca"><path d="M 0.015625 192 C 0.015625 185.710938 0.324219 179.441406 0.9375 173.183594 C 1.554688 166.925781 2.476562 160.710938 3.703125 154.546875 C 4.929688 148.378906 6.457031 142.285156 8.28125 136.269531 C 10.105469 130.253906 12.222656 124.339844 14.628906 118.53125 C 17.035156 112.722656 19.71875 107.042969 22.683594 101.5 C 25.648438 95.953125 28.875 90.566406 32.371094 85.339844 C 35.863281 80.109375 39.605469 75.066406 43.59375 70.207031 C 47.582031 65.34375 51.800781 60.691406 56.246094 56.246094 C 60.691406 51.800781 65.34375 47.582031 70.207031 43.59375 C 75.066406 39.605469 80.109375 35.863281 85.339844 32.371094 C 90.566406 28.875 95.953125 25.648438 101.5 22.683594 C 107.042969 19.71875 112.722656 17.035156 118.53125 14.628906 C 124.339844 12.222656 130.253906 10.105469 136.269531 8.28125 C 142.285156 6.457031 148.378906 4.929688 154.546875 3.703125 C 160.710938 2.476562 166.925781 1.554688 173.183594 0.9375 C 179.441406 0.324219 185.710938 0.015625 192 0.015625 C 198.289062 0.015625 204.558594 0.324219 210.816406 0.9375 C 217.074219 1.554688 223.289062 2.476562 229.453125 3.703125 C 235.621094 4.929688 241.714844 6.457031 247.730469 8.28125 C 253.746094 10.105469 259.660156 12.222656 265.46875 14.628906 C 271.277344 17.035156 276.957031 19.71875 282.5 22.683594 C 288.046875 25.648438 293.433594 28.875 298.660156 32.371094 C 303.890625 35.863281 308.933594 39.605469 313.792969 43.59375 C 318.65625 47.582031 323.308594 51.800781 327.753906 56.246094 C 332.199219 60.691406 336.417969 65.34375 340.40625 70.207031 C 344.394531 75.066406 348.136719 80.109375 351.628906 85.339844 C 355.125 90.566406 358.351562 95.953125 361.316406 101.5 C 364.28125 107.042969 366.964844 112.722656 369.371094 118.53125 C 371.777344 124.339844 373.894531 130.253906 375.71875 136.269531 C 377.542969 142.285156 379.070312 148.378906 380.296875 154.546875 C 381.523438 160.710938 382.445312 166.925781 383.0625 173.183594 C 383.675781 179.441406 383.984375 185.710938 383.984375 192 C 383.984375 198.289062 383.675781 204.558594 383.0625 210.816406 C 382.445312 217.074219 381.523438 223.289062 380.296875 229.453125 C 379.070312 235.621094 377.542969 241.714844 375.71875 247.730469 C 373.894531 253.746094 371.777344 259.660156 369.371094 265.46875 C 366.964844 271.277344 364.28125 276.957031 361.316406 282.5 C 358.351562 288.046875 355.125 293.433594 351.628906 298.660156 C 348.136719 303.890625 344.394531 308.933594 340.40625 313.792969 C 336.417969 318.65625 332.199219 323.308594 327.753906 327.753906 C 323.308594 332.199219 318.65625 336.417969 313.792969 340.40625 C 308.933594 344.394531 303.890625 348.136719 298.660156 351.628906 C 293.433594 355.125 288.046875 358.351562 282.5 361.316406 C 276.957031 364.28125 271.277344 366.964844 265.46875 369.371094 C 259.660156 371.777344 253.746094 373.894531 247.730469 375.71875 C 241.714844 377.542969 235.621094 379.070312 229.453125 380.296875 C 223.289062 381.523438 217.074219 382.445312 210.816406 383.0625 C 204.558594 383.675781 198.289062 383.984375 192 383.984375 C 185.710938 383.984375 179.441406 383.675781 173.183594 383.0625 C 166.925781 382.445312 160.710938 381.523438 154.546875 380.296875 C 148.378906 379.070312 142.285156 377.542969 136.269531 375.71875 C 130.253906 373.894531 124.339844 371.777344 118.53125 369.371094 C 112.722656 366.964844 107.042969 364.28125 101.5 361.316406 C 95.953125 358.351562 90.566406 355.125 85.339844 351.628906 C 80.109375 348.136719 75.066406 344.394531 70.207031 340.40625 C 65.34375 336.417969 60.691406 332.199219 56.246094 327.753906 C 51.800781 323.308594 47.582031 318.65625 43.59375 313.792969 C 39.605469 308.933594 35.863281 303.890625 32.371094 298.660156 C 28.875 293.433594 25.648438 288.046875 22.683594 282.5 C 19.71875 276.957031 17.035156 271.277344 14.628906 265.46875 C 12.222656 259.660156 10.105469 253.746094 8.28125 247.730469 C 6.457031 241.714844 4.929688 235.621094 3.703125 229.453125 C 2.476562 223.289062 1.554688 217.074219 0.9375 210.816406 C 0.324219 204.558594 0.015625 198.289062 0.015625 192 Z M 0.015625 192 " clip-rule="nonzero"/></clipPath><clipPath id="ac0d72d88c"><path d="M 129 240 L 192 240 L 192 322 L 129 322 Z M 129 240 " clip-rule="nonzero"/></clipPath><clipPath id="1342523511"><path d="M 0.015625 192 C 0.015625 185.710938 0.324219 179.441406 0.9375 173.183594 C 1.554688 166.925781 2.476562 160.710938 3.703125 154.546875 C 4.929688 148.378906 6.457031 142.285156 8.28125 136.269531 C 10.105469 130.253906 12.222656 124.339844 14.628906 118.53125 C 17.035156 112.722656 19.71875 107.042969 22.683594 101.5 C 25.648438 95.953125 28.875 90.566406 32.371094 85.339844 C 35.863281 80.109375 39.605469 75.066406 43.59375 70.207031 C 47.582031 65.34375 51.800781 60.691406 56.246094 56.246094 C 60.691406 51.800781 65.34375 47.582031 70.207031 43.59375 C 75.066406 39.605469 80.109375 35.863281 85.339844 32.371094 C 90.566406 28.875 95.953125 25.648438 101.5 22.683594 C 107.042969 19.71875 112.722656 17.035156 118.53125 14.628906 C 124.339844 12.222656 130.253906 10.105469 136.269531 8.28125 C 142.285156 6.457031 148.378906 4.929688 154.546875 3.703125 C 160.710938 2.476562 166.925781 1.554688 173.183594 0.9375 C 179.441406 0.324219 185.710938 0.015625 192 0.015625 C 198.289062 0.015625 204.558594 0.324219 210.816406 0.9375 C 217.074219 1.554688 223.289062 2.476562 229.453125 3.703125 C 235.621094 4.929688 241.714844 6.457031 247.730469 8.28125 C 253.746094 10.105469 259.660156 12.222656 265.46875 14.628906 C 271.277344 17.035156 276.957031 19.71875 282.5 22.683594 C 288.046875 25.648438 293.433594 28.875 298.660156 32.371094 C 303.890625 35.863281 308.933594 39.605469 313.792969 43.59375 C 318.65625 47.582031 323.308594 51.800781 327.753906 56.246094 C 332.199219 60.691406 336.417969 65.34375 340.40625 70.207031 C 344.394531 75.066406 348.136719 80.109375 351.628906 85.339844 C 355.125 90.566406 358.351562 95.953125 361.316406 101.5 C 364.28125 107.042969 366.964844 112.722656 369.371094 118.53125 C 371.777344 124.339844 373.894531 130.253906 375.71875 136.269531 C 377.542969 142.285156 379.070312 148.378906 380.296875 154.546875 C 381.523438 160.710938 382.445312 166.925781 383.0625 173.183594 C 383.675781 179.441406 383.984375 185.710938 383.984375 192 C 383.984375 198.289062 383.675781 204.558594 383.0625 210.816406 C 382.445312 217.074219 381.523438 223.289062 380.296875 229.453125 C 379.070312 235.621094 377.542969 241.714844 375.71875 247.730469 C 373.894531 253.746094 371.777344 259.660156 369.371094 265.46875 C 366.964844 271.277344 364.28125 276.957031 361.316406 282.5 C 358.351562 288.046875 355.125 293.433594 351.628906 298.660156 C 348.136719 303.890625 344.394531 308.933594 340.40625 313.792969 C 336.417969 318.65625 332.199219 323.308594 327.753906 327.753906 C 323.308594 332.199219 318.65625 336.417969 313.792969 340.40625 C 308.933594 344.394531 303.890625 348.136719 298.660156 351.628906 C 293.433594 355.125 288.046875 358.351562 282.5 361.316406 C 276.957031 364.28125 271.277344 366.964844 265.46875 369.371094 C 259.660156 371.777344 253.746094 373.894531 247.730469 375.71875 C 241.714844 377.542969 235.621094 379.070312 229.453125 380.296875 C 223.289062 381.523438 217.074219 382.445312 210.816406 383.0625 C 204.558594 383.675781 198.289062 383.984375 192 383.984375 C 185.710938 383.984375 179.441406 383.675781 173.183594 383.0625 C 166.925781 382.445312 160.710938 381.523438 154.546875 380.296875 C 148.378906 379.070312 142.285156 377.542969 136.269531 375.71875 C 130.253906 373.894531 124.339844 371.777344 118.53125 369.371094 C 112.722656 366.964844 107.042969 364.28125 101.5 361.316406 C 95.953125 358.351562 90.566406 355.125 85.339844 351.628906 C 80.109375 348.136719 75.066406 344.394531 70.207031 340.40625 C 65.34375 336.417969 60.691406 332.199219 56.246094 327.753906 C 51.800781 323.308594 47.582031 318.65625 43.59375 313.792969 C 39.605469 308.933594 35.863281 303.890625 32.371094 298.660156 C 28.875 293.433594 25.648438 288.046875 22.683594 282.5 C 19.71875 276.957031 17.035156 271.277344 14.628906 265.46875 C 12.222656 259.660156 10.105469 253.746094 8.28125 247.730469 C 6.457031 241.714844 4.929688 235.621094 3.703125 229.453125 C 2.476562 223.289062 1.554688 217.074219 0.9375 210.816406 C 0.324219 204.558594 0.015625 198.289062 0.015625 192 Z M 0.015625 192 " clip-rule="nonzero"/></clipPath><clipPath id="1d67302e96"><path d="M 197 240 L 254 240 L 254 318 L 197 318 Z M 197 240 " clip-rule="nonzero"/></clipPath><clipPath id="3b0dbd5ff7"><path d="M 0.015625 192 C 0.015625 185.710938 0.324219 179.441406 0.9375 173.183594 C 1.554688 166.925781 2.476562 160.710938 3.703125 154.546875 C 4.929688 148.378906 6.457031 142.285156 8.28125 136.269531 C 10.105469 130.253906 12.222656 124.339844 14.628906 118.53125 C 17.035156 112.722656 19.71875 107.042969 22.683594 101.5 C 25.648438 95.953125 28.875 90.566406 32.371094 85.339844 C 35.863281 80.109375 39.605469 75.066406 43.59375 70.207031 C 47.582031 65.34375 51.800781 60.691406 56.246094 56.246094 C 60.691406 51.800781 65.34375 47.582031 70.207031 43.59375 C 75.066406 39.605469 80.109375 35.863281 85.339844 32.371094 C 90.566406 28.875 95.953125 25.648438 101.5 22.683594 C 107.042969 19.71875 112.722656 17.035156 118.53125 14.628906 C 124.339844 12.222656 130.253906 10.105469 136.269531 8.28125 C 142.285156 6.457031 148.378906 4.929688 154.546875 3.703125 C 160.710938 2.476562 166.925781 1.554688 173.183594 0.9375 C 179.441406 0.324219 185.710938 0.015625 192 0.015625 C 198.289062 0.015625 204.558594 0.324219 210.816406 0.9375 C 217.074219 1.554688 223.289062 2.476562 229.453125 3.703125 C 235.621094 4.929688 241.714844 6.457031 247.730469 8.28125 C 253.746094 10.105469 259.660156 12.222656 265.46875 14.628906 C 271.277344 17.035156 276.957031 19.71875 282.5 22.683594 C 288.046875 25.648438 293.433594 28.875 298.660156 32.371094 C 303.890625 35.863281 308.933594 39.605469 313.792969 43.59375 C 318.65625 47.582031 323.308594 51.800781 327.753906 56.246094 C 332.199219 60.691406 336.417969 65.34375 340.40625 70.207031 C 344.394531 75.066406 348.136719 80.109375 351.628906 85.339844 C 355.125 90.566406 358.351562 95.953125 361.316406 101.5 C 364.28125 107.042969 366.964844 112.722656 369.371094 118.53125 C 371.777344 124.339844 373.894531 130.253906 375.71875 136.269531 C 377.542969 142.285156 379.070312 148.378906 380.296875 154.546875 C 381.523438 160.710938 382.445312 166.925781 383.0625 173.183594 C 383.675781 179.441406 383.984375 185.710938 383.984375 192 C 383.984375 198.289062 383.675781 204.558594 383.0625 210.816406 C 382.445312 217.074219 381.523438 223.289062 380.296875 229.453125 C 379.070312 235.621094 377.542969 241.714844 375.71875 247.730469 C 373.894531 253.746094 371.777344 259.660156 369.371094 265.46875 C 366.964844 271.277344 364.28125 276.957031 361.316406 282.5 C 358.351562 288.046875 355.125 293.433594 351.628906 298.660156 C 348.136719 303.890625 344.394531 308.933594 340.40625 313.792969 C 336.417969 318.65625 332.199219 323.308594 327.753906 327.753906 C 323.308594 332.199219 318.65625 336.417969 313.792969 340.40625 C 308.933594 344.394531 303.890625 348.136719 298.660156 351.628906 C 293.433594 355.125 288.046875 358.351562 282.5 361.316406 C 276.957031 364.28125 271.277344 366.964844 265.46875 369.371094 C 259.660156 371.777344 253.746094 373.894531 247.730469 375.71875 C 241.714844 377.542969 235.621094 379.070312 229.453125 380.296875 C 223.289062 381.523438 217.074219 382.445312 210.816406 383.0625 C 204.558594 383.675781 198.289062 383.984375 192 383.984375 C 185.710938 383.984375 179.441406 383.675781 173.183594 383.0625 C 166.925781 382.445312 160.710938 381.523438 154.546875 380.296875 C 148.378906 379.070312 142.285156 377.542969 136.269531 375.71875 C 130.253906 373.894531 124.339844 371.777344 118.53125 369.371094 C 112.722656 366.964844 107.042969 364.28125 101.5 361.316406 C 95.953125 358.351562 90.566406 355.125 85.339844 351.628906 C 80.109375 348.136719 75.066406 344.394531 70.207031 340.40625 C 65.34375 336.417969 60.691406 332.199219 56.246094 327.753906 C 51.800781 323.308594 47.582031 318.65625 43.59375 313.792969 C 39.605469 308.933594 35.863281 303.890625 32.371094 298.660156 C 28.875 293.433594 25.648438 288.046875 22.683594 282.5 C 19.71875 276.957031 17.035156 271.277344 14.628906 265.46875 C 12.222656 259.660156 10.105469 253.746094 8.28125 247.730469 C 6.457031 241.714844 4.929688 235.621094 3.703125 229.453125 C 2.476562 223.289062 1.554688 217.074219 0.9375 210.816406 C 0.324219 204.558594 0.015625 198.289062 0.015625 192 Z M 0.015625 192 " clip-rule="nonzero"/></clipPath><clipPath id="16b7341c22"><path d="M 129 240 L 187 240 L 187 318 L 129 318 Z M 129 240 " clip-rule="nonzero"/></clipPath><clipPath id="70dfb447ac"><path d="M 0.015625 192 C 0.015625 185.710938 0.324219 179.441406 0.9375 173.183594 C 1.554688 166.925781 2.476562 160.710938 3.703125 154.546875 C 4.929688 148.378906 6.457031 142.285156 8.28125 136.269531 C 10.105469 130.253906 12.222656 124.339844 14.628906 118.53125 C 17.035156 112.722656 19.71875 107.042969 22.683594 101.5 C 25.648438 95.953125 28.875 90.566406 32.371094 85.339844 C 35.863281 80.109375 39.605469 75.066406 43.59375 70.207031 C 47.582031 65.34375 51.800781 60.691406 56.246094 56.246094 C 60.691406 51.800781 65.34375 47.582031 70.207031 43.59375 C 75.066406 39.605469 80.109375 35.863281 85.339844 32.371094 C 90.566406 28.875 95.953125 25.648438 101.5 22.683594 C 107.042969 19.71875 112.722656 17.035156 118.53125 14.628906 C 124.339844 12.222656 130.253906 10.105469 136.269531 8.28125 C 142.285156 6.457031 148.378906 4.929688 154.546875 3.703125 C 160.710938 2.476562 166.925781 1.554688 173.183594 0.9375 C 179.441406 0.324219 185.710938 0.015625 192 0.015625 C 198.289062 0.015625 204.558594 0.324219 210.816406 0.9375 C 217.074219 1.554688 223.289062 2.476562 229.453125 3.703125 C 235.621094 4.929688 241.714844 6.457031 247.730469 8.28125 C 253.746094 10.105469 259.660156 12.222656 265.46875 14.628906 C 271.277344 17.035156 276.957031 19.71875 282.5 22.683594 C 288.046875 25.648438 293.433594 28.875 298.660156 32.371094 C 303.890625 35.863281 308.933594 39.605469 313.792969 43.59375 C 318.65625 47.582031 323.308594 51.800781 327.753906 56.246094 C 332.199219 60.691406 336.417969 65.34375 340.40625 70.207031 C 344.394531 75.066406 348.136719 80.109375 351.628906 85.339844 C 355.125 90.566406 358.351562 95.953125 361.316406 101.5 C 364.28125 107.042969 366.964844 112.722656 369.371094 118.53125 C 371.777344 124.339844 373.894531 130.253906 375.71875 136.269531 C 377.542969 142.285156 379.070312 148.378906 380.296875 154.546875 C 381.523438 160.710938 382.445312 166.925781 383.0625 173.183594 C 383.675781 179.441406 383.984375 185.710938 383.984375 192 C 383.984375 198.289062 383.675781 204.558594 383.0625 210.816406 C 382.445312 217.074219 381.523438 223.289062 380.296875 229.453125 C 379.070312 235.621094 377.542969 241.714844 375.71875 247.730469 C 373.894531 253.746094 371.777344 259.660156 369.371094 265.46875 C 366.964844 271.277344 364.28125 276.957031 361.316406 282.5 C 358.351562 288.046875 355.125 293.433594 351.628906 298.660156 C 348.136719 303.890625 344.394531 308.933594 340.40625 313.792969 C 336.417969 318.65625 332.199219 323.308594 327.753906 327.753906 C 323.308594 332.199219 318.65625 336.417969 313.792969 340.40625 C 308.933594 344.394531 303.890625 348.136719 298.660156 351.628906 C 293.433594 355.125 288.046875 358.351562 282.5 361.316406 C 276.957031 364.28125 271.277344 366.964844 265.46875 369.371094 C 259.660156 371.777344 253.746094 373.894531 247.730469 375.71875 C 241.714844 377.542969 235.621094 379.070312 229.453125 380.296875 C 223.289062 381.523438 217.074219 382.445312 210.816406 383.0625 C 204.558594 383.675781 198.289062 383.984375 192 383.984375 C 185.710938 383.984375 179.441406 383.675781 173.183594 383.0625 C 166.925781 382.445312 160.710938 381.523438 154.546875 380.296875 C 148.378906 379.070312 142.285156 377.542969 136.269531 375.71875 C 130.253906 373.894531 124.339844 371.777344 118.53125 369.371094 C 112.722656 366.964844 107.042969 364.28125 101.5 361.316406 C 95.953125 358.351562 90.566406 355.125 85.339844 351.628906 C 80.109375 348.136719 75.066406 344.394531 70.207031 340.40625 C 65.34375 336.417969 60.691406 332.199219 56.246094 327.753906 C 51.800781 323.308594 47.582031 318.65625 43.59375 313.792969 C 39.605469 308.933594 35.863281 303.890625 32.371094 298.660156 C 28.875 293.433594 25.648438 288.046875 22.683594 282.5 C 19.71875 276.957031 17.035156 271.277344 14.628906 265.46875 C 12.222656 259.660156 10.105469 253.746094 8.28125 247.730469 C 6.457031 241.714844 4.929688 235.621094 3.703125 229.453125 C 2.476562 223.289062 1.554688 217.074219 0.9375 210.816406 C 0.324219 204.558594 0.015625 198.289062 0.015625 192 Z M 0.015625 192 " clip-rule="nonzero"/></clipPath><clipPath id="8e49ab3368"><path d="M 189 304 L 194 304 L 194 384 L 189 384 Z M 189 304 " clip-rule="nonzero"/></clipPath><clipPath id="89c6f12581"><path d="M 0.015625 192 C 0.015625 185.710938 0.324219 179.441406 0.9375 173.183594 C 1.554688 166.925781 2.476562 160.710938 3.703125 154.546875 C 4.929688 148.378906 6.457031 142.285156 8.28125 136.269531 C 10.105469 130.253906 12.222656 124.339844 14.628906 118.53125 C 17.035156 112.722656 19.71875 107.042969 22.683594 101.5 C 25.648438 95.953125 28.875 90.566406 32.371094 85.339844 C 35.863281 80.109375 39.605469 75.066406 43.59375 70.207031 C 47.582031 65.34375 51.800781 60.691406 56.246094 56.246094 C 60.691406 51.800781 65.34375 47.582031 70.207031 43.59375 C 75.066406 39.605469 80.109375 35.863281 85.339844 32.371094 C 90.566406 28.875 95.953125 25.648438 101.5 22.683594 C 107.042969 19.71875 112.722656 17.035156 118.53125 14.628906 C 124.339844 12.222656 130.253906 10.105469 136.269531 8.28125 C 142.285156 6.457031 148.378906 4.929688 154.546875 3.703125 C 160.710938 2.476562 166.925781 1.554688 173.183594 0.9375 C 179.441406 0.324219 185.710938 0.015625 192 0.015625 C 198.289062 0.015625 204.558594 0.324219 210.816406 0.9375 C 217.074219 1.554688 223.289062 2.476562 229.453125 3.703125 C 235.621094 4.929688 241.714844 6.457031 247.730469 8.28125 C 253.746094 10.105469 259.660156 12.222656 265.46875 14.628906 C 271.277344 17.035156 276.957031 19.71875 282.5 22.683594 C 288.046875 25.648438 293.433594 28.875 298.660156 32.371094 C 303.890625 35.863281 308.933594 39.605469 313.792969 43.59375 C 318.65625 47.582031 323.308594 51.800781 327.753906 56.246094 C 332.199219 60.691406 336.417969 65.34375 340.40625 70.207031 C 344.394531 75.066406 348.136719 80.109375 351.628906 85.339844 C 355.125 90.566406 358.351562 95.953125 361.316406 101.5 C 364.28125 107.042969 366.964844 112.722656 369.371094 118.53125 C 371.777344 124.339844 373.894531 130.253906 375.71875 136.269531 C 377.542969 142.285156 379.070312 148.378906 380.296875 154.546875 C 381.523438 160.710938 382.445312 166.925781 383.0625 173.183594 C 383.675781 179.441406 383.984375 185.710938 383.984375 192 C 383.984375 198.289062 383.675781 204.558594 383.0625 210.816406 C 382.445312 217.074219 381.523438 223.289062 380.296875 229.453125 C 379.070312 235.621094 377.542969 241.714844 375.71875 247.730469 C 373.894531 253.746094 371.777344 259.660156 369.371094 265.46875 C 366.964844 271.277344 364.28125 276.957031 361.316406 282.5 C 358.351562 288.046875 355.125 293.433594 351.628906 298.660156 C 348.136719 303.890625 344.394531 308.933594 340.40625 313.792969 C 336.417969 318.65625 332.199219 323.308594 327.753906 327.753906 C 323.308594 332.199219 318.65625 336.417969 313.792969 340.40625 C 308.933594 344.394531 303.890625 348.136719 298.660156 351.628906 C 293.433594 355.125 288.046875 358.351562 282.5 361.316406 C 276.957031 364.28125 271.277344 366.964844 265.46875 369.371094 C 259.660156 371.777344 253.746094 373.894531 247.730469 375.71875 C 241.714844 377.542969 235.621094 379.070312 229.453125 380.296875 C 223.289062 381.523438 217.074219 382.445312 210.816406 383.0625 C 204.558594 383.675781 198.289062 383.984375 192 383.984375 C 185.710938 383.984375 179.441406 383.675781 173.183594 383.0625 C 166.925781 382.445312 160.710938 381.523438 154.546875 380.296875 C 148.378906 379.070312 142.285156 377.542969 136.269531 375.71875 C 130.253906 373.894531 124.339844 371.777344 118.53125 369.371094 C 112.722656 366.964844 107.042969 364.28125 101.5 361.316406 C 95.953125 358.351562 90.566406 355.125 85.339844 351.628906 C 80.109375 348.136719 75.066406 344.394531 70.207031 340.40625 C 65.34375 336.417969 60.691406 332.199219 56.246094 327.753906 C 51.800781 323.308594 47.582031 318.65625 43.59375 313.792969 C 39.605469 308.933594 35.863281 303.890625 32.371094 298.660156 C 28.875 293.433594 25.648438 288.046875 22.683594 282.5 C 19.71875 276.957031 17.035156 271.277344 14.628906 265.46875 C 12.222656 259.660156 10.105469 253.746094 8.28125 247.730469 C 6.457031 241.714844 4.929688 235.621094 3.703125 229.453125 C 2.476562 223.289062 1.554688 217.074219 0.9375 210.816406 C 0.324219 204.558594 0.015625 198.289062 0.015625 192 Z M 0.015625 192 " clip-rule="nonzero"/></clipPath></defs><rect x="-38.4" width="460.8" fill="#ffffff" y="-38.399999" height="460.799983" fill-opacity="1"/><rect x="-38.4" width="460.8" fill="#ffffff" y="-38.399999" height="460.799983" fill-opacity="1"/><path fill="#f6e3d2" d="M 383.984375 192 C 383.984375 195.140625 383.910156 198.28125 383.753906 201.421875 C 383.601562 204.558594 383.367188 207.691406 383.0625 210.816406 C 382.753906 213.945312 382.367188 217.0625 381.90625 220.171875 C 381.445312 223.277344 380.910156 226.371094 380.296875 229.453125 C 379.683594 232.535156 378.996094 235.601562 378.230469 238.648438 C 377.46875 241.695312 376.628906 244.722656 375.71875 247.730469 C 374.804688 250.738281 373.820312 253.71875 372.761719 256.679688 C 371.703125 259.636719 370.574219 262.566406 369.371094 265.46875 C 368.167969 268.371094 366.894531 271.242188 365.550781 274.085938 C 364.210938 276.925781 362.796875 279.730469 361.316406 282.5 C 359.835938 285.273438 358.285156 288.003906 356.671875 290.699219 C 355.054688 293.394531 353.375 296.046875 351.628906 298.660156 C 349.882812 301.273438 348.074219 303.84375 346.203125 306.367188 C 344.332031 308.890625 342.398438 311.367188 340.40625 313.792969 C 338.414062 316.222656 336.363281 318.601562 334.25 320.929688 C 332.140625 323.257812 329.976562 325.53125 327.753906 327.753906 C 325.53125 329.976562 323.257812 332.140625 320.929688 334.25 C 318.601562 336.363281 316.222656 338.414062 313.792969 340.40625 C 311.367188 342.398438 308.890625 344.332031 306.367188 346.203125 C 303.84375 348.074219 301.273438 349.882812 298.660156 351.628906 C 296.046875 353.375 293.394531 355.054688 290.699219 356.671875 C 288.003906 358.285156 285.273438 359.835938 282.5 361.316406 C 279.730469 362.796875 276.925781 364.210938 274.085938 365.550781 C 271.242188 366.894531 268.371094 368.167969 265.46875 369.371094 C 262.566406 370.574219 259.636719 371.703125 256.679688 372.761719 C 253.71875 373.820312 250.738281 374.804688 247.730469 375.71875 C 244.722656 376.628906 241.695312 377.46875 238.648438 378.230469 C 235.601562 378.996094 232.535156 379.683594 229.453125 380.296875 C 226.371094 380.910156 223.277344 381.445312 220.171875 381.90625 C 217.0625 382.367188 213.945312 382.753906 210.816406 383.0625 C 207.691406 383.367188 204.558594 383.601562 201.421875 383.753906 C 198.28125 383.910156 195.140625 383.984375 192 383.984375 C 188.859375 383.984375 185.71875 383.910156 182.578125 383.753906 C 179.441406 383.601562 176.308594 383.367188 173.183594 383.0625 C 170.054688 382.753906 166.9375 382.367188 163.828125 381.90625 C 160.722656 381.445312 157.628906 380.910156 154.546875 380.296875 C 151.464844 379.683594 148.398438 378.996094 145.351562 378.230469 C 142.304688 377.46875 139.277344 376.628906 136.269531 375.71875 C 133.261719 374.804688 130.28125 373.820312 127.320312 372.761719 C 124.363281 371.703125 121.433594 370.574219 118.53125 369.371094 C 115.628906 368.167969 112.757812 366.894531 109.914062 365.550781 C 107.074219 364.210938 104.269531 362.796875 101.5 361.316406 C 98.726562 359.835938 95.996094 358.285156 93.300781 356.671875 C 90.605469 355.054688 87.949219 353.375 85.339844 351.628906 C 82.726562 349.882812 80.15625 348.074219 77.632812 346.203125 C 75.109375 344.332031 72.632812 342.398438 70.207031 340.40625 C 67.777344 338.414062 65.398438 336.363281 63.070312 334.25 C 60.742188 332.140625 58.46875 329.976562 56.246094 327.753906 C 54.023438 325.53125 51.859375 323.257812 49.75 320.929688 C 47.636719 318.601562 45.585938 316.222656 43.59375 313.792969 C 41.601562 311.367188 39.667969 308.890625 37.796875 306.367188 C 35.925781 303.84375 34.117188 301.273438 32.371094 298.660156 C 30.625 296.046875 28.945312 293.394531 27.328125 290.699219 C 25.714844 288.003906 24.164062 285.273438 22.683594 282.5 C 21.203125 279.730469 19.789062 276.925781 18.445312 274.085938 C 17.105469 271.242188 15.832031 268.371094 14.628906 265.46875 C 13.425781 262.566406 12.296875 259.636719 11.238281 256.679688 C 10.179688 253.71875 9.195312 250.738281 8.28125 247.730469 C 7.371094 244.722656 6.53125 241.695312 5.769531 238.648438 C 5.003906 235.601562 4.316406 232.535156 3.703125 229.453125 C 3.089844 226.371094 2.554688 223.277344 2.09375 220.171875 C 1.632812 217.0625 1.246094 213.945312 0.9375 210.816406 C 0.632812 207.691406 0.398438 204.558594 0.246094 201.421875 C 0.0898438 198.28125 0.015625 195.140625 0.015625 192 C 0.015625 188.859375 0.0898438 185.71875 0.246094 182.578125 C 0.398438 179.441406 0.632812 176.308594 0.9375 173.183594 C 1.246094 170.054688 1.632812 166.9375 2.09375 163.828125 C 2.554688 160.722656 3.089844 157.628906 3.703125 154.546875 C 4.316406 151.464844 5.003906 148.398438 5.769531 145.351562 C 6.53125 142.304688 7.371094 139.277344 8.28125 136.269531 C 9.195312 133.261719 10.179688 130.28125 11.238281 127.320312 C 12.296875 124.363281 13.425781 121.433594 14.628906 118.53125 C 15.832031 115.628906 17.105469 112.757812 18.445312 109.914062 C 19.789062 107.074219 21.203125 104.269531 22.683594 101.5 C 24.164062 98.726562 25.714844 95.996094 27.328125 93.300781 C 28.945312 90.605469 30.625 87.949219 32.371094 85.339844 C 34.117188 82.726562 35.925781 80.15625 37.796875 77.632812 C 39.667969 75.109375 41.601562 72.632812 43.59375 70.207031 C 45.585938 67.777344 47.636719 65.398438 49.75 63.070312 C 51.859375 60.742188 54.023438 58.46875 56.246094 56.246094 C 58.46875 54.023438 60.742188 51.859375 63.070312 49.75 C 65.398438 47.636719 67.777344 45.585938 70.207031 43.59375 C 72.632812 41.601562 75.109375 39.667969 77.632812 37.796875 C 80.15625 35.925781 82.726562 34.117188 85.339844 32.371094 C 87.949219 30.625 90.605469 28.945312 93.300781 27.328125 C 95.996094 25.714844 98.726562 24.164062 101.5 22.683594 C 104.269531 21.203125 107.074219 19.789062 109.914062 18.445312 C 112.757812 17.105469 115.628906 15.832031 118.53125 14.628906 C 121.433594 13.425781 124.363281 12.296875 127.320312 11.238281 C 130.28125 10.179688 133.261719 9.195312 136.269531 8.28125 C 139.277344 7.371094 142.304688 6.53125 145.351562 5.769531 C 148.398438 5.003906 151.464844 4.316406 154.546875 3.703125 C 157.628906 3.089844 160.722656 2.554688 163.828125 2.09375 C 166.9375 1.632812 170.054688 1.246094 173.183594 0.9375 C 176.308594 0.632812 179.441406 0.398438 182.578125 0.246094 C 185.71875 0.0898438 188.859375 0.015625 192 0.015625 C 195.140625 0.015625 198.28125 0.0898438 201.421875 0.246094 C 204.558594 0.398438 207.691406 0.632812 210.816406 0.9375 C 213.945312 1.246094 217.0625 1.632812 220.171875 2.09375 C 223.277344 2.554688 226.371094 3.089844 229.453125 3.703125 C 232.535156 4.316406 235.601562 5.003906 238.648438 5.769531 C 241.695312 6.53125 244.722656 7.371094 247.730469 8.28125 C 250.738281 9.195312 253.71875 10.179688 256.679688 11.238281 C 259.636719 12.296875 262.566406 13.425781 265.46875 14.628906 C 268.371094 15.832031 271.242188 17.105469 274.085938 18.445312 C 276.925781 19.789062 279.730469 21.203125 282.5 22.683594 C 285.273438 24.164062 288.003906 25.714844 290.699219 27.328125 C 293.394531 28.945312 296.046875 30.625 298.660156 32.371094 C 301.273438 34.117188 303.84375 35.925781 306.367188 37.796875 C 308.890625 39.667969 311.367188 41.601562 313.792969 43.59375 C 316.222656 45.585938 318.601562 47.636719 320.929688 49.75 C 323.257812 51.859375 325.53125 54.023438 327.753906 56.246094 C 329.976562 58.46875 332.140625 60.742188 334.25 63.070312 C 336.363281 65.398438 338.414062 67.777344 340.40625 70.207031 C 342.398438 72.632812 344.332031 75.109375 346.203125 77.632812 C 348.074219 80.15625 349.882812 82.726562 351.628906 85.339844 C 353.375 87.949219 355.054688 90.605469 356.671875 93.300781 C 358.285156 95.996094 359.835938 98.726562 361.316406 101.5 C 362.796875 104.269531 364.210938 107.074219 365.550781 109.914062 C 366.894531 112.757812 368.167969 115.628906 369.371094 118.53125 C 370.574219 121.433594 371.703125 124.363281 372.761719 127.320312 C 373.820312 130.28125 374.804688 133.261719 375.71875 136.269531 C 376.628906 139.277344 377.46875 142.304688 378.230469 145.351562 C 378.996094 148.398438 379.683594 151.464844 380.296875 154.546875 C 380.910156 157.628906 381.445312 160.722656 381.90625 163.828125 C 382.367188 166.9375 382.753906 170.054688 383.0625 173.183594 C 383.367188 176.308594 383.601562 179.441406 383.753906 182.578125 C 383.910156 185.71875 383.984375 188.859375 383.984375 192 Z M 383.984375 192 " fill-opacity="1" fill-rule="nonzero"/><g clip-path="url(#65d0566d29)"><g clip-path="url(#2c3f2a445c)"><path fill="#fbc6a2" d="M 232.484375 265.769531 C 228.828125 268.90625 214.257812 280.726562 192.210938 280.761719 C 170.058594 280.792969 155.402344 268.894531 151.765625 265.769531 C 153.390625 246.558594 155.015625 227.332031 156.644531 208.125 C 157.207031 201.378906 157.785156 194.628906 158.351562 187.882812 L 225.898438 187.882812 L 229.808594 234.175781 L 232.484375 265.765625 Z M 232.484375 265.769531 " fill-opacity="1" fill-rule="nonzero"/></g></g><g clip-path="url(#4d3d60a355)"><g clip-path="url(#174be2efa4)"><path fill="#c2686b" d="M 229.808594 234.175781 C 197.140625 232.664062 173.4375 221.394531 156.644531 208.125 C 157.207031 201.378906 157.785156 194.632812 158.351562 187.882812 L 225.898438 187.882812 Z M 229.808594 234.175781 " fill-opacity="1" fill-rule="nonzero"/></g></g><g clip-path="url(#1fe5e4411b)"><g clip-path="url(#8934974e61)"><path fill="#fbc6a2" d="M 220.8125 206.234375 L 220.101562 206.847656 C 203.164062 221.371094 178.074219 221.050781 161.507812 206.105469 C 143.046875 189.453125 132.511719 165.757812 132.511719 140.898438 L 132.511719 116.941406 C 132.511719 84.09375 159.140625 57.464844 191.992188 57.464844 C 224.839844 57.464844 251.46875 84.09375 251.46875 116.941406 L 251.46875 139.566406 C 251.46875 165.199219 240.273438 189.550781 220.8125 206.238281 Z M 220.8125 206.234375 " fill-opacity="1" fill-rule="nonzero"/></g></g><g clip-path="url(#9e2a69eec4)"><g clip-path="url(#3a511e8424)"><path fill="#fbc6a2" d="M 247.816406 193.992188 C 248.054688 193.992188 248.054688 193.621094 247.816406 193.621094 C 247.582031 193.621094 247.582031 193.992188 247.816406 193.992188 Z M 247.816406 193.992188 " fill-opacity="1" fill-rule="nonzero"/></g></g><g clip-path="url(#67775b29b9)"><g clip-path="url(#6dc6fa7e31)"><path fill="#000000" d="M 89.535156 68.992188 C 89.769531 68.992188 89.769531 68.625 89.535156 68.625 C 89.296875 68.625 89.296875 68.992188 89.535156 68.992188 Z M 89.535156 68.992188 " fill-opacity="1" fill-rule="nonzero"/></g></g><g clip-path="url(#dd80560294)"><g clip-path="url(#8286188946)"><path fill="#000000" d="M 262.921875 58.867188 C 265.671875 59.171875 268.183594 57.96875 269.65625 56.621094 C 274.488281 65.597656 272.816406 78.226562 270.722656 88.199219 C 267.1875 105.039062 262.832031 119.5 251.015625 132.015625 L 250.910156 124.632812 C 250.945312 120.59375 250.980469 116.558594 251.015625 112.519531 C 251.03125 110.75 250.757812 108.542969 249.089844 107.953125 C 247.699219 107.460938 246.277344 108.460938 245.011719 109.210938 C 239.824219 112.292969 233.296875 111.71875 227.382812 110.515625 C 209.011719 106.789062 191.726562 97.875 178.03125 85.074219 C 175.375 82.59375 172.765625 79.910156 169.421875 78.480469 C 162.957031 75.714844 155.042969 78.558594 150.480469 83.90625 C 145.914062 89.253906 144.246094 96.558594 144.203125 103.589844 C 144.179688 107.113281 144.488281 110.820312 142.9375 113.984375 C 141.902344 116.097656 140.132812 117.746094 138.335938 119.265625 C 136.171875 121.089844 130.074219 128.992188 127.726562 130.570312 C 134.550781 125.984375 124.507812 105.839844 123.824219 97.644531 C 123.433594 93.003906 123.046875 88.324219 123.617188 83.703125 C 125.058594 72 132.582031 61.742188 141.816406 54.410156 C 147.617188 49.800781 154.496094 46.039062 161.902344 45.847656 C 167.707031 45.695312 173.835938 47.699219 179.144531 45.339844 C 181.34375 44.359375 183.164062 42.714844 185.074219 41.246094 C 199.214844 30.414062 220.378906 29.867188 235.058594 39.957031 C 240.308594 43.402344 244.089844 46.714844 246.632812 49.183594 C 249.316406 51.789062 251.324219 54.136719 255.097656 56.175781 C 258.121094 57.804688 260.949219 58.519531 262.921875 58.867188 Z M 262.921875 58.867188 " fill-opacity="1" fill-rule="nonzero"/></g></g><g clip-path="url(#48c2b8e561)"><g clip-path="url(#e34183d5cd)"><path fill="#fbc6a2" d="M 135.980469 156.320312 L 141.175781 154.890625 L 135.332031 129.035156 C 134 123.128906 128.582031 119.535156 123.234375 121.007812 C 118.511719 122.308594 115.34375 127.164062 115.695312 132.523438 C 115.828125 134.59375 116.078125 136.804688 116.484375 139.121094 C 116.839844 141.164062 117.28125 143.09375 117.785156 144.902344 C 120.148438 153.453125 128.128906 158.484375 135.984375 156.320312 Z M 135.980469 156.320312 " fill-opacity="1" fill-rule="nonzero"/></g></g><g clip-path="url(#4d56bbc35e)"><g clip-path="url(#1bb7719114)"><path fill="#fbc6a2" d="M 248.269531 156.320312 L 243.078125 154.890625 L 248.917969 129.035156 C 250.253906 123.128906 255.671875 119.535156 261.019531 121.007812 C 265.738281 122.308594 268.910156 127.164062 268.558594 132.523438 C 268.421875 134.59375 268.171875 136.804688 267.769531 139.121094 C 267.410156 141.164062 266.96875 143.09375 266.46875 144.902344 C 264.101562 153.453125 256.125 158.484375 248.269531 156.320312 Z M 248.269531 156.320312 " fill-opacity="1" fill-rule="nonzero"/></g></g><g clip-path="url(#df3727b27f)"><g clip-path="url(#88dcf554bd)"><path fill="#fbc6a2" d="M 152.839844 242.476562 C 132.445312 247.199219 108.035156 254.628906 81.660156 266.625 C 61.464844 275.808594 44.195312 285.8125 29.847656 295.292969 L 29.847656 422.757812 L 353.855469 422.757812 L 353.855469 295.292969 C 339.511719 285.816406 322.242188 275.808594 302.046875 266.625 C 275.671875 254.628906 251.261719 247.199219 230.863281 242.476562 C 227.015625 245.558594 210.933594 257.710938 187.863281 256.234375 C 169.648438 255.066406 157.273438 246.054688 152.839844 242.476562 Z M 152.839844 242.476562 " fill-opacity="1" fill-rule="nonzero"/><path fill="#243d6b" d="M 152.839844 242.476562 C 132.445312 247.199219 108.035156 254.628906 81.660156 266.625 C 61.464844 275.808594 44.195312 285.8125 29.847656 295.292969 L 29.847656 422.757812 L 353.855469 422.757812 L 353.855469 295.292969 C 339.511719 285.816406 322.242188 275.808594 302.046875 266.625 C 275.671875 254.628906 251.261719 247.199219 230.863281 242.476562 C 230.152344 249.824219 228.140625 260.875 222.070312 272.835938 C 212.734375 291.226562 199.003906 301.511719 191.996094 306.046875 C 185.492188 302.203125 171.75 292.871094 162.214844 275.230469 C 155.0625 261.988281 153.304688 249.664062 152.839844 242.476562 Z M 152.839844 242.476562 " fill-opacity="1" fill-rule="nonzero"/></g></g><g clip-path="url(#2318f8c4c6)"><g clip-path="url(#0f79a862ca)"><path fill="#e2e0e0" d="M 254.070312 256.914062 C 252.03125 278.296875 250.007812 299.683594 247.96875 321.054688 L 212.480469 295.675781 L 193.878906 305.101562 L 192 306.050781 C 192.421875 305.539062 192.84375 305.03125 193.28125 304.503906 C 194.621094 302.875 195.992188 301.15625 197.359375 299.378906 C 202.328125 292.953125 207.46875 285.625 212.480469 277.378906 C 220.566406 264.035156 226.378906 251.449219 230.589844 240.597656 C 234.769531 240.960938 242.082031 242.230469 249.074219 247.328125 C 249.644531 247.734375 250.167969 248.144531 250.664062 248.566406 C 252.308594 249.90625 253.402344 251.757812 253.855469 253.765625 C 254.101562 254.785156 254.175781 255.847656 254.070312 256.914062 Z M 254.070312 256.914062 " fill-opacity="1" fill-rule="nonzero"/></g></g><g clip-path="url(#ac0d72d88c)"><g clip-path="url(#1342523511)"><path fill="#e2e0e0" d="M 192 306.050781 L 189.828125 304.957031 L 171.519531 295.675781 L 136.03125 321.054688 C 133.992188 299.683594 131.96875 278.296875 129.929688 256.914062 C 129.855469 256.214844 129.871094 255.527344 129.957031 254.84375 C 130.21875 252.410156 131.398438 250.140625 133.335938 248.566406 C 133.832031 248.144531 134.355469 247.734375 134.925781 247.328125 C 141.917969 242.230469 149.230469 240.960938 153.410156 240.597656 C 157.621094 251.449219 163.433594 264.035156 171.519531 277.378906 C 176.585938 285.742188 181.800781 293.140625 186.828125 299.625 C 188.140625 301.316406 189.4375 302.945312 190.71875 304.503906 C 191.15625 305.03125 191.578125 305.539062 192 306.050781 Z M 192 306.050781 " fill-opacity="1" fill-rule="nonzero"/></g></g><g clip-path="url(#1d67302e96)"><g clip-path="url(#3b0dbd5ff7)"><path fill="#ffffff" d="M 253.855469 253.769531 C 251.84375 274.90625 249.832031 296.058594 247.824219 317.179688 L 212.335938 291.789062 L 197.359375 299.378906 C 202.328125 292.953125 207.46875 285.625 212.480469 277.382812 C 220.566406 264.039062 226.378906 251.453125 230.589844 240.597656 C 234.769531 240.960938 242.082031 242.230469 249.074219 247.328125 C 249.644531 247.738281 250.167969 248.144531 250.664062 248.566406 C 252.308594 249.90625 253.402344 251.757812 253.855469 253.769531 Z M 253.855469 253.769531 " fill-opacity="1" fill-rule="nonzero"/></g></g><g clip-path="url(#16b7341c22)"><g clip-path="url(#70dfb447ac)"><path fill="#ffffff" d="M 186.828125 299.625 L 171.371094 291.789062 L 135.886719 317.179688 C 133.90625 296.40625 131.9375 275.632812 129.957031 254.847656 C 130.21875 252.414062 131.398438 250.140625 133.335938 248.566406 C 133.832031 248.144531 134.355469 247.738281 134.925781 247.328125 C 141.917969 242.230469 149.230469 240.960938 153.410156 240.597656 C 157.621094 251.453125 163.433594 264.039062 171.519531 277.382812 C 176.585938 285.742188 181.800781 293.144531 186.828125 299.625 Z M 186.828125 299.625 " fill-opacity="1" fill-rule="nonzero"/></g></g><g clip-path="url(#8e49ab3368)"><g clip-path="url(#89c6f12581)"><path fill="#e2e0e0" d="M 193.878906 304.503906 L 193.878906 400.925781 L 189.828125 400.925781 L 189.828125 304.503906 L 190.71875 304.503906 C 191.15625 305.03125 191.578125 305.539062 192 306.050781 C 192.421875 305.539062 192.84375 305.03125 193.28125 304.503906 Z M 193.878906 304.503906 " fill-opacity="1" fill-rule="nonzero"/></g></g></svg>