<svg xmlns="http://www.w3.org/2000/svg" xmlns:xlink="http://www.w3.org/1999/xlink" width="512" zoomAndPan="magnify" viewBox="0 0 384 383.999986" height="512" preserveAspectRatio="xMidYMid meet" version="1.0"><defs><clipPath id="0e9ee7cfe3"><path d="M 0.015625 192 C 0.015625 185.710938 0.324219 179.441406 0.9375 173.183594 C 1.554688 166.925781 2.476562 160.710938 3.703125 154.546875 C 4.929688 148.378906 6.457031 142.285156 8.28125 136.269531 C 10.105469 130.253906 12.222656 124.339844 14.628906 118.53125 C 17.035156 112.722656 19.71875 107.042969 22.683594 101.5 C 25.648438 95.953125 28.875 90.566406 32.371094 85.339844 C 35.863281 80.109375 39.605469 75.066406 43.59375 70.207031 C 47.582031 65.34375 51.800781 60.691406 56.246094 56.246094 C 60.691406 51.800781 65.34375 47.582031 70.207031 43.59375 C 75.066406 39.605469 80.109375 35.863281 85.339844 32.371094 C 90.566406 28.875 95.953125 25.648438 101.5 22.683594 C 107.042969 19.71875 112.722656 17.035156 118.53125 14.628906 C 124.339844 12.222656 130.253906 10.105469 136.269531 8.28125 C 142.285156 6.457031 148.378906 4.929688 154.546875 3.703125 C 160.710938 2.476562 166.925781 1.554688 173.183594 0.9375 C 179.441406 0.324219 185.710938 0.015625 192 0.015625 C 198.289062 0.015625 204.558594 0.324219 210.816406 0.9375 C 217.074219 1.554688 223.289062 2.476562 229.453125 3.703125 C 235.621094 4.929688 241.714844 6.457031 247.730469 8.28125 C 253.746094 10.105469 259.660156 12.222656 265.46875 14.628906 C 271.277344 17.035156 276.957031 19.71875 282.5 22.683594 C 288.046875 25.648438 293.433594 28.875 298.660156 32.371094 C 303.890625 35.863281 308.933594 39.605469 313.792969 43.59375 C 318.65625 47.582031 323.308594 51.800781 327.753906 56.246094 C 332.199219 60.691406 336.417969 65.34375 340.40625 70.207031 C 344.394531 75.066406 348.136719 80.109375 351.628906 85.339844 C 355.125 90.566406 358.351562 95.953125 361.316406 101.5 C 364.28125 107.042969 366.964844 112.722656 369.371094 118.53125 C 371.777344 124.339844 373.894531 130.253906 375.71875 136.269531 C 377.542969 142.285156 379.070312 148.378906 380.296875 154.546875 C 381.523438 160.710938 382.445312 166.925781 383.0625 173.183594 C 383.675781 179.441406 383.984375 185.710938 383.984375 192 C 383.984375 198.289062 383.675781 204.558594 383.0625 210.816406 C 382.445312 217.074219 381.523438 223.289062 380.296875 229.453125 C 379.070312 235.621094 377.542969 241.714844 375.71875 247.730469 C 373.894531 253.746094 371.777344 259.660156 369.371094 265.46875 C 366.964844 271.277344 364.28125 276.957031 361.316406 282.5 C 358.351562 288.046875 355.125 293.433594 351.628906 298.660156 C 348.136719 303.890625 344.394531 308.933594 340.40625 313.792969 C 336.417969 318.65625 332.199219 323.308594 327.753906 327.753906 C 323.308594 332.199219 318.65625 336.417969 313.792969 340.40625 C 308.933594 344.394531 303.890625 348.136719 298.660156 351.628906 C 293.433594 355.125 288.046875 358.351562 282.5 361.316406 C 276.957031 364.28125 271.277344 366.964844 265.46875 369.371094 C 259.660156 371.777344 253.746094 373.894531 247.730469 375.71875 C 241.714844 377.542969 235.621094 379.070312 229.453125 380.296875 C 223.289062 381.523438 217.074219 382.445312 210.816406 383.0625 C 204.558594 383.675781 198.289062 383.984375 192 383.984375 C 185.710938 383.984375 179.441406 383.675781 173.183594 383.0625 C 166.925781 382.445312 160.710938 381.523438 154.546875 380.296875 C 148.378906 379.070312 142.285156 377.542969 136.269531 375.71875 C 130.253906 373.894531 124.339844 371.777344 118.53125 369.371094 C 112.722656 366.964844 107.042969 364.28125 101.5 361.316406 C 95.953125 358.351562 90.566406 355.125 85.339844 351.628906 C 80.109375 348.136719 75.066406 344.394531 70.207031 340.40625 C 65.34375 336.417969 60.691406 332.199219 56.246094 327.753906 C 51.800781 323.308594 47.582031 318.65625 43.59375 313.792969 C 39.605469 308.933594 35.863281 303.890625 32.371094 298.660156 C 28.875 293.433594 25.648438 288.046875 22.683594 282.5 C 19.71875 276.957031 17.035156 271.277344 14.628906 265.46875 C 12.222656 259.660156 10.105469 253.746094 8.28125 247.730469 C 6.457031 241.714844 4.929688 235.621094 3.703125 229.453125 C 2.476562 223.289062 1.554688 217.074219 0.9375 210.816406 C 0.324219 204.558594 0.015625 198.289062 0.015625 192 Z M 0.015625 192 " clip-rule="nonzero"/></clipPath><clipPath id="32c64b2de7"><path d="M 29 242 L 355 242 L 355 384 L 29 384 Z M 29 242 " clip-rule="nonzero"/></clipPath><clipPath id="f3702e2698"><path d="M 0.015625 192 C 0.015625 185.710938 0.324219 179.441406 0.9375 173.183594 C 1.554688 166.925781 2.476562 160.710938 3.703125 154.546875 C 4.929688 148.378906 6.457031 142.285156 8.28125 136.269531 C 10.105469 130.253906 12.222656 124.339844 14.628906 118.53125 C 17.035156 112.722656 19.71875 107.042969 22.683594 101.5 C 25.648438 95.953125 28.875 90.566406 32.371094 85.339844 C 35.863281 80.109375 39.605469 75.066406 43.59375 70.207031 C 47.582031 65.34375 51.800781 60.691406 56.246094 56.246094 C 60.691406 51.800781 65.34375 47.582031 70.207031 43.59375 C 75.066406 39.605469 80.109375 35.863281 85.339844 32.371094 C 90.566406 28.875 95.953125 25.648438 101.5 22.683594 C 107.042969 19.71875 112.722656 17.035156 118.53125 14.628906 C 124.339844 12.222656 130.253906 10.105469 136.269531 8.28125 C 142.285156 6.457031 148.378906 4.929688 154.546875 3.703125 C 160.710938 2.476562 166.925781 1.554688 173.183594 0.9375 C 179.441406 0.324219 185.710938 0.015625 192 0.015625 C 198.289062 0.015625 204.558594 0.324219 210.816406 0.9375 C 217.074219 1.554688 223.289062 2.476562 229.453125 3.703125 C 235.621094 4.929688 241.714844 6.457031 247.730469 8.28125 C 253.746094 10.105469 259.660156 12.222656 265.46875 14.628906 C 271.277344 17.035156 276.957031 19.71875 282.5 22.683594 C 288.046875 25.648438 293.433594 28.875 298.660156 32.371094 C 303.890625 35.863281 308.933594 39.605469 313.792969 43.59375 C 318.65625 47.582031 323.308594 51.800781 327.753906 56.246094 C 332.199219 60.691406 336.417969 65.34375 340.40625 70.207031 C 344.394531 75.066406 348.136719 80.109375 351.628906 85.339844 C 355.125 90.566406 358.351562 95.953125 361.316406 101.5 C 364.28125 107.042969 366.964844 112.722656 369.371094 118.53125 C 371.777344 124.339844 373.894531 130.253906 375.71875 136.269531 C 377.542969 142.285156 379.070312 148.378906 380.296875 154.546875 C 381.523438 160.710938 382.445312 166.925781 383.0625 173.183594 C 383.675781 179.441406 383.984375 185.710938 383.984375 192 C 383.984375 198.289062 383.675781 204.558594 383.0625 210.816406 C 382.445312 217.074219 381.523438 223.289062 380.296875 229.453125 C 379.070312 235.621094 377.542969 241.714844 375.71875 247.730469 C 373.894531 253.746094 371.777344 259.660156 369.371094 265.46875 C 366.964844 271.277344 364.28125 276.957031 361.316406 282.5 C 358.351562 288.046875 355.125 293.433594 351.628906 298.660156 C 348.136719 303.890625 344.394531 308.933594 340.40625 313.792969 C 336.417969 318.65625 332.199219 323.308594 327.753906 327.753906 C 323.308594 332.199219 318.65625 336.417969 313.792969 340.40625 C 308.933594 344.394531 303.890625 348.136719 298.660156 351.628906 C 293.433594 355.125 288.046875 358.351562 282.5 361.316406 C 276.957031 364.28125 271.277344 366.964844 265.46875 369.371094 C 259.660156 371.777344 253.746094 373.894531 247.730469 375.71875 C 241.714844 377.542969 235.621094 379.070312 229.453125 380.296875 C 223.289062 381.523438 217.074219 382.445312 210.816406 383.0625 C 204.558594 383.675781 198.289062 383.984375 192 383.984375 C 185.710938 383.984375 179.441406 383.675781 173.183594 383.0625 C 166.925781 382.445312 160.710938 381.523438 154.546875 380.296875 C 148.378906 379.070312 142.285156 377.542969 136.269531 375.71875 C 130.253906 373.894531 124.339844 371.777344 118.53125 369.371094 C 112.722656 366.964844 107.042969 364.28125 101.5 361.316406 C 95.953125 358.351562 90.566406 355.125 85.339844 351.628906 C 80.109375 348.136719 75.066406 344.394531 70.207031 340.40625 C 65.34375 336.417969 60.691406 332.199219 56.246094 327.753906 C 51.800781 323.308594 47.582031 318.65625 43.59375 313.792969 C 39.605469 308.933594 35.863281 303.890625 32.371094 298.660156 C 28.875 293.433594 25.648438 288.046875 22.683594 282.5 C 19.71875 276.957031 17.035156 271.277344 14.628906 265.46875 C 12.222656 259.660156 10.105469 253.746094 8.28125 247.730469 C 6.457031 241.714844 4.929688 235.621094 3.703125 229.453125 C 2.476562 223.289062 1.554688 217.074219 0.9375 210.816406 C 0.324219 204.558594 0.015625 198.289062 0.015625 192 Z M 0.015625 192 " clip-rule="nonzero"/></clipPath><clipPath id="4e17e4cc8a"><path d="M 132 284 L 252 284 L 252 384 L 132 384 Z M 132 284 " clip-rule="nonzero"/></clipPath><clipPath id="dd8d689db1"><path d="M 0.015625 192 C 0.015625 185.710938 0.324219 179.441406 0.9375 173.183594 C 1.554688 166.925781 2.476562 160.710938 3.703125 154.546875 C 4.929688 148.378906 6.457031 142.285156 8.28125 136.269531 C 10.105469 130.253906 12.222656 124.339844 14.628906 118.53125 C 17.035156 112.722656 19.71875 107.042969 22.683594 101.5 C 25.648438 95.953125 28.875 90.566406 32.371094 85.339844 C 35.863281 80.109375 39.605469 75.066406 43.59375 70.207031 C 47.582031 65.34375 51.800781 60.691406 56.246094 56.246094 C 60.691406 51.800781 65.34375 47.582031 70.207031 43.59375 C 75.066406 39.605469 80.109375 35.863281 85.339844 32.371094 C 90.566406 28.875 95.953125 25.648438 101.5 22.683594 C 107.042969 19.71875 112.722656 17.035156 118.53125 14.628906 C 124.339844 12.222656 130.253906 10.105469 136.269531 8.28125 C 142.285156 6.457031 148.378906 4.929688 154.546875 3.703125 C 160.710938 2.476562 166.925781 1.554688 173.183594 0.9375 C 179.441406 0.324219 185.710938 0.015625 192 0.015625 C 198.289062 0.015625 204.558594 0.324219 210.816406 0.9375 C 217.074219 1.554688 223.289062 2.476562 229.453125 3.703125 C 235.621094 4.929688 241.714844 6.457031 247.730469 8.28125 C 253.746094 10.105469 259.660156 12.222656 265.46875 14.628906 C 271.277344 17.035156 276.957031 19.71875 282.5 22.683594 C 288.046875 25.648438 293.433594 28.875 298.660156 32.371094 C 303.890625 35.863281 308.933594 39.605469 313.792969 43.59375 C 318.65625 47.582031 323.308594 51.800781 327.753906 56.246094 C 332.199219 60.691406 336.417969 65.34375 340.40625 70.207031 C 344.394531 75.066406 348.136719 80.109375 351.628906 85.339844 C 355.125 90.566406 358.351562 95.953125 361.316406 101.5 C 364.28125 107.042969 366.964844 112.722656 369.371094 118.53125 C 371.777344 124.339844 373.894531 130.253906 375.71875 136.269531 C 377.542969 142.285156 379.070312 148.378906 380.296875 154.546875 C 381.523438 160.710938 382.445312 166.925781 383.0625 173.183594 C 383.675781 179.441406 383.984375 185.710938 383.984375 192 C 383.984375 198.289062 383.675781 204.558594 383.0625 210.816406 C 382.445312 217.074219 381.523438 223.289062 380.296875 229.453125 C 379.070312 235.621094 377.542969 241.714844 375.71875 247.730469 C 373.894531 253.746094 371.777344 259.660156 369.371094 265.46875 C 366.964844 271.277344 364.28125 276.957031 361.316406 282.5 C 358.351562 288.046875 355.125 293.433594 351.628906 298.660156 C 348.136719 303.890625 344.394531 308.933594 340.40625 313.792969 C 336.417969 318.65625 332.199219 323.308594 327.753906 327.753906 C 323.308594 332.199219 318.65625 336.417969 313.792969 340.40625 C 308.933594 344.394531 303.890625 348.136719 298.660156 351.628906 C 293.433594 355.125 288.046875 358.351562 282.5 361.316406 C 276.957031 364.28125 271.277344 366.964844 265.46875 369.371094 C 259.660156 371.777344 253.746094 373.894531 247.730469 375.71875 C 241.714844 377.542969 235.621094 379.070312 229.453125 380.296875 C 223.289062 381.523438 217.074219 382.445312 210.816406 383.0625 C 204.558594 383.675781 198.289062 383.984375 192 383.984375 C 185.710938 383.984375 179.441406 383.675781 173.183594 383.0625 C 166.925781 382.445312 160.710938 381.523438 154.546875 380.296875 C 148.378906 379.070312 142.285156 377.542969 136.269531 375.71875 C 130.253906 373.894531 124.339844 371.777344 118.53125 369.371094 C 112.722656 366.964844 107.042969 364.28125 101.5 361.316406 C 95.953125 358.351562 90.566406 355.125 85.339844 351.628906 C 80.109375 348.136719 75.066406 344.394531 70.207031 340.40625 C 65.34375 336.417969 60.691406 332.199219 56.246094 327.753906 C 51.800781 323.308594 47.582031 318.65625 43.59375 313.792969 C 39.605469 308.933594 35.863281 303.890625 32.371094 298.660156 C 28.875 293.433594 25.648438 288.046875 22.683594 282.5 C 19.71875 276.957031 17.035156 271.277344 14.628906 265.46875 C 12.222656 259.660156 10.105469 253.746094 8.28125 247.730469 C 6.457031 241.714844 4.929688 235.621094 3.703125 229.453125 C 2.476562 223.289062 1.554688 217.074219 0.9375 210.816406 C 0.324219 204.558594 0.015625 198.289062 0.015625 192 Z M 0.015625 192 " clip-rule="nonzero"/></clipPath><clipPath id="2031107a11"><path d="M 29 242 L 153 242 L 153 384 L 29 384 Z M 29 242 " clip-rule="nonzero"/></clipPath><clipPath id="59f349b17e"><path d="M 0.015625 192 C 0.015625 185.710938 0.324219 179.441406 0.9375 173.183594 C 1.554688 166.925781 2.476562 160.710938 3.703125 154.546875 C 4.929688 148.378906 6.457031 142.285156 8.28125 136.269531 C 10.105469 130.253906 12.222656 124.339844 14.628906 118.53125 C 17.035156 112.722656 19.71875 107.042969 22.683594 101.5 C 25.648438 95.953125 28.875 90.566406 32.371094 85.339844 C 35.863281 80.109375 39.605469 75.066406 43.59375 70.207031 C 47.582031 65.34375 51.800781 60.691406 56.246094 56.246094 C 60.691406 51.800781 65.34375 47.582031 70.207031 43.59375 C 75.066406 39.605469 80.109375 35.863281 85.339844 32.371094 C 90.566406 28.875 95.953125 25.648438 101.5 22.683594 C 107.042969 19.71875 112.722656 17.035156 118.53125 14.628906 C 124.339844 12.222656 130.253906 10.105469 136.269531 8.28125 C 142.285156 6.457031 148.378906 4.929688 154.546875 3.703125 C 160.710938 2.476562 166.925781 1.554688 173.183594 0.9375 C 179.441406 0.324219 185.710938 0.015625 192 0.015625 C 198.289062 0.015625 204.558594 0.324219 210.816406 0.9375 C 217.074219 1.554688 223.289062 2.476562 229.453125 3.703125 C 235.621094 4.929688 241.714844 6.457031 247.730469 8.28125 C 253.746094 10.105469 259.660156 12.222656 265.46875 14.628906 C 271.277344 17.035156 276.957031 19.71875 282.5 22.683594 C 288.046875 25.648438 293.433594 28.875 298.660156 32.371094 C 303.890625 35.863281 308.933594 39.605469 313.792969 43.59375 C 318.65625 47.582031 323.308594 51.800781 327.753906 56.246094 C 332.199219 60.691406 336.417969 65.34375 340.40625 70.207031 C 344.394531 75.066406 348.136719 80.109375 351.628906 85.339844 C 355.125 90.566406 358.351562 95.953125 361.316406 101.5 C 364.28125 107.042969 366.964844 112.722656 369.371094 118.53125 C 371.777344 124.339844 373.894531 130.253906 375.71875 136.269531 C 377.542969 142.285156 379.070312 148.378906 380.296875 154.546875 C 381.523438 160.710938 382.445312 166.925781 383.0625 173.183594 C 383.675781 179.441406 383.984375 185.710938 383.984375 192 C 383.984375 198.289062 383.675781 204.558594 383.0625 210.816406 C 382.445312 217.074219 381.523438 223.289062 380.296875 229.453125 C 379.070312 235.621094 377.542969 241.714844 375.71875 247.730469 C 373.894531 253.746094 371.777344 259.660156 369.371094 265.46875 C 366.964844 271.277344 364.28125 276.957031 361.316406 282.5 C 358.351562 288.046875 355.125 293.433594 351.628906 298.660156 C 348.136719 303.890625 344.394531 308.933594 340.40625 313.792969 C 336.417969 318.65625 332.199219 323.308594 327.753906 327.753906 C 323.308594 332.199219 318.65625 336.417969 313.792969 340.40625 C 308.933594 344.394531 303.890625 348.136719 298.660156 351.628906 C 293.433594 355.125 288.046875 358.351562 282.5 361.316406 C 276.957031 364.28125 271.277344 366.964844 265.46875 369.371094 C 259.660156 371.777344 253.746094 373.894531 247.730469 375.71875 C 241.714844 377.542969 235.621094 379.070312 229.453125 380.296875 C 223.289062 381.523438 217.074219 382.445312 210.816406 383.0625 C 204.558594 383.675781 198.289062 383.984375 192 383.984375 C 185.710938 383.984375 179.441406 383.675781 173.183594 383.0625 C 166.925781 382.445312 160.710938 381.523438 154.546875 380.296875 C 148.378906 379.070312 142.285156 377.542969 136.269531 375.71875 C 130.253906 373.894531 124.339844 371.777344 118.53125 369.371094 C 112.722656 366.964844 107.042969 364.28125 101.5 361.316406 C 95.953125 358.351562 90.566406 355.125 85.339844 351.628906 C 80.109375 348.136719 75.066406 344.394531 70.207031 340.40625 C 65.34375 336.417969 60.691406 332.199219 56.246094 327.753906 C 51.800781 323.308594 47.582031 318.65625 43.59375 313.792969 C 39.605469 308.933594 35.863281 303.890625 32.371094 298.660156 C 28.875 293.433594 25.648438 288.046875 22.683594 282.5 C 19.71875 276.957031 17.035156 271.277344 14.628906 265.46875 C 12.222656 259.660156 10.105469 253.746094 8.28125 247.730469 C 6.457031 241.714844 4.929688 235.621094 3.703125 229.453125 C 2.476562 223.289062 1.554688 217.074219 0.9375 210.816406 C 0.324219 204.558594 0.015625 198.289062 0.015625 192 Z M 0.015625 192 " clip-rule="nonzero"/></clipPath><clipPath id="da611d41a4"><path d="M 231 242 L 355 242 L 355 384 L 231 384 Z M 231 242 " clip-rule="nonzero"/></clipPath><clipPath id="cb15180953"><path d="M 0.015625 192 C 0.015625 185.710938 0.324219 179.441406 0.9375 173.183594 C 1.554688 166.925781 2.476562 160.710938 3.703125 154.546875 C 4.929688 148.378906 6.457031 142.285156 8.28125 136.269531 C 10.105469 130.253906 12.222656 124.339844 14.628906 118.53125 C 17.035156 112.722656 19.71875 107.042969 22.683594 101.5 C 25.648438 95.953125 28.875 90.566406 32.371094 85.339844 C 35.863281 80.109375 39.605469 75.066406 43.59375 70.207031 C 47.582031 65.34375 51.800781 60.691406 56.246094 56.246094 C 60.691406 51.800781 65.34375 47.582031 70.207031 43.59375 C 75.066406 39.605469 80.109375 35.863281 85.339844 32.371094 C 90.566406 28.875 95.953125 25.648438 101.5 22.683594 C 107.042969 19.71875 112.722656 17.035156 118.53125 14.628906 C 124.339844 12.222656 130.253906 10.105469 136.269531 8.28125 C 142.285156 6.457031 148.378906 4.929688 154.546875 3.703125 C 160.710938 2.476562 166.925781 1.554688 173.183594 0.9375 C 179.441406 0.324219 185.710938 0.015625 192 0.015625 C 198.289062 0.015625 204.558594 0.324219 210.816406 0.9375 C 217.074219 1.554688 223.289062 2.476562 229.453125 3.703125 C 235.621094 4.929688 241.714844 6.457031 247.730469 8.28125 C 253.746094 10.105469 259.660156 12.222656 265.46875 14.628906 C 271.277344 17.035156 276.957031 19.71875 282.5 22.683594 C 288.046875 25.648438 293.433594 28.875 298.660156 32.371094 C 303.890625 35.863281 308.933594 39.605469 313.792969 43.59375 C 318.65625 47.582031 323.308594 51.800781 327.753906 56.246094 C 332.199219 60.691406 336.417969 65.34375 340.40625 70.207031 C 344.394531 75.066406 348.136719 80.109375 351.628906 85.339844 C 355.125 90.566406 358.351562 95.953125 361.316406 101.5 C 364.28125 107.042969 366.964844 112.722656 369.371094 118.53125 C 371.777344 124.339844 373.894531 130.253906 375.71875 136.269531 C 377.542969 142.285156 379.070312 148.378906 380.296875 154.546875 C 381.523438 160.710938 382.445312 166.925781 383.0625 173.183594 C 383.675781 179.441406 383.984375 185.710938 383.984375 192 C 383.984375 198.289062 383.675781 204.558594 383.0625 210.816406 C 382.445312 217.074219 381.523438 223.289062 380.296875 229.453125 C 379.070312 235.621094 377.542969 241.714844 375.71875 247.730469 C 373.894531 253.746094 371.777344 259.660156 369.371094 265.46875 C 366.964844 271.277344 364.28125 276.957031 361.316406 282.5 C 358.351562 288.046875 355.125 293.433594 351.628906 298.660156 C 348.136719 303.890625 344.394531 308.933594 340.40625 313.792969 C 336.417969 318.65625 332.199219 323.308594 327.753906 327.753906 C 323.308594 332.199219 318.65625 336.417969 313.792969 340.40625 C 308.933594 344.394531 303.890625 348.136719 298.660156 351.628906 C 293.433594 355.125 288.046875 358.351562 282.5 361.316406 C 276.957031 364.28125 271.277344 366.964844 265.46875 369.371094 C 259.660156 371.777344 253.746094 373.894531 247.730469 375.71875 C 241.714844 377.542969 235.621094 379.070312 229.453125 380.296875 C 223.289062 381.523438 217.074219 382.445312 210.816406 383.0625 C 204.558594 383.675781 198.289062 383.984375 192 383.984375 C 185.710938 383.984375 179.441406 383.675781 173.183594 383.0625 C 166.925781 382.445312 160.710938 381.523438 154.546875 380.296875 C 148.378906 379.070312 142.285156 377.542969 136.269531 375.71875 C 130.253906 373.894531 124.339844 371.777344 118.53125 369.371094 C 112.722656 366.964844 107.042969 364.28125 101.5 361.316406 C 95.953125 358.351562 90.566406 355.125 85.339844 351.628906 C 80.109375 348.136719 75.066406 344.394531 70.207031 340.40625 C 65.34375 336.417969 60.691406 332.199219 56.246094 327.753906 C 51.800781 323.308594 47.582031 318.65625 43.59375 313.792969 C 39.605469 308.933594 35.863281 303.890625 32.371094 298.660156 C 28.875 293.433594 25.648438 288.046875 22.683594 282.5 C 19.71875 276.957031 17.035156 271.277344 14.628906 265.46875 C 12.222656 259.660156 10.105469 253.746094 8.28125 247.730469 C 6.457031 241.714844 4.929688 235.621094 3.703125 229.453125 C 2.476562 223.289062 1.554688 217.074219 0.9375 210.816406 C 0.324219 204.558594 0.015625 198.289062 0.015625 192 Z M 0.015625 192 " clip-rule="nonzero"/></clipPath><clipPath id="928feae440"><path d="M 111 236 L 155 236 L 155 384 L 111 384 Z M 111 236 " clip-rule="nonzero"/></clipPath><clipPath id="093bdbd437"><path d="M 0.015625 192 C 0.015625 185.710938 0.324219 179.441406 0.9375 173.183594 C 1.554688 166.925781 2.476562 160.710938 3.703125 154.546875 C 4.929688 148.378906 6.457031 142.285156 8.28125 136.269531 C 10.105469 130.253906 12.222656 124.339844 14.628906 118.53125 C 17.035156 112.722656 19.71875 107.042969 22.683594 101.5 C 25.648438 95.953125 28.875 90.566406 32.371094 85.339844 C 35.863281 80.109375 39.605469 75.066406 43.59375 70.207031 C 47.582031 65.34375 51.800781 60.691406 56.246094 56.246094 C 60.691406 51.800781 65.34375 47.582031 70.207031 43.59375 C 75.066406 39.605469 80.109375 35.863281 85.339844 32.371094 C 90.566406 28.875 95.953125 25.648438 101.5 22.683594 C 107.042969 19.71875 112.722656 17.035156 118.53125 14.628906 C 124.339844 12.222656 130.253906 10.105469 136.269531 8.28125 C 142.285156 6.457031 148.378906 4.929688 154.546875 3.703125 C 160.710938 2.476562 166.925781 1.554688 173.183594 0.9375 C 179.441406 0.324219 185.710938 0.015625 192 0.015625 C 198.289062 0.015625 204.558594 0.324219 210.816406 0.9375 C 217.074219 1.554688 223.289062 2.476562 229.453125 3.703125 C 235.621094 4.929688 241.714844 6.457031 247.730469 8.28125 C 253.746094 10.105469 259.660156 12.222656 265.46875 14.628906 C 271.277344 17.035156 276.957031 19.71875 282.5 22.683594 C 288.046875 25.648438 293.433594 28.875 298.660156 32.371094 C 303.890625 35.863281 308.933594 39.605469 313.792969 43.59375 C 318.65625 47.582031 323.308594 51.800781 327.753906 56.246094 C 332.199219 60.691406 336.417969 65.34375 340.40625 70.207031 C 344.394531 75.066406 348.136719 80.109375 351.628906 85.339844 C 355.125 90.566406 358.351562 95.953125 361.316406 101.5 C 364.28125 107.042969 366.964844 112.722656 369.371094 118.53125 C 371.777344 124.339844 373.894531 130.253906 375.71875 136.269531 C 377.542969 142.285156 379.070312 148.378906 380.296875 154.546875 C 381.523438 160.710938 382.445312 166.925781 383.0625 173.183594 C 383.675781 179.441406 383.984375 185.710938 383.984375 192 C 383.984375 198.289062 383.675781 204.558594 383.0625 210.816406 C 382.445312 217.074219 381.523438 223.289062 380.296875 229.453125 C 379.070312 235.621094 377.542969 241.714844 375.71875 247.730469 C 373.894531 253.746094 371.777344 259.660156 369.371094 265.46875 C 366.964844 271.277344 364.28125 276.957031 361.316406 282.5 C 358.351562 288.046875 355.125 293.433594 351.628906 298.660156 C 348.136719 303.890625 344.394531 308.933594 340.40625 313.792969 C 336.417969 318.65625 332.199219 323.308594 327.753906 327.753906 C 323.308594 332.199219 318.65625 336.417969 313.792969 340.40625 C 308.933594 344.394531 303.890625 348.136719 298.660156 351.628906 C 293.433594 355.125 288.046875 358.351562 282.5 361.316406 C 276.957031 364.28125 271.277344 366.964844 265.46875 369.371094 C 259.660156 371.777344 253.746094 373.894531 247.730469 375.71875 C 241.714844 377.542969 235.621094 379.070312 229.453125 380.296875 C 223.289062 381.523438 217.074219 382.445312 210.816406 383.0625 C 204.558594 383.675781 198.289062 383.984375 192 383.984375 C 185.710938 383.984375 179.441406 383.675781 173.183594 383.0625 C 166.925781 382.445312 160.710938 381.523438 154.546875 380.296875 C 148.378906 379.070312 142.285156 377.542969 136.269531 375.71875 C 130.253906 373.894531 124.339844 371.777344 118.53125 369.371094 C 112.722656 366.964844 107.042969 364.28125 101.5 361.316406 C 95.953125 358.351562 90.566406 355.125 85.339844 351.628906 C 80.109375 348.136719 75.066406 344.394531 70.207031 340.40625 C 65.34375 336.417969 60.691406 332.199219 56.246094 327.753906 C 51.800781 323.308594 47.582031 318.65625 43.59375 313.792969 C 39.605469 308.933594 35.863281 303.890625 32.371094 298.660156 C 28.875 293.433594 25.648438 288.046875 22.683594 282.5 C 19.71875 276.957031 17.035156 271.277344 14.628906 265.46875 C 12.222656 259.660156 10.105469 253.746094 8.28125 247.730469 C 6.457031 241.714844 4.929688 235.621094 3.703125 229.453125 C 2.476562 223.289062 1.554688 217.074219 0.9375 210.816406 C 0.324219 204.558594 0.015625 198.289062 0.015625 192 Z M 0.015625 192 " clip-rule="nonzero"/></clipPath><clipPath id="82654a287b"><path d="M 229 235 L 273 235 L 273 384 L 229 384 Z M 229 235 " clip-rule="nonzero"/></clipPath><clipPath id="ebc2dc8f67"><path d="M 0.015625 192 C 0.015625 185.710938 0.324219 179.441406 0.9375 173.183594 C 1.554688 166.925781 2.476562 160.710938 3.703125 154.546875 C 4.929688 148.378906 6.457031 142.285156 8.28125 136.269531 C 10.105469 130.253906 12.222656 124.339844 14.628906 118.53125 C 17.035156 112.722656 19.71875 107.042969 22.683594 101.5 C 25.648438 95.953125 28.875 90.566406 32.371094 85.339844 C 35.863281 80.109375 39.605469 75.066406 43.59375 70.207031 C 47.582031 65.34375 51.800781 60.691406 56.246094 56.246094 C 60.691406 51.800781 65.34375 47.582031 70.207031 43.59375 C 75.066406 39.605469 80.109375 35.863281 85.339844 32.371094 C 90.566406 28.875 95.953125 25.648438 101.5 22.683594 C 107.042969 19.71875 112.722656 17.035156 118.53125 14.628906 C 124.339844 12.222656 130.253906 10.105469 136.269531 8.28125 C 142.285156 6.457031 148.378906 4.929688 154.546875 3.703125 C 160.710938 2.476562 166.925781 1.554688 173.183594 0.9375 C 179.441406 0.324219 185.710938 0.015625 192 0.015625 C 198.289062 0.015625 204.558594 0.324219 210.816406 0.9375 C 217.074219 1.554688 223.289062 2.476562 229.453125 3.703125 C 235.621094 4.929688 241.714844 6.457031 247.730469 8.28125 C 253.746094 10.105469 259.660156 12.222656 265.46875 14.628906 C 271.277344 17.035156 276.957031 19.71875 282.5 22.683594 C 288.046875 25.648438 293.433594 28.875 298.660156 32.371094 C 303.890625 35.863281 308.933594 39.605469 313.792969 43.59375 C 318.65625 47.582031 323.308594 51.800781 327.753906 56.246094 C 332.199219 60.691406 336.417969 65.34375 340.40625 70.207031 C 344.394531 75.066406 348.136719 80.109375 351.628906 85.339844 C 355.125 90.566406 358.351562 95.953125 361.316406 101.5 C 364.28125 107.042969 366.964844 112.722656 369.371094 118.53125 C 371.777344 124.339844 373.894531 130.253906 375.71875 136.269531 C 377.542969 142.285156 379.070312 148.378906 380.296875 154.546875 C 381.523438 160.710938 382.445312 166.925781 383.0625 173.183594 C 383.675781 179.441406 383.984375 185.710938 383.984375 192 C 383.984375 198.289062 383.675781 204.558594 383.0625 210.816406 C 382.445312 217.074219 381.523438 223.289062 380.296875 229.453125 C 379.070312 235.621094 377.542969 241.714844 375.71875 247.730469 C 373.894531 253.746094 371.777344 259.660156 369.371094 265.46875 C 366.964844 271.277344 364.28125 276.957031 361.316406 282.5 C 358.351562 288.046875 355.125 293.433594 351.628906 298.660156 C 348.136719 303.890625 344.394531 308.933594 340.40625 313.792969 C 336.417969 318.65625 332.199219 323.308594 327.753906 327.753906 C 323.308594 332.199219 318.65625 336.417969 313.792969 340.40625 C 308.933594 344.394531 303.890625 348.136719 298.660156 351.628906 C 293.433594 355.125 288.046875 358.351562 282.5 361.316406 C 276.957031 364.28125 271.277344 366.964844 265.46875 369.371094 C 259.660156 371.777344 253.746094 373.894531 247.730469 375.71875 C 241.714844 377.542969 235.621094 379.070312 229.453125 380.296875 C 223.289062 381.523438 217.074219 382.445312 210.816406 383.0625 C 204.558594 383.675781 198.289062 383.984375 192 383.984375 C 185.710938 383.984375 179.441406 383.675781 173.183594 383.0625 C 166.925781 382.445312 160.710938 381.523438 154.546875 380.296875 C 148.378906 379.070312 142.285156 377.542969 136.269531 375.71875 C 130.253906 373.894531 124.339844 371.777344 118.53125 369.371094 C 112.722656 366.964844 107.042969 364.28125 101.5 361.316406 C 95.953125 358.351562 90.566406 355.125 85.339844 351.628906 C 80.109375 348.136719 75.066406 344.394531 70.207031 340.40625 C 65.34375 336.417969 60.691406 332.199219 56.246094 327.753906 C 51.800781 323.308594 47.582031 318.65625 43.59375 313.792969 C 39.605469 308.933594 35.863281 303.890625 32.371094 298.660156 C 28.875 293.433594 25.648438 288.046875 22.683594 282.5 C 19.71875 276.957031 17.035156 271.277344 14.628906 265.46875 C 12.222656 259.660156 10.105469 253.746094 8.28125 247.730469 C 6.457031 241.714844 4.929688 235.621094 3.703125 229.453125 C 2.476562 223.289062 1.554688 217.074219 0.9375 210.816406 C 0.324219 204.558594 0.015625 198.289062 0.015625 192 Z M 0.015625 192 " clip-rule="nonzero"/></clipPath><clipPath id="4e329a9228"><path d="M 151 186 L 233 186 L 233 280 L 151 280 Z M 151 186 " clip-rule="nonzero"/></clipPath><clipPath id="2c08e74712"><path d="M 0.015625 192 C 0.015625 185.710938 0.324219 179.441406 0.9375 173.183594 C 1.554688 166.925781 2.476562 160.710938 3.703125 154.546875 C 4.929688 148.378906 6.457031 142.285156 8.28125 136.269531 C 10.105469 130.253906 12.222656 124.339844 14.628906 118.53125 C 17.035156 112.722656 19.71875 107.042969 22.683594 101.5 C 25.648438 95.953125 28.875 90.566406 32.371094 85.339844 C 35.863281 80.109375 39.605469 75.066406 43.59375 70.207031 C 47.582031 65.34375 51.800781 60.691406 56.246094 56.246094 C 60.691406 51.800781 65.34375 47.582031 70.207031 43.59375 C 75.066406 39.605469 80.109375 35.863281 85.339844 32.371094 C 90.566406 28.875 95.953125 25.648438 101.5 22.683594 C 107.042969 19.71875 112.722656 17.035156 118.53125 14.628906 C 124.339844 12.222656 130.253906 10.105469 136.269531 8.28125 C 142.285156 6.457031 148.378906 4.929688 154.546875 3.703125 C 160.710938 2.476562 166.925781 1.554688 173.183594 0.9375 C 179.441406 0.324219 185.710938 0.015625 192 0.015625 C 198.289062 0.015625 204.558594 0.324219 210.816406 0.9375 C 217.074219 1.554688 223.289062 2.476562 229.453125 3.703125 C 235.621094 4.929688 241.714844 6.457031 247.730469 8.28125 C 253.746094 10.105469 259.660156 12.222656 265.46875 14.628906 C 271.277344 17.035156 276.957031 19.71875 282.5 22.683594 C 288.046875 25.648438 293.433594 28.875 298.660156 32.371094 C 303.890625 35.863281 308.933594 39.605469 313.792969 43.59375 C 318.65625 47.582031 323.308594 51.800781 327.753906 56.246094 C 332.199219 60.691406 336.417969 65.34375 340.40625 70.207031 C 344.394531 75.066406 348.136719 80.109375 351.628906 85.339844 C 355.125 90.566406 358.351562 95.953125 361.316406 101.5 C 364.28125 107.042969 366.964844 112.722656 369.371094 118.53125 C 371.777344 124.339844 373.894531 130.253906 375.71875 136.269531 C 377.542969 142.285156 379.070312 148.378906 380.296875 154.546875 C 381.523438 160.710938 382.445312 166.925781 383.0625 173.183594 C 383.675781 179.441406 383.984375 185.710938 383.984375 192 C 383.984375 198.289062 383.675781 204.558594 383.0625 210.816406 C 382.445312 217.074219 381.523438 223.289062 380.296875 229.453125 C 379.070312 235.621094 377.542969 241.714844 375.71875 247.730469 C 373.894531 253.746094 371.777344 259.660156 369.371094 265.46875 C 366.964844 271.277344 364.28125 276.957031 361.316406 282.5 C 358.351562 288.046875 355.125 293.433594 351.628906 298.660156 C 348.136719 303.890625 344.394531 308.933594 340.40625 313.792969 C 336.417969 318.65625 332.199219 323.308594 327.753906 327.753906 C 323.308594 332.199219 318.65625 336.417969 313.792969 340.40625 C 308.933594 344.394531 303.890625 348.136719 298.660156 351.628906 C 293.433594 355.125 288.046875 358.351562 282.5 361.316406 C 276.957031 364.28125 271.277344 366.964844 265.46875 369.371094 C 259.660156 371.777344 253.746094 373.894531 247.730469 375.71875 C 241.714844 377.542969 235.621094 379.070312 229.453125 380.296875 C 223.289062 381.523438 217.074219 382.445312 210.816406 383.0625 C 204.558594 383.675781 198.289062 383.984375 192 383.984375 C 185.710938 383.984375 179.441406 383.675781 173.183594 383.0625 C 166.925781 382.445312 160.710938 381.523438 154.546875 380.296875 C 148.378906 379.070312 142.285156 377.542969 136.269531 375.71875 C 130.253906 373.894531 124.339844 371.777344 118.53125 369.371094 C 112.722656 366.964844 107.042969 364.28125 101.5 361.316406 C 95.953125 358.351562 90.566406 355.125 85.339844 351.628906 C 80.109375 348.136719 75.066406 344.394531 70.207031 340.40625 C 65.34375 336.417969 60.691406 332.199219 56.246094 327.753906 C 51.800781 323.308594 47.582031 318.65625 43.59375 313.792969 C 39.605469 308.933594 35.863281 303.890625 32.371094 298.660156 C 28.875 293.433594 25.648438 288.046875 22.683594 282.5 C 19.71875 276.957031 17.035156 271.277344 14.628906 265.46875 C 12.222656 259.660156 10.105469 253.746094 8.28125 247.730469 C 6.457031 241.714844 4.929688 235.621094 3.703125 229.453125 C 2.476562 223.289062 1.554688 217.074219 0.9375 210.816406 C 0.324219 204.558594 0.015625 198.289062 0.015625 192 Z M 0.015625 192 " clip-rule="nonzero"/></clipPath><clipPath id="a543b0dd99"><path d="M 156 186 L 230 186 L 230 233 L 156 233 Z M 156 186 " clip-rule="nonzero"/></clipPath><clipPath id="5754402947"><path d="M 0.015625 192 C 0.015625 185.710938 0.324219 179.441406 0.9375 173.183594 C 1.554688 166.925781 2.476562 160.710938 3.703125 154.546875 C 4.929688 148.378906 6.457031 142.285156 8.28125 136.269531 C 10.105469 130.253906 12.222656 124.339844 14.628906 118.53125 C 17.035156 112.722656 19.71875 107.042969 22.683594 101.5 C 25.648438 95.953125 28.875 90.566406 32.371094 85.339844 C 35.863281 80.109375 39.605469 75.066406 43.59375 70.207031 C 47.582031 65.34375 51.800781 60.691406 56.246094 56.246094 C 60.691406 51.800781 65.34375 47.582031 70.207031 43.59375 C 75.066406 39.605469 80.109375 35.863281 85.339844 32.371094 C 90.566406 28.875 95.953125 25.648438 101.5 22.683594 C 107.042969 19.71875 112.722656 17.035156 118.53125 14.628906 C 124.339844 12.222656 130.253906 10.105469 136.269531 8.28125 C 142.285156 6.457031 148.378906 4.929688 154.546875 3.703125 C 160.710938 2.476562 166.925781 1.554688 173.183594 0.9375 C 179.441406 0.324219 185.710938 0.015625 192 0.015625 C 198.289062 0.015625 204.558594 0.324219 210.816406 0.9375 C 217.074219 1.554688 223.289062 2.476562 229.453125 3.703125 C 235.621094 4.929688 241.714844 6.457031 247.730469 8.28125 C 253.746094 10.105469 259.660156 12.222656 265.46875 14.628906 C 271.277344 17.035156 276.957031 19.71875 282.5 22.683594 C 288.046875 25.648438 293.433594 28.875 298.660156 32.371094 C 303.890625 35.863281 308.933594 39.605469 313.792969 43.59375 C 318.65625 47.582031 323.308594 51.800781 327.753906 56.246094 C 332.199219 60.691406 336.417969 65.34375 340.40625 70.207031 C 344.394531 75.066406 348.136719 80.109375 351.628906 85.339844 C 355.125 90.566406 358.351562 95.953125 361.316406 101.5 C 364.28125 107.042969 366.964844 112.722656 369.371094 118.53125 C 371.777344 124.339844 373.894531 130.253906 375.71875 136.269531 C 377.542969 142.285156 379.070312 148.378906 380.296875 154.546875 C 381.523438 160.710938 382.445312 166.925781 383.0625 173.183594 C 383.675781 179.441406 383.984375 185.710938 383.984375 192 C 383.984375 198.289062 383.675781 204.558594 383.0625 210.816406 C 382.445312 217.074219 381.523438 223.289062 380.296875 229.453125 C 379.070312 235.621094 377.542969 241.714844 375.71875 247.730469 C 373.894531 253.746094 371.777344 259.660156 369.371094 265.46875 C 366.964844 271.277344 364.28125 276.957031 361.316406 282.5 C 358.351562 288.046875 355.125 293.433594 351.628906 298.660156 C 348.136719 303.890625 344.394531 308.933594 340.40625 313.792969 C 336.417969 318.65625 332.199219 323.308594 327.753906 327.753906 C 323.308594 332.199219 318.65625 336.417969 313.792969 340.40625 C 308.933594 344.394531 303.890625 348.136719 298.660156 351.628906 C 293.433594 355.125 288.046875 358.351562 282.5 361.316406 C 276.957031 364.28125 271.277344 366.964844 265.46875 369.371094 C 259.660156 371.777344 253.746094 373.894531 247.730469 375.71875 C 241.714844 377.542969 235.621094 379.070312 229.453125 380.296875 C 223.289062 381.523438 217.074219 382.445312 210.816406 383.0625 C 204.558594 383.675781 198.289062 383.984375 192 383.984375 C 185.710938 383.984375 179.441406 383.675781 173.183594 383.0625 C 166.925781 382.445312 160.710938 381.523438 154.546875 380.296875 C 148.378906 379.070312 142.285156 377.542969 136.269531 375.71875 C 130.253906 373.894531 124.339844 371.777344 118.53125 369.371094 C 112.722656 366.964844 107.042969 364.28125 101.5 361.316406 C 95.953125 358.351562 90.566406 355.125 85.339844 351.628906 C 80.109375 348.136719 75.066406 344.394531 70.207031 340.40625 C 65.34375 336.417969 60.691406 332.199219 56.246094 327.753906 C 51.800781 323.308594 47.582031 318.65625 43.59375 313.792969 C 39.605469 308.933594 35.863281 303.890625 32.371094 298.660156 C 28.875 293.433594 25.648438 288.046875 22.683594 282.5 C 19.71875 276.957031 17.035156 271.277344 14.628906 265.46875 C 12.222656 259.660156 10.105469 253.746094 8.28125 247.730469 C 6.457031 241.714844 4.929688 235.621094 3.703125 229.453125 C 2.476562 223.289062 1.554688 217.074219 0.9375 210.816406 C 0.324219 204.558594 0.015625 198.289062 0.015625 192 Z M 0.015625 192 " clip-rule="nonzero"/></clipPath><clipPath id="f8ff641fb0"><path d="M 132 55 L 252 55 L 252 217 L 132 217 Z M 132 55 " clip-rule="nonzero"/></clipPath><clipPath id="3f6e803ed2"><path d="M 0.015625 192 C 0.015625 185.710938 0.324219 179.441406 0.9375 173.183594 C 1.554688 166.925781 2.476562 160.710938 3.703125 154.546875 C 4.929688 148.378906 6.457031 142.285156 8.28125 136.269531 C 10.105469 130.253906 12.222656 124.339844 14.628906 118.53125 C 17.035156 112.722656 19.71875 107.042969 22.683594 101.5 C 25.648438 95.953125 28.875 90.566406 32.371094 85.339844 C 35.863281 80.109375 39.605469 75.066406 43.59375 70.207031 C 47.582031 65.34375 51.800781 60.691406 56.246094 56.246094 C 60.691406 51.800781 65.34375 47.582031 70.207031 43.59375 C 75.066406 39.605469 80.109375 35.863281 85.339844 32.371094 C 90.566406 28.875 95.953125 25.648438 101.5 22.683594 C 107.042969 19.71875 112.722656 17.035156 118.53125 14.628906 C 124.339844 12.222656 130.253906 10.105469 136.269531 8.28125 C 142.285156 6.457031 148.378906 4.929688 154.546875 3.703125 C 160.710938 2.476562 166.925781 1.554688 173.183594 0.9375 C 179.441406 0.324219 185.710938 0.015625 192 0.015625 C 198.289062 0.015625 204.558594 0.324219 210.816406 0.9375 C 217.074219 1.554688 223.289062 2.476562 229.453125 3.703125 C 235.621094 4.929688 241.714844 6.457031 247.730469 8.28125 C 253.746094 10.105469 259.660156 12.222656 265.46875 14.628906 C 271.277344 17.035156 276.957031 19.71875 282.5 22.683594 C 288.046875 25.648438 293.433594 28.875 298.660156 32.371094 C 303.890625 35.863281 308.933594 39.605469 313.792969 43.59375 C 318.65625 47.582031 323.308594 51.800781 327.753906 56.246094 C 332.199219 60.691406 336.417969 65.34375 340.40625 70.207031 C 344.394531 75.066406 348.136719 80.109375 351.628906 85.339844 C 355.125 90.566406 358.351562 95.953125 361.316406 101.5 C 364.28125 107.042969 366.964844 112.722656 369.371094 118.53125 C 371.777344 124.339844 373.894531 130.253906 375.71875 136.269531 C 377.542969 142.285156 379.070312 148.378906 380.296875 154.546875 C 381.523438 160.710938 382.445312 166.925781 383.0625 173.183594 C 383.675781 179.441406 383.984375 185.710938 383.984375 192 C 383.984375 198.289062 383.675781 204.558594 383.0625 210.816406 C 382.445312 217.074219 381.523438 223.289062 380.296875 229.453125 C 379.070312 235.621094 377.542969 241.714844 375.71875 247.730469 C 373.894531 253.746094 371.777344 259.660156 369.371094 265.46875 C 366.964844 271.277344 364.28125 276.957031 361.316406 282.5 C 358.351562 288.046875 355.125 293.433594 351.628906 298.660156 C 348.136719 303.890625 344.394531 308.933594 340.40625 313.792969 C 336.417969 318.65625 332.199219 323.308594 327.753906 327.753906 C 323.308594 332.199219 318.65625 336.417969 313.792969 340.40625 C 308.933594 344.394531 303.890625 348.136719 298.660156 351.628906 C 293.433594 355.125 288.046875 358.351562 282.5 361.316406 C 276.957031 364.28125 271.277344 366.964844 265.46875 369.371094 C 259.660156 371.777344 253.746094 373.894531 247.730469 375.71875 C 241.714844 377.542969 235.621094 379.070312 229.453125 380.296875 C 223.289062 381.523438 217.074219 382.445312 210.816406 383.0625 C 204.558594 383.675781 198.289062 383.984375 192 383.984375 C 185.710938 383.984375 179.441406 383.675781 173.183594 383.0625 C 166.925781 382.445312 160.710938 381.523438 154.546875 380.296875 C 148.378906 379.070312 142.285156 377.542969 136.269531 375.71875 C 130.253906 373.894531 124.339844 371.777344 118.53125 369.371094 C 112.722656 366.964844 107.042969 364.28125 101.5 361.316406 C 95.953125 358.351562 90.566406 355.125 85.339844 351.628906 C 80.109375 348.136719 75.066406 344.394531 70.207031 340.40625 C 65.34375 336.417969 60.691406 332.199219 56.246094 327.753906 C 51.800781 323.308594 47.582031 318.65625 43.59375 313.792969 C 39.605469 308.933594 35.863281 303.890625 32.371094 298.660156 C 28.875 293.433594 25.648438 288.046875 22.683594 282.5 C 19.71875 276.957031 17.035156 271.277344 14.628906 265.46875 C 12.222656 259.660156 10.105469 253.746094 8.28125 247.730469 C 6.457031 241.714844 4.929688 235.621094 3.703125 229.453125 C 2.476562 223.289062 1.554688 217.074219 0.9375 210.816406 C 0.324219 204.558594 0.015625 198.289062 0.015625 192 Z M 0.015625 192 " clip-rule="nonzero"/></clipPath><clipPath id="34d4f92b6f"><path d="M 243 119 L 269 119 L 269 156 L 243 156 Z M 243 119 " clip-rule="nonzero"/></clipPath><clipPath id="a9925bfdbb"><path d="M 0.015625 192 C 0.015625 185.710938 0.324219 179.441406 0.9375 173.183594 C 1.554688 166.925781 2.476562 160.710938 3.703125 154.546875 C 4.929688 148.378906 6.457031 142.285156 8.28125 136.269531 C 10.105469 130.253906 12.222656 124.339844 14.628906 118.53125 C 17.035156 112.722656 19.71875 107.042969 22.683594 101.5 C 25.648438 95.953125 28.875 90.566406 32.371094 85.339844 C 35.863281 80.109375 39.605469 75.066406 43.59375 70.207031 C 47.582031 65.34375 51.800781 60.691406 56.246094 56.246094 C 60.691406 51.800781 65.34375 47.582031 70.207031 43.59375 C 75.066406 39.605469 80.109375 35.863281 85.339844 32.371094 C 90.566406 28.875 95.953125 25.648438 101.5 22.683594 C 107.042969 19.71875 112.722656 17.035156 118.53125 14.628906 C 124.339844 12.222656 130.253906 10.105469 136.269531 8.28125 C 142.285156 6.457031 148.378906 4.929688 154.546875 3.703125 C 160.710938 2.476562 166.925781 1.554688 173.183594 0.9375 C 179.441406 0.324219 185.710938 0.015625 192 0.015625 C 198.289062 0.015625 204.558594 0.324219 210.816406 0.9375 C 217.074219 1.554688 223.289062 2.476562 229.453125 3.703125 C 235.621094 4.929688 241.714844 6.457031 247.730469 8.28125 C 253.746094 10.105469 259.660156 12.222656 265.46875 14.628906 C 271.277344 17.035156 276.957031 19.71875 282.5 22.683594 C 288.046875 25.648438 293.433594 28.875 298.660156 32.371094 C 303.890625 35.863281 308.933594 39.605469 313.792969 43.59375 C 318.65625 47.582031 323.308594 51.800781 327.753906 56.246094 C 332.199219 60.691406 336.417969 65.34375 340.40625 70.207031 C 344.394531 75.066406 348.136719 80.109375 351.628906 85.339844 C 355.125 90.566406 358.351562 95.953125 361.316406 101.5 C 364.28125 107.042969 366.964844 112.722656 369.371094 118.53125 C 371.777344 124.339844 373.894531 130.253906 375.71875 136.269531 C 377.542969 142.285156 379.070312 148.378906 380.296875 154.546875 C 381.523438 160.710938 382.445312 166.925781 383.0625 173.183594 C 383.675781 179.441406 383.984375 185.710938 383.984375 192 C 383.984375 198.289062 383.675781 204.558594 383.0625 210.816406 C 382.445312 217.074219 381.523438 223.289062 380.296875 229.453125 C 379.070312 235.621094 377.542969 241.714844 375.71875 247.730469 C 373.894531 253.746094 371.777344 259.660156 369.371094 265.46875 C 366.964844 271.277344 364.28125 276.957031 361.316406 282.5 C 358.351562 288.046875 355.125 293.433594 351.628906 298.660156 C 348.136719 303.890625 344.394531 308.933594 340.40625 313.792969 C 336.417969 318.65625 332.199219 323.308594 327.753906 327.753906 C 323.308594 332.199219 318.65625 336.417969 313.792969 340.40625 C 308.933594 344.394531 303.890625 348.136719 298.660156 351.628906 C 293.433594 355.125 288.046875 358.351562 282.5 361.316406 C 276.957031 364.28125 271.277344 366.964844 265.46875 369.371094 C 259.660156 371.777344 253.746094 373.894531 247.730469 375.71875 C 241.714844 377.542969 235.621094 379.070312 229.453125 380.296875 C 223.289062 381.523438 217.074219 382.445312 210.816406 383.0625 C 204.558594 383.675781 198.289062 383.984375 192 383.984375 C 185.710938 383.984375 179.441406 383.675781 173.183594 383.0625 C 166.925781 382.445312 160.710938 381.523438 154.546875 380.296875 C 148.378906 379.070312 142.285156 377.542969 136.269531 375.71875 C 130.253906 373.894531 124.339844 371.777344 118.53125 369.371094 C 112.722656 366.964844 107.042969 364.28125 101.5 361.316406 C 95.953125 358.351562 90.566406 355.125 85.339844 351.628906 C 80.109375 348.136719 75.066406 344.394531 70.207031 340.40625 C 65.34375 336.417969 60.691406 332.199219 56.246094 327.753906 C 51.800781 323.308594 47.582031 318.65625 43.59375 313.792969 C 39.605469 308.933594 35.863281 303.890625 32.371094 298.660156 C 28.875 293.433594 25.648438 288.046875 22.683594 282.5 C 19.71875 276.957031 17.035156 271.277344 14.628906 265.46875 C 12.222656 259.660156 10.105469 253.746094 8.28125 247.730469 C 6.457031 241.714844 4.929688 235.621094 3.703125 229.453125 C 2.476562 223.289062 1.554688 217.074219 0.9375 210.816406 C 0.324219 204.558594 0.015625 198.289062 0.015625 192 Z M 0.015625 192 " clip-rule="nonzero"/></clipPath><clipPath id="6fc72237c7"><path d="M 115 119 L 142 119 L 142 156 L 115 156 Z M 115 119 " clip-rule="nonzero"/></clipPath><clipPath id="ba8ebdfcc9"><path d="M 0.015625 192 C 0.015625 185.710938 0.324219 179.441406 0.9375 173.183594 C 1.554688 166.925781 2.476562 160.710938 3.703125 154.546875 C 4.929688 148.378906 6.457031 142.285156 8.28125 136.269531 C 10.105469 130.253906 12.222656 124.339844 14.628906 118.53125 C 17.035156 112.722656 19.71875 107.042969 22.683594 101.5 C 25.648438 95.953125 28.875 90.566406 32.371094 85.339844 C 35.863281 80.109375 39.605469 75.066406 43.59375 70.207031 C 47.582031 65.34375 51.800781 60.691406 56.246094 56.246094 C 60.691406 51.800781 65.34375 47.582031 70.207031 43.59375 C 75.066406 39.605469 80.109375 35.863281 85.339844 32.371094 C 90.566406 28.875 95.953125 25.648438 101.5 22.683594 C 107.042969 19.71875 112.722656 17.035156 118.53125 14.628906 C 124.339844 12.222656 130.253906 10.105469 136.269531 8.28125 C 142.285156 6.457031 148.378906 4.929688 154.546875 3.703125 C 160.710938 2.476562 166.925781 1.554688 173.183594 0.9375 C 179.441406 0.324219 185.710938 0.015625 192 0.015625 C 198.289062 0.015625 204.558594 0.324219 210.816406 0.9375 C 217.074219 1.554688 223.289062 2.476562 229.453125 3.703125 C 235.621094 4.929688 241.714844 6.457031 247.730469 8.28125 C 253.746094 10.105469 259.660156 12.222656 265.46875 14.628906 C 271.277344 17.035156 276.957031 19.71875 282.5 22.683594 C 288.046875 25.648438 293.433594 28.875 298.660156 32.371094 C 303.890625 35.863281 308.933594 39.605469 313.792969 43.59375 C 318.65625 47.582031 323.308594 51.800781 327.753906 56.246094 C 332.199219 60.691406 336.417969 65.34375 340.40625 70.207031 C 344.394531 75.066406 348.136719 80.109375 351.628906 85.339844 C 355.125 90.566406 358.351562 95.953125 361.316406 101.5 C 364.28125 107.042969 366.964844 112.722656 369.371094 118.53125 C 371.777344 124.339844 373.894531 130.253906 375.71875 136.269531 C 377.542969 142.285156 379.070312 148.378906 380.296875 154.546875 C 381.523438 160.710938 382.445312 166.925781 383.0625 173.183594 C 383.675781 179.441406 383.984375 185.710938 383.984375 192 C 383.984375 198.289062 383.675781 204.558594 383.0625 210.816406 C 382.445312 217.074219 381.523438 223.289062 380.296875 229.453125 C 379.070312 235.621094 377.542969 241.714844 375.71875 247.730469 C 373.894531 253.746094 371.777344 259.660156 369.371094 265.46875 C 366.964844 271.277344 364.28125 276.957031 361.316406 282.5 C 358.351562 288.046875 355.125 293.433594 351.628906 298.660156 C 348.136719 303.890625 344.394531 308.933594 340.40625 313.792969 C 336.417969 318.65625 332.199219 323.308594 327.753906 327.753906 C 323.308594 332.199219 318.65625 336.417969 313.792969 340.40625 C 308.933594 344.394531 303.890625 348.136719 298.660156 351.628906 C 293.433594 355.125 288.046875 358.351562 282.5 361.316406 C 276.957031 364.28125 271.277344 366.964844 265.46875 369.371094 C 259.660156 371.777344 253.746094 373.894531 247.730469 375.71875 C 241.714844 377.542969 235.621094 379.070312 229.453125 380.296875 C 223.289062 381.523438 217.074219 382.445312 210.816406 383.0625 C 204.558594 383.675781 198.289062 383.984375 192 383.984375 C 185.710938 383.984375 179.441406 383.675781 173.183594 383.0625 C 166.925781 382.445312 160.710938 381.523438 154.546875 380.296875 C 148.378906 379.070312 142.285156 377.542969 136.269531 375.71875 C 130.253906 373.894531 124.339844 371.777344 118.53125 369.371094 C 112.722656 366.964844 107.042969 364.28125 101.5 361.316406 C 95.953125 358.351562 90.566406 355.125 85.339844 351.628906 C 80.109375 348.136719 75.066406 344.394531 70.207031 340.40625 C 65.34375 336.417969 60.691406 332.199219 56.246094 327.753906 C 51.800781 323.308594 47.582031 318.65625 43.59375 313.792969 C 39.605469 308.933594 35.863281 303.890625 32.371094 298.660156 C 28.875 293.433594 25.648438 288.046875 22.683594 282.5 C 19.71875 276.957031 17.035156 271.277344 14.628906 265.46875 C 12.222656 259.660156 10.105469 253.746094 8.28125 247.730469 C 6.457031 241.714844 4.929688 235.621094 3.703125 229.453125 C 2.476562 223.289062 1.554688 217.074219 0.9375 210.816406 C 0.324219 204.558594 0.015625 198.289062 0.015625 192 Z M 0.015625 192 " clip-rule="nonzero"/></clipPath><clipPath id="9c6c48de30"><path d="M 121 26 L 262 26 L 262 130 L 121 130 Z M 121 26 " clip-rule="nonzero"/></clipPath><clipPath id="e058f25b11"><path d="M 0.015625 192 C 0.015625 185.710938 0.324219 179.441406 0.9375 173.183594 C 1.554688 166.925781 2.476562 160.710938 3.703125 154.546875 C 4.929688 148.378906 6.457031 142.285156 8.28125 136.269531 C 10.105469 130.253906 12.222656 124.339844 14.628906 118.53125 C 17.035156 112.722656 19.71875 107.042969 22.683594 101.5 C 25.648438 95.953125 28.875 90.566406 32.371094 85.339844 C 35.863281 80.109375 39.605469 75.066406 43.59375 70.207031 C 47.582031 65.34375 51.800781 60.691406 56.246094 56.246094 C 60.691406 51.800781 65.34375 47.582031 70.207031 43.59375 C 75.066406 39.605469 80.109375 35.863281 85.339844 32.371094 C 90.566406 28.875 95.953125 25.648438 101.5 22.683594 C 107.042969 19.71875 112.722656 17.035156 118.53125 14.628906 C 124.339844 12.222656 130.253906 10.105469 136.269531 8.28125 C 142.285156 6.457031 148.378906 4.929688 154.546875 3.703125 C 160.710938 2.476562 166.925781 1.554688 173.183594 0.9375 C 179.441406 0.324219 185.710938 0.015625 192 0.015625 C 198.289062 0.015625 204.558594 0.324219 210.816406 0.9375 C 217.074219 1.554688 223.289062 2.476562 229.453125 3.703125 C 235.621094 4.929688 241.714844 6.457031 247.730469 8.28125 C 253.746094 10.105469 259.660156 12.222656 265.46875 14.628906 C 271.277344 17.035156 276.957031 19.71875 282.5 22.683594 C 288.046875 25.648438 293.433594 28.875 298.660156 32.371094 C 303.890625 35.863281 308.933594 39.605469 313.792969 43.59375 C 318.65625 47.582031 323.308594 51.800781 327.753906 56.246094 C 332.199219 60.691406 336.417969 65.34375 340.40625 70.207031 C 344.394531 75.066406 348.136719 80.109375 351.628906 85.339844 C 355.125 90.566406 358.351562 95.953125 361.316406 101.5 C 364.28125 107.042969 366.964844 112.722656 369.371094 118.53125 C 371.777344 124.339844 373.894531 130.253906 375.71875 136.269531 C 377.542969 142.285156 379.070312 148.378906 380.296875 154.546875 C 381.523438 160.710938 382.445312 166.925781 383.0625 173.183594 C 383.675781 179.441406 383.984375 185.710938 383.984375 192 C 383.984375 198.289062 383.675781 204.558594 383.0625 210.816406 C 382.445312 217.074219 381.523438 223.289062 380.296875 229.453125 C 379.070312 235.621094 377.542969 241.714844 375.71875 247.730469 C 373.894531 253.746094 371.777344 259.660156 369.371094 265.46875 C 366.964844 271.277344 364.28125 276.957031 361.316406 282.5 C 358.351562 288.046875 355.125 293.433594 351.628906 298.660156 C 348.136719 303.890625 344.394531 308.933594 340.40625 313.792969 C 336.417969 318.65625 332.199219 323.308594 327.753906 327.753906 C 323.308594 332.199219 318.65625 336.417969 313.792969 340.40625 C 308.933594 344.394531 303.890625 348.136719 298.660156 351.628906 C 293.433594 355.125 288.046875 358.351562 282.5 361.316406 C 276.957031 364.28125 271.277344 366.964844 265.46875 369.371094 C 259.660156 371.777344 253.746094 373.894531 247.730469 375.71875 C 241.714844 377.542969 235.621094 379.070312 229.453125 380.296875 C 223.289062 381.523438 217.074219 382.445312 210.816406 383.0625 C 204.558594 383.675781 198.289062 383.984375 192 383.984375 C 185.710938 383.984375 179.441406 383.675781 173.183594 383.0625 C 166.925781 382.445312 160.710938 381.523438 154.546875 380.296875 C 148.378906 379.070312 142.285156 377.542969 136.269531 375.71875 C 130.253906 373.894531 124.339844 371.777344 118.53125 369.371094 C 112.722656 366.964844 107.042969 364.28125 101.5 361.316406 C 95.953125 358.351562 90.566406 355.125 85.339844 351.628906 C 80.109375 348.136719 75.066406 344.394531 70.207031 340.40625 C 65.34375 336.417969 60.691406 332.199219 56.246094 327.753906 C 51.800781 323.308594 47.582031 318.65625 43.59375 313.792969 C 39.605469 308.933594 35.863281 303.890625 32.371094 298.660156 C 28.875 293.433594 25.648438 288.046875 22.683594 282.5 C 19.71875 276.957031 17.035156 271.277344 14.628906 265.46875 C 12.222656 259.660156 10.105469 253.746094 8.28125 247.730469 C 6.457031 241.714844 4.929688 235.621094 3.703125 229.453125 C 2.476562 223.289062 1.554688 217.074219 0.9375 210.816406 C 0.324219 204.558594 0.015625 198.289062 0.015625 192 Z M 0.015625 192 " clip-rule="nonzero"/></clipPath></defs><rect x="-38.4" width="460.8" fill="#ffffff" y="-38.399999" height="460.799983" fill-opacity="1"/><rect x="-38.4" width="460.8" fill="#ffffff" y="-38.399999" height="460.799983" fill-opacity="1"/><g clip-path="url(#0e9ee7cfe3)"><path fill="#69a0f9" d="M 383.984375 192 C 383.984375 195.140625 383.910156 198.28125 383.753906 201.421875 C 383.601562 204.558594 383.367188 207.691406 383.0625 210.816406 C 382.753906 213.945312 382.367188 217.0625 381.90625 220.171875 C 381.445312 223.277344 380.910156 226.371094 380.296875 229.453125 C 379.683594 232.535156 378.996094 235.601562 378.230469 238.648438 C 377.46875 241.695312 376.628906 244.722656 375.71875 247.730469 C 374.804688 250.738281 373.820312 253.71875 372.761719 256.679688 C 371.703125 259.636719 370.574219 262.566406 369.371094 265.46875 C 368.167969 268.371094 366.894531 271.242188 365.550781 274.085938 C 364.210938 276.925781 362.796875 279.730469 361.316406 282.5 C 359.835938 285.273438 358.285156 288.003906 356.671875 290.699219 C 355.054688 293.394531 353.375 296.046875 351.628906 298.660156 C 349.882812 301.273438 348.074219 303.84375 346.203125 306.367188 C 344.332031 308.890625 342.398438 311.367188 340.40625 313.792969 C 338.414062 316.222656 336.363281 318.601562 334.25 320.929688 C 332.140625 323.257812 329.976562 325.53125 327.753906 327.753906 C 325.53125 329.976562 323.257812 332.140625 320.929688 334.25 C 318.601562 336.363281 316.222656 338.414062 313.792969 340.40625 C 311.367188 342.398438 308.890625 344.332031 306.367188 346.203125 C 303.84375 348.074219 301.273438 349.882812 298.660156 351.628906 C 296.046875 353.375 293.394531 355.054688 290.699219 356.671875 C 288.003906 358.285156 285.273438 359.835938 282.5 361.316406 C 279.730469 362.796875 276.925781 364.210938 274.085938 365.550781 C 271.242188 366.894531 268.371094 368.167969 265.46875 369.371094 C 262.566406 370.574219 259.636719 371.703125 256.679688 372.761719 C 253.71875 373.820312 250.738281 374.804688 247.730469 375.71875 C 244.722656 376.628906 241.695312 377.46875 238.648438 378.230469 C 235.601562 378.996094 232.535156 379.683594 229.453125 380.296875 C 226.371094 380.910156 223.277344 381.445312 220.171875 381.90625 C 217.0625 382.367188 213.945312 382.753906 210.816406 383.0625 C 207.691406 383.367188 204.558594 383.601562 201.421875 383.753906 C 198.28125 383.910156 195.140625 383.984375 192 383.984375 C 188.859375 383.984375 185.71875 383.910156 182.578125 383.753906 C 179.441406 383.601562 176.308594 383.367188 173.183594 383.0625 C 170.054688 382.753906 166.9375 382.367188 163.828125 381.90625 C 160.722656 381.445312 157.628906 380.910156 154.546875 380.296875 C 151.464844 379.683594 148.398438 378.996094 145.351562 378.230469 C 142.304688 377.46875 139.277344 376.628906 136.269531 375.71875 C 133.261719 374.804688 130.28125 373.820312 127.320312 372.761719 C 124.363281 371.703125 121.433594 370.574219 118.53125 369.371094 C 115.628906 368.167969 112.757812 366.894531 109.914062 365.550781 C 107.074219 364.210938 104.269531 362.796875 101.5 361.316406 C 98.726562 359.835938 95.996094 358.285156 93.300781 356.671875 C 90.605469 355.054688 87.949219 353.375 85.339844 351.628906 C 82.726562 349.882812 80.15625 348.074219 77.632812 346.203125 C 75.109375 344.332031 72.632812 342.398438 70.207031 340.40625 C 67.777344 338.414062 65.398438 336.363281 63.070312 334.25 C 60.742188 332.140625 58.46875 329.976562 56.246094 327.753906 C 54.023438 325.53125 51.859375 323.257812 49.75 320.929688 C 47.636719 318.601562 45.585938 316.222656 43.59375 313.792969 C 41.601562 311.367188 39.667969 308.890625 37.796875 306.367188 C 35.925781 303.84375 34.117188 301.273438 32.371094 298.660156 C 30.625 296.046875 28.945312 293.394531 27.328125 290.699219 C 25.714844 288.003906 24.164062 285.273438 22.683594 282.5 C 21.203125 279.730469 19.789062 276.925781 18.445312 274.085938 C 17.105469 271.242188 15.832031 268.371094 14.628906 265.46875 C 13.425781 262.566406 12.296875 259.636719 11.238281 256.679688 C 10.179688 253.71875 9.195312 250.738281 8.28125 247.730469 C 7.371094 244.722656 6.53125 241.695312 5.769531 238.648438 C 5.003906 235.601562 4.316406 232.535156 3.703125 229.453125 C 3.089844 226.371094 2.554688 223.277344 2.09375 220.171875 C 1.632812 217.0625 1.246094 213.945312 0.9375 210.816406 C 0.632812 207.691406 0.398438 204.558594 0.246094 201.421875 C 0.0898438 198.28125 0.015625 195.140625 0.015625 192 C 0.015625 188.859375 0.0898438 185.71875 0.246094 182.578125 C 0.398438 179.441406 0.632812 176.308594 0.9375 173.183594 C 1.246094 170.054688 1.632812 166.9375 2.09375 163.828125 C 2.554688 160.722656 3.089844 157.628906 3.703125 154.546875 C 4.316406 151.464844 5.003906 148.398438 5.769531 145.351562 C 6.53125 142.304688 7.371094 139.277344 8.28125 136.269531 C 9.195312 133.261719 10.179688 130.28125 11.238281 127.320312 C 12.296875 124.363281 13.425781 121.433594 14.628906 118.53125 C 15.832031 115.628906 17.105469 112.757812 18.445312 109.914062 C 19.789062 107.074219 21.203125 104.269531 22.683594 101.5 C 24.164062 98.726562 25.714844 95.996094 27.328125 93.300781 C 28.945312 90.605469 30.625 87.949219 32.371094 85.339844 C 34.117188 82.726562 35.925781 80.15625 37.796875 77.632812 C 39.667969 75.109375 41.601562 72.632812 43.59375 70.207031 C 45.585938 67.777344 47.636719 65.398438 49.75 63.070312 C 51.859375 60.742188 54.023438 58.46875 56.246094 56.246094 C 58.46875 54.023438 60.742188 51.859375 63.070312 49.75 C 65.398438 47.636719 67.777344 45.585938 70.207031 43.59375 C 72.632812 41.601562 75.109375 39.667969 77.632812 37.796875 C 80.15625 35.925781 82.726562 34.117188 85.339844 32.371094 C 87.949219 30.625 90.605469 28.945312 93.300781 27.328125 C 95.996094 25.714844 98.726562 24.164062 101.5 22.683594 C 104.269531 21.203125 107.074219 19.789062 109.914062 18.445312 C 112.757812 17.105469 115.628906 15.832031 118.53125 14.628906 C 121.433594 13.425781 124.363281 12.296875 127.320312 11.238281 C 130.28125 10.179688 133.261719 9.195312 136.269531 8.28125 C 139.277344 7.371094 142.304688 6.53125 145.351562 5.769531 C 148.398438 5.003906 151.464844 4.316406 154.546875 3.703125 C 157.628906 3.089844 160.722656 2.554688 163.828125 2.09375 C 166.9375 1.632812 170.054688 1.246094 173.183594 0.9375 C 176.308594 0.632812 179.441406 0.398438 182.578125 0.246094 C 185.71875 0.0898438 188.859375 0.015625 192 0.015625 C 195.140625 0.015625 198.28125 0.0898438 201.421875 0.246094 C 204.558594 0.398438 207.691406 0.632812 210.816406 0.9375 C 213.945312 1.246094 217.0625 1.632812 220.171875 2.09375 C 223.277344 2.554688 226.371094 3.089844 229.453125 3.703125 C 232.535156 4.316406 235.601562 5.003906 238.648438 5.769531 C 241.695312 6.53125 244.722656 7.371094 247.730469 8.28125 C 250.738281 9.195312 253.71875 10.179688 256.679688 11.238281 C 259.636719 12.296875 262.566406 13.425781 265.46875 14.628906 C 268.371094 15.832031 271.242188 17.105469 274.085938 18.445312 C 276.925781 19.789062 279.730469 21.203125 282.5 22.683594 C 285.273438 24.164062 288.003906 25.714844 290.699219 27.328125 C 293.394531 28.945312 296.046875 30.625 298.660156 32.371094 C 301.273438 34.117188 303.84375 35.925781 306.367188 37.796875 C 308.890625 39.667969 311.367188 41.601562 313.792969 43.59375 C 316.222656 45.585938 318.601562 47.636719 320.929688 49.75 C 323.257812 51.859375 325.53125 54.023438 327.753906 56.246094 C 329.976562 58.46875 332.140625 60.742188 334.25 63.070312 C 336.363281 65.398438 338.414062 67.777344 340.40625 70.207031 C 342.398438 72.632812 344.332031 75.109375 346.203125 77.632812 C 348.074219 80.15625 349.882812 82.726562 351.628906 85.339844 C 353.375 87.949219 355.054688 90.605469 356.671875 93.300781 C 358.285156 95.996094 359.835938 98.726562 361.316406 101.5 C 362.796875 104.269531 364.210938 107.074219 365.550781 109.914062 C 366.894531 112.757812 368.167969 115.628906 369.371094 118.53125 C 370.574219 121.433594 371.703125 124.363281 372.761719 127.320312 C 373.820312 130.28125 374.804688 133.261719 375.71875 136.269531 C 376.628906 139.277344 377.46875 142.304688 378.230469 145.351562 C 378.996094 148.398438 379.683594 151.464844 380.296875 154.546875 C 380.910156 157.628906 381.445312 160.722656 381.90625 163.828125 C 382.367188 166.9375 382.753906 170.054688 383.0625 173.183594 C 383.367188 176.308594 383.601562 179.441406 383.753906 182.578125 C 383.910156 185.71875 383.984375 188.859375 383.984375 192 Z M 383.984375 192 " fill-opacity="1" fill-rule="nonzero"/></g><g clip-path="url(#32c64b2de7)"><g clip-path="url(#f3702e2698)"><path fill="#fbc6a2" d="M 152.988281 242.308594 C 132.589844 247.03125 108.179688 254.460938 81.804688 266.457031 C 61.609375 275.640625 44.339844 285.648438 29.996094 295.125 L 29.996094 408.453125 L 354.003906 408.453125 L 354.003906 295.125 C 339.65625 285.648438 322.386719 275.640625 302.191406 266.457031 C 275.816406 254.460938 251.40625 247.03125 231.011719 242.308594 C 227.160156 245.394531 211.082031 257.546875 188.011719 256.066406 C 169.792969 254.902344 157.417969 245.890625 152.984375 242.308594 Z M 152.988281 242.308594 " fill-opacity="1" fill-rule="nonzero"/></g></g><g clip-path="url(#4e17e4cc8a)"><g clip-path="url(#dd8d689db1)"><path fill="#ec7054" d="M 251.902344 408.453125 L 132.566406 408.453125 L 148.152344 285.519531 C 157.371094 290.238281 173.515625 296.605469 194.183594 296.035156 C 213.121094 295.527344 227.734375 289.453125 236.242188 284.9375 Z M 251.902344 408.453125 " fill-opacity="1" fill-rule="nonzero"/></g></g><g clip-path="url(#2031107a11)"><g clip-path="url(#59f349b17e)"><path fill="#243d6b" d="M 152.988281 242.3125 L 143.226562 282.824219 C 144.539062 283.597656 146.183594 284.527344 148.152344 285.519531 L 132.566406 408.453125 L 29.996094 408.453125 L 29.996094 295.117188 C 44.34375 285.648438 61.605469 275.640625 81.8125 266.449219 C 104.929688 255.933594 126.546875 248.925781 145.265625 244.175781 C 147.902344 243.519531 150.484375 242.894531 152.988281 242.3125 Z M 152.988281 242.3125 " fill-opacity="1" fill-rule="nonzero"/></g></g><g clip-path="url(#da611d41a4)"><g clip-path="url(#cb15180953)"><path fill="#243d6b" d="M 354.003906 295.117188 L 354.003906 408.453125 L 251.902344 408.453125 L 236.242188 284.9375 C 237.683594 284.179688 238.949219 283.464844 240.027344 282.824219 C 237.011719 269.320312 234.011719 255.816406 231.011719 242.3125 C 234.1875 243.039062 237.464844 243.839844 240.832031 244.730469 C 259.070312 249.464844 279.929688 256.324219 302.1875 266.449219 C 322.394531 275.640625 339.65625 285.648438 354.003906 295.117188 Z M 354.003906 295.117188 " fill-opacity="1" fill-rule="nonzero"/></g></g><g clip-path="url(#928feae440)"><g clip-path="url(#093bdbd437)"><path fill="#14294c" d="M 154.53125 236.585938 L 148.152344 286.886719 L 132.566406 409.824219 L 131.777344 416.027344 L 129.753906 409.824219 L 111.921875 355.019531 L 138.273438 327.210938 L 119.148438 314.578125 L 132.871094 257.535156 L 145.265625 245.542969 Z M 154.53125 236.585938 " fill-opacity="1" fill-rule="nonzero"/></g></g><g clip-path="url(#82654a287b)"><g clip-path="url(#ebc2dc8f67)"><path fill="#14294c" d="M 272.144531 353.855469 L 253.9375 409.824219 L 252.289062 414.878906 L 251.648438 409.824219 L 235.988281 286.304688 L 229.550781 235.433594 L 240.578125 246.097656 L 251.210938 256.367188 L 264.921875 313.429688 L 245.792969 326.058594 Z M 272.144531 353.855469 " fill-opacity="1" fill-rule="nonzero"/></g></g><g clip-path="url(#4e329a9228)"><g clip-path="url(#2c08e74712)"><path fill="#fbc6a2" d="M 232.484375 264.285156 C 228.828125 267.425781 214.257812 279.246094 192.214844 279.277344 C 170.058594 279.308594 155.40625 267.410156 151.765625 264.285156 C 153.390625 245.078125 155.019531 225.851562 156.644531 206.640625 C 157.207031 199.894531 157.789062 193.148438 158.351562 186.402344 L 225.898438 186.402344 L 229.8125 232.695312 Z M 232.484375 264.285156 " fill-opacity="1" fill-rule="nonzero"/></g></g><g clip-path="url(#a543b0dd99)"><g clip-path="url(#5754402947)"><path fill="#c2686b" d="M 229.8125 232.695312 C 197.140625 231.183594 173.441406 219.910156 156.644531 206.644531 C 157.207031 199.898438 157.789062 193.148438 158.351562 186.402344 L 225.898438 186.402344 Z M 229.8125 232.695312 " fill-opacity="1" fill-rule="nonzero"/></g></g><g clip-path="url(#f8ff641fb0)"><g clip-path="url(#3f6e803ed2)"><path fill="#fbc6a2" d="M 220.816406 204.753906 L 220.105469 205.363281 C 203.164062 219.886719 178.078125 219.570312 161.511719 204.625 C 143.050781 187.972656 132.515625 164.277344 132.515625 139.417969 L 132.515625 115.460938 C 132.515625 82.609375 159.144531 55.980469 191.996094 55.980469 C 224.84375 55.980469 251.472656 82.609375 251.472656 115.460938 L 251.472656 138.085938 C 251.472656 163.71875 240.273438 188.070312 220.816406 204.753906 Z M 220.816406 204.753906 " fill-opacity="1" fill-rule="nonzero"/></g></g><g clip-path="url(#34d4f92b6f)"><g clip-path="url(#a9925bfdbb)"><path fill="#fbc6a2" d="M 248.269531 154.839844 L 243.078125 153.410156 L 248.917969 127.550781 C 250.253906 121.648438 255.671875 118.054688 261.019531 119.527344 C 265.742188 120.824219 268.910156 125.683594 268.558594 131.039062 C 268.425781 133.113281 268.175781 135.320312 267.769531 137.640625 C 267.414062 139.683594 266.96875 141.613281 266.46875 143.421875 C 264.105469 151.96875 256.125 157 248.269531 154.839844 Z M 248.269531 154.839844 " fill-opacity="1" fill-rule="nonzero"/></g></g><g clip-path="url(#6fc72237c7)"><g clip-path="url(#ba8ebdfcc9)"><path fill="#fbc6a2" d="M 135.984375 154.839844 L 141.175781 153.410156 L 135.335938 127.550781 C 134 121.648438 128.582031 118.054688 123.234375 119.527344 C 118.515625 120.824219 115.34375 125.683594 115.695312 131.039062 C 115.832031 133.113281 116.078125 135.320312 116.484375 137.640625 C 116.839844 139.683594 117.285156 141.613281 117.785156 143.421875 C 120.148438 151.96875 128.128906 157 135.984375 154.839844 Z M 135.984375 154.839844 " fill-opacity="1" fill-rule="nonzero"/></g></g><g clip-path="url(#9c6c48de30)"><g clip-path="url(#e058f25b11)"><path fill="#231f20" d="M 135.589844 129.089844 C 138.074219 122.335938 138.773438 117.425781 138.925781 114.101562 C 138.988281 112.757812 139.066406 109.414062 140.171875 105.140625 C 140.679688 103.164062 141.253906 101.585938 141.667969 100.542969 C 141.625 101.699219 141.683594 104.355469 143.257812 107.007812 C 144.0625 108.363281 145.003906 109.285156 145.722656 109.871094 C 147.605469 98.28125 150.699219 92.71875 153.273438 89.785156 C 153.816406 89.167969 155.058594 87.847656 156.128906 85.652344 C 158.164062 81.492188 158.117188 77.199219 157.773438 74.261719 C 162.582031 77.324219 166.742188 79.066406 169.652344 80.089844 C 175.792969 82.253906 179.882812 82.464844 184.675781 86.132812 C 187.046875 87.941406 188.65625 89.890625 189.632812 91.21875 C 189.859375 90.429688 190.222656 88.769531 189.785156 86.769531 C 189.171875 83.96875 187.402344 82.371094 186.828125 81.894531 C 190.679688 85.101562 194.125 87.035156 196.546875 88.199219 C 202.574219 91.101562 205.789062 90.972656 210.367188 94.078125 C 213.984375 96.539062 216.304688 99.558594 217.679688 101.675781 C 217.613281 99.5625 217.292969 96.464844 216.074219 92.96875 C 214.777344 89.242188 212.980469 86.539062 211.667969 84.859375 C 218.050781 87.574219 221.71875 91.148438 223.886719 93.921875 C 228.691406 100.054688 228.582031 105.332031 234.707031 110.1875 C 237.632812 112.511719 238.5625 112.023438 242.117188 114.214844 C 246 116.609375 251.046875 120.984375 255.441406 129.6875 C 266.652344 99.3125 261.402344 67.09375 242.519531 48.617188 C 229.722656 36.097656 214.273438 33.417969 206.863281 32.722656 C 207.101562 32.246094 207.480469 31.648438 208.0625 31.097656 C 209.601562 29.640625 211.457031 29.546875 212.070312 29.542969 C 208.136719 27.875 201 25.519531 192.058594 26.296875 C 177.675781 27.550781 167.203125 33.40625 164.15625 36.414062 C 161.855469 34.9375 157.117188 34.371094 149.566406 35.054688 C 136.003906 36.277344 129.035156 49.023438 128.390625 50.25 L 135.34375 45.015625 C 131.597656 49.054688 128.984375 53.136719 127.128906 56.882812 C 112.164062 87.128906 132.574219 123.839844 135.585938 129.089844 Z M 135.589844 129.089844 " fill-opacity="1" fill-rule="nonzero"/></g></g></svg>