<svg xmlns="http://www.w3.org/2000/svg" xmlns:xlink="http://www.w3.org/1999/xlink" width="512" zoomAndPan="magnify" viewBox="0 0 384 383.999986" height="512" preserveAspectRatio="xMidYMid meet" version="1.0"><rect x="-38.4" width="460.8" fill="#ffffff" y="-38.399999" height="460.799983" fill-opacity="1"/><rect x="-38.4" width="460.8" fill="#ffffff" y="-38.399999" height="460.799983" fill-opacity="1"/><path fill="#e6e6e6" d="M 384 191.996094 C 384 195.140625 383.921875 198.277344 383.769531 201.417969 C 383.613281 204.554688 383.382812 207.6875 383.074219 210.816406 C 382.765625 213.941406 382.382812 217.058594 381.921875 220.167969 C 381.460938 223.277344 380.921875 226.371094 380.3125 229.453125 C 379.699219 232.535156 379.007812 235.601562 378.246094 238.648438 C 377.480469 241.695312 376.644531 244.722656 375.734375 247.730469 C 374.820312 250.738281 373.835938 253.722656 372.777344 256.679688 C 371.71875 259.636719 370.585938 262.570312 369.382812 265.472656 C 368.183594 268.375 366.910156 271.246094 365.566406 274.085938 C 364.222656 276.925781 362.808594 279.734375 361.328125 282.503906 C 359.847656 285.277344 358.300781 288.007812 356.683594 290.703125 C 355.066406 293.398438 353.386719 296.054688 351.640625 298.664062 C 349.894531 301.277344 348.085938 303.847656 346.214844 306.371094 C 344.34375 308.894531 342.410156 311.371094 340.417969 313.800781 C 338.425781 316.230469 336.371094 318.605469 334.261719 320.9375 C 332.152344 323.265625 329.984375 325.539062 327.765625 327.761719 C 325.542969 329.984375 323.265625 332.148438 320.9375 334.257812 C 318.609375 336.367188 316.230469 338.421875 313.804688 340.414062 C 311.375 342.40625 308.898438 344.339844 306.375 346.210938 C 303.851562 348.082031 301.28125 349.894531 298.667969 351.636719 C 296.054688 353.382812 293.402344 355.066406 290.707031 356.679688 C 288.011719 358.296875 285.277344 359.84375 282.507812 361.324219 C 279.738281 362.804688 276.929688 364.21875 274.089844 365.5625 C 271.25 366.90625 268.378906 368.179688 265.476562 369.382812 C 262.570312 370.582031 259.640625 371.714844 256.683594 372.773438 C 253.722656 373.832031 250.742188 374.816406 247.734375 375.730469 C 244.726562 376.640625 241.699219 377.480469 238.652344 378.242188 C 235.605469 379.003906 232.539062 379.695312 229.457031 380.308594 C 226.375 380.921875 223.28125 381.457031 220.171875 381.917969 C 217.0625 382.378906 213.945312 382.765625 210.820312 383.070312 C 207.691406 383.378906 204.558594 383.609375 201.421875 383.765625 C 198.28125 383.917969 195.140625 383.996094 192 383.996094 C 188.859375 383.996094 185.71875 383.917969 182.578125 383.765625 C 179.441406 383.609375 176.308594 383.378906 173.179688 383.070312 C 170.054688 382.765625 166.9375 382.378906 163.828125 381.917969 C 160.71875 381.457031 157.625 380.921875 154.542969 380.308594 C 151.460938 379.695312 148.394531 379.003906 145.347656 378.242188 C 142.300781 377.480469 139.273438 376.640625 136.265625 375.730469 C 133.257812 374.816406 130.277344 373.832031 127.316406 372.773438 C 124.359375 371.714844 121.425781 370.582031 118.523438 369.382812 C 115.621094 368.179688 112.75 366.90625 109.910156 365.5625 C 107.070312 364.21875 104.261719 362.804688 101.492188 361.324219 C 98.71875 359.84375 95.988281 358.296875 93.292969 356.679688 C 90.597656 355.066406 87.941406 353.382812 85.332031 351.636719 C 82.71875 349.894531 80.148438 348.085938 77.625 346.210938 C 75.101562 344.339844 72.625 342.40625 70.195312 340.414062 C 67.765625 338.421875 65.390625 336.367188 63.058594 334.257812 C 60.730469 332.148438 58.457031 329.984375 56.234375 327.761719 C 54.011719 325.539062 51.847656 323.265625 49.738281 320.9375 C 47.628906 318.605469 45.574219 316.230469 43.582031 313.800781 C 41.589844 311.371094 39.65625 308.894531 37.785156 306.371094 C 35.910156 303.847656 34.101562 301.277344 32.359375 298.664062 C 30.613281 296.054688 28.929688 293.398438 27.316406 290.703125 C 25.699219 288.007812 24.152344 285.277344 22.671875 282.503906 C 21.191406 279.734375 19.777344 276.925781 18.433594 274.085938 C 17.089844 271.246094 15.816406 268.375 14.613281 265.472656 C 13.414062 262.570312 12.28125 259.636719 11.222656 256.679688 C 10.164062 253.722656 9.179688 250.738281 8.265625 247.730469 C 7.355469 244.722656 6.515625 241.695312 5.753906 238.648438 C 4.992188 235.601562 4.300781 232.535156 3.6875 229.453125 C 3.074219 226.371094 2.539062 223.277344 2.078125 220.167969 C 1.617188 217.058594 1.230469 213.941406 0.925781 210.816406 C 0.617188 207.6875 0.386719 204.554688 0.230469 201.417969 C 0.078125 198.277344 0 195.140625 0 191.996094 C 0 188.855469 0.078125 185.714844 0.230469 182.574219 C 0.386719 179.4375 0.617188 176.304688 0.925781 173.175781 C 1.230469 170.050781 1.617188 166.933594 2.078125 163.824219 C 2.539062 160.714844 3.074219 157.621094 3.6875 154.539062 C 4.300781 151.457031 4.992188 148.390625 5.753906 145.34375 C 6.515625 142.296875 7.355469 139.269531 8.265625 136.261719 C 9.179688 133.253906 10.164062 130.273438 11.222656 127.3125 C 12.28125 124.355469 13.414062 121.425781 14.613281 118.519531 C 15.816406 115.617188 17.089844 112.746094 18.433594 109.90625 C 19.777344 107.066406 21.191406 104.257812 22.671875 101.488281 C 24.152344 98.71875 25.699219 95.984375 27.316406 93.289062 C 28.929688 90.59375 30.613281 87.941406 32.359375 85.328125 C 34.101562 82.714844 35.910156 80.144531 37.785156 77.621094 C 39.65625 75.097656 41.589844 72.621094 43.582031 70.191406 C 45.574219 67.765625 47.628906 65.386719 49.738281 63.058594 C 51.847656 60.730469 54.011719 58.453125 56.234375 56.230469 C 58.457031 54.011719 60.730469 51.84375 63.0625 49.734375 C 65.390625 47.625 67.765625 45.570312 70.195312 43.578125 C 72.625 41.585938 75.101562 39.652344 77.625 37.78125 C 80.148438 35.910156 82.71875 34.101562 85.332031 32.355469 C 87.941406 30.609375 90.597656 28.929688 93.292969 27.3125 C 95.988281 25.695312 98.71875 24.148438 101.492188 22.667969 C 104.261719 21.1875 107.070312 19.773438 109.910156 18.429688 C 112.75 17.085938 115.621094 15.8125 118.523438 14.613281 C 121.425781 13.410156 124.359375 12.277344 127.316406 11.21875 C 130.277344 10.160156 133.257812 9.175781 136.265625 8.265625 C 139.273438 7.351562 142.300781 6.515625 145.347656 5.75 C 148.394531 4.988281 151.460938 4.296875 154.542969 3.6875 C 157.625 3.074219 160.71875 2.535156 163.828125 2.074219 C 166.9375 1.613281 170.054688 1.230469 173.179688 0.921875 C 176.308594 0.613281 179.441406 0.382812 182.578125 0.226562 C 185.71875 0.0742188 188.859375 -0.00390625 192 -0.00390625 C 195.140625 -0.00390625 198.28125 0.0742188 201.421875 0.226562 C 204.558594 0.382812 207.691406 0.613281 210.820312 0.921875 C 213.945312 1.230469 217.0625 1.613281 220.171875 2.074219 C 223.28125 2.535156 226.375 3.074219 229.457031 3.6875 C 232.539062 4.296875 235.605469 4.988281 238.652344 5.75 C 241.699219 6.515625 244.726562 7.351562 247.734375 8.265625 C 250.742188 9.175781 253.722656 10.160156 256.683594 11.21875 C 259.640625 12.277344 262.570312 13.410156 265.476562 14.613281 C 268.378906 15.8125 271.25 17.085938 274.089844 18.429688 C 276.929688 19.773438 279.738281 21.1875 282.507812 22.667969 C 285.277344 24.148438 288.011719 25.695312 290.707031 27.3125 C 293.402344 28.929688 296.054688 30.609375 298.667969 32.355469 C 301.28125 34.101562 303.851562 35.910156 306.375 37.78125 C 308.898438 39.652344 311.375 41.585938 313.804688 43.578125 C 316.230469 45.570312 318.609375 47.625 320.9375 49.734375 C 323.265625 51.84375 325.542969 54.011719 327.765625 56.230469 C 329.984375 58.453125 332.152344 60.730469 334.261719 63.058594 C 336.371094 65.386719 338.425781 67.765625 340.417969 70.191406 C 342.410156 72.621094 344.34375 75.097656 346.214844 77.621094 C 348.085938 80.144531 349.894531 82.714844 351.640625 85.328125 C 353.386719 87.941406 355.066406 90.59375 356.683594 93.289062 C 358.300781 95.984375 359.847656 98.71875 361.328125 101.488281 C 362.808594 104.257812 364.222656 107.066406 365.566406 109.90625 C 366.910156 112.746094 368.183594 115.617188 369.382812 118.519531 C 370.585938 121.425781 371.71875 124.355469 372.777344 127.3125 C 373.835938 130.273438 374.820312 133.253906 375.734375 136.261719 C 376.644531 139.269531 377.480469 142.296875 378.246094 145.34375 C 379.007812 148.390625 379.699219 151.457031 380.3125 154.539062 C 380.921875 157.621094 381.460938 160.714844 381.921875 163.824219 C 382.382812 166.933594 382.765625 170.050781 383.074219 173.175781 C 383.382812 176.304688 383.613281 179.4375 383.769531 182.574219 C 383.921875 185.714844 384 188.855469 384 191.996094 Z M 384 191.996094 " fill-opacity="1" fill-rule="nonzero"/><path fill="#1a1617" d="M 132.652344 223.542969 C 131.988281 224.066406 131.007812 224.277344 128.488281 225.152344 C 115.269531 229.730469 102.121094 235.152344 89.039062 241.554688 C 80.789062 245.574219 81.589844 244.105469 78.023438 252.464844 C 68.828125 273.867188 60.082031 296.25 53.648438 317.757812 C 75.296875 341.085938 102.785156 358.921875 133.769531 368.957031 C 145.417969 372.105469 157.515625 374.695312 169.863281 376.828125 C 176.507812 377.597656 183.292969 378.050781 190.148438 378.121094 L 194.378906 378.121094 C 201.058594 378.015625 207.632812 377.597656 214.136719 376.828125 C 226.449219 374.695312 238.585938 372.105469 250.230469 368.957031 C 281.214844 358.921875 308.667969 341.085938 330.351562 317.757812 C 323.917969 296.25 315.175781 273.867188 305.976562 252.464844 C 302.410156 244.105469 303.214844 245.574219 294.925781 241.554688 C 281.878906 235.152344 268.730469 229.730469 255.511719 225.152344 C 253.726562 224.519531 252.746094 224.242188 252.046875 223.960938 L 251.875 223.542969 C 249.355469 219.207031 246.382812 215.183594 242.992188 211.40625 C 259.042969 212.527344 272.089844 208.539062 280.273438 198.640625 C 288.175781 189.023438 288.628906 181.890625 289.050781 170.242188 C 289.855469 147.40625 288.105469 122.855469 281.808594 99.984375 C 275.691406 77.636719 265.269531 56.898438 248.726562 40.949219 C 232.882812 25.703125 214.382812 13.671875 192 13.671875 C 176.226562 13.671875 162.554688 16.574219 152.902344 31.855469 C 143.386719 30.632812 138.210938 34.863281 131.882812 40.949219 C 115.339844 56.898438 104.917969 77.636719 98.796875 99.984375 C 92.503906 122.855469 90.753906 147.40625 91.558594 170.242188 C 91.980469 181.890625 92.398438 189.023438 100.335938 198.640625 C 109.082031 209.238281 123.417969 213.050781 141.011719 211.125 L 141.21875 211.125 C 137.96875 214.835938 135.136719 218.996094 132.652344 223.542969 Z M 132.652344 223.542969 " fill-opacity="1" fill-rule="nonzero"/><path fill="#3d3d3d" d="M 141.011719 211.160156 C 144.472656 207.453125 148.597656 203.992188 153.214844 200.703125 L 155.628906 189.511719 C 147.269531 179.792969 140.976562 166.78125 137.828125 151.917969 C 131.496094 152.058594 124.816406 144.679688 122.230469 134.117188 C 120.132812 125.722656 119.992188 118.9375 122.335938 114.636719 C 126.320312 107.328125 133.457031 111.875 136.289062 117.296875 C 138.910156 95.121094 148.320312 76.097656 161.503906 64.417969 C 171.050781 75.1875 182.347656 84.105469 197.210938 85.75 C 225.644531 88.898438 240.683594 99.003906 247.539062 115.792969 C 250.753906 111.105469 256.945312 108.027344 260.582031 114.636719 C 262.890625 118.9375 262.75 125.722656 260.6875 134.117188 C 258.238281 144.050781 252.1875 151.183594 246.207031 151.847656 C 243.128906 166.222656 237.183594 178.847656 229.246094 188.464844 L 229.070312 189.515625 L 231.625 201.300781 C 235.613281 203.992188 239.597656 207.382812 242.816406 211.476562 C 258.9375 212.628906 272.054688 208.644531 280.273438 198.710938 C 288.175781 189.09375 288.628906 181.960938 289.050781 170.3125 C 289.855469 147.476562 288.105469 122.890625 281.808594 100.019531 C 275.691406 77.671875 265.269531 56.933594 248.726562 41.019531 C 232.882812 25.773438 214.382812 13.707031 192 13.707031 C 176.226562 13.707031 162.554688 16.644531 152.902344 31.890625 C 143.386719 30.667969 138.210938 34.933594 131.882812 41.019531 C 115.339844 56.933594 104.917969 77.671875 98.796875 100.019531 C 92.503906 122.890625 90.753906 147.476562 91.558594 170.3125 C 91.980469 181.960938 92.398438 189.09375 100.335938 198.710938 C 109.082031 209.308594 123.417969 213.121094 141.011719 211.160156 Z M 141.011719 211.160156 " fill-opacity="1" fill-rule="nonzero"/><path fill="#f6d5b8" d="M 247.535156 115.792969 C 250.753906 111.105469 256.945312 108.027344 260.582031 114.636719 C 262.890625 118.9375 262.75 125.722656 260.6875 134.117188 C 258.238281 144.050781 252.1875 151.183594 246.207031 151.847656 C 243.128906 166.222656 237.183594 178.847656 229.246094 188.464844 L 229.070312 189.515625 L 231.519531 200.738281 L 231.308594 200.703125 C 231.519531 201.371094 231.730469 202 231.902344 202.628906 L 232.007812 203.011719 C 232.847656 206.089844 233.652344 209.34375 234.351562 212.804688 C 239.214844 240.679688 229.246094 266.769531 217.496094 293.800781 C 210.992188 300.726562 201.234375 306.078125 192.351562 305.691406 C 183.328125 306.078125 173.359375 300.550781 166.890625 293.417969 C 155.945312 268.273438 146.605469 243.894531 149.402344 218.121094 C 150.242188 212.699219 151.433594 207.59375 152.726562 203.011719 L 153.214844 200.703125 L 155.628906 189.515625 C 147.269531 179.792969 140.976562 166.78125 137.828125 151.917969 C 131.496094 152.058594 124.816406 144.679688 122.230469 134.117188 C 120.132812 125.722656 119.992188 118.9375 122.335938 114.636719 C 126.320312 107.328125 133.457031 111.875 136.289062 117.296875 C 138.910156 95.121094 148.320312 76.097656 161.503906 64.417969 C 171.050781 75.1875 182.347656 84.105469 197.210938 85.75 C 225.644531 88.898438 240.683594 99.003906 247.535156 115.792969 Z M 247.535156 115.792969 " fill-opacity="1" fill-rule="nonzero"/><path fill="#e6c6aa" d="M 137.339844 149.539062 C 136.078125 143.734375 135.414062 137.859375 135.273438 131.949219 C 135.167969 128.136719 135.308594 124.359375 135.660156 120.546875 C 135.34375 120.128906 135.03125 119.707031 134.644531 119.289062 C 133.457031 117.996094 131.289062 116.316406 129.328125 116.457031 C 127.859375 116.59375 126.917969 117.785156 126.320312 118.902344 C 123.839844 123.378906 125.480469 130.898438 126.8125 135.480469 C 127.964844 139.398438 129.992188 143.453125 132.964844 146.460938 C 134.121094 147.652344 135.660156 148.839844 137.339844 149.539062 Z M 246.3125 149.539062 C 247.570312 143.734375 248.238281 137.859375 248.375 131.949219 C 248.480469 128.136719 248.339844 124.359375 247.992188 120.546875 C 248.304688 120.128906 248.621094 119.707031 249.007812 119.289062 C 250.195312 117.996094 252.363281 116.316406 254.320312 116.457031 C 255.789062 116.59375 256.734375 117.785156 257.363281 118.902344 C 259.8125 123.378906 258.167969 130.898438 256.839844 135.480469 C 255.6875 139.398438 253.65625 143.453125 250.683594 146.460938 C 249.53125 147.652344 248.027344 148.839844 246.3125 149.539062 Z M 246.3125 149.539062 " fill-opacity="1" fill-rule="nonzero"/><path fill="#e6c6aa" d="M 155.628906 189.511719 Z M 231.519531 200.738281 L 229.070312 189.511719 L 229.246094 188.464844 C 219.3125 200.496094 206.269531 207.804688 192 207.804688 C 178.152344 207.804688 165.457031 200.914062 155.628906 189.511719 L 154.929688 192.695312 C 159.019531 198.222656 163.707031 202.59375 168.917969 206.019531 C 175.949219 210.601562 183.886719 213.46875 192.558594 215.042969 C 201.546875 216.6875 211.304688 216.933594 221.550781 216.300781 C 224.210938 216.128906 223.789062 215.671875 224.488281 218.296875 C 232.988281 251.625 218.507812 305.972656 167.203125 293.765625 C 173.675781 300.726562 183.46875 306.078125 192.351562 305.691406 C 201.234375 306.078125 210.992188 300.726562 217.496094 293.800781 C 230.226562 264.496094 242.082031 232.738281 231.519531 200.738281 Z M 231.519531 200.738281 " fill-opacity="1" fill-rule="nonzero"/><path fill="#e6c6aa" d="M 247.535156 115.792969 C 240.683594 99.003906 225.644531 88.898438 197.210938 85.75 C 182.347656 84.105469 171.050781 75.1875 161.503906 64.417969 C 148.320312 76.097656 138.910156 95.121094 136.289062 117.261719 C 143.878906 101.59375 149.859375 83.617188 161.121094 72.566406 C 175.738281 107.152344 225.433594 85.46875 247.535156 115.792969 Z M 247.535156 115.792969 " fill-opacity="1" fill-rule="nonzero"/><path fill="#383032" d="M 251.875 223.542969 C 253.621094 227.355469 255.125 231.269531 256.316406 235.292969 C 257.503906 239.316406 258.378906 243.476562 258.902344 247.742188 C 259.042969 248.933594 259.21875 249.597656 259.183594 250.226562 C 259.183594 250.820312 258.9375 251.414062 258.273438 252.394531 C 256.945312 254.421875 255.371094 256.277344 253.515625 258.058594 C 251.664062 259.808594 249.566406 261.453125 247.257812 263.027344 L 255.582031 271.910156 L 263.9375 280.792969 L 228.09375 326.535156 L 192.28125 372.28125 L 156.433594 326.535156 L 120.585938 280.792969 L 128.945312 271.910156 L 137.269531 263.027344 C 134.960938 261.453125 132.863281 259.808594 131.007812 258.058594 C 129.191406 256.277344 127.582031 254.421875 126.25 252.394531 C 125.585938 251.414062 125.34375 250.820312 125.34375 250.226562 C 125.308594 249.597656 125.484375 248.933594 125.621094 247.742188 C 126.148438 243.476562 127.019531 239.316406 128.210938 235.292969 C 129.398438 231.269531 130.902344 227.355469 132.652344 223.542969 C 135.238281 218.820312 138.175781 214.519531 141.605469 210.671875 C 144.996094 206.824219 148.84375 203.503906 153.214844 200.703125 C 144.019531 228.542969 150.871094 254.351562 161.46875 280.582031 C 172.066406 306.847656 186.441406 333.566406 192.28125 363.292969 C 198.085938 333.566406 212.496094 306.847656 223.160156 280.617188 C 233.828125 254.351562 240.71875 228.578125 231.519531 200.738281 C 235.785156 204.027344 239.597656 207.523438 242.992188 211.335938 C 246.382812 215.113281 249.355469 219.171875 251.875 223.542969 Z M 251.875 223.542969 " fill-opacity="1" fill-rule="nonzero"/><path fill="#ffffff" d="M 192.28125 363.292969 C 197.105469 338.53125 207.878906 315.871094 217.496094 293.800781 C 210.992188 300.726562 201.234375 306.078125 192.351562 305.691406 C 183.46875 306.078125 173.675781 300.726562 167.203125 293.765625 C 167.101562 293.664062 166.996094 293.523438 166.890625 293.417969 C 176.507812 315.589844 187.382812 338.390625 192.28125 363.292969 Z M 192.28125 363.292969 " fill-opacity="1" fill-rule="nonzero"/></svg>